<svg height="512" viewBox="0 0 512 512" width="512" xmlns="http://www.w3.org/2000/svg"><g id="filled_outline" data-name="filled outline"><path d="m232 352 24 56 24-56z" fill="#e6e5e0"/><g fill="#c7830b"><path d="m280 168h-48a133.728 133.728 0 0 0 -56 108.819v4.731a80 80 0 0 0 30.024 62.469 80 80 0 0 0 99.952 0 80 80 0 0 0 30.024-62.469v-4.731a133.728 133.728 0 0 0 -56-108.819z"/><path d="m321.37 216h-129.37l.29-3.14a133.657 133.657 0 0 1 39.71-44.86h48a133.633 133.633 0 0 1 41.37 48z"/><path d="m336 276.82v4.73a79.915 79.915 0 0 1 -6.02 30.45h-147.96a79.915 79.915 0 0 1 -6.02-30.45v-4.73q0-6.45.62-12.82h158.76q.62 6.36.62 12.82z"/></g><path d="m336 276.82v4.73a79.915 79.915 0 0 1 -6.02 30.45h-147.96a79.915 79.915 0 0 1 -6.02-30.45v-4.73q0-6.45.62-12.82h158.76q.62 6.36.62 12.82z" fill="#a86e09"/><path d="m321.37 216h-129.37l.29-3.14a133.657 133.657 0 0 1 39.71-44.86h48a133.633 133.633 0 0 1 41.37 48z" fill="#a86e09"/><circle cx="256" cy="136" fill="#d78e0c" r="56"/><path d="m248 192-107.856-37.75a66.979 66.979 0 0 0 -79.981 29.47 91.7 91.7 0 0 0 1.845 95.436l6.252 9.825a66.979 66.979 0 0 0 56.507 31.019 66.977 66.977 0 0 0 55.193-29.033z" fill="#eae9e4"/><path d="m263.672 192 107.856-37.75a66.979 66.979 0 0 1 79.981 29.47 91.7 91.7 0 0 1 -1.845 95.436l-6.253 9.825a66.976 66.976 0 0 1 -56.506 31.019 66.977 66.977 0 0 1 -55.192-29.033z" fill="#eae9e4"/><path d="m458.419 179.688a75.1 75.1 0 0 0 -89.534-32.988l-56.646 19.827a63.978 63.978 0 0 0 -42.947-93.127l5.22-8.7a34.561 34.561 0 0 1 29.488-16.7 8 8 0 0 0 0-16 50.643 50.643 0 0 0 -43.208 24.464l-4.792 7.987-4.792-7.987a50.643 50.643 0 0 0 -43.208-24.464 8 8 0 0 0 0 16 34.561 34.561 0 0 1 29.488 16.7l5.221 8.7a63.97 63.97 0 0 0 -42.865 93.273l-57.057-19.973a75.1 75.1 0 0 0 -89.534 32.989 99.329 99.329 0 0 0 2.006 103.761l6.252 9.825a74.627 74.627 0 0 0 63.25 34.725h.017.036a74.959 74.959 0 0 0 48.105-17.5 87.692 87.692 0 0 0 56.06 54.765l19.668 45.891a8 8 0 0 0 14.706 0l19.668-45.891a87.692 87.692 0 0 0 55.986-54.553 74.954 74.954 0 0 0 47.85 17.288h.037.017a74.627 74.627 0 0 0 63.25-34.725l6.253-9.825a99.331 99.331 0 0 0 2.005-103.762zm-84.249-17.888a59.1 59.1 0 0 1 65.038 18.227l-64.629 43.086-86.908-31.038zm-118.17-73.8a47.994 47.994 0 0 1 22.8 90.229l-14.28 5a47.584 47.584 0 0 1 -17.712-.121l-12.9-4.516a47.987 47.987 0 0 1 22.092-90.592zm19.964 136 22 32h-84.256l22-32zm-29.256-16 5.58-8.116c1.229.071 2.465.116 3.712.116 1.141 0 2.274-.033 3.4-.092l5.564 8.092zm-128.617-49.5a58.7 58.7 0 0 1 19.41 3.3l86.499 30.276-86.908 31.038-64.635-43.09a59.18 59.18 0 0 1 45.634-21.524zm-.314 153.088a58.654 58.654 0 0 1 -42.767-26.9l-6.253-9.826a83.344 83.344 0 0 1 -4.784-81.262l63.464 42.31zm16.172-.33 9.365-73.372 84.077-30.028-54.023 78.58a58.948 58.948 0 0 1 -39.419 24.817zm122.051 76.433-7.934-18.513c2.632.241 5.279.372 7.934.372s5.3-.131 7.934-.372zm44.978-49.919a71.943 71.943 0 0 1 -105.83-17.772h121.705a72 72 0 0 1 -15.875 17.772zm23.432-33.772h-136.82a71.852 71.852 0 0 1 -1.946-7.221c.305-.425 17.064-24.779 17.064-24.779h106.256s16.925 24.6 17.318 25.136c-.515 2.324-1.134 4.617-1.872 6.864zm13.89-17.565-54.023-78.579 84.077 30.027 9.365 73.372a58.948 58.948 0 0 1 -39.419-24.82zm104.615-11.575-6.253 9.826a58.656 58.656 0 0 1 -42.767 26.9l-9.66-75.679 63.465-42.307a83.346 83.346 0 0 1 -4.785 81.26z"/><path d="m266.3 448.072-4.053-5.072a8 8 0 1 0 -12.494 10l4.055 5.069a101.756 101.756 0 0 0 6.85 7.721 8 8 0 1 0 11.412-11.215 85.705 85.705 0 0 1 -5.77-6.503z"/><path d="m330.273 399.752a8 8 0 0 0 -10.9 3.019 51.215 51.215 0 0 0 -5.208 37.246 8 8 0 0 0 15.555-3.748 35.216 35.216 0 0 1 3.575-25.614 8 8 0 0 0 -3.022-10.903z"/><path d="m379.323 463.153a73 73 0 0 1 -8.123 5.87 82.852 82.852 0 0 1 -26.6-11.575 8 8 0 0 0 -8.845 13.334 99.079 99.079 0 0 0 14.687 8.051 8 8 0 0 0 7.873 13.407 88.416 88.416 0 0 0 31.246-16.786 8 8 0 0 0 -10.233-12.3z"/><path d="m324.619 479.612a84.791 84.791 0 0 1 -28.482-7.885 8 8 0 1 0 -6.883 14.443 100.78 100.78 0 0 0 33.839 9.37c.26.024.517.037.772.037a8 8 0 0 0 .754-15.965z"/><path d="m401.292 451.354a8 8 0 0 0 10.387-4.488 51.3 51.3 0 0 0 .044-37.606 8 8 0 1 0 -14.9 5.838 35.321 35.321 0 0 1 2.445 12.942 34.917 34.917 0 0 1 -2.465 12.928 8 8 0 0 0 4.489 10.386z"/><path d="m353.389 394.366a35.418 35.418 0 0 1 10.651-1.637 34.789 34.789 0 0 1 15.15 3.437 8 8 0 0 0 6.913-14.43 50.665 50.665 0 0 0 -22.063-5.007 51.434 51.434 0 0 0 -15.456 2.375 8 8 0 0 0 4.805 15.262z"/><path d="m431.164 462.656-16.164 4.973a83.475 83.475 0 0 1 -13.882 3 8 8 0 1 0 2.035 15.869 99.493 99.493 0 0 0 16.552-3.58l16.163-4.973a8 8 0 0 0 -4.705-15.293z"/><path d="m477.647 448.354-15.292 4.705a8 8 0 1 0 4.7 15.293l15.293-4.706a8 8 0 1 0 -4.706-15.292z"/></g></svg>