<svg height="512" viewBox="0 0 512 512" width="512" xmlns="http://www.w3.org/2000/svg"><g id="filled_outline" data-name="filled outline"><path d="m139.646 280h-115.646v4.686a27.315 27.315 0 0 0 8 19.314 27.315 27.315 0 0 0 19.314 8h128.332z" fill="#d78e0c"/><path d="m179.646 312h-131.646v4.686a27.315 27.315 0 0 0 8 19.314 27.315 27.315 0 0 0 19.314 8h136.332z" fill="#c7830b"/><path d="m211.646 344h-139.646v4.686a27.315 27.315 0 0 0 8 19.314 27.315 27.315 0 0 0 19.314 8h152.332z" fill="#a86e09"/><path d="m355.363 212.479-4.07-4.479v-45.344a42.656 42.656 0 0 1 42.656-42.656h3.675a42.653 42.653 0 0 1 30.162 12.494l18.707 18.706s.8-20.477.8-23.2a64 64 0 0 0 -128 0v.177a21.286 21.286 0 0 1 -15.947 20.771q-3.936 1.017-7.836 2.187a215.86 215.86 0 0 0 -96.155 59.875l-64.062 68.99 69.332 68.392a135.482 135.482 0 0 0 98.617 38.971l1.816-.046a125.776 125.776 0 0 0 97.562-50.417l.962-1.285a195.539 195.539 0 0 0 36.83-87.615h-4.766a108.487 108.487 0 0 1 -80.283-35.521z" fill="#d5515e"/><path d="m243.65 248a8 8 0 0 1 -8 8h-78.36l9.52-10.39q2.625-2.865 5.36-5.61h63.48a8 8 0 0 1 8 8z" fill="#c34a56"/><path d="m272.48 216a8 8 0 0 1 -8 8h-74.23a189.318 189.318 0 0 1 24.2-16h50.03a8 8 0 0 1 8 8z" fill="#c34a56"/><path d="m446.493 151.2-18.707-18.706a42.653 42.653 0 0 0 -30.162-12.494h-3.675a42.656 42.656 0 0 0 -42.656 42.656v45.344l4.07 4.479a108.487 108.487 0 0 0 80.283 35.521h4.766q1.482-9.633 2.009-19.436z" fill="#dcdbd6"/><path d="m483.84 147.95-3.66.92a74.318 74.318 0 0 0 -23.28 10.3l-11.22 7.48.81-15.45s.8-20.48.8-23.2a65.147 65.147 0 0 0 -.33-6.58l37.71 16.16a5.489 5.489 0 0 1 -.83 10.37z" fill="#f7ba61"/><circle cx="391.293" cy="120" fill="#e6e5e0" r="16"/><path d="m307.646 184a119.562 119.562 0 0 1 -43.02 91.85l-5.333 4.15h25.34a74 74 0 0 0 56.848-26.626l.66-.792a74 74 0 0 0 17.152-47.374v-21.208z" fill="#d78e0c"/><path d="m307.646 184h-.772a190 190 0 0 0 -140.059 61.612l-31.522 34.388h124l5.333-4.15a119.562 119.562 0 0 0 43.02-91.85z" fill="#c34a56"/><path d="m40.036 318.159a35.328 35.328 0 0 0 24 32 35.3 35.3 0 0 0 35.277 33.841h144.558a144.511 144.511 0 0 0 37.729 10.223l21.929 87.717a8 8 0 0 0 7.761 6.06h24a8 8 0 0 0 0-16h-17.751l-19.153-76.611c.484 0 23.467-1.271 31.474-2.964l22.379 89.515a8 8 0 0 0 7.761 6.06h24a8 8 0 0 0 0-16h-17.754l-20.954-83.817a133.1 133.1 0 0 0 63.736-46.494l.954-1.275a202.884 202.884 0 0 0 40.429-111.452c.421-8.447 1.707-34.315 2.853-57.759l8.071-5.381a66.427 66.427 0 0 1 20.784-9.194l3.664-.916a13.488 13.488 0 0 0 2.042-25.482l-33.581-14.392a71.993 71.993 0 0 0 -142.952 12.162v.2a13.339 13.339 0 0 1 -9.948 13c-2.723.7-5.46 1.467-8.133 2.269a224.055 224.055 0 0 0 -99.719 62.094l-61.719 66.437h-107.773a8 8 0 0 0 -8 8v4.687a35.34 35.34 0 0 0 24.036 33.472zm415.029-184.559 19.72 8.452a82.224 82.224 0 0 0 -20.558 9.33c.354-7.349.649-13.591.838-17.782zm-393.408 196.743a19.174 19.174 0 0 1 -5.376-10.343h108.169l16.22 16h-105.357a19.187 19.187 0 0 1 -13.656-5.657zm37.656 37.657a19.285 19.285 0 0 1 -19.013-16h116.59l2.116 2.087a141.82 141.82 0 0 0 16.448 13.913zm297.87-37.187-.97 1.3a117.1 117.1 0 0 1 -91.355 47.212l-1.82.046a128.155 128.155 0 0 1 -92.8-36.669l-36.848-36.358-18.596-18.344h129.839a81.783 81.783 0 0 0 62.994-29.5l.66-.792a82.058 82.058 0 0 0 14.906-26.972 115.62 115.62 0 0 0 67.707 25.164 186.877 186.877 0 0 1 -33.717 74.913zm-116.748-58.813a127.09 127.09 0 0 0 34.954-80h35.9v13.208a66.121 66.121 0 0 1 -15.289 42.252l-.661.792a65.822 65.822 0 0 1 -50.706 23.748zm154-43.856q-.313 5.947-1 11.829a99.856 99.856 0 0 1 -66.5-27.147c.237-2.525.365-5.066.365-7.618v-21.208a8 8 0 0 0 -8-8v-13.344a34.7 34.7 0 0 1 20.453-31.6 15.971 15.971 0 0 0 24.95-2.334 34.41 34.41 0 0 1 17.434 9.427l15.94 15.951c-1.025 21.183-2.503 51.118-3.645 74.044zm-136.625-69.344c2.478-.743 5.014-1.451 7.537-2.1a29.34 29.34 0 0 0 21.945-28.583v-.117a56 56 0 0 1 112-.041c-.009.454-.076 2.043-.189 4.538l-5.66-5.66a50.274 50.274 0 0 0 -27.968-14.229 16 16 0 0 0 -29.475 2.692 50.731 50.731 0 0 0 -32.706 47.359v13.341h-36.42a197.862 197.862 0 0 0 -70.563 13.05 208.005 208.005 0 0 1 61.499-30.25zm-129.31 97.2h67.151a8 8 0 0 0 0-16h-51.9a181.588 181.588 0 0 1 20.125-16h60.612a8 8 0 0 0 0-16h-32.103a182.2 182.2 0 0 1 66.955-15.828 111.22 111.22 0 0 1 -39.84 77.533l-2.75 2.295h-103.112zm-36.484 32 16.22 16h-96.923a19.327 19.327 0 0 1 -19.032-16z"/><path d="m387.646 288a8 8 0 0 0 8-8v-8a8 8 0 0 0 -16 0v8a8 8 0 0 0 8 8z"/><path d="m355.646 272a8 8 0 0 0 -8 8v8a8 8 0 0 0 16 0v-8a8 8 0 0 0 -8-8z"/><path d="m379.646 328a8 8 0 0 0 8-8v-8a8 8 0 0 0 -16 0v8a8 8 0 0 0 8 8z"/><path d="m232 304h-16a8 8 0 0 0 0 16h16a8 8 0 0 0 0-16z"/><path d="m264 328h-16a8 8 0 0 0 0 16h16a8 8 0 0 0 0-16z"/></g></svg>