<svg height="512" viewBox="0 0 512 512" width="512" xmlns="http://www.w3.org/2000/svg"><g id="filled_outline" data-name="filled outline"><path d="m442.8 330.5-10.8 13.5-176-64 160-16 31.085 31.085c1.043 1.043 2.054 2.113 3.046 3.2a37.883 37.883 0 0 1 -7.331 32.215z" fill="#92d1f7"/><path d="m432 344a56.947 56.947 0 0 1 -38.165 63.388l-1.835.612-136-128z" fill="#5ebef7"/><path d="m392 408-1.681 4.2a56.948 56.948 0 0 1 -52.875 35.8h-.8l-80.644-168z" fill="#92d1f7"/><path d="m376 232 36.414 36.414-156.414 11.586v-8l16.512-10.32a195.257 195.257 0 0 1 103.488-29.68z" fill="#5ebef7"/><path d="m318.331 180.535 25.669-20.535 7.306 4.383a56 56 0 0 1 26.426 57.226l-1.732 10.391a195.257 195.257 0 0 0 -103.488 29.68l-16.512 10.32v-24l36.056-42.066a195.309 195.309 0 0 1 26.275-25.399z" fill="#92d1f7"/><path d="m303.822 148.282a203.938 203.938 0 0 1 22.4-29.235l.967.953a55.832 55.832 0 0 1 16.811 40l-25.669 20.535a195.309 195.309 0 0 0 -26.275 25.4l-36.056 42.065v-24z" fill="#5ebef7"/><path d="m69.2 330.5 10.8 13.5 176-64-160-16-31.085 31.085c-1.043 1.043-2.054 2.113-3.046 3.2a37.883 37.883 0 0 0 7.331 32.215z" fill="#92d1f7"/><path d="m80 344a56.947 56.947 0 0 0 38.165 63.388l1.835.612 136-128z" fill="#5ebef7"/><path d="m120 408 1.681 4.2a56.948 56.948 0 0 0 52.875 35.8h.8l80.644-168z" fill="#92d1f7"/><path d="m136 232-36.414 36.414 156.414 11.586v-8l-16.512-10.32a195.257 195.257 0 0 0 -103.488-29.68z" fill="#5ebef7"/><path d="m193.669 180.535-25.669-20.535-7.306 4.383a56 56 0 0 0 -26.426 57.226l1.732 10.391a195.257 195.257 0 0 1 103.488 29.68l16.512 10.32v-24l-36.056-42.066a195.309 195.309 0 0 0 -26.275-25.399z" fill="#92d1f7"/><path d="m208.178 148.282a203.938 203.938 0 0 0 -22.4-29.235l-.967.953a55.832 55.832 0 0 0 -16.811 40l25.669 20.535a195.309 195.309 0 0 1 26.275 25.4l36.056 42.065v-24z" fill="#5ebef7"/><path d="m280 256h-48a111.192 111.192 0 0 0 -.873 80.338l3.255 8.681a23.088 23.088 0 0 0 21.618 14.981 23.088 23.088 0 0 0 21.618-14.981l3.255-8.681a111.192 111.192 0 0 0 -.873-80.338z" fill="#915628"/><path d="m272 200h-32l-4.686 9.373a61.076 61.076 0 0 0 -3.314 46.627h48a61.076 61.076 0 0 0 -3.314-46.627z" fill="#a3612d"/><circle cx="256" cy="184" fill="#915628" r="24"/><path d="m390.319 412.2 1.681-4.2 1.835-.612a56.947 56.947 0 0 0 38.165-63.388l10.8-13.5a37.883 37.883 0 0 0 7.334-32.222 100.358 100.358 0 0 1 26 76.107 100.363 100.363 0 0 1 -46.134 76.343l-37.459 23.836a34.764 34.764 0 0 1 -18.665 5.436 34.764 34.764 0 0 1 -31.342-19.722l-5.894-12.278h.8a56.948 56.948 0 0 0 52.879-35.8z" fill="#0a71cd"/><path d="m121.681 412.2-1.681-4.2-1.835-.612a56.947 56.947 0 0 1 -38.165-63.388l-10.8-13.5a37.883 37.883 0 0 1 -7.334-32.222 100.358 100.358 0 0 0 -26 76.107 100.363 100.363 0 0 0 46.134 76.343l37.459 23.836a34.764 34.764 0 0 0 18.665 5.436 34.764 34.764 0 0 0 31.342-19.722l5.894-12.278h-.8a56.948 56.948 0 0 1 -52.879-35.8z" fill="#0a71cd"/><path d="m377.732 221.609a56 56 0 0 0 -26.426-57.226l-7.306-4.383a55.832 55.832 0 0 0 -16.808-40l-.967-.953a204 204 0 0 1 114.624-62.726l6.225-1.1a34.867 34.867 0 0 1 40.926 34.337 34.865 34.865 0 0 1 -10.212 24.654 53.1 53.1 0 0 0 -13.681 51.515l13.727 50.332a34.864 34.864 0 0 1 .552 16.012l-1.191 5.953a34.866 34.866 0 0 1 -31.613 27.933l-33.168 2.457-36.414-36.414z" fill="#007af6"/><circle cx="416" cy="120" fill="#d78e0c" r="24"/><circle cx="424" cy="208" fill="#a86e09" r="16"/><path d="m134.268 221.609a56 56 0 0 1 26.426-57.226l7.306-4.383a55.832 55.832 0 0 1 16.808-40l.967-.953a204 204 0 0 0 -114.624-62.726l-6.225-1.1a34.867 34.867 0 0 0 -40.926 34.337 34.865 34.865 0 0 0 10.212 24.654 53.1 53.1 0 0 1 13.681 51.515l-13.727 50.332a34.864 34.864 0 0 0 -.552 16.012l1.191 5.953a34.866 34.866 0 0 0 31.613 27.933l33.168 2.457 36.414-36.414z" fill="#007af6"/><circle cx="96" cy="120" fill="#d78e0c" r="24"/><circle cx="88" cy="208" fill="#a86e09" r="16"/><path d="m96 152a32 32 0 1 0 -32-32 32.036 32.036 0 0 0 32 32zm0-48a16 16 0 1 1 -16 16 16.019 16.019 0 0 1 16-16z"/><path d="m112 208a24 24 0 1 0 -24 24 24.027 24.027 0 0 0 24-24zm-24 8a8 8 0 1 1 8-8 8.009 8.009 0 0 1 -8 8z"/><path d="m496 89.558a42.866 42.866 0 0 0 -50.316-42.214l-6.225 1.1a212.424 212.424 0 0 0 -142.348 95.484l-14.7 22.036a32.263 32.263 0 0 0 -9.179-8.9l12.95-43.166a50.211 50.211 0 0 1 35.758-34.137 8 8 0 0 0 -3.88-15.522 66.283 66.283 0 0 0 -47.2 45.056l-12.833 42.776c-.67-.042-1.345-.071-2.026-.071s-1.356.029-2.026.071l-12.834-42.771a66.283 66.283 0 0 0 -47.2-45.056 8 8 0 0 0 -3.88 15.522 50.211 50.211 0 0 1 35.755 34.132l12.95 43.166a32.263 32.263 0 0 0 -9.179 8.9l-14.7-22.036a212.424 212.424 0 0 0 -142.346-95.486l-6.226-1.1a42.866 42.866 0 0 0 -37.76 72.525 45.191 45.191 0 0 1 11.619 43.753l-13.727 50.335a43.089 43.089 0 0 0 -.677 19.686l1.19 5.952a43 43 0 0 0 38.868 34.343l8.307.615-14.877 14.877a108.366 108.366 0 0 0 18.448 168.049l37.458 23.836a42.765 42.765 0 0 0 61.515-17.573l52.979-110.373a31.027 31.027 0 0 0 52.684 0l52.979 110.373a42.765 42.765 0 0 0 61.515 17.573l37.458-23.836a108.366 108.366 0 0 0 18.448-168.049l-14.877-14.877 8.308-.615a43 43 0 0 0 38.867-34.343l1.19-5.952a43.089 43.089 0 0 0 -.677-19.686l-13.727-50.334a45.19 45.19 0 0 1 11.619-43.752 42.585 42.585 0 0 0 12.555-30.311zm-240 78.442a16 16 0 1 1 -16 16 16.019 16.019 0 0 1 16-16zm-13.546 44.982a31.909 31.909 0 0 0 27.092 0 52.666 52.666 0 0 1 4.375 35.018h-35.842a52.666 52.666 0 0 1 4.375-35.018zm-4.889 51.018h36.87a103.264 103.264 0 0 1 4.05 16h-44.97a103.264 103.264 0 0 1 4.05-16zm-170.555-6.021a26.951 26.951 0 0 1 -24.361-21.525l-1.19-5.952a27 27 0 0 1 .425-12.338l13.727-50.332a61.232 61.232 0 0 0 -15.742-59.277 26.867 26.867 0 0 1 23.666-45.455l6.225 1.1a196.415 196.415 0 0 1 104.99 54.937 63.316 63.316 0 0 0 -14.587 36.238l-3.584 2.15a63.643 63.643 0 0 0 -30.2 65.4l1.055 6.329-29.091 29.089a8 8 0 0 0 -1.379 1.854zm2.271 44.09c.427-.444.854-.89 1.291-1.327l24.628-24.631 121.351 8.989a7.756 7.756 0 0 0 -.271.831l-133.619 48.589-7.211-9.013a29.872 29.872 0 0 1 -6.169-23.438zm147.1 4.238-98.308 92.525a48.663 48.663 0 0 1 -30.722-48.991l128.822-46.841c.054 1.1.12 2.2.204 3.307zm-54.127 150.509a26.765 26.765 0 0 1 -38.5 11l-37.454-23.837a92.386 92.386 0 0 1 -31.117-122.873 45.889 45.889 0 0 0 7.773 14.4l8.66 10.825a64.587 64.587 0 0 0 42.314 68.04l.323.807a65 65 0 0 0 48.881 39.809zm8.159-17a48.98 48.98 0 0 1 -40.954-29.735l89.953-84.663q.952 3.915 2.177 7.781zm48.973-170.554-101.8-7.54 21.672-21.672a187.7 187.7 0 0 1 82.507 20.754q-1.349 4.196-2.379 8.461zm1.732-26.551a203.823 203.823 0 0 0 -78.318-18.592l-.638-3.825a47.735 47.735 0 0 1 22.652-49.051l2.535-1.521 21.325 17.06a187.721 187.721 0 0 1 25.2 24.359l8.713 10.166a68.227 68.227 0 0 0 -1.469 21.407zm7.861-38.53-2.961-3.455a203.823 203.823 0 0 0 -27.351-26.441l-22.511-18.009a47.457 47.457 0 0 1 9.529-25.206 195.1 195.1 0 0 1 15.73 21.482l.107.166 22.592 33.873a31.81 31.81 0 0 0 5.925 16.081 8 8 0 0 0 -1.06 1.512zm44.4 129.345-3.255 8.681a15.088 15.088 0 0 1 -28.254 0l-3.255-8.682c-.686-1.828-1.3-3.674-1.877-5.528h38.518c-.575 1.857-1.188 3.703-1.874 5.532zm5.532-21.526h-45.822a102.7 102.7 0 0 1 -1.028-16h47.878a102.579 102.579 0 0 1 -1.028 16zm4.11-107.816a8 8 0 0 0 -1.06-1.509 31.81 31.81 0 0 0 5.925-16.081l22.592-33.873.107-.166a195.1 195.1 0 0 1 15.73-21.482 47.457 47.457 0 0 1 9.529 25.206l-22.511 18.009a203.823 203.823 0 0 0 -27.351 26.441zm15.109 6.957a187.721 187.721 0 0 1 25.2-24.359l21.325-17.06 2.536 1.522a47.734 47.734 0 0 1 22.651 49.05l-.638 3.825a203.823 203.823 0 0 0 -78.321 18.6 68.227 68.227 0 0 0 -1.465-21.407zm74.609 28.912 21.672 21.672-101.8 7.54q-1.033-4.259-2.382-8.458a187.7 187.7 0 0 1 82.51-20.754zm-31.152 199.766-51.176-106.619q1.223-3.864 2.177-7.781l89.953 84.663a48.98 48.98 0 0 1 -40.954 29.737zm-45.964-133.512c.084-1.1.15-2.207.2-3.311l128.826 46.845a48.666 48.666 0 0 1 -30.721 48.992zm161.194 14.8a92.386 92.386 0 0 1 -31.112 122.873l-37.459 23.836a26.765 26.765 0 0 1 -38.5-11l-.88-1.833a65 65 0 0 0 48.881-39.81l.322-.805a64.587 64.587 0 0 0 42.315-68.041l8.66-10.826a45.884 45.884 0 0 0 7.773-14.395zm-15.389-20.364c.437.437.864.883 1.291 1.327a29.869 29.869 0 0 1 -6.169 23.437l-7.211 9.014-133.619-48.59a7.756 7.756 0 0 0 -.271-.831l121.351-8.989zm30.7-192.187a61.231 61.231 0 0 0 -15.742 59.276l13.727 50.333a27 27 0 0 1 .425 12.338l-1.19 5.952a26.951 26.951 0 0 1 -24.36 21.525l-29.952 2.22a8 8 0 0 0 -1.379-1.854l-29.089-29.089 1.055-6.329a63.642 63.642 0 0 0 -30.2-65.4l-3.585-2.151a63.316 63.316 0 0 0 -14.587-36.238 196.415 196.415 0 0 1 104.989-54.939l6.225-1.1a26.866 26.866 0 0 1 23.666 45.455z"/><path d="m416 88a32 32 0 1 0 32 32 32.036 32.036 0 0 0 -32-32zm0 48a16 16 0 1 1 16-16 16.019 16.019 0 0 1 -16 16z"/><path d="m424 184a24 24 0 1 0 24 24 24.027 24.027 0 0 0 -24-24zm0 32a8 8 0 1 1 8-8 8.009 8.009 0 0 1 -8 8z"/></g></svg>