<?xml version="1.0" encoding="UTF-8"?>
<svg xmlns="http://www.w3.org/2000/svg" viewBox="0 0 512 512" width="512" height="512"><g id="filled_outline" data-name="filled outline"><path d="M328,228.835a66,66,0,0,0,35.08-52.948l2.981-35.766a52,52,0,0,1,20.62-37.282h0a19.2,19.2,0,0,1,25.091,1.784l3.788,3.787a52,52,0,0,1,15.15,39.654l-2.847,51.255a120,120,0,0,1-66.15,100.675L328,316.85Z" style="fill:#768753"/><path d="M200,275l-14.824-7.412a66,66,0,0,1-36.256-53.551l-2.981-35.766a52,52,0,0,0-20.62-37.282h0a19.2,19.2,0,0,0-25.091,1.783L96.44,146.56a52,52,0,0,0-15.15,39.654l2.847,51.255a120,120,0,0,0,66.15,100.674L200,363Z" style="fill:#768753"/><path d="M328,488H200V143.321A107,107,0,0,1,231.34,67.66h0a46.189,46.189,0,0,1,65.32,0h0A107,107,0,0,1,328,143.321Z" style="fill:#91a666"/><path d="M496,480H336V430.46l12.942-10.169a8,8,0,1,0-9.884-12.582l-3.058,2.4V379.46l12.942-10.169a8,8,0,1,0-9.884-12.582l-3.058,2.4V321.794l29.291-14.646a128.31,128.31,0,0,0,65.262-77.48l13.025-6.513a8,8,0,1,0-7.156-14.31l-1.518.759c.436-3.254.763-6.534.947-9.842l2.785-50.136,12.942-6.471a8,8,0,1,0-7.156-14.31l-7.032,3.516a60.05,60.05,0,0,0-16.173-29.607l-3.788-3.789c-.567-.568-1.158-1.1-1.765-1.608l3.986-2.847a8,8,0,0,0-9.3-13.02l-9.121,6.515-9.287-7.3a8,8,0,1,0-9.884,12.582l2.083,1.637a26.7,26.7,0,0,0-2.26,1.511,60.054,60.054,0,0,0-23.793,43.018l-2.98,35.766A57.7,57.7,0,0,1,336,213.637V143.321c0-3.206-.138-6.39-.4-9.55l13.338-10.48a8,8,0,0,0-9.884-12.582l-6.378,5.011A114.267,114.267,0,0,0,302.317,62,53.925,53.925,0,0,0,280.84,48.8l1.81-1.293a8,8,0,0,0-9.3-13.02l-9.121,6.515-9.287-7.3a8,8,0,0,0-9.884,12.582l2.873,2.257A53.923,53.923,0,0,0,225.683,62a115.416,115.416,0,0,0-19.91,26.644l-8.831-6.938a8,8,0,1,0-9.884,12.582L199,103.67a115.032,115.032,0,0,0-7,39.651V191.54l-1.058-.831a8,8,0,1,0-9.884,12.582l10.942,8.6v50.167l-3.247-1.623a58.345,58.345,0,0,1-31.861-47.06l-2.98-35.768a60.053,60.053,0,0,0-23.793-43.016c-.4-.3-.811-.556-1.22-.829l1.751-1.25a8,8,0,0,0-9.3-13.02l-9.121,6.515-9.287-7.3a8,8,0,1,0-9.884,12.582l4.334,3.406a26.747,26.747,0,0,0-2.821,2.418L90.783,140.9A60.071,60.071,0,0,0,73.3,186.657l.434,7.819-4.794-3.767a8,8,0,1,0-9.884,12.582l14,11a7.876,7.876,0,0,0,1.838,1.054l1.253,22.567a127.427,127.427,0,0,0,4.212,26.1,7.994,7.994,0,0,0-4.893,14.576l14.215,9.773A128.145,128.145,0,0,0,146.709,345.3L192,367.944v25.167l-3.058-2.4a8,8,0,0,0-9.884,12.582L192,413.46v30.651l-3.058-2.4a8,8,0,0,0-9.884,12.582L192,464.46V480H32a8,8,0,0,0,0,16H496a8,8,0,0,0,0-16ZM336,233.488a73.6,73.6,0,0,0,35.052-56.937l2.981-35.765a44.037,44.037,0,0,1,17.448-31.547c.169-.126.345-.237.519-.352v58.031c0,1.89-.058,3.775-.155,5.654l-3.053-2.284a8,8,0,0,0-9.584,12.813l10.192,7.624a112.986,112.986,0,0,1-20.79,44.611l-.964-3.133a8,8,0,0,0-15.292,4.709l3.744,12.156a110.664,110.664,0,0,1-9,7.524L336,264.9Zm0,51.395L356.688,269.4a126.461,126.461,0,0,0,12.242-10.456l14.05-.2a8,8,0,0,0,.066-15.99,129.1,129.1,0,0,0,22.609-51.667l11.163-8.381a8,8,0,0,0-8.855-13.292c.016-.832.037-1.664.037-2.5V112.164l1.9,1.9a44.05,44.05,0,0,1,12.82,33.554l-2.848,51.254a112.244,112.244,0,0,1-61.739,93.963L336,303.906ZM192,350.056l-38.136-19.068a112.136,112.136,0,0,1-50.349-50.71,7.957,7.957,0,0,0-.732-1.516,111.716,111.716,0,0,1-10.658-41.737l-2.848-51.254A44.052,44.052,0,0,1,102.1,152.217l2.555-2.554,3.163,50.607c.292,4.666.8,9.3,1.493,13.885l-2.476-.937a8,8,0,0,0-5.662,14.965l12.091,4.573a160.732,160.732,0,0,0,28.54,56.519,8,8,0,0,0,.074,15.99l14.547.206q5.341,5.163,11.181,9.856L192,334.845Zm0-35.7-14.4-11.522q-4.536-3.629-8.735-7.59l3.638-11.812a8,8,0,0,0-15.291-4.709l-.936,3.039a144.665,144.665,0,0,1-27.36-52.427l8.487-11.252a8,8,0,0,0-12.74-9.675c-.385-3.028-.686-6.073-.877-9.136l-3.242-51.865a44.038,44.038,0,0,1,17.426,31.529l2.981,35.766a74.434,74.434,0,0,0,40.65,60.042l10.4,5.2ZM224,480H208V143.321a98.352,98.352,0,0,1,29-70A38.011,38.011,0,0,1,251.872,64.1l-8.9,15.573A144.241,144.241,0,0,0,224,151.117Zm32-325.46-1.058-.831a8,8,0,1,0-9.884,12.582l10.942,8.6V226.54l-1.058-.831a8,8,0,0,0-9.884,12.582l10.942,8.6V298.54l-1.058-.831a8,8,0,0,0-9.884,12.582l10.942,8.6V370.54l-1.058-.831a8,8,0,0,0-9.884,12.582l10.942,8.6V442.54l-1.058-.831a8,8,0,0,0-9.884,12.582l10.942,8.6V480H240V151.117a128.212,128.212,0,0,1,16-61.934ZM288,480H272V463.117l10.65-7.607a8,8,0,0,0-9.3-13.02l-1.35.965V391.117l10.65-7.607a8,8,0,0,0-9.3-13.02l-1.35.965V319.117l10.65-7.607a8,8,0,0,0-9.3-13.02l-1.35.965V247.117l10.65-7.607a8,8,0,1,0-9.3-13.02l-1.35.965V175.117l10.65-7.607a8,8,0,1,0-9.3-13.02l-1.35.965V89.183a128.212,128.212,0,0,1,16,61.934Zm32,0H304V151.117a144.241,144.241,0,0,0-18.973-71.444l-8.9-15.573A38.033,38.033,0,0,1,291,73.317a98.356,98.356,0,0,1,29,70Z"/></g></svg>
