<svg id="Capa_1" enable-background="new 0 0 512 512" height="512" viewBox="0 0 512 512" width="512" xmlns="http://www.w3.org/2000/svg"><g id="filled_outline"><path d="m32 488 24-128 72-48 32-128 104-64 40 40 32 16 24 120 72 40 17.684 72 22.316 8 16 72z" fill="#dcdbd6"/><path d="m272 400c8.837 0 16 7.163 16 16v20c0 6.627 5.373 12 12 12s12-5.373 12-12v-16c0-6.627 5.373-12 12-12s12 5.373 12 12 5.373 12 12 12 12-5.373 12-12v-20l-80-64-23.931 47.862 4.353 8.983c2.193 4.385 6.675 7.155 11.578 7.155z" fill="#cdccc8"/><path d="m360 400v20c0 6.627-5.373 12-12 12s-12-5.373-12-12-5.373-12-12-12-12 5.373-12 12v16c0 6.627-5.373 12-12 12s-12-5.373-12-12v-20c0-8.837-7.163-16-16-16-4.903 0-9.385-2.77-11.578-7.155l-4.353-8.983-.069.138-40 24-24 80h192z" fill="#bbbab6"/><path d="m148 432h-36l-16 16-8 40h64l-16-24z" fill="#bbbab6"/><path d="m464 448v14.62c-5.175 1.84-10.825 1.84-16 0v-14.62c0-4.418 3.582-8 8-8s8 3.582 8 8z" fill="#7a4922"/><circle cx="256" cy="120" fill="#fd9226" r="40"/><g fill="#768753"><path d="m224 144 8 32 16 8 16 24 40 8 16 32 32 8-16-80-32-16-40-40z"/><path d="m104 250.845v-10.845c0-13.255-10.745-24-24-24s-24 10.745-24 24v10.845c-11.69 13.255-10.421 33.476 2.834 45.166s33.476 10.421 45.166-2.834c10.667-12.095 10.667-30.237 0-42.332z"/><path d="m456 392c13.255 0 24 10.745 24 24v16c0 13.255-10.745 24-24 24-13.255 0-24-10.745-24-24v-16c0-13.255 10.745-24 24-24z"/></g><path d="m160 416-24 24v32l16 16h40l16-24-16-40z" fill="#cdccc8"/><path d="m136 440 32 16 16-8 8-24-32-8z" fill="#e6e5e0"/><g id="gradient"><path d="m495.81 486.265-9.672-43.519c1.234-3.448 1.864-7.084 1.862-10.746v-16c.034-17.639-14.238-31.966-31.878-32-1.349-.003-2.696.08-4.034.248l-12.318-50.156c-.532-2.161-1.939-4.004-3.885-5.085l-68.766-38.2-23.274-116.376c-.484-2.421-2.059-4.482-4.267-5.586l-30.839-15.42-10.539-10.543c12.631-23.307 3.977-52.441-19.33-65.072s-52.441-3.977-65.072 19.33c-7.533 13.9-7.739 30.619-.548 44.7l-57.438 35.347c-1.781 1.095-3.063 2.844-3.569 4.873l-31.25 125-32.993 21.992v-17.852c21.642-4.414 35.608-25.537 31.193-47.179-1.183-5.802-3.64-11.268-7.193-16.005v-8.016c0-17.673-14.327-32-32-32s-32 14.327-32 32v8.011c-13.256 17.667-9.68 42.736 7.987 55.992 4.739 3.555 10.208 6.014 16.013 7.197v28.524l-20.438 13.62c-1.793 1.195-3.028 3.063-3.425 5.181l-22.777 121.475h-.36c-4.418 0-8 3.582-8 8s3.582 8 8 8h463c4.418 0 8-3.581 8-8 0-.583-.063-1.165-.19-1.735zm-439.81-214.265c0-5.842 2.133-11.482 6-15.861 1.289-1.462 2-3.344 2-5.293v-10.846c0-8.837 7.163-16 16-16s16 7.163 16 16v10.846c0 1.949.711 3.831 2 5.293 8.767 9.941 7.816 25.107-2.126 33.875s-25.107 7.815-33.874-2.126c-3.87-4.388-6.003-10.038-6-15.888zm416 144v16c0 8.837-7.163 16-16 16s-16-7.163-16-16v-16c0-8.837 7.163-16 16-16s16 7.163 16 16zm-171.578-248.845 28.5 14.25 12.753 63.768-16.166-4.042-14.355-28.709c-1.104-2.208-3.165-3.783-5.586-4.267l-36.751-7.349-14.162-21.244c-.772-1.158-1.833-2.095-3.078-2.717l-12.709-6.355-5.554-22.213 29.5-18.152 35.531 35.532c.607.608 1.309 1.114 2.077 1.498zm-44.422-79.155c17.66-.013 31.987 14.293 32 31.954.003 3.697-.636 7.367-1.887 10.846l-16.456-16.456c-2.619-2.619-6.694-3.097-9.849-1.156l-32.855 20.218c-7.414-16.032-.428-35.038 15.604-42.452 4.214-1.949 8.801-2.957 13.443-2.954zm108.997 305.757-80-64c-3.45-2.76-8.484-2.201-11.245 1.249-.352.44-.656.916-.908 1.42l-22.958 45.917-38 22.8c-1.709 1.026-2.973 2.652-3.546 4.561l-6.447 21.487-2.463-6.159c-.212-.617-.768-1.964-2.11-3.133-1.338-1.165-2.743-1.531-3.383-1.657l-32-8c-2.726-.684-5.611.113-7.6 2.1l-13.808 13.808c-.504-.099-1.016-.149-1.529-.15h-27c-2.122 0-4.157.843-5.657 2.343l-16 16c-1.116 1.117-1.878 2.539-2.188 4.088l-6.714 33.569h-39.801l21.602-115.213 21.223-14.149.013-.008 30.743-20.5-10.232 40.93-21.427 14.284c-1.656 1.104-2.84 2.785-3.323 4.716l-8 32c-1.102 4.279 1.473 8.641 5.752 9.742s8.64-1.473 9.742-5.752c.009-.037.019-.074.028-.111l7.25-29 21.427-14.284c1.656-1.104 2.84-2.785 3.323-4.716l47.21-188.84 17.029-10.474v117.375c0 4.418 3.582 8 8 8s8-3.582 8-8v-80l16 12v36c0 2.675 1.337 5.172 3.562 6.656l20.438 13.625v27.719c0 4.418 3.582 8 8 8s8-3.582 8-8v-32c0-2.675-1.337-5.172-3.562-6.656l-20.438-13.625v-35.719c0-2.518-1.186-4.889-3.2-6.4l-28.8-21.6v-27.221l19.022-11.706 5.217 20.867c.566 2.266 2.094 4.171 4.183 5.215l14.1 7.05 14.822 22.233c1.177 1.765 3.007 2.991 5.087 3.407l36.164 7.232 14.25 28.5c1.044 2.089 2.949 3.617 5.215 4.183l26.992 6.748 15.077 82.922c.389 2.135 1.628 4.021 3.433 5.225l21.117 14.077 7.429 44.582c.642 3.855 3.974 6.681 7.882 6.686.444 0 .887-.037 1.325-.109 4.358-.726 7.303-4.847 6.577-9.205 0-.001 0-.001 0-.002l-8-48c-.365-2.181-1.615-4.114-3.454-5.341l-21.174-14.116-5.177-28.473 54.976 30.546 12.015 48.917c-8.218 6.02-13.075 15.596-13.078 25.783v16c.019 14.586 9.882 27.321 24 30.987v17.013h-57.89l-22.392-82.1c-.114-.566-.379-1.507-1.056-2.481-.573-.825-1.22-1.353-1.665-1.662zm-28.997 54.243c-4.418 0-8 3.582-8 8v24h-16v-8c0-4.418-3.582-8-8-8s-8 3.582-8 8v8h-16v-16c0-4.418-3.582-8-8-8s-8 3.582-8 8v16h-16v-48c0-4.418-3.582-8-8-8s-8 3.582-8 8v48h-25.052l7.708-11.562c1.462-2.192 1.75-4.963.772-7.409l-3.992-9.978 11.336-37.785 29.936-17.961.56 1.119c3.528 7.113 10.792 11.603 18.732 11.576 4.416.005 7.995 3.584 8 8v20c0 11.046 8.954 20 20 20s20-8.954 20-20v-16c0-2.209 1.791-4 4-4s4 1.791 4 4c-.018 11.027 8.906 19.982 19.934 20 4.905.008 9.642-1.79 13.306-5.05l12.286 45.05h-29.526v-24c0-4.418-3.582-8-8-8zm-64-56c-1.874.006-3.589-1.053-4.423-2.732l-2.633-5.268 17.785-35.572 69.271 55.417v16.155c0 2.209-1.791 4-4 4s-4-1.791-4-4c0-11.046-8.954-20-20-20s-20 8.954-20 20v16c0 2.209-1.791 4-4 4s-4-1.791-4-4v-20c-.015-13.248-10.752-23.985-24-24zm-141.657 85.657 2.343 2.343h-34.927l5.611-28.056 11.943-11.944h12.687v32c0 2.122.843 4.157 2.343 5.657zm51.335-47.991-4.22 12.66-9.458 4.73-18.5-9.248 12.949-12.949zm-26.365 50.334-11.313-11.313v-15.743l20.422 10.211c2.252 1.126 4.904 1.126 7.156 0l16-8c1.898-.949 3.341-2.612 4.012-4.625l1.094-3.281 6.326 15.814-11.291 16.937zm308.687 0v-17.013c3.312-.859 6.463-2.247 9.333-4.109l4.694 21.122zm-71.155-316.449c5.158-10.319 17.705-14.503 28.024-9.345 1.098.549 2.146 1.194 3.131 1.926 9.255-6.887 22.342-4.967 29.229 4.288.733.985 1.378 2.033 1.926 3.131 2.007 3.936.443 8.754-3.493 10.761s-8.754.443-10.761-3.493c-.019-.037-.037-.074-.056-.112-1.208-2.417-4.147-3.397-6.564-2.189-.471.236-.901.546-1.274.918l-3.35 3.35c-3.124 3.124-8.189 3.124-11.314 0l-3.351-3.35c-1.91-1.911-5.009-1.912-6.92-.001-.372.372-.682.802-.917 1.272-2.007 3.936-6.825 5.5-10.761 3.493-3.893-1.984-5.473-6.726-3.549-10.649zm-288.845.581c9.255-6.887 22.342-4.967 29.229 4.288.733.985 1.378 2.033 1.926 3.131 2.007 3.936.443 8.754-3.493 10.761s-8.754.443-10.761-3.493c-.019-.037-.037-.074-.056-.112-1.208-2.417-4.147-3.397-6.564-2.189-.471.236-.901.546-1.274.918l-3.35 3.35c-3.124 3.124-8.189 3.124-11.314 0l-3.351-3.35c-1.91-1.911-5.009-1.912-6.92-.001-.372.372-.682.802-.917 1.272-1.945 3.967-6.738 5.606-10.705 3.661s-5.606-6.738-3.661-10.705c.018-.037.037-.074.056-.112 5.158-10.319 17.705-14.503 28.024-9.345 1.098.549 2.146 1.193 3.131 1.926zm328.845-40.581c5.158-10.319 17.705-14.503 28.024-9.345 1.098.549 2.146 1.194 3.131 1.926 9.255-6.887 22.342-4.967 29.229 4.288.733.985 1.378 2.033 1.926 3.131 2.007 3.936.443 8.754-3.493 10.761s-8.754.443-10.761-3.493c-.019-.037-.038-.074-.056-.112-1.208-2.417-4.147-3.397-6.564-2.189-.471.236-.901.546-1.274.918l-3.35 3.35c-3.124 3.124-8.189 3.124-11.314 0l-3.351-3.35c-1.91-1.911-5.009-1.912-6.92-.001-.372.372-.682.802-.917 1.272-2.007 3.936-6.825 5.5-10.761 3.493-3.893-1.985-5.473-6.726-3.549-10.649zm-392 8c5.158-10.319 17.705-14.503 28.024-9.345 1.098.549 2.146 1.194 3.131 1.926 9.255-6.887 22.342-4.967 29.229 4.288.733.985 1.378 2.033 1.926 3.131 2.007 3.936.443 8.754-3.493 10.761s-8.754.443-10.761-3.493c-.019-.037-.037-.074-.056-.112-1.208-2.417-4.147-3.397-6.564-2.189-.471.236-.901.546-1.274.918l-3.35 3.35c-3.124 3.124-8.189 3.124-11.314 0l-3.351-3.35c-1.91-1.911-5.009-1.912-6.92-.001-.372.372-.682.802-.917 1.272-1.945 3.967-6.738 5.606-10.705 3.66s-5.606-6.738-3.66-10.705c.018-.037.036-.074.055-.111zm207.155-83.551v-16c0-4.418 3.582-8 8-8s8 3.582 8 8v16c0 4.418-3.582 8-8 8s-8-3.582-8-8zm-50.2 5.509c-2.598-3.575-1.806-8.579 1.768-11.178 3.575-2.598 8.579-1.806 11.178 1.769l9.405 12.945c2.673 3.518 1.987 8.537-1.531 11.21s-8.537 1.987-11.21-1.531c-.07-.092-.137-.185-.203-.279zm-33.1 36.826c1.365-4.202 5.878-6.502 10.08-5.137l15.22 4.945c4.219 1.312 6.575 5.796 5.263 10.015s-5.796 6.575-10.015 5.263c-.064-.02-.128-.041-.191-.062l-15.218-4.944c-4.202-1.364-6.503-5.877-5.139-10.08zm0 59.33c-1.365-4.202.935-8.715 5.137-10.08l15.218-4.944c4.19-1.403 8.723.856 10.127 5.045s-.856 8.723-5.045 10.127c-.045.015-.091.03-.137.044l-15.222 4.943c-4.198 1.367-8.709-.928-10.076-5.126-.001-.004-.002-.007-.004-.011zm152.169-9.888c1.365-4.202 5.878-6.501 10.08-5.136l15.218 4.944c4.211 1.339 6.538 5.838 5.2 10.048-1.339 4.211-5.838 6.538-10.048 5.2-.032-.01-.063-.02-.095-.031l-15.224-4.945c-4.2-1.367-6.498-5.879-5.133-10.08zm0-39.554c-1.365-4.2.931-8.712 5.131-10.08l15.222-4.943c4.21-1.339 8.709.988 10.048 5.199 1.328 4.174-.948 8.639-5.105 10.018l-15.218 4.944c-4.195 1.369-8.705-.923-10.074-5.118-.002-.006-.004-.012-.006-.018zm-25.02-43.174 9.405-12.949c2.598-3.575 7.603-4.367 11.178-1.769s4.367 7.603 1.768 11.178l-9.405 12.944c-2.519 3.63-7.503 4.531-11.133 2.012s-4.531-7.503-2.012-11.133c.066-.094.133-.187.203-.279z"/></g></g></svg>