<svg height="512" viewBox="0 0 512 512" width="512" xmlns="http://www.w3.org/2000/svg"><g id="filled_outline" data-name="filled outline"><path d="m456 224-24 24-40-8-24-24-16 16-16-24-24-16-16 16-24 80-24 16-40 88h280v-128z" fill="#cdccc8"/><path d="m352 232-24 24 16.7-34.94h.01z" fill="#cdccc8"/><path d="m488 392-136-64-96 64z" fill="#e8a156"/><path d="m24 392v96h464v-96h-280z" fill="#ffb15e"/><path d="m328 392-144-64-160 64z" fill="#f4a95a"/><path d="m160.464 248c-13.453-.251-24.464 11.085-24.464 24.54v15.46a16 16 0 0 1 -16 16 16 16 0 0 1 -16-16v-119.46c0-13.455-11.011-24.791-24.464-24.536a24 24 0 0 0 -23.536 23.996v256h56v-72h26a46 46 0 0 0 46-46v-34a24 24 0 0 0 -23.536-24z" fill="#91a666"/><path d="m408 280 24-32-13.599-2.72z" fill="#bbbab6"/><path d="m352 232-24 24 16.7-34.94h.01z" fill="#bbbab6"/><path d="m448 424h-48l-1.613-8.064c-4.227-21.137-4.83-34.838-1.781-56.177a27.672 27.672 0 0 1 27.394-23.759 27.672 27.672 0 0 1 27.394 23.759c3.049 21.339 2.446 35.04-1.781 56.177z" fill="#91a666"/><path d="m432 337.18v86.82h-16v-86.82a27.709 27.709 0 0 1 16 0z" fill="#91a666"/><path d="m424 288-16 16-16-8v12.686a27.315 27.315 0 0 0 8 19.314 27.315 27.315 0 0 0 19.314 8h9.372a27.315 27.315 0 0 0 19.314-8 27.315 27.315 0 0 0 8-19.314v-12.686l-16 8z" fill="#faa6b2"/><circle cx="208" cy="104" fill="#fd9226" r="32"/><path d="m405.9 120.1a15.982 15.982 0 0 0 -13.9-8.1c-.455 0-.9.031-1.348.068a24 24 0 0 0 -46.652 7.932c0 .134.008.266.01.4a20.006 20.006 0 0 0 -16.01 19.6 20 20 0 0 0 20 20h56a20 20 0 0 0 20-20 20 20 0 0 0 -18.1-19.9z" fill="#eae9e4"/><path d="m462.247 219a8 8 0 0 0 -11.9-.66l-20.972 20.972-33.427-6.684-22.287-22.288a8 8 0 0 0 -11.314 0l-9.1 9.1-10.587-15.881a8.02 8.02 0 0 0 -2.218-2.218l-24-16a8 8 0 0 0 -10.095 1l-16 16a8.013 8.013 0 0 0 -2.006 3.358l-23.172 77.24-21.6 14.4a8 8 0 0 0 -2.845 3.345l-16.556 36.416-34.519-15.342a53.826 53.826 0 0 0 2.351-15.758v-34a31.731 31.731 0 0 0 -5.873-18.365l5.028-10.057a8 8 0 0 0 -14.31-7.156l-3.312 6.623a31.735 31.735 0 0 0 -5.79-2.078l.254-8.736a8 8 0 1 0 -15.997-.462l-.271 9.363a31.3 31.3 0 0 0 -5.243 1.958l-3.334-6.668a8 8 0 0 0 -14.31 7.156l5.1 10.207a32.915 32.915 0 0 0 -5.942 18.755v15.46a8 8 0 0 1 -16 0v-119.46a32.915 32.915 0 0 0 -5.948-18.755l5.1-10.207a8 8 0 0 0 -14.31-7.156l-3.332 6.663a31.132 31.132 0 0 0 -5.77-2.1l.26-8.754a8 8 0 1 0 -16-.462l-.27 9.33a31.659 31.659 0 0 0 -5.266 1.946l-3.312-6.623a8 8 0 1 0 -14.31 7.156l5.028 10.057a31.731 31.731 0 0 0 -5.87 18.365v205.784s-31.8 16.459-31.826 16.558-.174 97.658-.174 97.658a8 8 0 0 0 8 8h464a8 8 0 0 0 8-8v-224a8 8 0 0 0 -1.753-5zm-280.416 118.484 2.005-.8 106.464 47.316h-170.3v-24h18a53.955 53.955 0 0 0 43.831-22.516zm-117.831-169.484a16.078 16.078 0 0 1 15.688-16 15.513 15.513 0 0 1 11.257 4.574 16.876 16.876 0 0 1 5.055 11.966v119.46a24 24 0 0 0 48 0v-15.46a16.876 16.876 0 0 1 5.055-11.963 15.5 15.5 0 0 1 11.257-4.577 16.078 16.078 0 0 1 15.688 16v34a38.043 38.043 0 0 1 -38 38h-26a8 8 0 0 0 -8 8v64h-40zm-32 232h16v16h-16zm448 48h-35.1a8 8 0 0 0 0 16h35.1v16h-448v-48h136a8 8 0 0 0 0-16h-48v-16h267.706c.584 5.011 1.43 10.267 2.546 16h-30.252a8 8 0 0 0 0 16h120zm-178.668-76.607 51.348-34.232 36.857 17.345a35.193 35.193 0 0 0 -.85 4.121 172.424 172.424 0 0 0 -1.973 25.373h-57.014zm141.011-49.05a19.187 19.187 0 0 1 -13.656 5.657h-9.374a19.315 19.315 0 0 1 -19.313-19.055l4.421 2.21a8 8 0 0 0 9.235-1.5l10.344-10.342 10.343 10.344a8 8 0 0 0 9.235 1.5l4.421-2.21a19.184 19.184 0 0 1 -5.656 13.396zm-.575 92.024-.327 1.633h-9.441v-70.261a19.754 19.754 0 0 1 11.475 15.151c2.835 19.848 2.425 32.842-1.707 53.477zm-25.768-68.628v70.261h-9.442l-.326-1.633c-4.127-20.635-4.542-33.629-1.707-53.477a19.754 19.754 0 0 1 11.475-15.151zm64 70.261h-22.252c1.116-5.733 1.962-10.989 2.546-16h19.706zm0-32h-18.714a172.411 172.411 0 0 0 -1.973-25.372 35.542 35.542 0 0 0 -10.753-20.747 35.705 35.705 0 0 0 5.1-4.224 35.08 35.08 0 0 0 10.34-24.97v-12.687a8 8 0 0 0 -11.578-7.155l-10.842 5.421-11.923-11.923a8 8 0 0 0 -11.314 0l-11.923 11.923-10.842-5.421a8 8 0 0 0 -11.578 7.155v12.687a35.08 35.08 0 0 0 10.343 24.97 35.745 35.745 0 0 0 5.1 4.223q-1.245 1.185-2.372 2.487l-41.661-19.605a8 8 0 0 0 -7.844.582l-49.533 33.022 5.513-38.595 14.115-14.114a8 8 0 0 0 -11.314-11.314l-16 16a7.994 7.994 0 0 0 -2.262 4.525l-7.34 51.374-41.956-18.642 15.549-34.206 22.1-14.734a8.007 8.007 0 0 0 3.225-4.357l23.42-78.069 9.937-9.936 17.211 11.475 11.475 17.211-19.363 19.363a8 8 0 0 0 11.314 11.314l34.343-34.347 18.343 18.343a8.008 8.008 0 0 0 4.088 2.188l27.553 5.51-11.1 14.8a8 8 0 1 0 12.8 9.6l18.373-24.5 17.279-17.28 24.664 30.832z"/><path d="m80 168a8 8 0 0 0 -8 8v16a8 8 0 0 0 16 0v-16a8 8 0 0 0 -8-8z"/><path d="m80 216a8 8 0 0 0 -8 8v8a8 8 0 0 0 16 0v-8a8 8 0 0 0 -8-8z"/><path d="m80 248a8 8 0 0 0 -8 8v40a8 8 0 0 0 16 0v-40a8 8 0 0 0 -8-8z"/><path d="m208 432h32a8 8 0 0 0 0-16h-32a8 8 0 0 0 0 16z"/><path d="m272 448h-127.231a8 8 0 0 0 0 16h127.231a8 8 0 0 0 0-16z"/><path d="m408 448h-80a8 8 0 0 0 0 16h80a8 8 0 0 0 0-16z"/><path d="m99.119 448h-23.311a8 8 0 1 0 0 16h23.311a8 8 0 1 0 0-16z"/><path d="m328 424a8 8 0 0 0 -8-8h-16a8 8 0 0 0 0 16h16a8 8 0 0 0 8-8z"/><path d="m168 104a40 40 0 1 0 40-40 40.045 40.045 0 0 0 -40 40zm40-24a24 24 0 1 1 -24 24 24.028 24.028 0 0 1 24-24z"/><path d="m216 40v-16a8 8 0 0 0 -16 0v16a8 8 0 0 0 16 0z"/><path d="m157.088 41.774a8 8 0 0 0 -11.313 11.315l11.313 11.311a8 8 0 1 0 11.312-11.312z"/><path d="m120 104a8 8 0 0 0 8 8h16a8 8 0 0 0 0-16h-16a8 8 0 0 0 -8 8z"/><path d="m157.088 143.6-11.313 11.313a8 8 0 0 0 11.313 11.315l11.312-11.316a8 8 0 1 0 -11.312-11.312z"/><path d="m200 168v16a8 8 0 0 0 16 0v-16a8 8 0 0 0 -16 0z"/><path d="m258.912 143.6a8 8 0 1 0 -11.312 11.312l11.314 11.314a8 8 0 0 0 11.313-11.315z"/><path d="m296 104a8 8 0 0 0 -8-8h-16a8 8 0 0 0 0 16h16a8 8 0 0 0 8-8z"/><path d="m258.912 41.774-11.312 11.314a8 8 0 0 0 11.312 11.312l11.313-11.313a8 8 0 0 0 -11.313-11.315z"/><path d="m404 168a28 28 0 0 0 6.53-55.232 24.094 24.094 0 0 0 -14.63-8.448 32 32 0 0 0 -59.419 10.16 28 28 0 0 0 11.519 53.52zm-68-28a12.026 12.026 0 0 1 9.6-11.759 8 8 0 0 0 6.411-7.986l-.011-.255a16 16 0 0 1 31.1-5.288 8 8 0 0 0 8.213 5.329c.227-.02.454-.041.685-.041a8.025 8.025 0 0 1 6.95 4.057 8.006 8.006 0 0 0 6.2 4 12 12 0 0 1 -1.148 23.943h-56a12.013 12.013 0 0 1 -12-12z"/></g></svg>