<svg height="512" viewBox="0 0 512 512" width="512" xmlns="http://www.w3.org/2000/svg"><g id="filled_outline" data-name="filled outline"><path d="m229.215 114.43 10.785 21.57h32l10.227-20.454-26.558-30.546z" fill="#b5cf7f"/><path d="m240 88v-6.111a16 16 0 0 1 8.845-14.311 15.993 15.993 0 0 1 14.31 0 16 16 0 0 1 8.845 14.311v6.111l-16 18z" fill="#b5cf7f"/><circle cx="240" cy="104" fill="#91a666" r="16"/><circle cx="272" cy="104" fill="#91a666" r="16"/><path d="m240 136-8 32 8 24h32l8-24-8-32z" fill="#91a666"/><path d="m240 192-4.422 13.267a18.3 18.3 0 0 0 4.422 18.733v208a16 16 0 0 0 16 16 16 16 0 0 0 16-16v-208a18.3 18.3 0 0 0 4.422-18.733l-4.422-13.267z" fill="#b5cf7f"/><g fill="#92d1f7"><path d="m211.5 139.331-164.471-73.096a16.378 16.378 0 0 0 -23.029 14.965 30.054 30.054 0 0 0 11.73 23.822l32.57 24.339a248 248 0 0 0 115.683 47.17l56.017 7.469v-.806a48 48 0 0 0 -28.5-43.863z"/><path d="m240 192-184 70.122a50 50 0 0 0 -31.08 36.861 10.883 10.883 0 0 0 10.671 13.017h67.766a130 130 0 0 0 110.715-61.867l17.621-28.633a56 56 0 0 0 8.307-29.35z"/><path d="m300.505 139.331 164.466-73.1a16.378 16.378 0 0 1 23.029 14.969 30.054 30.054 0 0 1 -11.73 23.822l-32.57 24.339a248 248 0 0 1 -115.683 47.17l-56.017 7.469v-.806a48 48 0 0 1 28.505-43.863z"/><path d="m272 192 184 70.122a50 50 0 0 1 31.08 36.861 10.883 10.883 0 0 1 -10.671 13.017h-67.766a130 130 0 0 1 -110.715-61.867l-17.621-28.633a56 56 0 0 1 -8.307-29.35z"/></g><path d="m448.345 135.878.1-.072.05-.036 32.568-24.339.088-.068a38.287 38.287 0 0 0 14.849-30.163 24.377 24.377 0 0 0 -34.278-22.276l-135.99 60.439a53.929 53.929 0 0 0 -4.611-39.718l6.034-12.068a8 8 0 1 0 -14.31-7.156l-8 16a8 8 0 0 0 .5 8.016 37.75 37.75 0 0 1 .956 40.179l-2.729 4.548c-.012.021-.021.043-.034.064l-6.281 2.792a55.837 55.837 0 0 0 -15.448 10.229l-1.329-5.319 7.537-15.075a23.955 23.955 0 0 0 -.153-35.844 33.982 33.982 0 0 0 8.136-22.011 8 8 0 0 0 -16 0 17.893 17.893 0 0 1 -2.021 8.2 24.034 24.034 0 0 0 -43.964.016 17.9 17.9 0 0 1 -2.015-8.216 8 8 0 0 0 -16 0 34.051 34.051 0 0 0 8.141 22.009 23.954 23.954 0 0 0 -.159 35.845l7.539 15.077-1.33 5.319a55.817 55.817 0 0 0 -15.447-10.229l-6.275-2.79-2.769-4.614a37.75 37.75 0 0 1 .956-40.179 8 8 0 0 0 .5-8.016l-8-16a8 8 0 0 0 -14.31 7.156l6.034 12.068a53.929 53.929 0 0 0 -4.611 39.718l-135.991-60.439a24.377 24.377 0 0 0 -34.278 22.275 38.287 38.287 0 0 0 14.852 30.162l.088.068 32.568 24.34.083.061.045.033a256.6 256.6 0 0 0 119.286 48.6l40.3 5.373-170.094 64.818a57.714 57.714 0 0 0 -36.053 42.759 18.882 18.882 0 0 0 18.516 22.586h52.369.034.028 15.334a138 138 0 0 0 117.53-65.675l11.114-18.061v195.736a24.02 24.02 0 0 0 12.521 21.071l-3.676 7.351a8 8 0 0 0 14.31 7.156l.845-1.689.845 1.689a8 8 0 1 0 14.31-7.156l-3.676-7.351a24.02 24.02 0 0 0 12.521-21.071v-195.736l11.114 18.061a138 138 0 0 0 117.53 65.675h15.334.028.034 52.369a18.882 18.882 0 0 0 18.516-22.586 57.725 57.725 0 0 0 -36.076-42.768l-170.07-64.813 40.3-5.373a256.6 256.6 0 0 0 119.266-48.582zm-407.779-37.228a22.191 22.191 0 0 1 -8.566-17.45 8.377 8.377 0 0 1 11.78-7.655l77.22 34.322a8.078 8.078 0 0 0 .813 1.207l11.909 14.514-26.676-10.988a7.988 7.988 0 0 0 -5.075-.341l-31.971 8.386zm144.471 69.95a240.618 240.618 0 0 1 -97.886-35.913l16.284-4.269 105.237 43.333zm-20.057-32.142-11.68-14.238 54.948 24.422a39.954 39.954 0 0 1 17.26 14.738zm-27.847 162.754a122.107 122.107 0 0 1 -33.777 4.788h-2.412l.179-.358a61.66 61.66 0 0 1 26.445-27.068l20.237-10.713zm70.126-53.272a122.279 122.279 0 0 1 -44.391 42.56q-3.25 1.817-6.6 3.423l11.355-35.486a7.962 7.962 0 0 0 .277-1.214l49.9-26.423zm-87.177 16.494a77.559 77.559 0 0 0 -33.27 34.052l-3.756 7.514h-47.465a2.882 2.882 0 0 1 -2.826-3.447 41.779 41.779 0 0 1 26.084-30.953l170.277-64.892zm132.342-187.7a8.036 8.036 0 0 1 7.154 0 7.939 7.939 0 0 1 4.387 6.655 24.013 24.013 0 0 0 -7.965 4.742 24.013 24.013 0 0 0 -7.965-4.743 7.937 7.937 0 0 1 4.389-6.655zm14.865 52.8-.233.467h-22.112l-.233-.467a23.946 23.946 0 0 0 11.289-5.665 23.946 23.946 0 0 0 11.289 5.664zm-35.289-23.534a8 8 0 1 1 8 8 8.009 8.009 0 0 1 -8-8zm32 328a8 8 0 0 1 -16 0v-8h16zm0-24h-16v-16h16zm0-32h-16v-16h16zm0-32h-16v-16h16zm0-32h-16v-16h16zm0-32h-16v-16h16zm0-32h-16v-16h16zm4.158-32h-24.242c-.031-.055-.071-.1-.1-.16-.067-.129-.146-.249-.219-.372a63.937 63.937 0 0 0 4.3-19.9h16.2a63.939 63.939 0 0 0 4.36 20.05c-.1.125-.202.25-.299.382zm-4.034-36.431h-16.248a55.9 55.9 0 0 0 -5.384-20.557l3.754-15.012h19.508l3.753 15.013a55.909 55.909 0 0 0 -5.383 20.556zm7.876-67.569a8 8 0 1 1 8-8 8.009 8.009 0 0 1 -8 8zm118.185-2.926a8.078 8.078 0 0 0 .813-1.207l77.222-34.321a8.377 8.377 0 0 1 11.78 7.654 22.191 22.191 0 0 1 -8.566 17.449l-29.434 21.996-31.973-8.383a7.988 7.988 0 0 0 -5.075.341l-26.678 10.985zm-41.053 179.426a122.279 122.279 0 0 1 -44.391-42.561l-10.541-17.139 49.9 26.424a7.989 7.989 0 0 0 .277 1.214l11.355 35.486q-3.346-1.611-6.6-3.424zm59.512 15.5a122.107 122.107 0 0 1 -33.777-4.788l-10.667-33.351 20.237 10.713a61.652 61.652 0 0 1 26.445 27.069l.179.357zm44.484-34.411a41.79 41.79 0 0 1 26.107 30.964 2.882 2.882 0 0 1 -2.826 3.447h-47.465l-3.756-7.513a77.556 77.556 0 0 0 -33.27-34.053l-109.037-57.726zm-166.634-108.209a39.954 39.954 0 0 1 17.26-14.738l54.946-24.422-11.68 14.238zm16.834 10.372 105.237-43.333 16.284 4.269a240.618 240.618 0 0 1 -97.886 35.912z"/></g></svg>