<svg height="512" viewBox="0 0 512 512" width="512" xmlns="http://www.w3.org/2000/svg"><g id="filled_outline" data-name="filled outline"><path d="m256 24c-122.751 0-223.219 95.335-231.441 216h462.882c-8.222-120.665-108.69-216-231.441-216z" fill="#eae9e4"/><path d="m416 240-72-96h-32l-8.674 26.022 56.674 69.978z" fill="#bbbab6"/><path d="m348.564 345c-30.857 0-30.857-18-61.715-18s-30.856 18-61.713 18-30.855-18-61.71-18-30.856 18-61.713 18-30.856-18-61.713-18l-4.819.3c30.085 93.243 117.567 160.7 220.819 160.7 96.608 0 179.413-59.056 214.314-143.031-29.163-.651-29.753-17.969-60.032-17.969-30.859 0-30.859 18-61.718 18z" fill="#007af6"/><path d="m487.441 240h-462.882c-.359 5.288-.559 10.62-.559 16a231.8 231.8 0 0 0 11.181 71.3l4.819-.3c30.857 0 30.857 18 61.713 18s30.857-18 61.713-18 30.855 18 61.71 18 30.857-18 61.713-18 30.858 18 61.715 18 30.859-18 61.718-18c30.279 0 30.869 17.318 60.032 17.969a231.27 231.27 0 0 0 17.686-88.969c0-5.38-.2-10.712-.559-16z" fill="#a3612d"/><path d="m264 430-15.731-9.439a46.214 46.214 0 0 0 -48.269.439l-24-9 5 18-5 18 24-9a46.214 46.214 0 0 0 48.269.439z" fill="#005dbb"/><path d="m368 386-15.731-9.439a46.214 46.214 0 0 0 -48.269.439l-24-9 5 18-5 18 24-9a46.214 46.214 0 0 0 48.269.439z" fill="#005dbb"/><path d="m272 128h-32l-24 48h-24l-40 64h208z" fill="#cdccc8"/><path d="m238.8 206.4a8 8 0 0 1 -11.2-1.6l-21-28a7.79 7.79 0 0 1 -.52-.8h9.92l4-8 20.4 27.2a8.005 8.005 0 0 1 -1.6 11.2z" fill="#cdccc8"/><path d="m174.634 240a24 24 0 0 0 -38.71-25.818 24 24 0 0 0 -47.08-4.492 24 24 0 0 0 -32.844 22.31c0 2.805-.884 5.5 0 8z" fill="#91a666"/><path d="m400 192-24 48h48z" fill="#91a666"/><path d="m440 184-24 56h48z" fill="#768753"/><circle cx="160" cy="120" fill="#ffc864" r="24"/><path d="m425.706 86.294a240 240 0 0 0 -339.412 339.412 240 240 0 0 0 339.412-339.412zm-328.098 11.314q7.435-7.437 15.437-14.072a7.972 7.972 0 0 0 1.7 2.523l5.657 5.657a8 8 0 0 0 11.314-11.316l-5.657-5.657a8.15 8.15 0 0 0 -.79-.683 224.052 224.052 0 0 1 353.563 158.929l-9.142-.02-22.337-52.12a8 8 0 0 0 -14.706 0l-13.513 31.53-11.979-23.957a8 8 0 0 0 -14.31 0l-2.212 4.423-40.233-53.645a8 8 0 0 0 -6.4-3.2h-32a8 8 0 0 0 -7.589 5.47l-3.471 10.414-22.649-28.826a8 8 0 0 0 -6.291-3.058h-32a8 8 0 0 0 -7.155 4.422l-21.789 43.578h-19.056a8 8 0 0 0 -6.784 3.76l-19.566 31.305a31.986 31.986 0 0 0 -24.882-1.033 31.98 31.98 0 0 0 -56.632-1.765 32.01 32.01 0 0 0 -36.136 31.733v.046l-14.723-.032a222.3 222.3 0 0 1 64.331-134.406zm170.792 134.92-16-21.328a8 8 0 0 0 -12.8 9.6l8.764 11.684-64.371-.14c0-.115.007-.229.007-.344a31.813 31.813 0 0 0 -5.962-18.567l18.396-29.433h15.566l15.6 20.8a8 8 0 1 0 12.8-9.6l-15.034-20.044 19.578-39.156h23.168l75.974 96.694zm-100.4-.528h-104a16 16 0 0 1 21.894-14.874 8 8 0 0 0 10.67-5.337 16 16 0 0 1 31.383 2.991 8 8 0 0 0 13.338 5.34 16 16 0 0 1 26.715 11.88zm196.468.738-51.687-65.783 4.985-14.955h22.234l42.634 56.845-11.954 23.907zm64.039-1.612 11.493-26.817 11.868 27.691h-22.924zm-17.782.874h-21.781l11.056-22.111 10.878 21.755zm3.667 182.392a224.214 224.214 0 0 1 -367.992-79.061c9.1.986 14.429 4.083 20.421 7.579 8.108 4.73 17.3 10.09 34.888 10.09s26.781-5.36 34.888-10.09c7.276-4.244 13.56-7.91 26.825-7.91s19.548 3.666 26.824 7.91c8.107 4.73 17.3 10.09 34.886 10.09s26.781-5.36 34.887-10.09c7.277-4.244 13.561-7.91 26.827-7.91s19.549 3.666 26.826 7.91c8.108 4.73 17.3 10.09 34.888 10.09s26.782-5.36 34.89-10.09c7.277-4.244 13.562-7.91 26.828-7.91s19.551 3.666 26.828 7.91c5.733 3.344 12.047 7.022 21.506 8.877a224.186 224.186 0 0 1 -44.22 62.605zm50.727-77.776c-8.809-1.039-14.034-4.077-19.948-7.527-8.108-4.729-17.297-10.089-34.889-10.089s-26.782 5.36-34.889 10.09c-7.277 4.244-13.562 7.91-26.829 7.91s-19.55-3.666-26.826-7.91c-8.108-4.73-17.3-10.09-34.888-10.09s-26.781 5.36-34.889 10.09c-7.275 4.244-13.56 7.91-26.825 7.91s-19.548-3.666-26.824-7.91c-8.107-4.73-17.3-10.09-34.886-10.09s-26.78 5.36-34.887 10.09c-7.276 4.244-13.56 7.91-26.826 7.91s-19.549-3.666-26.826-7.91c-7.955-4.641-16.974-9.877-33.931-10.072a224.887 224.887 0 0 1 -8.956-63.018c0-2.671.063-5.333.156-7.989l447.724.98c.071 2.331.12 4.666.12 7.009a223.921 223.921 0 0 1 -14.881 80.616z"/><path d="m268.116 423.14-15.732-9.44a53.951 53.951 0 0 0 -53.1-1.513l-20.478-7.679a8 8 0 0 0 -10.517 9.632l4.411 15.86-4.405 15.859a8 8 0 0 0 10.517 9.632l20.477-7.679a53.954 53.954 0 0 0 53.1-1.513l15.731-9.439a8 8 0 0 0 0-13.72zm-23.963 9.439a38.047 38.047 0 0 1 -39.913-.363 8 8 0 0 0 -7.049-.707l-9.274 3.478.791-2.846a8 8 0 0 0 0-4.282l-.791-2.846 9.274 3.478a8 8 0 0 0 7.049-.707 38.043 38.043 0 0 1 39.912-.363l4.3 2.579z"/><path d="m372.116 379.14-15.732-9.44a53.953 53.953 0 0 0 -53.1-1.513l-20.478-7.679a8 8 0 0 0 -10.517 9.632l4.411 15.86-4.405 15.859a8 8 0 0 0 10.517 9.632l20.477-7.679a53.954 53.954 0 0 0 53.1-1.513l15.731-9.439a8 8 0 0 0 0-13.72zm-23.963 9.439a38.047 38.047 0 0 1 -39.913-.363 8 8 0 0 0 -7.049-.707l-9.274 3.478.791-2.846a8 8 0 0 0 0-4.282l-.791-2.846 9.274 3.478a8 8 0 0 0 7.049-.707 38.043 38.043 0 0 1 39.912-.363l4.3 2.579z"/><path d="m104 272a8 8 0 0 0 -8-8h-24a8 8 0 0 0 0 16h24a8 8 0 0 0 8-8z"/><path d="m176 264h-48a8 8 0 0 0 0 16h48a8 8 0 0 0 0-16z"/><path d="m144 296h-56a8 8 0 0 0 0 16h56a8 8 0 0 0 0-16z"/><path d="m208 296h-16a8 8 0 0 0 0 16h16a8 8 0 0 0 0-16z"/><path d="m288 272a8 8 0 0 0 -8-8h-64a8 8 0 0 0 0 16h64a8 8 0 0 0 8-8z"/><path d="m352 264h-32a8 8 0 0 0 0 16h32a8 8 0 0 0 0-16z"/><path d="m336 296h-80a8 8 0 0 0 0 16h80a8 8 0 0 0 0-16z"/><path d="m440 264h-56a8 8 0 0 0 0 16h56a8 8 0 0 0 0-16z"/><path d="m416 296h-48a8 8 0 0 0 0 16h48a8 8 0 0 0 0-16z"/><path d="m160 152a32 32 0 1 0 -32-32 32.036 32.036 0 0 0 32 32zm0-48a16 16 0 1 1 -16 16 16.019 16.019 0 0 1 16-16z"/><path d="m160 80a8 8 0 0 0 8-8v-8a8 8 0 0 0 -16 0v8a8 8 0 0 0 8 8z"/><path d="m104 128h8a8 8 0 0 0 0-16h-8a8 8 0 0 0 0 16z"/><path d="m114.745 165.255a8 8 0 0 0 11.314 0l5.657-5.657a8 8 0 0 0 -11.316-11.314l-5.657 5.657a8 8 0 0 0 .002 11.314z"/><path d="m160 160a8 8 0 0 0 -8 8v8a8 8 0 0 0 16 0v-8a8 8 0 0 0 -8-8z"/><path d="m199.6 148.284a8 8 0 0 0 -11.316 11.316l5.657 5.657a8 8 0 1 0 11.314-11.314z"/><path d="m200 120a8 8 0 0 0 8 8h8a8 8 0 0 0 0-16h-8a8 8 0 0 0 -8 8z"/><path d="m193.941 94.059a7.976 7.976 0 0 0 5.657-2.343l5.657-5.657a8 8 0 1 0 -11.314-11.314l-5.657 5.655a8 8 0 0 0 5.657 13.657z"/><path d="m232 72h16a8 8 0 0 0 0-16h-16a8 8 0 0 0 0 16z"/><path d="m288 72h24a8 8 0 0 0 0-16h-24a8 8 0 0 0 0 16z"/><path d="m240 96a8 8 0 0 0 8 8h32a8 8 0 0 0 0-16h-32a8 8 0 0 0 -8 8z"/><path d="m331.578 103.155 5.88-2.94a7.687 7.687 0 0 1 8.885 1.442 8 8 0 0 0 11.314 0 7.69 7.69 0 0 1 8.885-1.442l5.88 2.94a8 8 0 1 0 7.156-14.31l-5.878-2.945a23.669 23.669 0 0 0 -21.7.253 23.666 23.666 0 0 0 -21.7-.253l-5.881 2.941a8 8 0 0 0 7.156 14.31z"/><path d="m370.3 117.9-5.881 2.941a8 8 0 0 0 7.156 14.31l5.88-2.94a7.688 7.688 0 0 1 8.885 1.442 8 8 0 0 0 11.314 0 7.69 7.69 0 0 1 8.885-1.442l5.88 2.94a8 8 0 1 0 7.156-14.31l-5.875-2.941a23.669 23.669 0 0 0 -21.7.253 23.666 23.666 0 0 0 -21.7-.253z"/><path d="m296.4 195.2-18-24a8 8 0 0 0 -12.8 9.6l18 24a8 8 0 1 0 12.8-9.6z"/></g></svg>