<svg height="512" viewBox="0 0 512 512" width="512" xmlns="http://www.w3.org/2000/svg"><g id="filled_outline" data-name="filled outline"><g fill="#005dbb"><path d="m208 344h-56l24-48z"/><path d="m344 360-7.536 12.56a56.517 56.517 0 0 1 -48.464 27.44l8-24z"/><path d="m435.156 240h-67.156v110.545l32-14.545a140.666 140.666 0 0 0 35.228-17.545l-11.228-22.455h36.655a140.644 140.644 0 0 0 14.161-18.906l13.184-21.094a95.263 95.263 0 0 0 -52.844-16z"/><path d="m104 240a109.256 109.256 0 0 0 -77.255-32h-2.745l40 48-40 48h2.745a109.256 109.256 0 0 0 77.255-32z"/></g><path d="m368 240h-264v32h264z" fill="#007af6"/><path d="m104 272a81.235 81.235 0 0 1 64.389 31.7l18.348 23.854a124.118 124.118 0 0 0 98.378 48.446 124.112 124.112 0 0 0 51.36-11.125l31.525-14.33v-78.545z" fill="#eaeae8"/><path d="m304 304a35.778 35.778 0 0 0 0 32 135.561 135.561 0 0 1 -60.622-14.311l-3.378-1.689 3.378-1.689a135.561 135.561 0 0 1 60.622-14.311z" fill="#005dbb"/><path d="m312 240-88-56-16 56z" fill="#005dbb"/><path d="m278.43 240h-28.86l-34.92-23.28 4.58-16.04a7.5 7.5 0 0 1 1.21.66z" fill="#005dbb"/><path d="m168 240-32-32-8 32z" fill="#005dbb"/><circle cx="424" cy="192" fill="#a6deff" r="16"/><circle cx="470" cy="142" fill="#a6deff" r="18"/><path d="m16.755 307.393a8 8 0 0 0 7.245 4.607h2.745a116.427 116.427 0 0 0 80.412-31.923 73.743 73.743 0 0 1 54.141 27.56 8.056 8.056 0 0 0 -.453.785l-16 32a8 8 0 0 0 7.155 11.578h46.985a133.036 133.036 0 0 0 85.915 32l-4.491 13.473a8 8 0 0 0 7.591 10.527 64.843 64.843 0 0 0 55.324-31.324l5.054-8.424s80.017-35.389 91.383-43.2a8 8 0 0 0 2.622-10.17l-5.439-10.882h23.711a8 8 0 0 0 5.979-2.685 149.154 149.154 0 0 0 14.966-19.981l13.184-21.094a8 8 0 0 0 -2.346-10.9 102.947 102.947 0 0 0 -57.282-17.34h-120.826l-86.03-54.75a8 8 0 0 0 -11.987 4.552l-14.348 50.198h-30.652l-29.656-29.657a8 8 0 0 0 -13.418 3.717l-6.485 25.94h-14.513a116.433 116.433 0 0 0 -80.5-32h-2.741a8 8 0 0 0 -6.146 13.122l35.732 42.878-35.732 42.878a8 8 0 0 0 -1.099 8.515zm148.189 28.607 7.167-14.335 8.285 10.771c.93 1.208 1.886 2.392 2.855 3.564zm134.628 54.582 2.558-7.674a130.558 130.558 0 0 0 18.811-3.851 49 49 0 0 1 -21.369 11.525zm76.428-142.582h59.156a86.948 86.948 0 0 1 41.761 10.638l-8.885 14.216a132.957 132.957 0 0 1 -11.032 15.146h-33a8 8 0 0 0 -7.155 11.578l8.032 16.066c-8.612 5.282-48.877 22.477-48.877 22.477zm-42.835 109.592a115.352 115.352 0 0 1 -48.05 10.408 116.842 116.842 0 0 1 -92.037-45.319l-18.349-23.853a88.675 88.675 0 0 0 -19.836-18.828h205.107v65c0 .13.013.257.02.385zm-104.417-161.092 55.779 35.5h-18.1l-40.166-26.777zm-7.107 24.872 15.937 10.628h-18.972zm-81.307 2.272 8.353 8.356h-10.441zm-28.334 24.356h248v16h-248zm-41.854 13.122a8 8 0 0 0 0-10.244l-28.117-33.739a100.4 100.4 0 0 1 53.971 26.247v25.228a100.4 100.4 0 0 1 -53.971 26.247z"/><circle cx="404" cy="268" r="12"/><path d="m310.805 299.794a8 8 0 0 0 -6.805-3.794 144.286 144.286 0 0 0 -64.2 15.155l-3.378 1.689a8 8 0 0 0 0 14.312l3.378 1.688a144.273 144.273 0 0 0 64.2 15.156 8 8 0 0 0 7.155-11.578 27.91 27.91 0 0 1 0-24.844 8 8 0 0 0 -.35-7.784zm-17.915 27.715a128.61 128.61 0 0 1 -33.326-7.509 128.61 128.61 0 0 1 33.326-7.509 44.184 44.184 0 0 0 0 15.018z"/><path d="m424 216a24 24 0 1 0 -24-24 24.027 24.027 0 0 0 24 24zm0-32a8 8 0 1 1 -8 8 8.009 8.009 0 0 1 8-8z"/><path d="m470 168a26 26 0 1 0 -26-26 26.03 26.03 0 0 0 26 26zm0-36a10 10 0 1 1 -10 10 10.011 10.011 0 0 1 10-10z"/></g></svg>