<svg height="512" viewBox="0 0 512 512" width="512" xmlns="http://www.w3.org/2000/svg"><g id="filled_outline" data-name="filled outline"><path d="m195.119 299.763a108.83 108.83 0 0 1 17.135 103.473l-9.135 25.933-9.524-40.24a167.749 167.749 0 0 0 -25.937-57.739 167.757 167.757 0 0 0 -83.6-62.55l-20.058-6.779 36.016-3.187a108.826 108.826 0 0 1 95.103 41.089z" fill="#91a666"/><path d="m322.946 368.282a108.83 108.83 0 0 0 -98.161 36.944l-17.885 20.885 39.6-11.89a167.746 167.746 0 0 1 62.969-6.437 167.753 167.753 0 0 1 95.99 41.08l15.906 13.974-15.263-32.777a108.832 108.832 0 0 0 -83.156-61.779z" fill="#91a666"/><path d="m186.321 246.937a11.314 11.314 0 0 1 9.357-12.979 11.313 11.313 0 0 1 9.356-12.979 11.314 11.314 0 0 1 9.357-12.979l14.79 20.524a35.776 35.776 0 0 1 -18.713 25.958z" fill="#faa6b2"/><path d="m391.292 273.172a11.513 11.513 0 0 0 -5.576-15.3 11.514 11.514 0 0 0 -5.576-15.3 11.515 11.515 0 0 0 -5.576-15.3l-19.383 15.17-.777.844a36.414 36.414 0 0 0 11.152 30.6l1.445.987z" fill="#ddab4c"/><path d="m408.139 92.392a11.314 11.314 0 0 0 -11.387-11.24 11.315 11.315 0 0 0 -11.387-11.24 11.315 11.315 0 0 0 -11.388-11.24l-11.166 22.7a35.779 35.779 0 0 0 22.775 22.48z" fill="#faa6b2"/><g fill="#91a666"><path d="m182.764 148.029 24.983-8a63.606 63.606 0 0 1 29.133-2.283 63.6 63.6 0 0 1 45.85 31.944l10.436 18.771-15.5 4.967a74.9 74.9 0 0 1 -47.367-.556 74.9 74.9 0 0 1 -39.139-31.306z"/><path d="m434.809 161.839-23.171-10.08a61.264 61.264 0 0 0 -27.7-5 61.253 61.253 0 0 0 -47.022 26.19l-11.812 16.982 14.379 6.256a72.147 72.147 0 0 0 45.448 4.037 72.145 72.145 0 0 0 40.531-26.224z"/><path d="m223.447 263.839-12.979-9.357a35.776 35.776 0 0 0 18.713-25.958l12.979 9.357a16 16 0 0 1 3.623 22.335 16 16 0 0 1 -22.336 3.623z"/><path d="m350.786 280.785 16.214-5.911a38.588 38.588 0 0 1 -11.82-32.429l-16.215 5.91a17.258 17.258 0 0 0 -10.305 22.125 17.259 17.259 0 0 0 22.126 10.305z"/></g><path d="m216.139 92.392a11.314 11.314 0 0 1 11.387-11.24 11.315 11.315 0 0 1 11.387-11.24 11.315 11.315 0 0 1 11.387-11.24l11.166 22.7a35.777 35.777 0 0 1 -22.774 22.48z" fill="#ddab4c"/><path d="m249.932 115.24-11.24-11.387a35.777 35.777 0 0 0 22.774-22.48l11.24 11.387a16 16 0 0 1 -.147 22.627 16 16 0 0 1 -22.627-.147z" fill="#91a666"/><path d="m374.346 115.24 11.24-11.387a35.779 35.779 0 0 1 -22.775-22.48l-11.239 11.387a16 16 0 0 0 .147 22.627 16 16 0 0 0 22.627-.147z" fill="#91a666"/><path d="m288.139 27.314a11.312 11.312 0 0 1 16 0 11.312 11.312 0 0 1 16 0 11.312 11.312 0 0 1 16 0l-8 24a35.778 35.778 0 0 1 -32 0z" fill="#d5515e"/><path d="m296.139 67.314v-16a35.778 35.778 0 0 0 32 0v16a16 16 0 0 1 -16 16 16 16 0 0 1 -16-16z" fill="#91a666"/><path d="m315.2 203.594.577-.913a17.779 17.779 0 0 1 16.582-8.258c.077.036.149.08.227.114l11.582 5.038a66.109 66.109 0 0 0 78.786-20.333l7.528-9.795a8 8 0 0 0 -3.151-12.211l-18.663-8.119a57.662 57.662 0 0 0 -25.929-4.679 56.966 56.966 0 0 0 -44.014 24.516l-6.56 9.431a33.805 33.805 0 0 0 -14.183 2.5q1.18-12.157 1.717-24.368a151.369 151.369 0 0 0 32.564-31.027 23.871 23.871 0 0 0 10.691 2.51h.161a23.845 23.845 0 0 0 16.924-7.14l10.329-10.46 21.395-10.873a8 8 0 0 0 4.376-7.183 19.353 19.353 0 0 0 -12.661-18.018 19.421 19.421 0 0 0 -11.372-11.226 19.351 19.351 0 0 0 -18.051-12.427h-.129a8 8 0 0 0 -7.127 4.47l-10.593 21.534-10.329 10.464a24.02 24.02 0 0 0 -4.809 26.643 135.468 135.468 0 0 1 -20.929 22.2v-44.671a7.937 7.937 0 0 0 -.121-1.335 24.037 24.037 0 0 0 16.121-22.665v-14.7l7.59-22.77a8 8 0 0 0 -1.933-8.186 19.346 19.346 0 0 0 -21.656-3.923 19.417 19.417 0 0 0 -16 0 19.352 19.352 0 0 0 -21.658 3.922 8 8 0 0 0 -1.933 8.187l7.59 22.77v14.7a24.036 24.036 0 0 0 16.12 22.665 8.043 8.043 0 0 0 -.12 1.335v44.632a135.6 135.6 0 0 1 -20.9-22.162 24.024 24.024 0 0 0 -4.839-26.642l-10.327-10.462-10.594-21.537a8 8 0 0 0 -7.126-4.47h-.127a19.351 19.351 0 0 0 -18.038 12.411 19.422 19.422 0 0 0 -11.4 11.255 19.351 19.351 0 0 0 -12.645 18 8 8 0 0 0 4.376 7.184l21.4 10.873 10.327 10.464a24 24 0 0 0 27.754 4.616 151.5 151.5 0 0 0 31.712 30.418q-.551 12.62-1.829 25.189a33.719 33.719 0 0 0 -16.613-5.566l-5.582-10.039a56.973 56.973 0 0 0 -41.34-28.8 57.649 57.649 0 0 0 -26.266 2.058l-19.382 6.207a8 8 0 0 0 -4.358 11.834l6.51 10.5a66.224 66.224 0 0 0 76.348 28.124l12.029-3.853c.082-.026.158-.063.238-.091a17.783 17.783 0 0 1 15.67 9.878l.171.343q-3.158 21.226-8.358 42.089-4.447 17.791-10.387 35.153a69 69 0 0 0 -24.382-22.584 24.049 24.049 0 0 0 -9.344-24.941l-11.926-8.6-14.032-19.471a7.994 7.994 0 0 0 -7.772-3.22 19.345 19.345 0 0 0 -15.845 15.274 19.415 19.415 0 0 0 -9.357 12.979 19.346 19.346 0 0 0 -9.482 19.861 8 8 0 0 0 5.511 6.356l22.906 7.158 11.927 8.6a23.818 23.818 0 0 0 13.984 4.538 24.418 24.418 0 0 0 3.893-.316 23.862 23.862 0 0 0 10.867-4.724 53.036 53.036 0 0 1 22.784 23.24l2.914 5.829a444.98 444.98 0 0 1 -49.048 91.155 116.836 116.836 0 0 0 -124.85-139.347l-36.011 3.187a8 8 0 0 0 -1.857 15.547l20.057 6.779a159.755 159.755 0 0 1 104.311 114.552l8.763 37.027c-.31.354-.614.713-.926 1.066l-47.508 53.843a8 8 0 0 0 12 10.586l47.508-53.843q2.723-3.084 5.381-6.223l37.784-11.344a159.753 159.753 0 0 1 151.377 32.992l15.906 13.974a8 8 0 0 0 12.532-9.388l-15.264-32.776a116.954 116.954 0 0 0 -158.094-55.276 461.342 461.342 0 0 0 32.468-65.73l6.374-7a52.686 52.686 0 0 1 34.677-17.131 24.132 24.132 0 0 0 16.378 6.452 23.866 23.866 0 0 0 8.194-1.453l13.813-5.034 23.991-.666a8 8 0 0 0 7.03-4.619 19.351 19.351 0 0 0 -3.72-21.7 19.435 19.435 0 0 0 -5.488-15.042 19.349 19.349 0 0 0 -11.1-18.991 8 8 0 0 0 -8.354.987l-18.793 14.928-13.812 5.035a24.042 24.042 0 0 0 -15.66 24.972 68.357 68.357 0 0 0 -22.417 8.139q4.224-13.334 7.626-26.913 5.447-21.796 8.723-44.049zm36.659-25.5a41.068 41.068 0 0 1 31.733-17.674 41.551 41.551 0 0 1 18.693 3.373l9.268 4.031-1.284 1.672a50.11 50.11 0 0 1 -59.719 15.404l-2.634-1.145zm11.152-66.094h-.054a8 8 0 0 1 -5.692-13.62l3.5-3.55a44.192 44.192 0 0 0 11.386 11.239l-3.5 3.551a7.943 7.943 0 0 1 -5.64 2.38zm14.352-42.087v.05a8 8 0 0 0 8 7.949h.074a3.318 3.318 0 0 1 3.314 3.293 8 8 0 0 0 8 7.947h.053a.434.434 0 0 1 .051 0l-11.712 5.948a27.978 27.978 0 0 1 -13.578-13.4zm-149.91 19.239h.073a8 8 0 0 0 8-7.949 3.313 3.313 0 0 1 3.313-3.291h.022a8.009 8.009 0 0 0 8.052-7.947c0-.018 0-.036 0-.053l5.8 11.79a27.98 27.98 0 0 1 -13.577 13.4l-11.714-5.952zm28.172 20.468-3.5-3.55a44.2 44.2 0 0 0 11.388-11.24l3.5 3.55a8 8 0 0 1 -11.388 11.24zm10.7 70.541a50.111 50.111 0 0 1 -57.874-21.315l-1.11-1.792 9.625-3.083a41.529 41.529 0 0 1 18.936-1.484 41.069 41.069 0 0 1 29.8 20.764l3.355 6.034zm-69.362 61.694a8 8 0 0 0 6.615-9.177 3.319 3.319 0 0 1 2.741-3.8 8 8 0 0 0 6.616-9.177c0-.017-.005-.035-.008-.052l7.681 10.66a27.972 27.972 0 0 1 -11.156 15.475l-12.541-3.919zm37.125 16.9a7.956 7.956 0 0 1 -5.959-1.408l-4.047-2.917a44.178 44.178 0 0 0 9.357-12.979l4.046 2.917a8 8 0 0 1 -3.4 14.387zm-59.877 67.837a174.416 174.416 0 0 0 -73.211-59.973 100.828 100.828 0 0 1 103.709 133.959l-.08.23-3.248-13.722a174.988 174.988 0 0 0 -27.174-60.492zm147.6 49.607a100.5 100.5 0 0 1 76.932 56.986 174.428 174.428 0 0 0 -88.56-33.373q-7.789-.685-15.546-.686a174.92 174.92 0 0 0 -50.425 7.431l-13.5 4.054.158-.184a100.326 100.326 0 0 1 90.938-34.227zm-23.33-343.229a8 8 0 0 0 11.314 0 3.317 3.317 0 0 1 4.686 0 8 8 0 0 0 11.314 0l.037-.037-4.154 12.467a27.98 27.98 0 0 1 -19.078 0l-4.155-12.464zm5.658 29.355a43.555 43.555 0 0 0 16 0v4.988a8 8 0 0 1 -16 0zm68.616 177.031-.022.048a8 8 0 0 0 3.874 10.629 3.315 3.315 0 0 1 1.6 4.4 8 8 0 0 0 3.875 10.63l.046.022-13.128.368a27.979 27.979 0 0 1 -6.534-17.924zm-30.355 17.123 4.687-1.708a44.187 44.187 0 0 0 5.48 15.033l-4.687 1.708a8 8 0 0 1 -5.48-15.033z"/></g></svg>