<svg height="512" viewBox="0 0 512 512" width="512" xmlns="http://www.w3.org/2000/svg"><g id="filled_outline" data-name="filled outline"><path d="m410.029 211.366c-.786-.461-1.586-.885-2.4-1.279l13.819-42.915-48 .49 7.253 40.934a34.811 34.811 0 0 0 -9.559 5.175l-1.133.868a34.9 34.9 0 0 0 -13.5 24.209l-1.482 14.7a135.643 135.643 0 0 1 -31.968 74.668 135.633 135.633 0 0 1 -68.744 42.973l-26.738 6.976a74.605 74.605 0 0 0 -43.665 31.444l-15.912 8.166.164 16 16.08 7.836 3 2.2a78.033 78.033 0 0 0 64.5 12.95 228.344 228.344 0 0 0 115.747-68.8 228.348 228.348 0 0 0 57.009-123.178l2.479-18.72a34.907 34.907 0 0 0 -16.95-34.697z" fill="#ffc864"/><path d="m419.6 172.91-5.51 17.11-7.32-14.78z" fill="#f3be5f"/><path d="m426.98 246.06-2.48 18.72c-3.04 22.94-6.89 42.46-16.5 63.22s-24.98 42.8-40.5 59.96a228.636 228.636 0 0 1 -52.69 43.13 226.175 226.175 0 0 1 -36.21 17.4 74.592 74.592 0 0 1 34.83-39.65l24.4-12.96a135.616 135.616 0 0 0 70.81-137.73l-1.96-14.64a34.93 34.93 0 0 1 7.55-26.68l.9-1.1c.11-.14.23-.28.35-.41a34.866 34.866 0 0 1 11.5 30.74z" fill="#f3be5f"/><path d="m222.385 260.276c-13.5-29.086-23.611-59.63-28.882-91.261l-.3-1.777a66.105 66.105 0 0 0 -65.203-55.238 66.105 66.105 0 0 0 -65.206 55.238l-.118.706c-5.231 31.388-14.39 62.08-28.288 90.7a103.6 103.6 0 0 0 -10.382 46.523c.619 56.139 46.386 102.043 102.523 102.819a104.04 104.04 0 0 0 95.856-147.714z" fill="#91a666"/><circle cx="128" cy="304" fill="#ee9d0d" r="56"/><path d="m460.242 204.4q-1.308-.4-2.628-.692l3.613-36.947-46.618 8.477 16.464 33.241a34.813 34.813 0 0 0 -8.1 7.243l-.9 1.106a34.905 34.905 0 0 0 -7.544 26.674l1.955 14.647a135.627 135.627 0 0 1 -13.852 80.034 135.63 135.63 0 0 1 -56.955 57.693l-24.4 12.965a74.611 74.611 0 0 0 -35.219 40.681l-13.6 11.62 3.855 15.528 17.456 3.909 3.431 1.451a78.036 78.036 0 0 0 65.749-2.3 228.342 228.342 0 0 0 96.719-93.683 228.341 228.341 0 0 0 27-133.016l-1.913-18.787a34.9 34.9 0 0 0 -24.513-29.844z" fill="#ffc864"/><path d="m314.937 329.8c-16-3.863-32.478.538-46.5 10.849-14.022-10.311-30.495-14.712-46.5-10.849-33.769 8.151-52.649 49.955-42.17 93.372s46.35 72.007 80.119 63.856a49.589 49.589 0 0 0 8.551-2.925 49.6 49.6 0 0 0 8.552 2.925c33.769 8.151 69.639-20.438 80.118-63.856s-8.401-85.219-42.17-93.372z" fill="#ea2b2d"/><path d="m144 360h-26.334a86.833 86.833 0 0 0 -77.666 48l-8.845 4.422a12.945 12.945 0 0 0 -7.155 11.578 12.945 12.945 0 0 0 7.155 11.578l8.845 4.422a86.833 86.833 0 0 0 77.666 48h26.334" fill="#dcac56"/><circle cx="144" cy="424" fill="#ffc864" r="64"/><path d="m329.484 268.418-12.944-3.262a38 38 0 0 0 -43.12 19.55l-10.078 19.712 23.88.455a38 38 0 0 0 34.872-21.32z" fill="#91a666"/><path d="m386.779 295.424a8.107 8.107 0 0 0 1.244.1 8 8 0 0 0 7.895-6.767l2.5-16.026a8 8 0 0 0 -15.809-2.469l-2.5 16.026a8 8 0 0 0 6.67 9.136z"/><path d="m397.752 395.876-3.767 2.712a8 8 0 1 0 9.346 12.986l3.768-2.711a139.193 139.193 0 0 0 57.253-99.786 8 8 0 0 0 -15.928-1.516 123.191 123.191 0 0 1 -50.672 88.315z"/><path d="m448.44 284.208a8 8 0 0 0 7.967 7.375c.21 0 .422-.008.634-.024a8 8 0 0 0 7.351-8.6l-1.268-16.171a8 8 0 0 0 -15.951 1.25z"/><path d="m152 296a8 8 0 0 0 -8 8 16.019 16.019 0 0 1 -16 16 8 8 0 0 0 0 16 32.036 32.036 0 0 0 32-32 8 8 0 0 0 -8-8z"/><path d="m136 168a8 8 0 0 0 8-8v-16a8 8 0 0 0 -16 0v16a8 8 0 0 0 8 8z"/><path d="m168 192a8 8 0 0 0 8-8v-16a8 8 0 0 0 -16 0v16a8 8 0 0 0 8 8z"/><path d="m136 216a8 8 0 0 0 8-8v-16a8 8 0 0 0 -16 0v16a8 8 0 0 0 8 8z"/><path d="m27.578 442.733 6.516 3.258a94.292 94.292 0 0 0 83.572 50.009h26.334a71.826 71.826 0 0 0 53.186-23.522c18.228 19.216 42.248 27.716 64.577 22.328a56.786 56.786 0 0 0 6.674-2.057 56.865 56.865 0 0 0 6.674 2.058 58.149 58.149 0 0 0 13.661 1.628 60.763 60.763 0 0 0 18.021-2.794 85.721 85.721 0 0 0 59.771-6.778 236.347 236.347 0 0 0 128.059-234.641l-1.913-18.787a42.806 42.806 0 0 0 -26.5-35.394l2.981-30.5a8 8 0 0 0 -9.393-8.649l-40.352 7.338-44.846-6.485a8 8 0 0 0 -9.023 9.313l6.168 34.808a42.394 42.394 0 0 0 -5.46 3.554l-1.134.868a43.067 43.067 0 0 0 -16.6 29.758l-1.482 14.7a127.018 127.018 0 0 1 -29.451 69.5c-.271-.07-.534-.157-.807-.223-13.433-3.243-27.5-1.534-40.708 4.743a128.066 128.066 0 0 0 -2.35-14.15l13.313.254c.292 0 .58.008.871.008a46.163 46.163 0 0 0 41.343-25.817l7.39-15.135a8 8 0 0 0 -5.235-11.268l-12.935-3.258a45.778 45.778 0 0 0 -52.2 23.666l-2.052 4.013a127.114 127.114 0 0 0 -12.972-21.459 8 8 0 0 0 -12.8 9.6 112.8 112.8 0 0 1 21.493 53.165 64.115 64.115 0 0 0 -21.2-5.732 112.989 112.989 0 0 0 1.231-16.653 111.027 111.027 0 0 0 -10.359-47.093c-13.851-29.837-23.354-59.851-28.247-89.2l-.3-1.779a74.106 74.106 0 0 0 -146.2 0l-.118.706c-5.337 32.025-14.621 61.809-27.593 88.526a110.9 110.9 0 0 0 -11.176 50.1 112.04 112.04 0 0 0 32.107 77.047 95.406 95.406 0 0 0 -14.02 19.7l-6.516 3.258a20.944 20.944 0 0 0 0 37.466zm252.965-154.385a29.861 29.861 0 0 1 34.042-15.435l3.385.853-3.065 6.277a30.148 30.148 0 0 1 -27.53 16.832l-11.083-.212zm-136.543 191.652a56 56 0 1 1 56-56 56.064 56.064 0 0 1 -56 56zm-64-176a48 48 0 1 1 48 48 48.055 48.055 0 0 1 -48-48zm358.242-99.068-11.748-23.72 25.739-4.68-2.581 26.4a8 8 0 0 0 6.223 8.587c.7.156 1.379.334 2.025.532a26.851 26.851 0 0 1 18.892 23l1.913 18.787a220.347 220.347 0 0 1 -119.389 218.762 69.935 69.935 0 0 1 -27.832 7.5c16.145-13.161 28-32.661 33.4-55.046a108.176 108.176 0 0 0 2.772-33.63 143.614 143.614 0 0 0 56.753-134.327l-1.955-14.646a27.006 27.006 0 0 1 5.815-20.562l.9-1.106a26.889 26.889 0 0 1 6.248-5.58 8 8 0 0 0 2.825-10.271zm-19.625-3.573 2.389 4.823c-.631.578-1.233 1.186-1.827 1.8-.679-.543-1.37-1.072-2.083-1.574zm-55.626 52.994 1.482-14.7a27.01 27.01 0 0 1 10.408-18.661l1.134-.868a26.835 26.835 0 0 1 7.367-3.986 8 8 0 0 0 5.2-8.935l-5.322-30.035 24.849 3.594-8.139 27.02a8 8 0 0 0 4.16 9.5c.648.315 1.27.647 1.85.988a26.91 26.91 0 0 1 4.064 2.932 43.054 43.054 0 0 0 -3.454 23.365l1.956 14.646a127.559 127.559 0 0 1 -43.946 114.204 89.622 89.622 0 0 0 -3.528-10.494 138.667 138.667 0 0 0 28.776-48.766 8 8 0 1 0 -15.148-5.157 123.169 123.169 0 0 1 -15.653 30.887q-2.862 4.1-6.069 7.97a65.276 65.276 0 0 0 -19.972-19.157 142.877 142.877 0 0 0 29.985-74.347zm-99.291 92.747a8.7 8.7 0 0 0 10.484-.7c12.383-8.746 26.143-11.888 38.879-8.813 20.893 5.043 35.141 25.444 38.281 50.829.006.056.015.111.022.167a92.328 92.328 0 0 1 -2.036 32.717c-4.653 19.278-14.788 35.93-28.536 46.887-13.158 10.488-28.047 14.42-41.929 11.069a41.757 41.757 0 0 1 -7.174-2.456 8 8 0 0 0 -6.509 0 41.757 41.757 0 0 1 -7.174 2.456c-17.462 4.217-36.715-3.419-51.253-20.019a71.828 71.828 0 0 0 -16.278-90.161c6.691-16.561 18.7-27.961 33.335-31.494 13.082-3.161 27.247.218 39.888 9.518zm-231.694-42.017a95.052 95.052 0 0 1 9.578-42.941c13.643-28.1 23.394-59.347 28.983-92.882l.118-.707a58.106 58.106 0 0 1 114.63 0l.3 1.779c5.13 30.775 15.061 62.17 29.517 93.314a95.133 95.133 0 0 1 8.868 40.354 96.818 96.818 0 0 1 -1.6 17.527c-.78.155-1.56.311-2.336.5-18.809 4.541-34.212 18.221-43.109 37.99a71.605 71.605 0 0 0 -10.941-4.562 64.008 64.008 0 1 0 -75.395.443 93.9 93.9 0 0 0 -30.677 15.609 96.031 96.031 0 0 1 -27.936-66.424zm2.727 114.495 8.845-4.423a8 8 0 0 0 3.577-3.577 79.193 79.193 0 0 1 17.162-22.85 8.053 8.053 0 0 0 1.362-1.232v-.006a78.038 78.038 0 0 1 29.349-16.21 71.852 71.852 0 0 0 0 105.44 78.374 78.374 0 0 1 -47.878-40.3 8 8 0 0 0 -3.577-3.577l-8.845-4.423a4.944 4.944 0 0 1 0-8.844z"/><path d="m144 376a8 8 0 0 0 -8 8v8a8 8 0 0 0 16 0v-8a8 8 0 0 0 -8-8z"/><path d="m121.373 390.059a8 8 0 0 0 -11.314 11.314l5.657 5.656a8 8 0 1 0 11.313-11.313z"/><path d="m120 424a8 8 0 0 0 -8-8h-8a8 8 0 0 0 0 16h8a8 8 0 0 0 8-8z"/><path d="m115.716 440.971-5.657 5.656a8 8 0 0 0 11.314 11.314l5.656-5.657a8 8 0 1 0 -11.313-11.313z"/><path d="m144 448a8 8 0 0 0 -8 8v8a8 8 0 0 0 16 0v-8a8 8 0 0 0 -8-8z"/><path d="m172.284 440.971a8 8 0 0 0 -11.313 11.313l5.656 5.657a8 8 0 0 0 11.314-11.314z"/><path d="m168 424a8 8 0 0 0 8 8h8a8 8 0 0 0 0-16h-8a8 8 0 0 0 -8 8z"/><path d="m166.627 409.373a7.975 7.975 0 0 0 5.657-2.344l5.657-5.656a8 8 0 0 0 -11.314-11.314l-5.656 5.657a8 8 0 0 0 5.656 13.657z"/><path d="m314.686 437.112a8 8 0 0 0 10.912-2.471 73.621 73.621 0 0 0 11.6-46.5 8 8 0 0 0 -15.938 1.416 57.536 57.536 0 0 1 -9.079 36.367l-.117.184a8 8 0 0 0 2.622 11.004z"/><path d="m296.257 461.9a8 8 0 0 0 11.3-.622l3.207-3.581a8 8 0 0 0 -11.919-10.674l-3.207 3.581a8 8 0 0 0 .619 11.296z"/></g></svg>