<svg height="512" viewBox="0 0 512 512" width="512" xmlns="http://www.w3.org/2000/svg"><g id="filled_outline" data-name="filled outline"><path d="m464 328-48-128h-40l-16-48h-50.346l53.091 176z" fill="#92d1f7"/><path d="m24 328h464v160h-464z" fill="#5ebef7"/><path d="m80 328 48-104h40l64-136h32l8 24h32l40 136h48l32 80z" fill="#a6deff"/><path d="m136 304 32-80h-16z" fill="#92d1f7"/><path d="m360 296-16-48h16z" fill="#5ebef7"/><path d="m288 168-16-56h16z" fill="#92d1f7"/><path d="m88 328 16 64h24l24 64h32l16 32h144l24-64h40l16-32h24l24-64z" fill="#92d1f7"/><path d="m304 264h-39.273l-8.727-24h-40l-40 88h152z" fill="#b8e5ff"/><path d="m101.9 64.1a15.982 15.982 0 0 0 -13.9-8.1c-.455 0-.9.031-1.348.068a24 24 0 0 0 -46.652 7.932c0 .134.008.266.01.4a20.006 20.006 0 0 0 -16.01 19.6 20 20 0 0 0 20 20h56a20 20 0 0 0 20-20 20 20 0 0 0 -18.1-19.9z" fill="#dcdbd6"/><path d="m453.9 88.1a15.982 15.982 0 0 0 -13.9-8.1c-.455 0-.9.031-1.348.068a24 24 0 0 0 -46.652 7.932c0 .134.008.266.01.4a20.006 20.006 0 0 0 -16.01 19.6 20 20 0 0 0 20 20h56a20 20 0 0 0 20-20 20 20 0 0 0 -18.1-19.9z" fill="#eae9e4"/><path d="m157.9 98.774a15.984 15.984 0 0 0 -13.9-8.1c-.455 0-.9.031-1.348.068a24 24 0 0 0 -46.652 7.936c0 .135.008.267.01.4a20.006 20.006 0 0 0 -16.01 19.6 20 20 0 0 0 20 20h56a20 20 0 0 0 20-20 20 20 0 0 0 -18.1-19.904z" fill="#eae9e4"/><path d="m376 200 8 28.746 2.827-28.746z" fill="#5ebef7"/><path d="m272.81 287.249-8.083-23.249h7.395z" fill="#a8d1e8"/><path d="m488 320h-18.457l-46.053-122.809a8 8 0 0 0 -7.49-5.191h-34.234l-14.176-42.53a8 8 0 0 0 -7.59-5.47h-38.25l-10.075-34.257a8 8 0 0 0 -7.675-5.743h-26.234l-6.176-18.53a8 8 0 0 0 -7.59-5.47h-32a8 8 0 0 0 -7.238 4.594l-61.839 131.406h-34.923a8 8 0 0 0 -7.264 4.647l-45.855 99.353h-50.881a8 8 0 0 0 -8 8v160a8 8 0 0 0 8 8h464a8 8 0 0 0 8-8v-160a8 8 0 0 0 -8-8zm-133.766-160 12.659 37.978 1.517 4.552 5.332 16a8 8 0 1 0 15.18-5.058l-1.822-5.472h23.357l42 112h-23.041l-29.988-74.971a8 8 0 0 0 -7.428-5.029h-42.014l-23.529-80zm-221.115 72h23.065l-27.612 69.029a8 8 0 1 0 14.856 5.942l31.912-79.781 61.737-131.19h20.97l22.29 74.3a8 8 0 0 0 15.326-4.6l-13.71-45.7h16.061l38.311 130.257c.009.029.024.055.032.083.02.064.032.127.053.19l16 48a8 8 0 0 0 15.18-5.06l-12.49-37.47h31.484l25.6 64h-78.641l-22.053-58.809a8 8 0 0 0 -7.49-5.191h-32a8.051 8.051 0 0 0 -1.61.162l-6.871-18.9a8 8 0 0 0 -7.519-5.262h-40a8 8 0 0 0 -7.283 4.689l-37.869 83.311h-78.348zm160.481 88-17.455-48h22.307l18 48zm-17.026 0h-88.15l32.727-72h29.249zm-244.574 16h49.754l4 16h-37.754a8 8 0 0 0 0 16h41.754l4 16h-21.754a8 8 0 0 0 0 16h50.456l6 16h-72.456a8 8 0 0 0 0 16h78.456l6 16h-4.456a8 8 0 0 0 0 16h43.056l8 16h-155.056zm164.944 128h22.112l8 16h-22.112zm103.056 16 6.9-16.549a7.988 7.988 0 0 0 4.436-10.647l22-52.8h18.664a8 8 0 0 0 7.155-4.422l13.789-27.582h67.056a8 8 0 0 0 0-16h-96a8 8 0 0 0 0 16h11.056l-8 16h-19.056a8 8 0 0 0 -7.385 4.923l-24.615 59.077h-16a8 8 0 0 0 0 16h9.333l-6.666 16h-37.723l-8-16h11.056a8 8 0 0 0 0-16h-19.056l-8-16h51.056a8 8 0 0 0 0-16h-82.584l-6.4-16h40.984a8 8 0 0 0 0-16h-64a8 8 0 0 0 0 16h5.784l10.788 26.971a8 8 0 0 0 7.428 5.029h19.056l8 16h-53.512l-6-16h.456a8 8 0 0 0 0-16h-6.456l-10.054-26.809a8 8 0 0 0 -7.49-5.191h-17.754l-4-16h13.754a8 8 0 0 0 0-16h-17.754l-4-16h362.21l-18 48h-34.456a8 8 0 0 0 0 16h3.056l-8 16h-59.056a8 8 0 0 0 0 16h12.457l-6 16h-14.457a8 8 0 0 0 0 16h8.456l-6 16zm180 0h-124.457l6-16h22.457a8 8 0 0 0 0-16h-16.456l6-16h66.456a8 8 0 0 0 0-16h-19.056l8-16h35.056a8 8 0 0 0 0-16h-4.457l18-48h2.457z"/><path d="m168 352h-16a8 8 0 0 0 0 16h16a8 8 0 0 0 0-16z"/><path d="m304 352h-96a8 8 0 0 0 0 16h96a8 8 0 0 0 0-16z"/><path d="m296 384h-32a8 8 0 0 0 0 16h32a8 8 0 0 0 0-16z"/><path d="m44 112h28.828a27.929 27.929 0 0 0 27.172 34.679h56a28 28 0 0 0 6.53-55.233 24.091 24.091 0 0 0 -14.63-8.446 32.054 32.054 0 0 0 -25.852-16.252 28.276 28.276 0 0 0 -15.5-9.965 24.094 24.094 0 0 0 -14.648-8.462 32 32 0 0 0 -59.423 10.159 28 28 0 0 0 11.523 53.52zm91.1-18.609a8.006 8.006 0 0 0 8.214 5.328c.227-.02.454-.04.684-.04a8.027 8.027 0 0 1 6.95 4.056 8 8 0 0 0 6.2 4 12 12 0 0 1 -1.148 23.944h-56a12 12 0 0 1 -2.4-23.76 8 8 0 0 0 6.411-7.958l-.011-.282a16 16 0 0 1 31.1-5.288zm-93.5-21.15a8 8 0 0 0 6.411-7.958l-.011-.283a16 16 0 0 1 31.1-5.287 8 8 0 0 0 8.214 5.328c.227-.02.454-.041.684-.041a8.027 8.027 0 0 1 6.95 4.058 8 8 0 0 0 6.2 4c.308.029.609.087.912.14a32.056 32.056 0 0 0 -13.583 20.96 27.877 27.877 0 0 0 -4.864 2.842h-39.613a12 12 0 0 1 -2.4-23.759z"/><path d="m396 136h56a28 28 0 0 0 6.53-55.232 24.091 24.091 0 0 0 -14.63-8.447 32 32 0 0 0 -59.423 10.159 28 28 0 0 0 11.523 53.52zm-2.4-39.759a8 8 0 0 0 6.411-7.958l-.011-.283a16 16 0 0 1 31.1-5.287 8 8 0 0 0 8.214 5.328c.227-.02.454-.041.684-.041a8.027 8.027 0 0 1 6.95 4.058 8 8 0 0 0 6.2 4 12 12 0 0 1 -1.148 23.942h-56a12 12 0 0 1 -2.4-23.759z"/></g></svg>