<svg height="512" viewBox="0 0 512 512" width="512" xmlns="http://www.w3.org/2000/svg"><g id="filled_outline" data-name="filled outline"><path d="m315.21 360.049-11.21-56.049h-96l-11.21 56.049a123.472 123.472 0 0 1 -18.339 44.274 53.823 53.823 0 0 0 -1.948 56.558 53.82 53.82 0 0 0 46.731 27.119h65.532a53.82 53.82 0 0 0 46.73-27.119 53.823 53.823 0 0 0 -1.948-56.558 123.472 123.472 0 0 1 -18.338-44.274z" fill="#dcdbd6"/><path d="m295.238 34.241-3.649-1.622a100 100 0 0 0 -72.24-3.487 100 100 0 0 0 -60.294 55.479l-19.909 46.453a202.123 202.123 0 0 1 -42.862 63.308 75.9 75.9 0 0 0 -10.364 94.417 98.634 98.634 0 0 0 83.214 45.68h190.082a75.9 75.9 0 0 0 67.884-41.956 75.9 75.9 0 0 0 -11.469-84.713l-16.6-18.45a202.145 202.145 0 0 1 -41.518-71.3l-8.013-24.05a100.005 100.005 0 0 0 -54.262-59.759z" fill="#d5515e"/><g fill="#eae9e4"><path d="m168 304a32.022 32.022 0 0 1 -17.72 28.65 98.448 98.448 0 0 1 -45.62-22.18 32 32 0 1 1 63.34-6.47z"/><path d="m168 152a32 32 0 0 1 -54.49 22.76 201.529 201.529 0 0 0 25.64-43.7l4.36-10.17a32.006 32.006 0 0 1 24.49 31.11z"/><path d="m400 312a31.957 31.957 0 0 1 -2.33 12.01 75.885 75.885 0 0 1 -38.45 10.46h-14.01a32 32 0 1 1 54.79-22.47z"/><circle cx="240" cy="248" r="32"/><circle cx="312" cy="176" r="32"/><circle cx="240" cy="88" r="32"/></g><path d="m345.21 342.47h14.007a83.9 83.9 0 0 0 62.361-140.025l-16.605-18.445a193.007 193.007 0 0 1 -39.873-68.486l-8.014-24.042a108.251 108.251 0 0 0 -58.6-64.542l-3.648-1.621a108 108 0 0 0 -143.138 56.15l-19.908 46.454a193.4 193.4 0 0 1 -24.514 41.828l-.006.008a194.628 194.628 0 0 1 -16.646 18.966 83.9 83.9 0 0 0 -11.455 104.368 106.135 106.135 0 0 0 89.963 49.386h23.013l-3.2 16.011a114.882 114.882 0 0 1 -17.15 41.4 61.823 61.823 0 0 0 51.437 96.12h65.532a61.822 61.822 0 0 0 51.439-96.115 114.882 114.882 0 0 1 -17.15-41.4l-3.2-16.011h25.355zm-198.71-208.255 1.33-3.1a24.007 24.007 0 0 1 -23.168 42.051 209.675 209.675 0 0 0 21.838-38.951zm2.429 190a89.891 89.891 0 0 1 -36.812-17.879c-.076-.778-.117-1.558-.117-2.336a24 24 0 1 1 36.929 20.215zm177.964 84.545a45.823 45.823 0 0 1 -38.127 71.24h-65.532a45.823 45.823 0 0 1 -38.127-71.239 130.819 130.819 0 0 0 19.528-47.143l3.829-19.149h15.359a128.281 128.281 0 0 1 -13.289 50.574l-1.689 3.379a8 8 0 1 0 14.31 7.156l1.69-3.379a144.37 144.37 0 0 0 14.992-57.73h32.326a144.379 144.379 0 0 0 14.992 57.731l1.69 3.378a8 8 0 1 0 14.31-7.156l-1.689-3.378a128.29 128.29 0 0 1 -13.289-50.575h15.358l3.83 19.149a130.807 130.807 0 0 0 19.528 47.142zm3.807-82.291h-161.587a40.007 40.007 0 1 0 -71.225-34.606q-2.769-3.531-5.219-7.369a67.9 67.9 0 0 1 9.272-84.465q6.783-6.783 12.872-14.1a40.009 40.009 0 1 0 39.347-69.589l12.248-28.579a91.961 91.961 0 0 1 121.932-47.831l3.648 1.621a92.207 92.207 0 0 1 49.917 54.981l8.014 24.042a208.932 208.932 0 0 0 43.161 74.126l16.606 18.449a67.515 67.515 0 0 1 10.261 75.787 68.351 68.351 0 0 1 -12.362 17.349 40 40 0 1 0 -76.885 20.184zm37.3-38.469a23.99 23.99 0 0 1 23.071 30.6 67.9 67.9 0 0 1 -31.854 7.868h-10.364a24 24 0 0 1 19.147-38.468z"/><path d="m240 208a40 40 0 1 0 40 40 40.045 40.045 0 0 0 -40-40zm0 64a24 24 0 1 1 24-24 24.028 24.028 0 0 1 -24 24z"/><path d="m352 176a40 40 0 1 0 -40 40 40.045 40.045 0 0 0 40-40zm-40 24a24 24 0 1 1 24-24 24.028 24.028 0 0 1 -24 24z"/><path d="m240 128a40 40 0 1 0 -40-40 40.045 40.045 0 0 0 40 40zm0-64a24 24 0 1 1 -24 24 24.028 24.028 0 0 1 24-24z"/><path d="m227.578 448.845-1.689-.845a17.791 17.791 0 0 1 -9.889-16 8 8 0 0 0 -16 0 33.705 33.705 0 0 0 18.732 30.311l1.69.844a8 8 0 0 0 7.156-14.31z"/><path d="m272 448h-16a8 8 0 0 0 0 16h16a8 8 0 0 0 0-16z"/></g></svg>