<svg id="Capa_1" enable-background="new 0 0 512 512" height="512" viewBox="0 0 512 512" width="512" xmlns="http://www.w3.org/2000/svg"><g id="filled_outline"><path d="m312 161.572v-81.572h-112v81.574c-87.477 30.928-133.32 126.914-102.392 214.392s126.915 133.32 214.392 102.392 133.32-126.914 102.392-214.392c-16.915-47.843-54.549-85.477-102.392-102.392z" fill="#eae9e4"/><path d="m256 487.99c80.448.001 149.61-57.018 164.95-135.99h-329.883c15.34 78.965 84.492 135.982 164.933 135.99z" fill="#915628"/><path d="m420.95 352c-17.756 91.148-106.041 150.644-197.189 132.888-10.875-2.118-21.513-5.307-31.761-9.518v-3.37c-.003-14.437 8.952-27.361 22.47-32.43l41.53-15.57c-.006-9.666 5.882-18.359 14.86-21.94l25.14-10.06v-1.39c-.002-8.951 5.054-17.136 13.06-21.14l34.94-17.47z" fill="#a6deff"/><path d="m200 48h112c8.837 0 16 7.163 16 16 0 8.837-7.163 16-16 16h-112c-8.837 0-16-7.163-16-16 0-8.837 7.163-16 16-16z" fill="#dcdbd6"/><path d="m420.95 352c-17.756 91.148-106.041 150.644-197.189 132.888-10.875-2.118-21.513-5.307-31.761-9.518v-3.37c-.003-14.437 8.952-27.361 22.47-32.43l41.53-15.57c-.006-9.666 5.882-18.359 14.86-21.94l25.14-10.06v-1.39c-.002-8.951 5.054-17.136 13.06-21.14l34.94-17.47z" fill="#92d1f7"/><path d="m399.12 408c-3.407 5.55-7.14 10.892-11.18 16h-27.94c-4.418 0-8-3.582-8-8s3.582-8 8-8z" fill="#92d1f7"/><path d="m160 240c.012 8.825-7.133 15.988-15.958 16-.014 0-.028 0-.042 0h-43.37c6.837-16.561 16.28-31.922 27.97-45.5 4.612 2.94 7.403 8.031 7.4 13.5h8c8.837 0 16 7.163 16 16z" fill="#eae9e4"/><path d="m344 272c-21.226-15.919-40.081-34.774-56-56h48l-9.321-5.593c-20.036-12.022-36.229-29.508-46.679-50.407h24l-7.03-7.03c-10.866-10.866-16.97-25.603-16.97-40.97h16c-10.522-10.522-18.45-23.349-23.155-37.466l-16.845-50.534-16.845 50.534c-4.705 14.117-12.633 26.944-23.155 37.466h16c0 15.367-6.104 30.104-16.97 40.97l-7.03 7.03h24c-10.45 20.899-26.643 38.385-46.679 50.407l-9.321 5.593h48c-15.919 21.226-34.774 40.081-56 56z" fill="#91a666"/><path d="m280 352h-48c5.299-15.897 8-32.543 8-49.3v-30.7h32v30.7c0 16.757 2.701 33.403 8 49.3z" fill="#7a4922"/><path d="m424 320c.004 10.739-1.017 21.455-3.05 32h-107.62l101.47-86.97c6.11 17.682 9.219 36.262 9.2 54.97z" fill="#667447"/><path d="m392 352-56-56-72 56z" fill="#768753"/><path d="m160 240c.012 8.825-7.133 15.988-15.958 16-.014 0-.028 0-.042 0h-43.37c6.837-16.561 16.28-31.922 27.97-45.5 4.612 2.94 7.403 8.031 7.4 13.5h8c8.837 0 16 7.163 16 16z" fill="#a6deff"/><path d="m152 304-24 64h48z" fill="#768753"/><path d="m200 320-24 64h48z" fill="#91a666"/><g id="outline"><path d="m320 156.013v-69.389c12.495-4.424 19.038-18.139 14.614-30.634-3.392-9.58-12.451-15.986-22.614-15.99h-42.233l-6.177-18.53c-1.396-4.192-5.926-6.458-10.118-5.062-2.39.796-4.266 2.672-5.062 5.062l-6.177 18.53h-42.233c-13.255.005-23.996 10.755-23.99 24.01.004 10.163 6.41 19.222 15.99 22.614v69.391c-44.39 17.384-79.846 52.006-98.282 95.969-.368.633-.647 1.314-.829 2.023-8.509 20.961-12.883 43.371-12.881 65.993 0 97.045 78.951 176 176 176s176-78.951 176-176c-.077-72.49-44.512-137.546-112.008-163.987zm-8-100.013c4.418 0 8 3.582 8 8s-3.582 8-8 8h-31.566l-5.334-16zm-10.343 50.343c-5.461-5.472-10.178-11.64-14.029-18.343h16.372v60.686l-1.372-1.373c-7.439-7.394-12.341-16.957-14-27.313h7.372c4.418 0 8-3.581 8-8 0-2.122-.843-4.157-2.343-5.657zm-47.891-50.343h4.468l5.333 16h-15.134zm-11.385 32h27.238c2.618 5.622 5.731 11 9.3 16.072-3.964.541-6.92 3.927-6.919 7.928-.042 14.459 4.705 28.524 13.5 40h-5.5c-4.418 0-8 3.583-7.999 8.001 0 1.241.289 2.466.844 3.576 8.645 17.31 21.029 32.484 36.255 44.423h-21.1c-4.418 0-8 3.582-8 8 0 1.731.561 3.415 1.6 4.8 11.79 15.725 25.16 30.2 39.9 43.2h-131c14.74-13 28.11-27.475 39.9-43.2 2.651-3.535 1.935-8.549-1.6-11.2-1.385-1.039-3.069-1.6-4.8-1.6h-21.095c15.225-11.94 27.606-27.113 36.25-44.423 1.976-3.952.373-8.757-3.579-10.733-1.11-.555-2.335-.844-3.576-.844h-5.5c8.795-11.476 13.542-25.541 13.5-40 .001-4.002-2.956-7.388-6.921-7.928 3.57-5.072 6.683-10.45 9.302-16.072zm25.632 250.745-6.757 5.255h-18.543c3.515-13.485 5.292-27.364 5.287-41.3v-22.7h16v22.7c-.003 12.127 1.343 24.216 4.013 36.045zm-59.4-223.683c1.238 2.988 4.153 4.936 7.387 4.938h7.367c-1.658 10.356-6.558 19.918-13.995 27.313l-1.372 1.373v-60.686h16.372c-3.851 6.703-8.568 12.871-14.029 18.343-2.288 2.288-2.973 5.729-1.734 8.719zm-8.613-59.062h36.9l-5.334 16h-31.566c-4.418 0-8-3.582-8-8s3.582-8 8-8zm-72 168.081c.044 4.387 3.613 7.919 8 7.919h8c4.418 0 8 3.582 8 8s-3.582 8-8 8h-30.832c4.236-8.391 9.199-16.395 14.832-23.919zm83.775-56.081h6.416c-9.486 14.49-22.131 26.643-36.986 35.547l-9.1 5.46c-3.142 1.885-4.822 5.636-3.811 9.159 1.016 3.541 4.201 5.834 7.706 5.834h31.385c-13.06 15.391-27.794 29.279-43.928 41.407-3.026 2.275-4.316 6.331-2.79 9.795 1.309 2.971 4.208 4.797 7.333 4.797h64v22.7c.004 13.976-1.978 27.881-5.885 41.3h-8.572l-10.053-26.809c-1.552-4.137-6.164-6.232-10.301-4.679-2.162.811-3.868 2.517-4.679 4.679l-10.053 26.81h-6.914l-16.053-42.809c-1.552-4.137-6.164-6.232-10.301-4.679-2.162.811-3.868 2.517-4.679 4.679l-16.053 42.809h-30.648c-1.2-7.944-1.802-15.966-1.801-24-.002-19.124 3.437-38.093 10.152-56h37.3c13.455 0 24.791-11.011 24.536-24.464-.248-13.041-10.896-23.536-23.996-23.536h-1.369c-.73-2.049-1.736-3.989-2.99-5.766 17.428-18.537 39.038-32.635 63.025-41.117l1.64-.343c2.456-.515 4.959-.774 7.469-.774zm-51.775 208h10.457l-1.947 5.191c-1.551 4.137.545 8.748 4.682 10.3.898.336 1.849.509 2.808.509h16v16h-32zm-20.456-16 12.456-33.216 12.456 33.216zm48 16 12.456-33.216 12.456 33.216zm-65.089 32c-9.737-14.705-16.963-30.926-21.383-48h21.385l-1.947 5.191c-1.551 4.137.545 8.748 4.682 10.3.898.336 1.849.509 2.808.509h16v32zm62.46 55.3c-19.254-9.601-36.387-22.965-50.389-39.3h81.474c4.418 0 8-3.582 8-8s-3.582-8-8-8h-8v-16h16c4.418 0 8-3.582 7.999-8.001 0-.959-.173-1.91-.509-2.808l-7.947-21.191h86.568l-4.626 2.312c-5.975 2.973-10.853 7.766-13.931 13.688h-35.554c-4.418 0-8 3.582-8 8s3.582 8 8 8h18.458l-6.574 2.63c-10.105 4.003-17.429 12.938-19.369 23.633l-36.852 13.82c-13.65 5.172-23.729 16.936-26.748 31.217zm102.401-119.3 48.021-37.35 37.35 37.35zm118.56 32h-13.876c-4.418 0-8 3.582-8 8s3.582 8 8 8h6.854c-2.789 5.508-5.894 10.85-9.3 16h-29.554c-4.418 0-8 3.582-8 8s3.582 8 8 8h17.481c-4.932 5.751-10.262 11.147-15.951 16.15-.504-.099-1.016-.149-1.53-.15h-56c-4.418 0-8 3.582-8 8s3.582 8 8 8h36.179c-42.03 26.065-93.761 31.197-140.094 13.9.848-10.292 7.539-19.178 17.195-22.838l41.529-15.573c3.122-1.171 5.19-4.155 5.191-7.489-.021-6.399 3.877-12.158 9.826-14.515l25.145-10.057c3.037-1.215 5.029-4.157 5.029-7.428v-1.395c-.02-5.927 3.332-11.349 8.642-13.982l33.246-16.623h65.048c-1.403 5.419-3.092 10.76-5.06 16zm10.124-56c.001 8.034-.6 16.056-1.8 24h-18.886l-27.856-27.856 43.211-37.039c3.54 13.343 5.332 27.09 5.331 40.895zm-106.666-150.882c44.119 15.648 79.189 49.807 95.992 93.5l-49.215 42.182-14.454-14.454c-2.853-2.852-7.384-3.134-10.568-.657l-48.947 38.069c-1.425-8.277-2.142-16.66-2.142-25.058v-22.7h63.713c3.777 0 7.227-2.495 8.078-6.175.73-3.158-.494-6.353-2.991-8.225-16.235-12.174-31.055-26.128-44.185-41.6h31.126c3.665 0 7.035-2.352 7.98-5.893.95-3.559-.6-7.164-3.606-8.967l-9.321-5.592c-14.855-8.904-27.5-21.058-36.986-35.548h5.673c3.004 0 6 .311 8.939.927z"/><path d="m360 376h-24c-4.418 0-8 3.582-8 8s3.582 8 8 8h24c4.418 0 8-3.582 8-8s-3.582-8-8-8z"/><path d="m328 408h-24c-4.418 0-8 3.582-8 8s3.582 8 8 8h24c4.418 0 8-3.582 8-8s-3.582-8-8-8z"/><path d="m272 440h-8c-4.418 0-8 3.582-8 8s3.582 8 8 8h8c4.418 0 8-3.582 8-8s-3.582-8-8-8z"/><circle cx="372" cy="260" r="12"/></g></g></svg>