<svg height="512" viewBox="0 0 512 512" width="512" xmlns="http://www.w3.org/2000/svg"><g id="filled_outline" data-name="filled outline"><path d="m397.363 120.309a48.005 48.005 0 0 0 -44.335-32.283 112.03 112.03 0 0 0 -204.4 24.045 88 88 0 0 0 -84.628 87.929 88 88 0 0 0 88 88h208a88 88 0 0 0 88-88 88.007 88.007 0 0 0 -50.637-79.691z" fill="#eae9e4"/><g fill="#a6deff"><path d="m265.805 376-15.266 25.444a17.8 17.8 0 0 0 5.391 23.972 17.8 17.8 0 0 0 19.751 0 17.8 17.8 0 0 0 5.39-23.972z"/><path d="m185.805 320-15.266 25.444a17.8 17.8 0 0 0 5.391 23.972 17.8 17.8 0 0 0 19.751 0 17.8 17.8 0 0 0 5.39-23.972z"/><path d="m206.2 427.594-15.266 25.443a17.8 17.8 0 0 0 5.39 23.973 17.8 17.8 0 0 0 19.751 0 17.8 17.8 0 0 0 5.391-23.973z"/><path d="m318.2 320-15.266 25.444a17.8 17.8 0 0 0 5.39 23.972 17.8 17.8 0 0 0 19.751 0 17.8 17.8 0 0 0 5.391-23.972z"/></g><path d="m456 200a96.452 96.452 0 0 0 -52.286-85.483 56.263 56.263 0 0 0 -46-34.209 120.458 120.458 0 0 0 -101.714-56.308 118.928 118.928 0 0 0 -72.4 24.3 121.091 121.091 0 0 0 -40.918 56.156 96 96 0 0 0 9.318 191.544h208a96.108 96.108 0 0 0 96-96zm-384 0a80 80 0 0 1 76.928-79.936 8 8 0 0 0 7.367-5.716 104.822 104.822 0 0 1 36.969-53.3 103.054 103.054 0 0 1 62.736-21.048 104.4 104.4 0 0 1 90.1 52.029 8 8 0 0 0 6.756 3.994 40.142 40.142 0 0 1 36.943 26.9 8 8 0 0 0 4.16 4.626 80.01 80.01 0 0 1 -33.959 152.451h-208a80.091 80.091 0 0 1 -80-80z"/><path d="m216 248h-16a8 8 0 0 0 0 16h16a8 8 0 0 0 0-16z"/><path d="m352 248h-104a8 8 0 0 0 0 16h104a8 8 0 0 0 0-16z"/><path d="m265.805 368a8 8 0 0 0 -6.86 3.884l-15.266 25.444a25.8 25.8 0 1 0 44.252 0l-15.266-25.443a8 8 0 0 0 -6.86-3.885zm5.438 50.76a9.8 9.8 0 0 1 -13.844-13.2l8.406-14.011 8.406 14.011a9.791 9.791 0 0 1 -2.968 13.2z"/><path d="m200.118 376.072a25.771 25.771 0 0 0 7.813-34.745l-15.266-25.443a8 8 0 0 0 -13.72 0l-15.266 25.444a25.8 25.8 0 0 0 36.439 34.744zm-19.751-13.312a9.792 9.792 0 0 1 -2.968-13.2l8.406-14.011 8.406 14.011a9.8 9.8 0 0 1 -13.844 13.2z"/><path d="m191.881 483.666a25.8 25.8 0 0 0 36.44-34.745l-15.266-25.443a8 8 0 0 0 -13.72 0l-15.266 25.443a25.772 25.772 0 0 0 7.812 34.745zm5.908-26.513 8.406-14.01 8.406 14.009a9.8 9.8 0 1 1 -16.812 0z"/><path d="m318.2 312a8 8 0 0 0 -6.86 3.884l-15.266 25.443a25.8 25.8 0 1 0 44.252 0l-15.266-25.443a8 8 0 0 0 -6.86-3.884zm5.437 50.76a9.8 9.8 0 0 1 -13.843-13.2l8.406-14.011 8.406 14.01a9.792 9.792 0 0 1 -2.974 13.201z"/></g></svg>