<?xml version="1.0" encoding="UTF-8"?>
<svg xmlns="http://www.w3.org/2000/svg" viewBox="0 0 512 512" width="512" height="512"><g id="filled_outline" data-name="filled outline"><path d="M440,312v-8A184,184,0,0,0,256,120h0A184,184,0,0,0,72,304v32h32V304A152,152,0,0,1,256,152h0A152,152,0,0,1,408,304v8Z" style="fill:#91a666"/><path d="M408,312v-8A152,152,0,0,0,256,152h0A152,152,0,0,0,104,304v8h32v-8A120,120,0,0,1,256,184h0A120,120,0,0,1,376,304v8Z" style="fill:#5ebef7"/><path d="M72,336V304A184,184,0,0,1,256,120h0A184,184,0,0,1,440,304v6l32,8V304c0-124.627-96.706-216-216-216h0C136.706,88,40,184.706,40,304v48Z" style="fill:#fd9226"/><path d="M72,344a8,8,0,0,1-8-8V304c0-105.869,86.131-192,192-192s192,86.131,192,192v8a8,8,0,0,1-16,0v-8c0-97.047-78.953-176-176-176S80,206.953,80,304v32A8,8,0,0,1,72,344Z" style="fill:#d78e0c"/><path d="M40,360a8,8,0,0,1-8-8V304A224,224,0,0,1,414.392,145.608,222.533,222.533,0,0,1,480,304v16a8,8,0,0,1-16,0V304c0-114.691-93.309-208-208-208S48,189.309,48,304v48A8,8,0,0,1,40,360Z" style="fill:#ea2b2d"/><path d="M376,320a8,8,0,0,1-8-8v-8a112,112,0,0,0-224,0v8a8,8,0,0,1-16,0v-8a128,128,0,0,1,256,0v8A8,8,0,0,1,376,320Z" style="fill:#8a91fb"/><path d="M104,344a8,8,0,0,1-8-8V304c0-88.224,71.776-160,160-160s160,71.776,160,160v8a8,8,0,0,1-16,0v-8c0-79.4-64.6-144-144-144S112,224.6,112,304v32A8,8,0,0,1,104,344Z" style="fill:#007af6"/><path d="M228.62,329.688a31.966,31.966,0,0,0-33.161-17.361A63.99,63.99,0,0,0,72.516,328H72a48,48,0,0,0-48,48h0a48,48,0,0,0,48,48H216a48,48,0,0,0,48-48h0A48.012,48.012,0,0,0,228.62,329.688Z" style="fill:#eae9e4"/><path d="M264,376a48,48,0,0,1-48,48H200a48,48,0,0,0,12.62-94.31A31.979,31.979,0,0,0,184,312a32.344,32.344,0,0,0-4.54.33A64.035,64.035,0,0,0,128,272.5a64.018,64.018,0,0,1,67.46,39.83A32.344,32.344,0,0,1,200,312a31.979,31.979,0,0,1,28.62,17.69A47.991,47.991,0,0,1,264,376Z" style="fill:#dcdbd6"/><path d="M462.883,272.75a24.066,24.066,0,0,0-13.558-14.871A40,40,0,0,0,376.8,272H376a32,32,0,0,0-32,32h0a32,32,0,0,0,32,32h80a32,32,0,0,0,32-32h0A32.006,32.006,0,0,0,462.883,272.75Z" style="fill:#eae9e4"/><path d="M488,304a32,32,0,0,1-32,32H440a32,32,0,0,0,6.88-63.25,24.009,24.009,0,0,0-13.56-14.87,39.957,39.957,0,0,0-25.34-17.08A40.7,40.7,0,0,1,416,240a39.929,39.929,0,0,1,33.32,17.88,24.009,24.009,0,0,1,13.56,14.87A32.01,32.01,0,0,1,488,304Z" style="fill:#dcdbd6"/><path d="M72,432H216a56,56,0,0,0,18.033-109.019A39.767,39.767,0,0,0,200.5,304a71.524,71.524,0,0,0-49.712-38.488,112.031,112.031,0,0,1,210.823,1.165A40,40,0,0,0,376,344h80a39.974,39.974,0,0,0,21.464-73.713A224.008,224.008,0,0,0,32,304v32.85A55.97,55.97,0,0,0,72,432ZM256,176a128.346,128.346,0,0,0-121.621,88.035,71.723,71.723,0,0,0-17.458,2.549,144.045,144.045,0,0,1,269.285-24.165,48.215,48.215,0,0,0-11.628,13.34A128.4,128.4,0,0,0,256,176ZM98.731,274.434a72.476,72.476,0,0,0-18.185,15.691C87.644,199.539,163.623,128,256,128A176.087,176.087,0,0,1,416.662,232.02c-.221,0-.44-.02-.662-.02a47.666,47.666,0,0,0-15.765,2.688,160.037,160.037,0,0,0-301.5,39.746ZM480,304a24.027,24.027,0,0,1-24,24H376a24,24,0,0,1,0-48h.8a8,8,0,0,0,7.84-6.409,32,32,0,0,1,58.022-11.281,8,8,0,0,0,3.55,2.94,15.985,15.985,0,0,1,9.042,9.915,8,8,0,0,0,5.913,5.4A24.124,24.124,0,0,1,480,304ZM48,304C48,189.309,141.309,96,256,96A208.076,208.076,0,0,1,457.792,253.424a31.807,31.807,0,0,0-3.138-1.878,47.981,47.981,0,0,0-18.967-15.319A192.054,192.054,0,0,0,256,112C150.131,112,64,198.131,64,304v16.584a55.49,55.49,0,0,0-16,4.834Zm24,32h.516a8,8,0,0,0,7.938-7.009,55.99,55.99,0,0,1,107.573-13.7,8,8,0,0,0,8.558,4.958A24.346,24.346,0,0,1,200,320a23.893,23.893,0,0,1,21.468,13.272,8,8,0,0,0,5.053,4.136A40,40,0,0,1,216,416H72a40,40,0,0,1,0-80Z"/></g></svg>
