<?xml version="1.0" encoding="UTF-8"?>
<svg xmlns="http://www.w3.org/2000/svg" viewBox="0 0 512 512" width="512" height="512"><g id="filled_outline" data-name="filled outline"><path d="M357.744,83.715,304,24V56l-24,8,42.623,28.415a18.84,18.84,0,0,1,7.421,9.716h0a18.835,18.835,0,0,1-11.913,23.825L312,128a45.58,45.58,0,0,1,1.16,48.734L304,192H280l-24-16-24,16H208l-9.16-15.266A45.58,45.58,0,0,1,200,128l-6.131-2.044a18.835,18.835,0,0,1-11.913-23.825h0a18.84,18.84,0,0,1,7.421-9.716L232,64l-24-8V24L154.256,83.715A71.117,71.117,0,0,0,136,131.29h0a71.123,71.123,0,0,0,11.118,38.182L192,240l-1.96,3.92a27.013,27.013,0,0,0,0,24.16h0A27.013,27.013,0,0,0,195.1,275.1L208,288h32l16-16,16,16h32l12.9-12.9a27.013,27.013,0,0,0,5.059-7.019h0a27.013,27.013,0,0,0,0-24.16L320,240l44.882-70.528A71.123,71.123,0,0,0,376,131.29h0A71.117,71.117,0,0,0,357.744,83.715Z" style="fill:#7a4922"/><path d="M264,365V474.06a21.813,21.813,0,0,1-16,0V365a8,8,0,0,1,16,0Z" style="fill:#a3612d"/><path d="M304,344H208l-16,16v48h0a138.708,138.708,0,0,0,51.846,63.9h0a21.909,21.909,0,0,0,24.308,0h0A138.708,138.708,0,0,0,320,408h0V360Z" style="fill:#a3612d"/><path d="M304,288H272l-16-16-16,16H208a27.315,27.315,0,0,0-8,19.314v17.372A27.315,27.315,0,0,0,208,344h24l16,21.333V474.06a21.813,21.813,0,0,0,16,0V365.333L280,344h24a27.315,27.315,0,0,0,8-19.314V307.314A27.315,27.315,0,0,0,304,288Z" style="fill:#5b3719"/><path d="M88.006,416a7.986,7.986,0,0,0,3.572-.847l16-8a8,8,0,0,0,4.012-4.625l7.132-21.4,40.258-26.84L184,379.314V408a8,8,0,0,0,.572,2.971c1.22,3.049,2.551,6.036,3.959,8.977l-18.962-3.793a8,8,0,0,0-9.461,9.16l7.324,43.939-13.089,13.089a8,8,0,0,0,11.314,11.314l16-16a8.008,8.008,0,0,0,2.235-6.972L177.8,434.118l20.634,4.127c.2.04.4.064.6.089a146.171,146.171,0,0,0,40.374,40.22,29.833,29.833,0,0,0,33.184,0,146.17,146.17,0,0,0,40.35-40.183l21.261-4.252-6.095,36.567a8.008,8.008,0,0,0,2.235,6.972l16,16a8,8,0,0,0,11.314-11.314l-13.089-13.089,7.324-43.939a8,8,0,0,0-9.461-9.16l-18.962,3.793c1.408-2.941,2.739-5.928,3.959-8.977A8,8,0,0,0,328,408V379.314l25.02-25.02,40.258,26.84,7.132,21.4a8,8,0,0,0,4.012,4.625l16,8a8,8,0,0,0,7.156-14.31l-13.036-6.518L407.59,373.47a8,8,0,0,0-3.152-4.126l-48-32a8,8,0,0,0-10.095,1L327.485,357.2a7.988,7.988,0,0,0-1.828-2.858l-10.99-10.99A35.08,35.08,0,0,0,320,324.687V320h24a8,8,0,0,0,4.8-1.6l32-24a8,8,0,0,0,2.628-3.429l16-40a8,8,0,0,0-14.856-5.942l-15.167,37.917L341.333,304h-21.49a34.957,34.957,0,0,0-5.176-15.353l7.891-7.891a35.013,35.013,0,0,0,6.623-40.282l42.45-66.707a79.118,79.118,0,0,0-7.941-95.4L309.946,18.648A8,8,0,0,0,296,24V50.234l-18.53,6.177a8,8,0,0,0-1.908,14.245l42.623,28.415a10.836,10.836,0,0,1-2.584,19.3l-6.131,2.044a8,8,0,0,0-4.126,12.027,37.749,37.749,0,0,1,.957,40.18L299.471,184H282.422l-4.265-2.843,7.5-7.5A8,8,0,0,0,288,168V152a8,8,0,0,0-16,0v12.687l-7.419,7.419-4.143-2.762a8,8,0,0,0-8.876,0l-4.143,2.762L240,164.687V152a8,8,0,0,0-16,0v16a8,8,0,0,0,2.343,5.657l7.5,7.5L229.578,184H212.529L205.7,172.618a37.747,37.747,0,0,1,.956-40.18,8,8,0,0,0-4.126-12.027l-6.132-2.045a10.836,10.836,0,0,1-2.584-19.3l42.624-28.415a8,8,0,0,0-1.908-14.245L216,50.234V24a8,8,0,0,0-13.946-5.352L148.31,78.364a79.118,79.118,0,0,0-7.941,95.4l42.45,66.707a35.013,35.013,0,0,0,6.623,40.282l7.891,7.891A34.944,34.944,0,0,0,192.157,304h-21.49L142.6,282.946l-15.167-37.917a8,8,0,1,0-14.856,5.942l16,40A8,8,0,0,0,131.2,294.4l32,24A8,8,0,0,0,168,320h24v4.687a35.08,35.08,0,0,0,5.333,18.666l-10.99,10.99a7.988,7.988,0,0,0-1.828,2.858l-18.858-18.858a8,8,0,0,0-10.095-1l-48,32a8,8,0,0,0-3.152,4.126l-6.952,20.857-13.036,6.518A8,8,0,0,0,88.006,416ZM248,465.044a130.132,130.132,0,0,1-48-58.608V363.313L211.313,352H228l20,26.667ZM208,324.687V307.313A19.17,19.17,0,0,1,211.655,296H240a8,8,0,0,0,5.657-2.343L256,283.314l10.343,10.343A8,8,0,0,0,272,296h28.345A19.17,19.17,0,0,1,304,307.313v17.374A19.17,19.17,0,0,1,300.345,336h-88.69A19.17,19.17,0,0,1,208,324.687ZM248,352h16l-8,10.667Zm64,54.436a131.125,131.125,0,0,1-10.565,20.307l-.006.009A130.164,130.164,0,0,1,264,465.044V378.667L284,352h16.687L312,363.313ZM197.2,264.5a19.1,19.1,0,0,1,0-17l1.96-3.921a8,8,0,0,0-.406-7.872l-44.882-70.528a63.121,63.121,0,0,1,6.335-76.11L200,44.848V56a8,8,0,0,0,5.47,7.589l8.482,2.828L184.938,85.759a26.837,26.837,0,0,0,3.634,46.692,53.864,53.864,0,0,0,3.408,48.4l9.161,15.266A8,8,0,0,0,208,200h24a8,8,0,0,0,4.438-1.344L256,185.615l19.562,13.041A8,8,0,0,0,280,200h24a8,8,0,0,0,6.859-3.884l9.162-15.266a53.867,53.867,0,0,0,3.407-48.4,26.837,26.837,0,0,0,3.633-46.692L298.048,66.417l8.482-2.828A8,8,0,0,0,312,56V44.848l39.8,44.219a63.121,63.121,0,0,1,6.335,76.11l-44.882,70.528a8,8,0,0,0-.406,7.872l1.96,3.922a19.01,19.01,0,0,1-3.562,21.944L300.687,280H275.313l-13.656-13.657a8,8,0,0,0-11.314,0L236.687,280H211.313l-10.556-10.557A18.987,18.987,0,0,1,197.2,264.5Z"/></g></svg>
