<svg height="512" viewBox="0 0 512 512" width="512" xmlns="http://www.w3.org/2000/svg"><g id="filled_outline" data-name="filled outline"><path d="m256.618 347.136a8 8 0 0 1 -3.948-1.042l-72.308-41.032a8 8 0 0 1 -4.051-6.9l-.618-83.137a8.005 8.005 0 0 1 3.949-6.958l71.688-42.1a8.005 8.005 0 0 1 8-.06l72.308 41.032a8 8 0 0 1 4.051 6.9l.618 83.137a8.005 8.005 0 0 1 -3.949 6.958l-71.688 42.1a8 8 0 0 1 -4.052 1.102z" fill="#92d1f7"/><path d="m256.3 304a7.993 7.993 0 0 1 -3.948-1.042l-34.789-19.742a8 8 0 0 1 -4.052-6.9l-.3-40a8 8 0 0 1 3.948-6.958l34.491-20.258a8 8 0 0 1 8-.06l34.789 19.742a8 8 0 0 1 4.052 6.9l.3 40a8 8 0 0 1 -3.948 6.958l-34.493 20.26a7.991 7.991 0 0 1 -4.05 1.1z" fill="#5ebef7"/><path d="m48.189 138.071a8 8 0 0 0 3.01 10.907l36.666 20.807-1.284.344a8 8 0 1 0 4.141 15.455l16.971-4.547 15.222 8.638-12.621 3.382a8 8 0 1 0 4.141 15.455l28.308-7.585 15.223 8.638-23.959 6.42a8 8 0 1 0 4.14 15.455l37.593-10.073.516 69.4-38.109-10.207a8 8 0 0 0 -4.14 15.455l26.138 7-14.87 8.732-30.84-8.263a8 8 0 0 0 -4.141 15.455l15.612 4.184-14.869 8.733-20.315-5.444a8 8 0 1 0 -4.141 15.455l5.088 1.364-38.857 22.825a8 8 0 1 0 8.1 13.8l36.356-21.356-.344 1.283a8 8 0 1 0 15.455 4.141l4.547-16.97 15.092-8.864-3.381 12.621a8 8 0 1 0 15.455 4.14l7.584-28.306 15.094-8.864-6.42 23.959a8 8 0 1 0 15.455 4.14l10.072-37.592 60.363 34.254-27.9 27.9a8 8 0 0 0 11.314 11.314l18.865-18.856-.073 17.445-22.1 22.1a8 8 0 0 0 11.314 11.314l10.694-10.694-.073 17.444-13.935 13.936a8 8 0 0 0 11.314 11.314l2.526-2.526-.186 43.767a8 8 0 0 0 7.967 8.034h.033a8 8 0 0 0 8-7.967l.182-43.471 2.161 2.161a8 8 0 0 0 11.314-11.314l-13.381-13.381.072-17.3 10 10a8 8 0 0 0 11.314-11.314l-21.214-21.215.072-17.3 17.828 17.828a8 8 0 0 0 11.314-11.314l-27.52-27.52 59.847-35.148 10.211 38.104a8 8 0 0 0 15.455-4.14l-7-26.139 15 8.512 8.263 30.838a8 8 0 1 0 15.455-4.14l-4.193-15.614 15 8.511 5.443 20.315a8 8 0 0 0 15.455-4.141l-1.363-5.088 39.191 22.24a8 8 0 1 0 7.9-13.916l-36.666-20.807 1.284-.344a8 8 0 0 0 -4.141-15.455l-16.971 4.547-15.222-8.638 12.621-3.382a8 8 0 0 0 -4.141-15.455l-28.308 7.585-15.223-8.638 23.959-6.42a8 8 0 0 0 -4.14-15.455l-37.598 10.074-.516-69.4 38.109 10.211a8 8 0 0 0 4.14-15.455l-26.138-7 14.87-8.732 30.84 8.263a8 8 0 0 0 4.141-15.455l-15.612-4.184 14.869-8.733 20.315 5.444a8 8 0 0 0 4.141-15.455l-5.088-1.364 38.857-22.821a8 8 0 0 0 -8.1-13.8l-36.356 21.348.344-1.283a8 8 0 1 0 -15.455-4.141l-4.547 16.97-15.092 8.864 3.381-12.621a8 8 0 1 0 -15.455-4.14l-7.584 28.306-15.094 8.864 6.42-23.959a8 8 0 0 0 -15.455-4.14l-10.072 37.592-60.363-34.257 27.9-27.9a8 8 0 0 0 -11.314-11.314l-18.862 18.862.073-17.445 22.1-22.1a8 8 0 0 0 -11.314-11.314l-10.694 10.694.073-17.444 13.935-13.936a8 8 0 0 0 -11.314-11.314l-2.526 2.526.183-43.77a8 8 0 0 0 -7.967-8.034h-.033a8 8 0 0 0 -8 7.967l-.182 43.467-2.161-2.161a8 8 0 0 0 -11.314 11.314l13.381 13.381-.072 17.3-9.995-9.995a8 8 0 0 0 -11.314 11.314l21.214 21.215-.072 17.3-17.828-17.828a8 8 0 0 0 -11.314 11.314l27.52 27.52-59.847 35.148-10.211-38.108a8 8 0 0 0 -15.455 4.14l7 26.139-15-8.512-8.263-30.838a8 8 0 1 0 -15.455 4.14l4.188 15.617-15-8.511-5.443-20.315a8 8 0 1 0 -15.455 4.141l1.363 5.088-39.185-22.241a8 8 0 0 0 -10.911 3.009zm207.261 44.029 64.274 36.472.548 73.9-63.722 37.428-64.274-36.472-.548-73.9z"/><path d="m196.283 273.457a8 8 0 0 0 7.069 8.834l6.138.682-2.49 5.271a8 8 0 1 0 14.467 6.832l3.592-7.606 19.458 11.043-4.962 6.747a8 8 0 0 0 12.888 9.48l3.66-4.975 3.321 4.792a8 8 0 0 0 13.15-9.114l-4.79-6.912 19.292-11.33 3.361 7.67a8 8 0 0 0 14.655-6.422l-2.479-5.656 5.81-.481a8 8 0 0 0 -1.317-15.945l-8.382.693-.167-22.372 8.325.923a7.922 7.922 0 0 0 .892.05 8 8 0 0 0 .873-15.952l-6.138-.682 2.491-5.271a8 8 0 1 0 -14.467-6.832l-3.592 7.606-19.458-11.043 4.962-6.747a8 8 0 0 0 -12.888-9.48l-3.66 4.975-3.321-4.792a8 8 0 0 0 -13.15 9.114l4.79 6.912-19.293 11.331-3.361-7.67a8 8 0 0 0 -14.655 6.422l2.479 5.656-5.81.481a8 8 0 0 0 .65 15.972c.22 0 .443-.009.667-.027l8.382-.693.167 22.372-8.325-.923a7.992 7.992 0 0 0 -8.834 7.067zm59.488-48.219 26.754 15.183.23 30.762-26.526 15.579-26.754-15.183-.23-30.762z"/><path d="m256 277a21 21 0 1 0 -21-21 21.024 21.024 0 0 0 21 21zm0-26a5 5 0 1 1 -5 5 5.006 5.006 0 0 1 5-5z"/></g></svg>