<svg height="512" viewBox="0 0 512 512" width="512" xmlns="http://www.w3.org/2000/svg"><g id="filled_outline" data-name="filled outline"><path d="m176 208.225-22.58-19.758a146.481 146.481 0 0 0 -96.458-36.242h-32.962l8 24h24l16 16h32l8 16 48 8z" fill="#667447"/><path d="m181.068 216.2-1.278-57.137a128.354 128.354 0 0 0 -40.543-90.778l-38.708-36.285-4.685 37.807 21.272 7.065-7.065 21.272 21.3 30.691 16.536-2.38-7.065 21.271 23.119 95.329z" fill="#768753"/><path d="m190.4 178.618-30.4 45.607h24l40-24 8-24 48-16 8-16 32-8 8-24-44.139 6.79a137.441 137.441 0 0 0 -93.461 59.603z" fill="#768753"/><path d="m208 424h280v64h-312z" fill="#2c91ff"/><path d="m144 224.225-7.548 10.064a263.157 263.157 0 0 0 -49.987 120.677l-6.465 45.259v23.775h56v-60.3a263.149 263.149 0 0 1 40-139.471h-32z" fill="#7a4922"/><path d="m254.657 424a80 80 0 1 1 146.686 0z" fill="#ea2b2d"/><path d="m167.041 215.854 26.883-13.325a146.482 146.482 0 0 1 102.519-10.363l31.866 8.432-13.873 21.155-23.2-6.139-19.561 11.375-30.936-8.189-11.827 13.422-48.449-.222z" fill="#667447"/><g fill="#91a666"><circle cx="144" cy="224.225" r="16"/><circle cx="176" cy="224.225" r="16"/><path d="m160 224.22a16 16 0 0 1 -22.15 14.77 24 24 0 0 1 22.15-14.77z"/><path d="m182.15 238.99a16 16 0 0 1 -22.15-14.77 24 24 0 0 1 22.15 14.77z"/></g><path d="m160 224.22a16 16 0 0 1 -22.15 14.77 24 24 0 0 1 22.15-14.77z" fill="#667447"/><path d="m182.15 238.99a16 16 0 0 1 -22.15-14.77 24 24 0 0 1 22.15 14.77z" fill="#667447"/><path d="m24 400h24.676a84.209 84.209 0 0 1 43.324 12 84.209 84.209 0 0 0 43.324 12h72.676a20.265 20.265 0 0 1 -6.884 25.923l-9.116 6.077a25.3 25.3 0 0 1 -16 32h-152z" fill="#ee9d0d"/><path d="m120 456a8 8 0 0 1 -8 8h-4a68.411 68.411 0 0 1 -40.8-13.6 52.292 52.292 0 0 0 -31.2-10.4h-12v-16h12a68.411 68.411 0 0 1 40.8 13.6 52.292 52.292 0 0 0 31.2 10.4h4a8 8 0 0 1 8 8z" fill="#ee9d0d"/><circle cx="160" cy="248.225" fill="#91a666" r="16"/><path d="m488 416h-75.314a88 88 0 1 0 -169.372 0h-99.314v-52.3a253.817 253.817 0 0 1 16.972-91.5 24.025 24.025 0 0 0 23.028-23.975c0-.458-.016-.911-.041-1.362a24.075 24.075 0 0 0 10.051-6.8l34.865.162h.037a8 8 0 0 0 6-2.711l8.558-9.712 26.156 6.921a8 8 0 0 0 6.068-.819l16.7-9.709 20 5.292a8 8 0 0 0 8.736-3.347l13.87-21.155a8 8 0 0 0 -4.644-12.121l-31.865-8.432a154.462 154.462 0 0 0 -51.885-4.643l35.925-11.975a8 8 0 0 0 4.625-4.012l6.355-12.709 28.43-7.107a8 8 0 0 0 5.649-5.232l8-24a8 8 0 0 0 -8.805-10.436l-44.139 6.79a145.808 145.808 0 0 0 -94.646 57.047l-.207-9.272a137.166 137.166 0 0 0 -43.069-96.436l-38.714-36.284a8 8 0 0 0 -13.41 4.853l-4.685 37.807a8 8 0 0 0 5.418 8.577l13.679 4.543-4.544 13.68a8 8 0 0 0 1.02 7.083l21.3 30.691a8 8 0 0 0 7.713 3.357l3.723-.536-2.985 8.988a8.008 8.008 0 0 0 -.182 4.407l4.149 17.105a155.189 155.189 0 0 0 -80.241-22.492h-32.965a8 8 0 0 0 -7.589 10.529l8 24a8 8 0 0 0 7.589 5.47h20.687l13.656 13.656a8 8 0 0 0 5.657 2.344h27.056l5.789 11.577a8 8 0 0 0 5.84 4.314l10.191 1.7a23.933 23.933 0 0 0 3.265 19.872 272.338 272.338 0 0 0 -45.595 116.147l-5.906 41.343a92.212 92.212 0 0 0 -23.964-3.178h-24.676a8 8 0 0 0 -8 8v88a8 8 0 0 0 8 8h464a8 8 0 0 0 8-8v-64a8 8 0 0 0 -8-8zm-193.6-216.1 21.136 5.592-4.625 7.052-17.627-4.664a8 8 0 0 0 -6.068.818l-16.7 9.709-27.732-7.338a8 8 0 0 0 -8.049 2.445l-9.423 10.694-25.312-.118a23.861 23.861 0 0 0 -4.277-13.522l1.757-.871a138.43 138.43 0 0 1 96.92-9.797zm-97.336-16.844a129.735 129.735 0 0 1 88.017-56.134l31.19-4.8-2.469 7.405-27.739 6.934a8 8 0 0 0 -5.215 4.184l-6.518 13.036-44.86 14.954a8 8 0 0 0 -5.059 5.06l-3.452 10.356a154.465 154.465 0 0 0 -30.587 11.31l-2.263 1.121zm130.936 136.944a72 72 0 0 1 67.883 96h-135.766a72 72 0 0 1 67.883-96zm-185.7-87.962a8.025 8.025 0 1 1 9.57-6.392 24.073 24.073 0 0 0 -9.57 6.392zm-.166 32.187h-15.887q4.6-7.947 9.764-15.55a23.9 23.9 0 0 0 6.12 15.55zm17.869-8a8 8 0 1 1 8-8 8.009 8.009 0 0 1 -8.003 8zm24-32a8.011 8.011 0 0 1 -6.3 7.813 24.083 24.083 0 0 0 -9.563-6.39 7.994 7.994 0 1 1 15.86-1.423zm-48.891-104.013-16.2-23.343 5.8-17.475a8 8 0 0 0 -5.071-10.114l-15.047-5 1.944-15.688 27.232 25.527a121.062 121.062 0 0 1 38.016 85.119l.711 31.808-8.125 12.188q-.828.461-1.616.983l-13.612-56.147 6.342-19.094a8 8 0 0 0 -8.732-10.44zm-17.779 80.788-6.178-12.356a8 8 0 0 0 -7.155-4.419h-28.687l-13.656-13.657a8 8 0 0 0 -5.657-2.343h-18.234l-2.666-8h21.862a139.033 139.033 0 0 1 85.911 29.875l2.466 10.168c-.444-.024-.89-.039-1.339-.039a23.845 23.845 0 0 0 -11.992 3.224zm.412 79.185c.238.021.477.037.72.037h22.7q-2.578 7.953-4.649 16.026c-.172-.011-.343-.026-.518-.026h-25.407q3.303-8.134 7.154-16.034zm-13.04 32.037h28.21q-1.536 7.953-2.586 16h-30.339q2.097-8.072 4.715-15.997zm-10.32 43.878q.852-5.961 1.99-11.873h32.325c-.379 5.311-.587 10.647-.654 16h-.042-34.204zm-2.875 20.125h36.49v15.775h-38.744zm36.49 31.775v7.641a76.2 76.2 0 0 1 -26.645-7.641zm59.562 41.344a8 8 0 0 0 -3.151 9.186 17.322 17.322 0 0 1 -9.835 21.47h-142.576v-40h4a52.321 52.321 0 0 1 31.2 10.4 68.425 68.425 0 0 0 40.8 13.6h4a8 8 0 0 0 0-16h-4a52.321 52.321 0 0 1 -31.2-10.4 68.425 68.425 0 0 0 -40.8-13.6h-4v-16h16.676a76.214 76.214 0 0 1 28.174 5.408l.1.04a76.168 76.168 0 0 1 10.936 5.412 92.229 92.229 0 0 0 47.438 13.14h66.767a12.286 12.286 0 0 1 -5.413 11.267zm292.438 30.656h-282.822a33.287 33.287 0 0 0 3.833-20.393l4.542-3.028a28.3 28.3 0 0 0 12.554-24.579h261.893z"/><path d="m280 448h-24a8 8 0 0 0 0 16h24a8 8 0 0 0 0-16z"/><path d="m328 448h-16a8 8 0 0 0 0 16h16a8 8 0 0 0 0-16z"/><path d="m352 456a8 8 0 0 0 8 8h56a8 8 0 0 0 0-16h-56a8 8 0 0 0 -8 8z"/><path d="m341.334 354.274a40.071 40.071 0 0 1 26.666 37.726 8 8 0 0 0 16 0 56.1 56.1 0 0 0 -37.334-52.811 8 8 0 1 0 -5.332 15.085z"/><path d="m328 256a8 8 0 0 0 -8 8v16a8 8 0 0 0 16 0v-16a8 8 0 0 0 -8-8z"/><path d="m260 274.221a8 8 0 0 0 -2.928 10.928l8 13.856a8 8 0 1 0 13.856-8l-8-13.856a8 8 0 0 0 -10.928-2.928z"/><path d="m231 344a8 8 0 0 0 4.007-14.929l-13.856-8a8 8 0 0 0 -8 13.856l13.856 8a7.959 7.959 0 0 0 3.993 1.073z"/><path d="m200 384a8 8 0 0 0 0 16h16a8 8 0 0 0 0-16z"/><path d="m432 392a8 8 0 0 0 8 8h16a8 8 0 0 0 0-16h-16a8 8 0 0 0 -8 8z"/><path d="m434.851 321.072-13.856 8a8 8 0 1 0 8 13.856l13.856-8a8 8 0 0 0 -8-13.856z"/><path d="m385.072 277.149-8 13.856a8 8 0 1 0 13.856 8l8-13.856a8 8 0 0 0 -13.856-8z"/><path d="m400 205.88a30.685 30.685 0 0 0 -37.657 4.463 8 8 0 0 0 11.314 11.314 14.628 14.628 0 0 1 20.686 0 8 8 0 0 0 11.314 0 14.628 14.628 0 0 1 20.686 0 8 8 0 1 0 11.314-11.314 30.685 30.685 0 0 0 -37.657-4.463z"/><path d="m456 164.507a30.683 30.683 0 0 0 -37.657 4.464 8 8 0 0 0 11.314 11.313 14.628 14.628 0 0 1 20.686 0 8 8 0 0 0 11.314 0 14.628 14.628 0 0 1 20.686 0 8 8 0 0 0 11.314-11.313 30.685 30.685 0 0 0 -37.657-4.464z"/><path d="m160 448h-16a8 8 0 0 0 0 16h16a8 8 0 0 0 0-16z"/></g></svg>