<?xml version="1.0" encoding="UTF-8"?>
<svg xmlns="http://www.w3.org/2000/svg" viewBox="0 0 512 512" width="512" height="512"><g id="filled_outline" data-name="filled outline"><rect x="56" y="96" width="96" height="144" rx="48" style="fill:#d5515e"/><path d="M308.364,118.611V76.364A52.364,52.364,0,0,0,256,24h0a52.364,52.364,0,0,0-52.364,52.364v42.247a72,72,0,1,0,104.728,0Z" style="fill:#91a666"/><circle cx="416" cy="192" r="56" style="fill:#ee9d0d"/><rect x="24" y="280" width="464" height="208" style="fill:#5b3719"/><path d="M426.545,312H85.455A29.454,29.454,0,0,0,56,341.455h0a29.454,29.454,0,0,0,29.455,29.454h13.31a39.168,39.168,0,0,0-13.31,29.455h0a39.272,39.272,0,0,0,39.272,39.272h3.637c0,27.112,21.978,48.364,49.091,48.364h157.09c27.113,0,49.091-21.252,49.091-48.364h3.637a39.272,39.272,0,0,0,39.272-39.272h0a39.168,39.168,0,0,0-13.31-29.455h13.31A29.454,29.454,0,0,0,456,341.455h0A29.454,29.454,0,0,0,426.545,312Z" style="fill:#a6deff"/><path d="M196.652,312a64.035,64.035,0,0,0,12.8,67.9v29.553A46.546,46.546,0,0,0,256,456h0a46.546,46.546,0,0,0,46.546-46.546V379.9a64.035,64.035,0,0,0,12.8-67.9Z" style="fill:#768753"/><path d="M24,496H488a8,8,0,0,0,8-8V280a8,8,0,0,0-8-8H424V255.482a64,64,0,1,0-16,0V272H264V247.6a79.978,79.978,0,0,0,52.363-132.072V76.364a60.363,60.363,0,1,0-120.726,0v39.163A79.978,79.978,0,0,0,248,247.6V272H112V247.419A56.078,56.078,0,0,0,160,192V144a56,56,0,0,0-112,0v48a56.078,56.078,0,0,0,48,55.419V272H24a8,8,0,0,0-8,8V488A8,8,0,0,0,24,496Zm310.546-16H177.454c-23.042,0-41.091-17.73-41.091-40.364a8,8,0,0,0-8-8h-3.635a31.263,31.263,0,0,1-20.671-54.727,8,8,0,0,0-5.292-14H85.454a21.455,21.455,0,0,1,0-42.909H185.8a72.061,72.061,0,0,0-1.8,16h-8a8,8,0,0,0,0,16h9.79a71.664,71.664,0,0,0,15.664,30.974V400H168a8,8,0,0,0,0,16h33.861a54.076,54.076,0,0,0,4.491,16H200a8,8,0,0,0,0,16h17.442a54.46,54.46,0,0,0,77.116,0H304a8,8,0,0,0,1.577-15.843A54.048,54.048,0,0,0,310.139,416H344a8,8,0,0,0,0-16H310.546V382.974A71.664,71.664,0,0,0,326.21,352H336a8,8,0,0,0,0-16h-8a72.061,72.061,0,0,0-1.8-16H426.546a21.455,21.455,0,0,1,0,42.909H413.235a8,8,0,0,0-5.292,14,31.264,31.264,0,0,1-20.671,54.728h-3.635a8,8,0,0,0-8,8C375.637,462.27,357.588,480,334.546,480ZM288,352h21.669a55.872,55.872,0,0,1-12.941,22.411,8,8,0,0,0-2.182,5.49V400H288a8,8,0,0,0,0,16h5.979a38.341,38.341,0,0,1-6.744,16H280a7.99,7.99,0,0,0-6.922,12,38.457,38.457,0,0,1-28.226,2.352A7.993,7.993,0,0,0,240,432H224.765a38.325,38.325,0,0,1-7.311-22.545V379.9a8,8,0,0,0-2.182-5.49A55.872,55.872,0,0,1,202.331,352H208a8,8,0,0,0,0-16h-8a55.9,55.9,0,0,1,2.317-16H309.683A55.9,55.9,0,0,1,312,336H288a8,8,0,0,0,0,16Zm80-160a48,48,0,1,1,56,47.321v-27.04l20.438-13.625a8,8,0,0,0-8.876-13.312L416,198.385l-19.562-13.041a8,8,0,1,0-8.876,13.312L408,212.281v27.04A48.07,48.07,0,0,1,368,192ZM192,168a63.73,63.73,0,0,1,17.455-43.9,8,8,0,0,0,2.182-5.491V76.364a44.363,44.363,0,1,1,88.726,0v42.247a8,8,0,0,0,2.182,5.491A63.965,63.965,0,0,1,264,231.482V187.314l29.657-29.657a8,8,0,0,0-11.314-11.314L256.866,171.82,238.4,147.2a8,8,0,0,0-12.8,9.6L248,186.667v44.815A64.081,64.081,0,0,1,192,168ZM64,192V144a40,40,0,0,1,80,0v48A40.068,40.068,0,0,1,112,231.2V192a8,8,0,0,0-16,0V231.2A40.068,40.068,0,0,1,64,192ZM32,288H480V480H374.535c.106-.1.216-.2.321-.3A55.479,55.479,0,0,0,391.1,447.482a47.255,47.255,0,0,0,38.232-68.675A37.456,37.456,0,0,0,426.546,304H85.454a37.456,37.456,0,0,0-2.788,74.807A47.255,47.255,0,0,0,120.9,447.482,55.479,55.479,0,0,0,137.144,479.7c.1.1.215.2.321.3H32Z"/><path d="M360,352h16a8,8,0,0,0,0-16H360a8,8,0,0,0,0,16Z"/><path d="M392,376a8,8,0,0,0-8-8H328a8,8,0,0,0,0,16h56A8,8,0,0,0,392,376Z"/><path d="M144,352a8,8,0,0,0,0-16H128a8,8,0,0,0,0,16Z"/><path d="M192,376a8,8,0,0,0-8-8H136a8,8,0,0,0,0,16h48A8,8,0,0,0,192,376Z"/><path d="M256,400H240a8,8,0,0,0,0,16h16a8,8,0,0,0,0-16Z"/><path d="M272,368H248a8,8,0,0,0,0,16h24a8,8,0,0,0,0-16Z"/></g></svg>
