<svg height="512pt" viewBox="0 0 512.14742 512" width="512pt" xmlns="http://www.w3.org/2000/svg"><path d="m161.507812 108.566406-37.515624-37.429687c-12.160157-12.171875-31.824219-12.367188-44.226563-.441407l-5.03125 4.941407-65.324219 65.324219c-8.070312 7.941406-11.257812 19.601562-8.355468 30.546874 2.898437 10.941407 11.445312 19.488282 22.390624 22.390626 10.941407 2.902343 22.601563-.289063 30.542969-8.355469l35.488281-35.488281c3.324219-3.34375 7.855469-5.207032 12.570313-5.175782 4.71875.035156 9.222656 1.960938 12.5 5.351563l1.234375 1.238281zm0 0" fill="#7ed09e"/><path d="m135.863281 434.832031-15.15625 1.6875c-3.171875 1.480469-5.601562 4.195313-6.71875 7.515625-1.117187 3.320313-.828125 6.953125.804688 10.050782l13.152343 24.894531c2.4375 5.894531 2.421876 12.523437-.050781 18.40625-2.46875 5.882812-7.183593 10.539062-13.101562 12.929687h-.085938c-12.164062 4.929688-26.03125-.859375-31.074219-12.976562l-26.835937-54.464844-2.03125-5.03125c-4.75-12.140625 1.050781-25.847656 13.066406-30.898438l44.859375-19.5625zm0 0" fill="#7ed09e"/><path d="m387.453125 384.074219 56.996094 22.871093c12.042969 5.023438 17.851562 18.757813 13.066406 30.898438l-2.03125 5.03125-26.835937 54.378906c-4.992188 12.164063-18.882813 18.003906-31.070313 13.0625h-.089844c-5.921875-2.410156-10.636719-7.082031-13.105469-12.980468-2.46875-5.898438-2.484374-12.535157-.046874-18.445313l13.152343-24.804687c1.632813-3.097657 1.925781-6.730469.804688-10.050782-1.117188-3.320312-3.542969-6.035156-6.71875-7.515625l-19.570313-6.101562zm0 0" fill="#7ed09e"/><path d="m343.3125 119.246094 44.976562-48.640625c12.160157-12.171875 31.828126-12.367188 44.226563-.441407l5.03125 4.945313 65.324219 65.324219c10.628906 10.585937 12.324218 27.199218 4.050781 39.710937-8.273437 12.515625-24.21875 17.46875-38.125 11.839844-3.921875-1.617187-7.488281-3.988281-10.503906-6.972656l-35.488281-35.488281c-3.324219-3.34375-7.855469-5.207032-12.570313-5.175782-4.714844.035156-9.21875 1.964844-12.5 5.355469l-1.5 1.5zm0 0" fill="#7ed09e"/><path d="m194.347656 91.4375v-29.570312c0-34.128907 27.664063-61.7929692 61.792969-61.7929692s61.792969 27.6640622 61.792969 61.7929692v29.570312zm0 0" fill="#7ed09e"/><path d="m441.433594 282.554688c-.089844-3-.179688-5.914063-.355469-8.824219-.972656-18.546875-4.234375-36.898438-9.710937-54.644531-.882813-2.824219-1.851563-5.648438-2.824219-8.386719-.96875-2.734375-2.03125-5.472657-3-8.207031-6.976563-17.539063-16.300781-34.050782-27.71875-49.082032-.480469-.773437-1.011719-1.507812-1.589844-2.207031-1.191406-1.699219-2.488281-3.320313-3.882813-4.855469-1.855468-2.296875-3.796874-4.503906-5.738281-6.710937-10.378906-11.585938-22.148437-21.847657-35.046875-30.542969-2.382812-1.589844-4.679687-3.089844-7.0625-4.5-.261718-.179688-.617187-.355469-.882812-.53125-2.558594-1.589844-5.117188-3.089844-7.765625-4.414062-2.648438-1.324219-5.210938-2.734376-7.859375-3.972657-3.351563-1.589843-6.707032-3-10.0625-4.238281-16.886719-6.785156-34.785156-10.722656-52.964844-11.652344-2.914062-.175781-5.914062-.261718-8.828125-.261718s-5.914063.085937-8.828125.261718c-18.175781.929688-36.074219 4.867188-52.964844 11.652344-2.382812.882812-4.765625 1.855469-7.148437 2.914062-2.648438 1.148438-5.296875 2.472657-7.859375 3.796876-2.558594 1.324218-5.207032 2.734374-7.765625 4.238281-3.445313 1.851562-6.796875 3.972656-10.066407 6.179687-13.179687 8.839844-25.214843 19.277344-35.839843 31.070313-1.941407 2.207031-3.882813 4.414062-5.738281 6.710937-1.5 1.675782-2.824219 3.355469-4.148438 5.121094-.441406.617188-.96875 1.234375-1.410156 1.851562-10.703125 14.25-19.574219 29.792969-26.394532 46.257813-1.148437 2.734375-2.207031 5.472656-3.265624 8.207031-1.0625 2.738282-1.945313 5.5625-2.914063 8.386719-5.996094 18.648437-9.554687 37.996094-10.59375 57.558594-.175781 2.910156-.265625 5.914062-.351563 8.824219-.089843 1.503906-.089843 2.914062-.089843 4.414062 0 1.503906 0 3.003906.089843 4.414062.296876 18.789063 2.90625 37.464844 7.765626 55.613282.796874 2.828125 1.589843 5.652344 2.472656 8.476562.882812 2.824219 1.765625 5.5625 2.824218 8.296875 3.730469 10.589844 8.308594 20.863281 13.683594 30.722657 3.925782 7.257812 8.289063 14.273437 13.066406 21.007812 1.675782 2.472656 3.441407 4.855469 5.292969 7.238281 1.855469 2.382813 3.710938 4.679688 5.5625 6.886719l3.972657 4.5c11.734374 13.125 25.253906 24.539062 40.167968 33.898438 2.558594 1.589843 5.117188 3.089843 7.679688 4.503906 2.558594 1.410156 5.117187 2.824218 7.765625 4.148437 20.632812 10.3125 43.171875 16.261719 66.207031 17.476563 2.914062.179687 5.828125.265625 8.828125.265625s5.914063-.085938 8.828125-.265625c21.925781-1.117188 43.40625-6.578125 63.207031-16.066406 2.648438-1.144532 5.292969-2.46875 7.855469-3.882813 2.558594-1.414063 5.207031-2.824219 7.679688-4.414063 16.089843-9.628906 30.617187-21.652343 43.078124-35.664062l3.972657-4.5c1.855469-2.207031 3.796875-4.589844 5.5625-6.886719 1.765625-2.292969 3.617187-4.765625 5.296875-7.238281 4.773437-6.734375 9.136718-13.75 13.0625-21.007812 4.828125-8.945313 9.046875-18.207032 12.625-27.71875 1.058594-2.738282 2.03125-5.476563 2.914062-8.300782.882813-2.824218 1.851563-5.738281 2.558594-8.5625 5.425781-19.046875 8.332031-38.722656 8.652344-58.527344.085937-1.410156.085937-2.910156.085937-4.414062 0-1.5 0-2.910156-.085937-4.414062zm0 0" fill="#d25627"/><g fill="#c03a2b"><path d="m256.140625 467.9375c-25.761719-.089844-51.023437-7.136719-73.109375-20.402344-6.5-3.851562-12.714844-8.160156-18.601562-12.898437-11.476563-9.261719-21.679688-20-30.347657-31.9375-12.890625-17.652344-22.582031-37.433594-28.628906-58.4375-5.488281-18.601563-8.253906-37.898438-8.207031-57.292969 0-1.675781 0-3.363281.105468-4.949219.410157-21.492187 4.304688-42.777343 11.527344-63.023437 6.789063-19.160156 16.691406-37.074219 29.308594-53.015625 10.429688-13.445313 22.929688-25.144531 37.03125-34.667969 4.359375-2.972656 8.875-5.710938 13.523438-8.207031 20.6875-11.234375 43.859374-17.113281 67.398437-17.101563 24.507813.089844 48.582031 6.472656 69.914063 18.539063 2.03125 1.171875 3.726562 2.164062 5.429687 3.238281 16.414063 10.070312 30.867187 23.03125 42.664063 38.25 13.132812 16.59375 23.308593 35.328125 30.085937 55.375 6.707031 19.585938 10.324219 40.097656 10.714844 60.796875.089843 1.527344.089843 3.152344.089843 4.765625.042969 20.308594-2.976562 40.507812-8.960937 59.914062-6.128906 20.03125-15.554687 38.902344-27.886719 55.835938-10.292968 14.238281-22.785156 26.753906-37.003906 37.074219-4.660156 3.339843-9.496094 6.429687-14.488281 9.25-21.480469 12.316406-45.796875 18.824219-70.558594 18.894531zm0-344.277344c-20.621094 0-40.917969 5.160156-59.039063 15.007813-4.117187 2.21875-8.121093 4.648437-11.988281 7.28125-12.597656 8.507812-23.757812 18.96875-33.066406 30.984375-11.4375 14.445312-20.410156 30.679687-26.554687 48.050781-6.605469 18.554687-10.15625 38.0625-10.511719 57.757813-.089844 1.597656-.089844 2.914062-.089844 4.226562-.039063 17.707031 2.484375 35.324219 7.496094 52.304688 5.472656 19.039062 14.246093 36.964843 25.925781 52.964843 7.765625 10.695313 16.90625 20.316407 27.1875 28.621094 5.238281 4.214844 10.769531 8.050781 16.550781 11.476563 19.355469 11.644531 41.5 17.847656 64.089844 17.945312 21.699219.003906 43.011719-5.714844 61.792969-16.578125 4.449218-2.515625 8.757812-5.265625 12.90625-8.246094 12.710937-9.230469 23.875-20.425781 33.066406-33.164062 11.183594-15.363281 19.726562-32.480469 25.273438-50.652344 5.472656-17.707031 8.234374-36.136719 8.203124-54.671875 0-1.3125 0-2.648438-.070312-3.875v-.351562c-.335938-18.914063-3.625-37.664063-9.753906-55.5625-6.128906-18.167969-15.347656-35.140626-27.253906-50.175782-10.523438-13.625-23.4375-25.222656-38.105469-34.230468-1.644531-1.042969-3.144531-1.910157-4.652344-2.78125-18.730469-10.625-39.875-16.246094-61.40625-16.332032zm0 0"/><path d="m358.285156 246.027344c-3.667968 0-6.957031-2.269532-8.253906-5.703125-5.242188-13.960938-13.023438-26.832031-22.953125-37.957031-2.152344-2.339844-2.878906-5.660157-1.902344-8.6875.976563-3.027344 3.503907-5.292969 6.621094-5.9375 3.113281-.640626 6.335937.445312 8.425781 2.839843 11.375 12.734375 20.289063 27.46875 26.296875 43.449219 1.035157 2.714844.667969 5.761719-.980469 8.152344-1.648437 2.390625-4.367187 3.820312-7.273437 3.816406zm0 0"/><path d="m146.835938 246.027344c-2.902344.003906-5.621094-1.425782-7.269532-3.816406-1.648437-2.390626-2.015625-5.4375-.980468-8.152344 6.007812-15.984375 14.925781-30.714844 26.296874-43.449219 2.089844-2.394531 5.3125-3.480469 8.425782-2.839844 3.117187.640625 5.644531 2.910157 6.621094 5.9375.976562 3.027344.25 6.34375-1.902344 8.6875-9.925782 11.128907-17.707032 24-22.953125 37.957031-1.304688 3.414063-4.582031 5.671876-8.238281 5.675782zm0 0"/><path d="m220.832031 229.589844c-3.378906.007812-6.464843-1.917969-7.945312-4.949219l-38.886719-79.449219c-1.382812-2.839844-1.148438-6.199218.617188-8.820312 1.765624-2.617188 4.792968-4.09375 7.945312-3.875 3.148438.222656 5.941406 2.105468 7.328125 4.945312l38.886719 79.445313c1.335937 2.738281 1.167968 5.972656-.449219 8.558593-1.617187 2.582032-4.449219 4.148438-7.496094 4.144532zm0 0"/><path d="m282.625 229.589844c-3.074219 0-5.925781-1.597656-7.527344-4.21875-1.601562-2.621094-1.726562-5.886719-.332031-8.625l40.5625-79.449219c1.4375-2.808594 4.261719-4.636719 7.410156-4.796875 3.148438-.164062 6.148438 1.367188 7.863281 4.015625 1.714844 2.648437 1.886719 6.007813.449219 8.816406l-40.554687 79.449219c-1.507813 2.957031-4.550782 4.816406-7.871094 4.808594zm0 0"/><path d="m402.679688 291.382812h-79.449219c-4.875 0-8.828125-3.949218-8.828125-8.828124 0-4.875 3.953125-8.824219 8.828125-8.824219h79.449219c4.875 0 8.828124 3.949219 8.828124 8.824219 0 4.878906-3.953124 8.828124-8.828124 8.828124zm0 0"/><path d="m181.988281 291.382812h-75.917969c-4.875 0-8.824218-3.949218-8.824218-8.828124 0-4.875 3.949218-8.824219 8.824218-8.824219h75.917969c4.875 0 8.828125 3.949219 8.828125 8.824219 0 4.878906-3.953125 8.828124-8.828125 8.828124zm0 0"/><path d="m173.109375 432.625c-3.179687 0-6.117187-1.710938-7.683594-4.480469-1.566406-2.769531-1.519531-6.167969.117188-8.894531l47.722656-79.445312c1.59375-2.765626 4.558594-4.457032 7.75-4.417969 3.191406.035156 6.113281 1.792969 7.644531 4.59375s1.429688 6.210937-.265625 8.914062l-47.667969 79.449219c-1.605468 2.671875-4.5 4.300781-7.617187 4.28125zm0 0"/><path d="m332.058594 432.625c-3.054688.003906-5.890625-1.574219-7.503906-4.167969l-49.390626-79.445312c-1.664062-2.683594-1.773437-6.046875-.285156-8.828125 1.488282-2.785156 4.351563-4.5625 7.503906-4.664063 3.15625-.101562 6.125 1.488281 7.789063 4.167969l49.433594 79.449219c1.699219 2.730469 1.777343 6.167969.207031 8.972656s-4.539062 4.535156-7.753906 4.515625zm0 0"/><path d="m441.519531 286.96875c0 1.503906 0 3.003906-.085937 4.414062h-123.5c-4.875 0-8.828125-3.949218-8.828125-8.828124 0-4.875 3.953125-8.824219 8.828125-8.824219h123.144531c.175781 2.910156.265625 5.824219.355469 8.824219.085937 1.503906.085937 2.914062.085937 4.414062zm0 0"/><path d="m194.347656 282.554688c0 4.878906-3.953125 8.828124-8.828125 8.828124h-114.667969c-.089843-1.410156-.089843-2.910156-.089843-4.414062 0-1.5 0-2.910156.089843-4.414062.085938-2.910157.175782-5.914063.351563-8.824219h114.316406c4.875 0 8.828125 3.949219 8.828125 8.824219zm0 0"/><path d="m264.96875 459.109375v35.042969c-2.914062.179687-5.914062.265625-8.828125.265625s-5.914063-.085938-8.828125-.265625v-35.042969c0-4.875 3.953125-8.828125 8.828125-8.828125s8.828125 3.953125 8.828125 8.828125zm0 0"/><path d="m264.96875 79.785156v140.976563c0 4.878906-3.953125 8.828125-8.828125 8.828125s-8.828125-3.949219-8.828125-8.828125v-140.976563c2.914062-.175781 5.914062-.261718 8.828125-.261718s5.914063.085937 8.828125.261718zm0 0"/><path d="m147.472656 403.757812-25.246094 25.25c-.265624.175782-.441406.441407-.707031.617188-1.851562-2.207031-3.796875-4.589844-5.5625-6.886719-1.761719-2.292969-3.617187-4.765625-5.292969-7.238281l24.273438-24.277344c2.238281-2.238281 5.503906-3.113281 8.5625-2.292968 3.058594.820312 5.449219 3.210937 6.265625 6.269531.820313 3.058593-.054687 6.320312-2.292969 8.558593zm0 0"/><path d="m397.824219 153.410156-24.363281 24.363282c-3.480469 3.414062-9.054688 3.414062-12.535157 0-3.445312-3.46875-3.445312-9.066407 0-12.535157l25.15625-25.160156c.15625-.171875.332031-.320313.53125-.441406 1.941407 2.207031 3.882813 4.414062 5.738281 6.710937 1.394532 1.535156 2.691407 3.15625 3.882813 4.855469.578125.699219 1.109375 1.433594 1.589844 2.207031zm0 0"/><path d="m151.359375 177.773438c-3.484375 3.414062-9.054687 3.414062-12.535156 0l-24.453125-24.453126c.441406-.617187.96875-1.234374 1.410156-1.851562 1.324219-1.765625 2.648438-3.445312 4.148438-5.121094 1.855468-2.296875 3.796874-4.503906 5.738281-6.710937.199219.121093.378906.269531.53125.441406l25.160156 25.160156c3.441406 3.46875 3.441406 9.066407 0 12.535157zm0 0"/><path d="m401.621094 415.5c-1.679688 2.472656-3.445313 4.855469-5.296875 7.238281-1.855469 2.382813-3.707031 4.679688-5.5625 6.886719-.265625-.175781-.441407-.441406-.707031-.617188l-25.246094-25.25c-2.238282-2.238281-3.113282-5.5-2.292969-8.558593.820313-3.058594 3.207031-5.449219 6.265625-6.269531 3.058594-.820313 6.324219.054687 8.5625 2.292968zm0 0"/><path d="m117.28125 349.910156-32.835938 13.683594c-.160156.097656-.34375.160156-.53125.175781-1.058593-2.734375-1.941406-5.472656-2.824218-8.296875-.882813-2.824218-1.675782-5.648437-2.472656-8.476562l31.957031-13.328125c4.351562-1.324219 8.996093.871093 10.730469 5.074219 1.734374 4.203124-.003907 9.039062-4.023438 11.167968zm0 0"/><path d="m431.367188 219.085938-32.132813 13.328124c-1.046875.496094-2.195313.738282-3.351563.707032-4.175781-.046875-7.746093-3.015625-8.558593-7.113282-.808594-4.09375 1.359375-8.199218 5.203125-9.835937l32.660156-13.59375c.105469-.070313.230469-.101563.355469-.085937.96875 2.734374 2.03125 5.472656 3 8.207031.972656 2.738281 1.941406 5.5625 2.824219 8.386719zm0 0"/><path d="m196.289062 139.019531c-1.046874.496094-2.195312.738281-3.355468.707031-3.566406 0-6.78125-2.164062-8.121094-5.472656l-13.238281-31.867187c2.558593-1.503907 5.117187-2.914063 7.765625-4.238281 2.648437-1.324219 5.210937-2.648438 7.859375-3.796876.117187.125.207031.277344.261719.441407l13.597656 32.75c.914062 2.152343.925781 4.582031.027344 6.742187-.898438 2.15625-2.625 3.863282-4.796876 4.734375zm0 0"/><path d="m343.710938 469.789062c-2.472657 1.589844-5.121094 3-7.679688 4.414063-2.5625 1.414063-5.207031 2.738281-7.855469 3.882813l-.265625-.527344-13.683594-32.75c-.90625-2.167969-.914062-4.601563-.019531-6.773438.894531-2.167968 2.617188-3.894531 4.785157-4.792968 2.152343-.914063 4.582031-.925782 6.742187-.027344 2.160156.894531 3.867187 2.625 4.734375 4.796875zm0 0"/><path d="m125.316406 225.53125c-1.425781 3.210938-4.605468 5.285156-8.121094 5.296875-1.210937-.023437-2.40625-.261719-3.53125-.707031l-31.867187-13.949219c.96875-2.824219 1.851563-5.648437 2.914063-8.386719 1.058593-2.734375 2.117187-5.472656 3.265624-8.207031.085938 0 .175782.085937.265626.085937l32.484374 14.214844c4.464844 1.964844 6.515626 7.164063 4.589844 11.652344zm0 0"/><path d="m432.78125 349.910156c-.707031 2.824219-1.589844 5.738282-2.558594 8.5625-.972656 2.824219-1.855468 5.5625-2.914062 8.300782-.214844-.019532-.425782-.078126-.617188-.179688l-32.574218-14.210938c-2.902344-1.261718-4.910157-3.976562-5.269532-7.117187-.359375-3.144531.988282-6.242187 3.53125-8.121094 2.542969-1.882812 5.898438-2.265625 8.800782-1.003906zm0 0"/><path d="m343.621094 104.0625-13.769532 31.691406c-1.410156 3.226563-4.601562 5.308594-8.121093 5.296875-1.210938-.023437-2.40625-.261719-3.53125-.707031-4.460938-1.972656-6.503907-7.167969-4.589844-11.652344l14.125-32.574218c.066406-.15625.15625-.304688.261719-.441407 2.648437 1.238281 5.296875 2.5625 7.859375 3.972657 2.558593 1.414062 5.207031 2.824218 7.765625 4.414062zm0 0"/><path d="m195.671875 443.484375-14.210937 32.574219c-.066407.230468-.1875.445312-.355469.617187-2.648438-1.324219-5.207031-2.738281-7.765625-4.148437-2.5625-1.414063-5.121094-2.914063-7.679688-4.503906l13.769532-31.601563c1.949218-4.484375 7.167968-6.542969 11.652343-4.589844 4.484375 1.949219 6.539063 7.167969 4.589844 11.652344zm0 0"/></g><path d="m220.832031 344.347656-35.3125-61.792968 35.3125-61.792969h61.792969l35.308594 61.792969-35.308594 61.792968zm0 0" fill="#e57e25"/><path d="m256.140625 44.210938c0 9.75-7.902344 17.65625-17.65625 17.65625-9.75 0-17.652344-7.90625-17.652344-17.65625s7.902344-17.65625 17.652344-17.65625c9.753906 0 17.65625 7.90625 17.65625 17.65625zm0 0" fill="#fff"/><path d="m247.3125 44.210938c0 4.875-3.953125 8.828124-8.828125 8.828124s-8.824219-3.953124-8.824219-8.828124 3.949219-8.828126 8.824219-8.828126 8.828125 3.953126 8.828125 8.828126zm0 0" fill="#2c2f38"/><path d="m291.453125 44.210938c0 9.75-7.90625 17.65625-17.65625 17.65625s-17.65625-7.90625-17.65625-17.65625 7.90625-17.65625 17.65625-17.65625 17.65625 7.90625 17.65625 17.65625zm0 0" fill="#fff"/><path d="m282.625 44.210938c0 4.875-3.953125 8.828124-8.828125 8.828124s-8.828125-3.953124-8.828125-8.828124 3.953125-8.828126 8.828125-8.828126 8.828125 3.953126 8.828125 8.828126zm0 0" fill="#2c2f38"/><path d="m238.484375 35.382812c-.015625 4.148438-2.917969 7.722657-6.972656 8.589844-4.054688.871094-8.167969-1.195312-9.886719-4.96875 1.753906-5.550781 6.101562-9.898437 11.652344-11.652344 3.164062 1.421876 5.203125 4.5625 5.207031 8.03125zm0 0" fill="#fff"/><path d="m273.796875 35.382812c-.019531 4.148438-2.921875 7.722657-6.976563 8.589844-4.054687.871094-8.164062-1.195312-9.886718-4.96875 1.757812-5.550781 6.105468-9.898437 11.652344-11.652344 3.164062 1.421876 5.203124 4.5625 5.210937 8.03125zm0 0" fill="#fff"/></svg>