<svg height="512" viewBox="0 0 512 512" width="512" xmlns="http://www.w3.org/2000/svg"><g id="filled_outline" data-name="filled outline"><path d="m266.764 232-26.28-15.768a28.259 28.259 0 0 1 -13.72-24.232l8-24h-48l8 24a28.259 28.259 0 0 1 -13.72 24.232l-26.28 15.768-18.764 16 96 48 32-48 .064-14.061" fill="#a86e09"/><path d="m176 256-2.569-8-1.027-1.54a24.659 24.659 0 0 0 -26.5-10.245 24.66 24.66 0 0 0 -18.204 19.085 112 112 0 0 0 1.169 49.131l14.088 56.353a20.084 20.084 0 0 0 19.488 15.216 20.087 20.087 0 0 0 14.2-5.882l10.119-10.118z" fill="#ee9d0d"/><path d="m157.68 375.42a20.07 20.07 0 0 1 -14.72-14.63l-14.09-56.36a112.189 112.189 0 0 1 -1.17-49.13 24.762 24.762 0 0 1 3.11-7.97q3.81 13.68 6.62 27.62z" fill="#c7830b"/><path d="m248 256 1.124-9.54a24.66 24.66 0 0 1 26.5-10.245 24.66 24.66 0 0 1 18.2 19.088 112.011 112.011 0 0 1 -1.169 49.131l-14.088 56.353a20.085 20.085 0 0 1 -19.484 15.213 20.085 20.085 0 0 1 -14.2-5.882l-10.119-10.118z" fill="#ee9d0d"/><path d="m256 40a184 184 0 0 0 -184 184v104h32v-104a152 152 0 0 1 152-152 152 152 0 0 1 152 152v104h32v-104a184 184 0 0 0 -184-184z" fill="#7a4922"/><path d="m73.667 194.703-14.163-87.862-35.504 11.356 34.428 81.38z" fill="#768753"/><path d="m73.667 194.703-22.461-110.405 28.492-9.113 9.209 114.644z" fill="#91a666"/><path d="m471.966 177.359c.012-.453.034-.9.034-1.359a48.019 48.019 0 0 0 -59.738-46.548c-13.662-5.952-30.294-9.452-48.262-9.452-46.392 0-84 23.281-84 52a32.936 32.936 0 0 0 .936 7.765 32 32 0 1 0 45.31 38.683 131.163 131.163 0 0 0 75.408.032 47.974 47.974 0 0 0 46.128-.792 24 24 0 1 0 24.184-40.329z" fill="#768753"/><rect fill="#ee9d0d" height="144" rx="32" width="64" x="178.764" y="232"/><path d="m309.7 268.555-13.7-20.555 24-24 32 48v-72h40v72l32-48 24 24-13.7 20.555a190.415 190.415 0 0 0 -26.3 59.445h-72a190.415 190.415 0 0 0 -26.3-59.445z" fill="#b5cf7f"/><path d="m447.79 204.813a32 32 0 1 0 34.062 43.338 15.979 15.979 0 0 0 -4.1-30.672 31.991 31.991 0 0 0 -29.962-12.666z" fill="#91a666"/><g fill="#fd9226"><path d="m154.708 395.562-30.479 9.749-50.195-112.337a394.356 394.356 0 0 1 -15.567-40.752l-7.967-24.911a32 32 0 0 1 20.73-40.228 32 32 0 0 1 40.227 20.731l7.968 24.912a394.347 394.347 0 0 1 10.975 42.221z"/><path d="m98.35 245.6-38.06 12.17q-.93-2.775-1.82-5.55l-3.09-9.67 38.09-12.19a8 8 0 0 1 4.88 15.24z"/><path d="m100.48 278.52-28.75 9.2q-3.165-7.365-6.03-14.87l29.9-9.57a8 8 0 1 1 4.88 15.24z"/><path d="m102.6 311.44-17.78 5.68-6.56-14.69 19.47-6.23a8 8 0 1 1 4.87 15.24z"/></g><path d="m40 360h432a0 0 0 0 1 0 0 128 128 0 0 1 -128 128h-176a128 128 0 0 1 -128-128 0 0 0 0 1 0 0z" fill="#915628"/><path d="m472 360q0 4.59-.32 9.1h-431.36q-.32-4.515-.32-9.1z" fill="#915628"/><path d="m380 168h-.027a19.98 19.98 0 0 0 -35.573 8.011c-.134 0-.266-.012-.4-.012a24 24 0 1 0 5.635 47.328 36 36 0 1 0 30.365-55.327z" fill="#91a666"/><path d="m297.939 200.064a24 24 0 1 0 -33.875 33.875 32 32 0 1 0 33.875-33.875z" fill="#91a666"/><rect fill="#a3612d" height="32" rx="16" width="464" x="24" y="328"/><path d="m472 360q0 4.59-.32 9.1h-431.36q-.32-4.515-.32-9.1z" fill="#7a4922"/><path d="m452.008 276.534a40.041 40.041 0 0 0 36.008-22.534 23.953 23.953 0 0 0 3.94-38.4 32.044 32.044 0 0 0 -12.083-43.394 55.885 55.885 0 0 0 -62.228-51.839 192.036 192.036 0 0 0 -325.951 4.24l-4.022-50.063a8 8 0 0 0 -10.412-6.979l-28.491 9.113a8 8 0 0 0 -5.4 9.215l3.384 16.629-25.187 8.055a8 8 0 0 0 -4.931 10.736l31.241 73.848a39.94 39.94 0 0 0 -4.994 34.587l7.968 24.912a404.123 404.123 0 0 0 15.882 41.577l4.52 10.115.675 13.648h-31.927a24 24 0 0 0 -7.834 46.68c3.495 71.9 63.084 129.32 135.834 129.32h176c72.75 0 132.339-57.42 135.834-129.32a24 24 0 0 0 -7.834-46.68h-24v-43.675a39.716 39.716 0 0 0 4.008.209zm-37.8-139.324a40.021 40.021 0 0 1 49.792 38.79c0 .233-.01.465-.018.7l-.013.439a8 8 0 0 0 5.342 7.771 15.976 15.976 0 0 1 9.253 21.7 39.941 39.941 0 0 0 -54.772 1.636c.134-1.4.208-2.808.208-4.238a44.06 44.06 0 0 0 -40.267-43.843 27.7 27.7 0 0 0 -19.733-8.165 28.105 28.105 0 0 0 -25.52 16.477 32.073 32.073 0 0 0 -26.159 27.009 39.663 39.663 0 0 0 -10.721-3.086 32.069 32.069 0 0 0 -14.462-7.583 8 8 0 0 0 1.575-6.93 25.015 25.015 0 0 1 -.713-5.887c0-23.851 34.8-44 76-44 16.284 0 31.868 3.038 45.067 8.786a8 8 0 0 0 5.145.424zm-12.353 182.79h-26.291a76.226 76.226 0 0 0 -7.564-25.89l-.845-1.689a8 8 0 0 0 -14.31 7.158l.844 1.687a60.087 60.087 0 0 1 5.746 18.734h-17.29a197.748 197.748 0 0 0 -24.719-54.249 40.3 40.3 0 0 0 12.449-12.517l15.469 23.2a8 8 0 0 0 14.656-4.434v-28.8a43.919 43.919 0 0 0 20 4.8c1.349 0 2.682-.071 4-.19v24.19a8 8 0 0 0 14.656 4.438l16.418-24.628a39.958 39.958 0 0 0 10.826 14.975 197.728 197.728 0 0 0 -24.045 53.215zm30.145-32.068v32.068h-13.445a181.655 181.655 0 0 1 13.445-32.068zm-181.569-29.01 5.349-8.024a16.655 16.655 0 0 1 3.265-3.613 40.119 40.119 0 0 0 28.755 23.858 103.575 103.575 0 0 1 -2.9 31.351l-4.381 17.506h-29.754v-56a40.149 40.149 0 0 0 -.334-5.078zm-39.666-34.922a39.967 39.967 0 0 0 -32.572 16.826 32.509 32.509 0 0 0 -8.486-8.023l15.53-9.757a36.442 36.442 0 0 0 17.528-31.046 8 8 0 0 0 -.411-2.53l-4.49-13.47h25.8l-4.49 13.47a8 8 0 0 0 -.41 2.53 36.442 36.442 0 0 0 17.6 31.092l15.8 9.478a32.463 32.463 0 0 0 -8.831 8.253 39.968 39.968 0 0 0 -32.568-16.823zm24 40v56h-48v-56a24 24 0 0 1 48 0zm37.422-88.135a40.147 40.147 0 0 0 -12.52 15.444 31.993 31.993 0 0 0 -11.357 20.291l-3.709-2.226a20.37 20.37 0 0 1 -9.8-16.181l7.554-22.661a8 8 0 0 0 -7.59-10.532h-48a8 8 0 0 0 -7.59 10.53l7.554 22.661a20.371 20.371 0 0 1 -9.8 16.181l-.14.086-28.28 17.768a8.137 8.137 0 0 0 -.753.541 31.753 31.753 0 0 0 -18.687 9.066q-.988-3.283-2.024-6.544l-7.968-24.912a39.938 39.938 0 0 0 -4.369-9.316 144.051 144.051 0 0 1 141.292-116.061 142.613 142.613 0 0 1 91.677 32.937c-17.736 2.031-34.131 7.348-47.284 15.491-18.31 11.335-28.393 26.808-28.393 43.572q0 1.929.187 3.865zm-136.487 85.435v-5.129a16.66 16.66 0 0 1 30.044-5.276l5.35 8.025a40.122 40.122 0 0 0 -.333 5.077v56h-23.123l-9.4-46.634q-1.182-5.866-2.551-11.72c.005-.112.013-.224.013-.343zm136.35-27.838a8 8 0 0 0 -2.67-5.5 16 16 0 1 1 22.581-22.581 8 8 0 0 0 5.5 2.671 24 24 0 1 1 -25.412 25.412zm28.367 72.912a119.54 119.54 0 0 0 3.55-31.969 181.852 181.852 0 0 1 21.478 45.595h-28.435zm79.583-74.374a27.9 27.9 0 0 1 -23.619-12.974 8 8 0 0 0 -8.618-3.476 16 16 0 1 1 -3.846-31.55c.122 0 .244.009.367.011a8.013 8.013 0 0 0 7.957-6.413 12.025 12.025 0 0 1 11.759-9.598 11.9 11.9 0 0 1 9.579 4.81 7.983 7.983 0 0 0 6.506 3.19 28 28 0 0 1 -.085 56zm22.538 9.771-2.538 3.807v-2.406c.862-.442 1.71-.905 2.538-1.401zm-66.562-10.79a31.988 31.988 0 0 0 8.024 1.019v13.578l-8.039-12.058c.019-.505.039-1.01.039-1.52 0-.342-.015-.68-.024-1.019zm-240.676-78.856a175.963 175.963 0 0 1 299.13-36.807 137.005 137.005 0 0 0 -24.038-3.176 159.986 159.986 0 0 0 -217.876-10.17 160.376 160.376 0 0 0 -51.231 81.154 40.314 40.314 0 0 0 -5.089-2.531l-2.136-26.528a7.976 7.976 0 0 0 1.24-1.942zm-22.77-66.249 7.37 91.708c-.511.014-1.022.033-1.535.066l-17.889-87.918zm-37.749 37.272 15.177-4.854 12.942 63.592c-.905.458-1.784.952-2.643 1.472zm33.132 132.19 30.434-9.738a8 8 0 0 0 -4.875-15.239l-30.479 9.748-4.874-15.239a24.026 24.026 0 0 1 15.373-30.11c.061-.011.121-.015.182-.028a8.017 8.017 0 0 0 1.449-.444 23.991 23.991 0 0 1 28.714 15.959l7.968 24.912a388.067 388.067 0 0 1 10.749 41.364l8.761 43.477h-36.444l-2.381-5.329 10.114-3.235a8 8 0 1 0 -4.875-15.236l-11.806 3.776-4.586-10.266q-.989-2.212-1.949-4.445l21.088-6.745a8 8 0 1 0 -4.876-15.239l-22.265 7.119q-2.868-7.478-5.422-15.062zm276.087 224.662h-176a120.16 120.16 0 0 1 -119.736-112h415.472a120.16 120.16 0 0 1 -119.736 112zm128-144a8 8 0 0 1 0 16h-432a8 8 0 0 1 0-16zm-43.752-96.286a24 24 0 0 1 43.076-17.466 8.13 8.13 0 0 0 .709.816 7.946 7.946 0 0 0 6.81 3.8 8 8 0 0 0 1.429-.138 7.961 7.961 0 0 1 -1.433 14.012 8 8 0 0 0 -4.439 4.5 24 24 0 0 1 -46.152-5.525z"/><path d="m80 400h16a8 8 0 0 0 0-16h-16a8 8 0 0 0 0 16z"/><path d="m128 400h16a8 8 0 0 0 0-16h-16a8 8 0 0 0 0 16z"/><path d="m176 400h16a8 8 0 0 0 0-16h-16a8 8 0 0 0 0 16z"/><path d="m224 400h16a8 8 0 0 0 0-16h-16a8 8 0 0 0 0 16z"/><path d="m272 400h16a8 8 0 0 0 0-16h-16a8 8 0 0 0 0 16z"/><path d="m320 400h16a8 8 0 0 0 0-16h-16a8 8 0 0 0 0 16z"/><path d="m128 432h16a8 8 0 0 0 0-16h-16a8 8 0 0 0 0 16z"/><path d="m176 432h16a8 8 0 0 0 0-16h-16a8 8 0 0 0 0 16z"/><path d="m224 432h16a8 8 0 0 0 0-16h-16a8 8 0 0 0 0 16z"/><path d="m272 432h16a8 8 0 0 0 0-16h-16a8 8 0 0 0 0 16z"/><path d="m320 432h16a8 8 0 0 0 0-16h-16a8 8 0 0 0 0 16z"/><path d="m176 464h16a8 8 0 0 0 0-16h-16a8 8 0 0 0 0 16z"/><path d="m224 464h16a8 8 0 0 0 0-16h-16a8 8 0 0 0 0 16z"/><path d="m272 464h16a8 8 0 0 0 0-16h-16a8 8 0 0 0 0 16z"/><path d="m320 464h16a8 8 0 0 0 0-16h-16a8 8 0 0 0 0 16z"/><path d="m368 400h16a8 8 0 0 0 0-16h-16a8 8 0 0 0 0 16z"/><path d="m368 432h16a8 8 0 0 0 0-16h-16a8 8 0 0 0 0 16z"/><path d="m416 400h16a8 8 0 0 0 0-16h-16a8 8 0 0 0 0 16z"/></g></svg>