<svg height="512" viewBox="0 0 512 512" width="512" xmlns="http://www.w3.org/2000/svg"><g id="filled_outline" data-name="filled outline"><path d="m416 456h-320l16.879-23.017a413.421 413.421 0 0 0 79.121-216.983h128a413.421 413.421 0 0 0 79.121 216.983z" fill="#915628"/><path d="m307.7 216-2.343-11.716a69.634 69.634 0 0 1 10.343-52.284l8.3-13.229-138.959 1.229 11.259 12a69.634 69.634 0 0 1 10.343 52.284l-2.343 11.716" fill="#bbbab6"/><path d="m264 216 32 48-32 56 56 64-64 72h-56l72-72-48-64 40-56-32-48z" fill="#cb2527"/><path d="m258 216 32 48-32 56 56 64-64 72h-44l72-72-48-64 40-56-32-48z" fill="#ea2b2d"/><path d="m272 216v-6.7a155.883 155.883 0 0 1 8-49.3l2-6h-52l2 6a155.883 155.883 0 0 1 8 49.3v6.7z" fill="#cdccc8"/><path d="m352 96a24.338 24.338 0 0 0 -3.237.223 40.011 40.011 0 0 0 -51.057-21.583 55.97 55.97 0 0 0 -85.7 2.73 40 40 0 0 0 -56.772 18.853 24.338 24.338 0 0 0 -3.234-.223 24 24 0 1 0 12.148 44.7 39.964 39.964 0 0 0 47.861 5.934 55.97 55.97 0 0 0 85.7 2.73 39.981 39.981 0 0 0 42.146-8.664 24 24 0 1 0 12.145-44.7z" fill="#dcdbd6"/><path d="m201.735 336.19a8 8 0 0 0 -9.545 6.075l-3.728 16.778c-.51 2.3-1.075 4.626-1.679 6.926a8 8 0 1 0 15.477 4.062c.654-2.5 1.267-5.024 1.821-7.517l3.729-16.779a8 8 0 0 0 -6.075-9.545z"/><path d="m488 448h-16.834a57.517 57.517 0 0 0 -2.142-30.834 20.831 20.831 0 0 1 11.821 10.412 8 8 0 1 0 14.31-7.156 36.716 36.716 0 0 0 -24.417-19.422 12.293 12.293 0 0 1 13.684-1.849 8 8 0 0 0 7.156-14.31 28.31 28.31 0 0 0 -35.3 8.385 33.34 33.34 0 0 0 -34.811-8.82 8 8 0 1 0 5.058 15.18 17.319 17.319 0 0 1 18.479 5 77.555 77.555 0 0 0 -18.665 13.753 8 8 0 0 0 11.314 11.314 61.622 61.622 0 0 1 14.76-10.9 41.589 41.589 0 0 1 2.287 29.247h-34.647l-14.481-19.747a404.788 404.788 0 0 1 -77.59-212.785 8 8 0 0 0 -7.982-7.468h-5.746l-1.057-5.285a61.194 61.194 0 0 1 7.407-43.493 47.582 47.582 0 0 0 20.569-9.11 32 32 0 1 0 12.427-62.073 48.031 48.031 0 0 0 -53.613-22.515 63.966 63.966 0 0 0 -89.978 1.985 48 48 0 0 0 -59.609 20.53 32 32 0 1 0 12.426 62.073 47.686 47.686 0 0 0 29.008 9.888 61.175 61.175 0 0 1 6.969 42.719l-1.057 5.281h-5.746a8 8 0 0 0 -7.982 7.468 404.788 404.788 0 0 1 -77.59 212.785l-14.481 19.747h-23.392a41.8 41.8 0 0 1 -.972-37.245 61.591 61.591 0 0 1 14.76 10.9 8 8 0 1 0 11.314-11.314 77.555 77.555 0 0 0 -18.665-13.751 17.319 17.319 0 0 1 18.479-5 8 8 0 1 0 5.058-15.18 33.342 33.342 0 0 0 -34.811 8.821 28.307 28.307 0 0 0 -35.3-8.386 8 8 0 1 0 7.156 14.31 12.292 12.292 0 0 1 13.688 1.845 36.716 36.716 0 0 0 -24.417 19.418 8 8 0 1 0 14.31 7.156 20.836 20.836 0 0 1 11.816-10.411 57.913 57.913 0 0 0 .117 38.837h-27.088a8 8 0 0 0 0 16h464a8 8 0 0 0 0-16zm-296-304a31.825 31.825 0 0 1 -22.279-9.044 8 8 0 0 0 -9.628-1.155 16 16 0 1 1 -8.093-29.801 16.191 16.191 0 0 1 2.161.151 8.008 8.008 0 0 0 8.425-4.768 32 32 0 0 1 45.414-15.09 8 8 0 0 0 10.291-1.971 47.971 47.971 0 0 1 73.458-2.342 8 8 0 0 0 8.817 2.131 32.012 32.012 0 0 1 40.848 17.272 8.006 8.006 0 0 0 8.425 4.768 16.191 16.191 0 0 1 2.161-.151 16 16 0 1 1 -8.093 29.8 8 8 0 0 0 -9.628 1.155 31.981 31.981 0 0 1 -33.713 6.933 7.993 7.993 0 0 0 -8.817 2.131 47.971 47.971 0 0 1 -73.458-2.342 8 8 0 0 0 -10.291-1.97 31.962 31.962 0 0 1 -16 4.293zm105.508 61.853.429 2.147h-17.913a147.769 147.769 0 0 1 5.694-39.347 64.091 64.091 0 0 0 14.268-10.177c.9.232 1.8.431 2.714.611a77.052 77.052 0 0 0 -5.192 46.766zm-29.844-30.939a163.8 163.8 0 0 0 -3.64 33.086h-16.048a163.771 163.771 0 0 0 -3.638-33.076 64.541 64.541 0 0 0 11.662 1.076 63.748 63.748 0 0 0 11.664-1.086zm-59.273-17.814c.541-.2 1.083-.393 1.617-.61a63.8 63.8 0 0 0 16.292 12.21 147.781 147.781 0 0 1 5.681 39.3h-17.918l.429-2.146a77.051 77.051 0 0 0 -6.101-48.754zm-11.705 290.9h-34.571a201.094 201.094 0 0 0 31.8-52.979 8 8 0 0 0 -14.815-6.042 185.213 185.213 0 0 1 -38.471 59.021h-28.842l7.543-10.286a420.689 420.689 0 0 0 80.088-213.714h28.3l26.561 39.844-36.79 51.507a8 8 0 0 0 .11 9.449l43.837 58.449zm55.721 0h-33.094l58.344-58.343a8 8 0 0 0 .743-10.457l-44.487-59.315 36.6-51.236a8 8 0 0 0 .146-9.087l-23.711-35.562h12.771l26.881 40.323-29.547 51.708a8 8 0 0 0 .925 9.237l51.354 58.69zm118.982 0a186.28 186.28 0 0 1 -27.2-36.01 8 8 0 0 0 -13.846 8.02 202.29 202.29 0 0 0 19.557 27.99h-76.086l52.165-58.686a8 8 0 0 0 .042-10.582l-52.248-59.711 29.173-51.052a8 8 0 0 0 -.29-8.407l-23.708-35.562h33.634a420.689 420.689 0 0 0 80.088 213.714l7.543 10.286z"/><circle cx="128" cy="200" r="9"/><circle cx="352" cy="192" r="8"/><circle cx="104" cy="160" r="10"/><circle cx="398" cy="210" r="10"/><circle cx="160" cy="176" r="8"/><circle cx="384" cy="168" r="9"/><path d="m400 280a8 8 0 0 0 -8-8h-16a8 8 0 0 0 0 16h16a8 8 0 0 0 8-8z"/><path d="m464 240h-64a8 8 0 0 0 0 16h64a8 8 0 0 0 0-16z"/><path d="m488 280a8 8 0 0 0 -8-8h-56a8 8 0 0 0 0 16h56a8 8 0 0 0 8-8z"/><path d="m392 320h56a8 8 0 0 0 0-16h-56a8 8 0 0 0 0 16z"/><path d="m32 264a8 8 0 0 0 8 8h48a8 8 0 0 0 0-16h-48a8 8 0 0 0 -8 8z"/><path d="m72 288a8 8 0 0 0 0 16h48a8 8 0 0 0 0-16z"/><path d="m64 232a8 8 0 0 0 8 8h56a8 8 0 0 0 0-16h-56a8 8 0 0 0 -8 8z"/><path d="m144 264a8 8 0 0 0 -8-8h-16a8 8 0 0 0 0 16h16a8 8 0 0 0 8-8z"/></g></svg>