<svg height="512" viewBox="0 0 512 512" width="512" xmlns="http://www.w3.org/2000/svg"><g id="filled_outline" data-name="filled outline"><path d="m24 200h32l16 16h48l16 16h32 160l16-8h32l16 16 24 56 32 128h-424z" fill="#c7830b"/><g fill="#ee9d0d"><path d="m24 200v-160h16l16-16h48l24 16 152 80h24l16 24 32 24 8 56h-16l-16 8h-192l-16-16h-48l-16-16z"/><path d="m136 160.06v31.94a8 8 0 0 1 -16 0v-31.94a21.945 21.945 0 0 0 -9.8-18.31l-.84-.56a29.935 29.935 0 0 1 -13.36-24.96v-31.51a33.838 33.838 0 0 0 -5.71-18.86l-28.07-41.86h19.27l22.1 32.96a49.838 49.838 0 0 1 8.41 27.76v31.51a13.991 13.991 0 0 0 6.23 11.65l.85.55a37.958 37.958 0 0 1 16.92 31.63z"/><path d="m328 184a8 8 0 0 1 -16 0 116.179 116.179 0 0 0 -8.34-43.31l-8.21-20.69h8.55l16 24 2.37 1.78a131.708 131.708 0 0 1 5.63 38.22z"/></g><path d="m280 232h-112v-67.181a214.748 214.748 0 0 0 -40-124.819h112a214.748 214.748 0 0 1 40 124.819z" fill="#a6deff"/><path d="m336 424h-96v-67.181a214.748 214.748 0 0 0 -40-124.819h96a214.748 214.748 0 0 1 40 124.819z" fill="#92d1f7"/><path d="m392 328 48 32 16 40v24h-88v-64z" fill="#ee9d0d"/><path d="m56 200a40 40 0 0 1 76.662-16h5.338a30 30 0 0 1 30 30v18h-32l-16-16h-48z" fill="#91a666"/><path d="m104 424v-40l32-32 8-24h40l8 32 48 40v24z" fill="#ee9d0d"/><path d="m368 360 24 16 24 8 24-24-48-32z" fill="#ffc864"/><path d="m24 424h464v64h-464z" fill="#5ebef7"/><path d="m259.447 313.67c1.084 5.076 1.987 10.259 2.683 15.4a8 8 0 0 0 7.917 6.93 8.124 8.124 0 0 0 1.084-.073 8 8 0 0 0 6.854-9c-.75-5.543-1.723-11.127-2.89-16.6a8 8 0 0 0 -15.648 3.34z"/><path d="m272 360a8 8 0 0 0 -8 8v24a8 8 0 0 0 16 0v-24a8 8 0 0 0 -8-8z"/><path d="m287.535 298.266a8 8 0 1 0 15.345-4.532 223.178 223.178 0 0 0 -16.954-41.49 8 8 0 0 0 -14.127 7.512 207.155 207.155 0 0 1 15.736 38.51z"/><path d="m300.984 320.072a8 8 0 0 0 -6.854 9 207.381 207.381 0 0 1 1.87 27.746v27.182a8 8 0 0 0 16 0v-27.182a223.473 223.473 0 0 0 -2.015-29.892 8 8 0 0 0 -9.001-6.854z"/><path d="m217.792 96a8 8 0 0 0 7.469-10.863 223.33 223.33 0 0 0 -11.335-24.895 8 8 0 0 0 -14.126 7.514 207.3 207.3 0 0 1 10.52 23.105 8 8 0 0 0 7.472 5.139z"/><path d="m220.939 129.372a207.334 207.334 0 0 1 3.061 35.446 8 8 0 0 0 16 0 223.414 223.414 0 0 0 -3.3-38.19 8 8 0 1 0 -15.763 2.744z"/><path d="m200 208a8 8 0 0 0 8-8v-8a8 8 0 0 0 -16 0v8a8 8 0 0 0 8 8z"/><path d="m488 416h-24v-16a8 8 0 0 0 -.572-2.971l-16-39.99a7.7 7.7 0 0 0 -.491-1c-.034-.06-.069-.118-.1-.177a8.018 8.018 0 0 0 -1.179-1.515c-.059-.059-.123-.109-.183-.165s-.129-.119-.195-.177a7.954 7.954 0 0 0 -.831-.649l-.01-.008h-.008l-.054-.036-8.026-5.351a7.952 7.952 0 0 0 -.038-3.689l-12.551-50.2a7.945 7.945 0 0 0 -.408-1.211l-24-56a8 8 0 0 0 -1.7-2.506l-16-16a8 8 0 0 0 -5.654-2.355h-9.062l-7.019-49.132a8 8 0 0 0 -3.119-5.268l-30.9-23.178s-17-24.741-17.2-24.887c-.044-.032-27-1.535-27-1.535a221.842 221.842 0 0 0 -35.19-76.65 8 8 0 0 0 -6.51-3.35h-109.578l-21.984-14.656a8 8 0 0 0 -4.438-1.344h-48a8 8 0 0 0 -5.657 2.343l-13.657 13.657h-12.686a8 8 0 0 0 -8 8v448a8 8 0 0 0 8 8h464a8 8 0 0 0 8-8v-64a8 8 0 0 0 -8-8zm-50.922-41.764 10.922 27.305v14.459h-16.028a84.331 84.331 0 0 0 -6.4-30.26zm-9.635-12.993-13.6 13.6-18.293-6.1-16.072-10.714 14.385-19.181zm-11.471 54.757h-39.972v-41.052l11.562 7.708a8.025 8.025 0 0 0 1.908.934l20.743 6.914a68.2 68.2 0 0 1 5.759 25.496zm-55.972-120a8 8 0 0 0 16 0 123.556 123.556 0 0 0 -17.6-63.556l-.267-.444h14.558l12.567 12.567 23.141 54 9.225 36.9-21.182-14.121a8 8 0 0 0 -10.842 1.854l-24 32c-.027.036-.045.077-.071.113-.061.084-.127.162-.185.249a8.138 8.138 0 0 0 -.429.724l-.011.023a7.921 7.921 0 0 0 -.451 1.062c-.02.057-.042.114-.06.171a7.877 7.877 0 0 0 -.276 1.119c-.008.049-.013.1-.021.15a7.962 7.962 0 0 0 -.094 1.162v.027 56h-16.002v-59.182a221.325 221.325 0 0 0 -33.091-116.818h17.091a7.994 7.994 0 0 0 3.578-.845l9.373-4.686 3.725 6.208a107.551 107.551 0 0 1 15.324 55.323zm-61.416-168 5.075 12.688a116.122 116.122 0 0 1 8.341 43.312 8 8 0 0 0 16 0 132.448 132.448 0 0 0 -2.553-25.915l19.1 14.327 6.229 43.588s-10.329.832-10.354.845l-14.311 7.155h-38.111v-59.182a224.347 224.347 0 0 0 -3.036-36.818zm-6.75 112a205.529 205.529 0 0 1 36.166 116.818v59.182h-80v-59.182a221.317 221.317 0 0 0 -33.079-116.818h12.889a207.019 207.019 0 0 1 20.79 38.512 8 8 0 1 0 14.807-6.061 222.873 222.873 0 0 0 -16.524-32.451zm-182.834 9.685-14.784-14.785-7.268-10.9h29.738l13.257 13.257 3.165 4.221a95.05 95.05 0 0 1 18.892 56.675v21.847h-8a8 8 0 0 0 -7.589 5.47l-7.4 22.209-1.011 1.008v-53.128a64.45 64.45 0 0 0 -19-45.874zm16.659-39.342a8 8 0 0 0 -5.659-2.343h-44.686l-11.159-11.159a32 32 0 0 1 61.177-9.637 8 8 0 0 0 7.33 4.8h5.338a22.025 22.025 0 0 1 22 22v10h-20.686zm-29.659 116.686v-67.715l1.685 1.686a48.552 48.552 0 0 1 14.315 34.559v69.127l-13.657 13.657a8 8 0 0 0 -2.343 5.657v32h-24v-31.029a32.756 32.756 0 0 1 9.657-23.314 48.653 48.653 0 0 0 14.343-34.628zm16 60.284 29.657-29.656a8 8 0 0 0 1.932-3.127l6.177-18.53h27.988l6.485 25.94a8 8 0 0 0 2.639 4.206l45.122 37.601v12.253h-120zm87.128-31.787-7.367-29.466a8 8 0 0 0 -7.761-6.06h-16v-21.847a111.243 111.243 0 0 0 -16.575-58.153h44.409a205.517 205.517 0 0 1 36.166 116.818v26.1zm-43.294-307.526a205.517 205.517 0 0 1 36.166 116.818 8 8 0 0 0 16 0 221.325 221.325 0 0 0 -33.091-116.818h60.925a205.529 205.529 0 0 1 36.166 116.818v59.182h-32v-24a8 8 0 0 0 -16 0v24h-48v-59.182a221.317 221.317 0 0 0 -33.079-116.818zm-54.256-16 20.732 13.821a205.56 205.56 0 0 1 37.69 119v18.228a37.775 37.775 0 0 0 -22-7.049h-.43c-.5-.861-1.024-1.7-1.57-2.522v-13.422a37.929 37.929 0 0 0 -16.925-31.621l-.841-.56a13.974 13.974 0 0 1 -6.234-11.649v-31.509a49.854 49.854 0 0 0 -8.4-27.736l-16.652-24.981zm-69.578 16h8a8 8 0 0 0 5.657-2.343l13.657-13.657h8.4l22.576 33.856a33.9 33.9 0 0 1 5.71 18.861v31.509a29.943 29.943 0 0 0 13.362 24.964l.841.56a21.945 21.945 0 0 1 9.728 16.649 47.981 47.981 0 0 0 -71.252 33.601h-16.679zm0 160h20.686l13.1 13.1 14.214 21.322v84.607a32.756 32.756 0 0 1 -9.657 23.314 48.653 48.653 0 0 0 -14.343 34.628v31.029h-24zm448 240h-64a8 8 0 0 0 0 16h64v16h-448v-16h112a8 8 0 0 0 0-16h-112v-16h448z"/><path d="m240 448h-16a8 8 0 0 0 0 16h16a8 8 0 0 0 0-16z"/><path d="m304 448h-40a8 8 0 0 0 0 16h40a8 8 0 0 0 0-16z"/><path d="m384 448h-48a8 8 0 0 0 0 16h48a8 8 0 0 0 0-16z"/><path d="m192 448h-16a8 8 0 0 0 0 16h16a8 8 0 0 0 0-16z"/><path d="m370.3 114.5-5.881 2.94a8 8 0 0 0 7.156 14.311l5.88-2.941a7.686 7.686 0 0 1 8.885 1.443 8 8 0 0 0 11.314 0 7.687 7.687 0 0 1 8.885-1.443l5.88 2.941a8 8 0 0 0 7.156-14.311l-5.875-2.94a23.657 23.657 0 0 0 -21.7.253 23.666 23.666 0 0 0 -21.7-.253z"/><path d="m411.578 95.155 5.88-2.94a7.688 7.688 0 0 1 8.885 1.442 8 8 0 0 0 11.314 0 7.688 7.688 0 0 1 8.885-1.442l5.88 2.94a8 8 0 1 0 7.156-14.31l-5.878-2.945a23.663 23.663 0 0 0 -21.7.253 23.666 23.666 0 0 0 -21.7-.253l-5.881 2.941a8 8 0 0 0 7.156 14.31z"/></g></svg>