<?xml version="1.0" encoding="UTF-8"?>
<svg xmlns="http://www.w3.org/2000/svg" viewBox="0 0 512 512" width="512" height="512"><g id="filled_outline" data-name="filled outline"><path d="M24,424h0a56.724,56.724,0,0,0,48.549-27.389l16.069-26.069,18.8-34.368L136,336l88,152-200,.276V488" style="fill:#529fff"/><path d="M224,488l-14.311-14.311A269.457,269.457,0,0,1,136,336l-1-3.078H257.186L354.822,460l44.919,28Z" style="fill:#0a71cd"/><path d="M224,488l-14.311-14.311A269.457,269.457,0,0,1,136,336l-1-3.078h45.153L256,304l98.822,156,44.919,28Z" style="fill:#007af6"/><path d="M388.444,488l-34.7-16.438a177.825,177.825,0,0,1-77.474-71.1h0a177.817,177.817,0,0,1-23.608-104.364L256,199l144,1-11.476,22.952a106.694,106.694,0,0,0-4.84,84.178h0a106.693,106.693,0,0,0,60.646,62.6L488,387.2V488H388.444" style="fill:#529fff"/><path d="M433.782,189.673,430,184a24,24,0,0,0-29.551-23.348,23.992,23.992,0,0,0-36.776-.141,32,32,0,1,0,25.115,40.206A41.362,41.362,0,0,1,411.91,225.73a9.17,9.17,0,0,0,8.7,6.27h2.573a12.741,12.741,0,0,0,10.6-5.673h0A33.038,33.038,0,0,0,433.782,189.673Z" style="fill:#eae9e4"/><path d="M323.824,198l-5.271-4.325a24,24,0,0,0-35.072-13.724A23.991,23.991,0,0,0,248.26,190.53a32,32,0,1,0,34.956,38.836,15.964,15.964,0,0,0,19.118-1.162,41.333,41.333,0,0,1,11.127,10.734,9.158,9.158,0,0,0,10.154,3.37l2.4-.732a12.615,12.615,0,0,0,8.414-8.279A33.039,33.039,0,0,0,323.824,198Z" style="fill:#eae9e4"/><path d="M153.777,318.925l-5.183-1.576a19.065,19.065,0,0,0-29.918.57,19.063,19.063,0,0,0-22.649,18.462,25.424,25.424,0,1,0,37.457,17.9,12.687,12.687,0,0,0,13.685-6.657,32.838,32.838,0,0,1,11.366,4.465,7.286,7.286,0,0,0,8.5-.539l1.58-1.3a10.125,10.125,0,0,0,3.646-8.829A26.251,26.251,0,0,0,153.777,318.925Z" style="fill:#eae9e4"/><path d="M266.985,286.316l-3.639-3.249a36.614,36.614,0,0,0-14.787-8.022h0a22.665,22.665,0,0,0-5.251-.769,24,24,0,0,0-46.138-1.683A40,40,0,1,0,244,312v-.022a2.73,2.73,0,0,1,2.243-2.7,17.03,17.03,0,0,1,11.739,2.116h0a9.89,9.89,0,0,0,13.8,3.486,10.162,10.162,0,0,0,4.63-9.382A28.432,28.432,0,0,0,266.985,286.316Z" style="fill:#eae9e4"/><path d="M216.956,432l7.786-13.515a64.676,64.676,0,0,1,45.4-31.509h0a64.677,64.677,0,0,1,34.658,3.745l.367.147a64.67,64.67,0,0,1,29.1,23.155,18.233,18.233,0,0,1,2.434,15.629h0a18.377,18.377,0,0,1-2,4.429l-.95,1.526c-4.878,7.838-15.155,10.754-23.13,6.1-.321-.188-.639-.386-.951-.594l-3.268-2.177a15.284,15.284,0,0,0-19.267,1.9l-.413.412a15.214,15.214,0,0,0-3.768,15.621l.118.352a37.606,37.606,0,0,0,18.878,21.76C310.573,483.286,320,488,320,488H160Z" style="fill:#dcdbd6"/><path d="M160,488V472.971A40.971,40.971,0,0,1,172,444h0a40.971,40.971,0,0,1,28.971-12h7.985a28.11,28.11,0,0,1,23.389,12.517h0a13.8,13.8,0,0,1-3.828,19.138l-3.1,2.069A13.8,13.8,0,0,1,208,464h0a16,16,0,0,0-16,16v8Z" style="fill:#eae9e4"/><circle cx="116.132" cy="112" r="48" style="fill:#ea2b2d"/><path d="M490.972,379.772,447.3,362.3A98.7,98.7,0,0,1,395.68,226.529l4.565-9.13a33.344,33.344,0,0,1,6.075,10.862A17.149,17.149,0,0,0,422.609,240h2.573a20.7,20.7,0,0,0,17.256-9.235,40.934,40.934,0,0,0,0-45.53l-2.541-3.811A32.043,32.043,0,0,0,408,152c-.9,0-1.8.039-2.7.115a31.995,31.995,0,0,0-42.566-.019c-.914-.064-1.826-.1-2.731-.1a40.054,40.054,0,0,0-39.635,34.675,31.981,31.981,0,0,0-38.093-16.621q-1.293.391-2.554.9a32,32,0,0,0-40.725,12.384c-.892.206-1.774.44-2.64.7a39.9,39.9,0,0,0-18.429,64.552,31.877,31.877,0,0,0-22.556,17.1,48.181,48.181,0,0,0-35.333,48.173c0,.13.018.258.024.387a34.46,34.46,0,0,0-6.955-2.982l-3.081-.937a27.106,27.106,0,0,0-36.347-1.8q-.61.5-1.194,1.041a27.062,27.062,0,0,0-27.013,22.183q-.647.478-1.261.984a33.423,33.423,0,0,0-7.919,42.2L65.7,392.475A48.988,48.988,0,0,1,24,416a8,8,0,0,0-8,8v64a8,8,0,0,0,8,8H488a8,8,0,0,0,8-8V392a7.987,7.987,0,0,0-.372-2.413A8,8,0,0,0,490.972,379.772ZM360,168a24.215,24.215,0,0,1,4.263.387,8.006,8.006,0,0,0,7.517-2.708,15.992,15.992,0,0,1,24.522.092,8,8,0,0,0,7.99,2.667A15.991,15.991,0,0,1,424,184a8.013,8.013,0,0,0,1.343,4.438l3.781,5.672h0a24.975,24.975,0,0,1,0,27.78,4.73,4.73,0,0,1-3.943,2.11h-2.573a1.168,1.168,0,0,1-1.11-.8,49.378,49.378,0,0,0-27.593-29.85,8,8,0,0,0-10.816,5.191A24,24,0,1,1,360,168ZM226.674,211.312a23.807,23.807,0,0,1,14.341-11.965,24.271,24.271,0,0,1,4.192-.874,8,8,0,0,0,6.4-4.781,15.987,15.987,0,0,1,23.485-7.055,8,8,0,0,0,8.421.221,16.15,16.15,0,0,1,3.42-1.5A16,16,0,0,1,306.9,196a8,8,0,0,0,2.58,3.854l5.271,4.326h0a24.947,24.947,0,0,1,8.039,26.754,4.592,4.592,0,0,1-3.1,2.987l-2.4.732a1.179,1.179,0,0,1-1.289-.335,49.162,49.162,0,0,0-13.278-12.81,8,8,0,0,0-9.557.593,7.965,7.965,0,0,1-9.542.583,8,8,0,0,0-12.2,4.909,24,24,0,1,1-44.74-16.283Zm65.665,159.254q2.4,4.8,5.079,9.468a72.626,72.626,0,0,0-23.357-1.623,168.64,168.64,0,0,1-13.7-57.241,17.83,17.83,0,0,0,15.675,2.324A193.089,193.089,0,0,0,292.339,370.566ZM272,254.331v22.2a44.842,44.842,0,0,0-17.344-9.207l-.006,0c-.167-.045-.338-.081-.507-.124l.174-5.4c.933-.149,1.867-.32,2.8-.539A40.251,40.251,0,0,0,272,254.331Zm-69.473,26.146a8,8,0,0,0,6.252-5.416,16,16,0,0,1,30.758,1.117,8,8,0,0,0,7.53,6.094,14.817,14.817,0,0,1,3.394.493,28.769,28.769,0,0,1,11.558,6.27l3.638,3.249a20.32,20.32,0,0,1,6.772,13.782,2.218,2.218,0,0,1-.866,2.012,1.885,1.885,0,0,1-2.639-.663,8.008,8.008,0,0,0-2.864-2.905,25.1,25.1,0,0,0-17.239-3.108A10.733,10.733,0,0,0,240,312a32.005,32.005,0,0,1-34.3,31.92,32,32,0,0,1-3.169-63.443ZM258.1,381.739a72.385,72.385,0,0,0-16.639,7.91,262.193,262.193,0,0,1-12.551-34.42,48.1,48.1,0,0,0,17.539-14.508A184.378,184.378,0,0,0,258.1,381.739Zm-29.449,18.409a72.937,72.937,0,0,0-10.84,14.344L216,417.633a259.533,259.533,0,0,1-26.85-61.555,46.685,46.685,0,0,0,15.436,3.8q1.742.122,3.466.121a48.734,48.734,0,0,0,5.488-.321A278.424,278.424,0,0,0,228.651,400.148ZM170.7,356.438A18.183,18.183,0,0,0,172.243,355a275.386,275.386,0,0,0,28.943,69h-.215a48.892,48.892,0,0,0-18.631,3.657A260.5,260.5,0,0,1,149.7,357.973c.531.283,1.061.569,1.574.892a15.27,15.27,0,0,0,17.839-1.129Zm-82.611.437a17.313,17.313,0,0,1,6.281-11.766,17.76,17.76,0,0,1,2.574-1.75,8,8,0,0,0,4.087-6.863,11.061,11.061,0,0,1,11.057-10.917,11.281,11.281,0,0,1,2.095.2,8.008,8.008,0,0,0,7.864-3.012,11.063,11.063,0,0,1,17.371-.337A8,8,0,0,0,143.269,325l5.182,1.575A18.207,18.207,0,0,1,161.3,342.224a2.118,2.118,0,0,1-.765,1.851l-1.185.973a40.642,40.642,0,0,0-13.7-5.28,8,8,0,0,0-8.6,4.2A4.686,4.686,0,0,1,132,346.43a8,8,0,0,0-9.4,9.2,17.424,17.424,0,1,1-34.514,1.245ZM32,431.491a65.135,65.135,0,0,0,47.4-30.742l8.341-13.805a33.269,33.269,0,0,0,14.429,4.9q1.667.164,3.32.163c1.085,0,2.163-.058,3.233-.162A92.284,92.284,0,0,1,77.475,430.83,91.587,91.587,0,0,1,32,447.636Zm0,32.2A107.476,107.476,0,0,0,86.773,443.85a108.3,108.3,0,0,0,41.95-61.321,33.419,33.419,0,0,0,8.042-12.4q4.11,12.464,9.36,24.448a7.96,7.96,0,0,0-1.45,2.2l-3.958,9.014A124.086,124.086,0,0,1,32,479.9Zm120,9.278V480H92.038a139.042,139.042,0,0,0,20.442-13.031,140.5,140.5,0,0,0,42.54-53.98q6.282,11.861,13.729,23.119c-.82.719-1.628,1.456-2.406,2.235A48.653,48.653,0,0,0,152,472.971ZM184,480H168v-7.029A32.971,32.971,0,0,1,200.971,440h7.985a20.07,20.07,0,0,1,16.732,8.955A5.8,5.8,0,0,1,224.08,457l-3.1,2.069a5.814,5.814,0,0,1-7.319-.725A8,8,0,0,0,208,456,24.028,24.028,0,0,0,184,480Zm16,0a8.015,8.015,0,0,1,5.634-7.643,21.877,21.877,0,0,0,24.217.024l3.1-2.069A21.8,21.8,0,0,0,239,440.08a36.091,36.091,0,0,0-11.243-10.8l3.917-6.8a56.668,56.668,0,0,1,70.145-24.334l.378.151A56.717,56.717,0,0,1,315.06,405.5c.06.049.122.1.184.142a56.608,56.608,0,0,1,12.454,12.94,10.168,10.168,0,0,1,1.341,8.771,10.366,10.366,0,0,1-1.126,2.5l-.95,1.526a9.237,9.237,0,0,1-12.306,3.421c-.185-.109-.37-.224-.548-.343l-3.267-2.177a23.352,23.352,0,0,0-29.354,2.895l-.412.411a23.142,23.142,0,0,0-5.708,23.815l.117.351A45.333,45.333,0,0,0,289.09,480Zm121.888,0c-3.093-1.546-9.948-4.972-16.361-8.174a29.813,29.813,0,0,1-14.862-17.133l-.117-.348a7.234,7.234,0,0,1,1.828-7.431l.412-.411a7.3,7.3,0,0,1,9.183-.9l.72.479a8.007,8.007,0,0,0,1.162,1.348,185.583,185.583,0,0,0,46.463,31.366L352.869,480Zm68.355,0-33.077-15.668a169.665,169.665,0,0,1-26.253-15.486,25.5,25.5,0,0,0,9.634-9.011l.95-1.527a26.323,26.323,0,0,0,2.054-4.076,192.137,192.137,0,0,0,38.629,24.284l28.925,13.7c5.726,2.712,10.98,5.316,15.86,7.782ZM480,480H462.523c-5.748-2.711-11.544-5.686-18.168-9.087-7.628-3.918-16.275-8.359-26.4-13.154l-28.926-13.7a176.252,176.252,0,0,1-46.74-32.247,26.137,26.137,0,0,0-1.449-2.35,72.569,72.569,0,0,0-15.088-15.919A176.511,176.511,0,0,1,288,284.409V239.981a24.234,24.234,0,0,0,9.853-2.1,33.226,33.226,0,0,1,5.075,5.677,16.847,16.847,0,0,0,4.178,4.124l-.479,2.4A163.617,163.617,0,0,0,397.4,430.205l61.99,29.173A132.982,132.982,0,0,0,480,467.052Zm0-29.659a116.674,116.674,0,0,1-13.8-5.441l-61.989-29.171a147.616,147.616,0,0,1-81.9-162.517l.717-3.583,1.317-.4a20.577,20.577,0,0,0,13.725-13.57,41.374,41.374,0,0,0,1.735-9.15,39.728,39.728,0,0,0,4.723,2.377l-3.409,13.635a144.095,144.095,0,0,0,83.03,167.392l45.183,19.364c3.479,1.492,7.051,2.825,10.663,4.017Zm0-34.017c-1.466-.56-2.924-1.138-4.36-1.754l-45.183-19.364a128.094,128.094,0,0,1-73.811-148.8l3.6-14.409a39.775,39.775,0,0,0,17.293-4.084,114.673,114.673,0,0,0,63.817,149.251L480,392.617Z"/><path d="M116.133,56a56,56,0,1,0,56,56A56.063,56.063,0,0,0,116.133,56Zm0,96a40,40,0,1,1,40-40A40.045,40.045,0,0,1,116.133,152Z"/><path d="M136.265,104a8,8,0,0,0-8,8A12.142,12.142,0,0,1,113.8,123.908a8,8,0,1,0-3.063,15.7A28.147,28.147,0,0,0,144.265,112,8,8,0,0,0,136.265,104Z"/><path d="M86.451,16.359a8,8,0,0,0-5.269,10.012l3.9,12.571A8,8,0,1,0,100.364,34.2l-3.9-12.571A8,8,0,0,0,86.451,16.359Z"/><path d="M57.646,58.327,47.1,50.45a8,8,0,1,0-9.575,12.819l10.546,7.877a8,8,0,0,0,9.575-12.819Z"/><path d="M16,110.675a8,8,0,0,0,7.894,8.1l13.162.174h.107a8,8,0,0,0,.1-16l-13.163-.174H24A8,8,0,0,0,16,110.675Z"/><path d="M40.886,173.168A7.969,7.969,0,0,0,45.5,171.7l10.75-7.595a8,8,0,1,0-9.232-13.068l-10.75,7.595a8,8,0,0,0,4.623,14.535Z"/><path d="M83.159,184.21l-4.232,12.464a8,8,0,1,0,15.15,5.144l4.233-12.464a8,8,0,0,0-15.151-5.144Z"/><path d="M137.17,179.788A8,8,0,0,0,131.9,189.8l3.9,12.571a8,8,0,1,0,15.281-4.742l-3.9-12.571A8,8,0,0,0,137.17,179.788Z"/><path d="M174.619,165.673l10.546,7.877a8,8,0,0,0,9.574-12.819l-10.546-7.877a8,8,0,0,0-9.574,12.819Z"/><path d="M195.1,105.046a8,8,0,0,0-.1,16l13.162.174h.108a8,8,0,0,0,.1-16l-13.162-.174Z"/><path d="M186.77,52.3l-10.75,7.595a8,8,0,1,0,9.232,13.068L196,65.367A8,8,0,1,0,186.77,52.3Z"/><path d="M141.531,45.22a8,8,0,0,0,7.574-5.43l4.233-12.464a8,8,0,0,0-15.15-5.144l-4.233,12.464a8.006,8.006,0,0,0,7.576,10.574Z"/></g></svg>
