<svg id="Capa_1" enable-background="new 0 0 512 512" height="512" viewBox="0 0 512 512" width="512" xmlns="http://www.w3.org/2000/svg"><g id="filled_outline"><path d="m283.973 145.723-104.893 154.577c-20.358 30.003-16.539 70.237 9.1 95.874 17.438 17.438 42.287 25.271 66.572 20.985 57.475-10.144 101.137-57.361 106.76-115.453l12.215-126.219c1.439-14.871-3.847-29.607-14.412-40.172-9.611-9.611-23.272-13.989-36.679-11.754l-5.509.918c-13.492 2.248-25.474 9.926-33.154 21.244z" fill="#91a666"/><ellipse cx="388.883" cy="384.068" fill="#fd9226" rx="76.015" ry="64.013" transform="matrix(.616 -.788 .788 .616 -153.206 453.908)"/><path d="m248 107.832c-2.122.003-4.158-.84-5.657-2.343l-11.232-11.231c-14.57-14.605-14.57-38.246 0-52.851l11.232-11.231c3.124-3.124 8.189-3.124 11.314 0l11.232 11.232c14.57 14.604 14.57 38.246 0 52.85l-11.232 11.231c-1.499 1.503-3.535 2.346-5.657 2.343z" fill="#91a666"/><path d="m425.666 121.12c-3.73-.004-6.963-2.585-7.792-6.222l-3.535-15.485c-4.593-20.121 7.995-40.156 28.116-44.75h.002l15.485-3.535c4.307-.983 8.597 1.711 9.58 6.019l3.535 15.487c4.568 20.118-8.011 40.136-28.118 44.75l-15.486 3.534c-.586.134-1.186.202-1.787.202z" fill="#768753"/><path d="m448.007 282.788c-2.577-.002-5.146-.27-7.668-.8l-15.547-3.255c-4.324-.906-7.095-5.145-6.19-9.469l3.255-15.548c4.231-20.2 24.036-33.146 44.236-28.916l15.547 3.256c4.324.906 7.095 5.145 6.19 9.469l-3.255 15.547c-3.646 17.296-18.892 29.685-36.568 29.716z" fill="#fd9226"/><g id="outline"><path d="m315.812 116.587c-15.639 2.638-29.527 11.537-38.458 24.644l-61.593 90.769h-71.487c-4.261 0-7.981 3.215-8.257 7.467-.301 4.66 3.388 8.533 7.983 8.533h60.9l-32.44 47.811c-22.473 33.189-18.254 77.653 10.06 106.023 1.01 1.01 2.043 1.99 3.1 2.939l-53.737 75.227h-99.609c-4.261 0-7.981 3.215-8.257 7.467-.301 4.66 3.388 8.533 7.983 8.533h455.726c4.261 0 7.981-3.215 8.257-7.467.302-4.659-3.388-8.533-7.983-8.533h-160.455l17.361-24.3c9.903 5.493 21.057 8.335 32.381 8.249 24.483 0 50.315-12.377 68.223-35.265 28.541-36.479 26.323-86.06-4.945-110.525-20.21-15.812-47.681-17.3-72.293-6.541.5-3.032.907-6.079 1.2-9.136l10.694-110.482h19.56c4.261 0 7.981-3.215 8.257-7.467.302-4.659-3.388-8.533-7.983-8.533h-18.292c.766-8.143-.212-16.247-2.754-23.816-5.342-15.903-17.879-28.49-33.816-33.73-.095-.031-.19-.062-.285-.093-12.686-4.097-23.618-2.8-29.041-1.774zm84.418 204.032c11.011-.152 21.75 3.42 30.476 10.137 24.319 19.027 25.307 58.533 2.2 88.063-14.773 18.881-35.873 29.187-55.529 29.181-8.023.064-15.944-1.796-23.1-5.423l13.288-18.6c.146.008.291.022.439.022h32c4.418 0 8-3.582 8-8s-3.582-8-8-8h-21.03l30.964-43.351c2.596-3.575 1.803-8.578-1.773-11.174-3.575-2.596-8.578-1.803-11.174 1.773-.024.034-.049.067-.072.101l-12.919 18.089v-5.437c0-4.418-3.582-8-8-8s-8 3.582-8 8v24c0 1.032.201 2.054.591 3.01l-27.067 37.89c-18.928-20.341-18.079-55.934 3.175-83.1 14.775-18.88 35.875-29.181 55.531-29.181zm-49.571-181.721c1.91 1.199 3.659 2.654 5.133 4.361 7.464 8.641 11.105 20.004 9.978 31.458l-.13 1.283h-29.366c-4.261 0-7.981 3.215-8.257 7.467-.301 4.66 3.388 8.533 7.983 8.533h28.091l-10.542 108.936c-.717 7.393-2.106 14.706-4.148 21.848-6.467 4.968-12.28 10.733-17.3 17.16-9.35 11.84-15.719 25.754-18.569 40.569-.711.315-1.372.733-1.962 1.239-16.586 14.226-36.689 23.735-58.208 27.532-15.658 2.751-31.785-.099-45.552-8.051l46.7-65.378c.491.095.99.143 1.49.145h39.726c4.261 0 7.981-3.215 8.257-7.467.302-4.659-3.388-8.533-7.983-8.533h-30.169l36.484-51.078c2.546-3.565 2.02-8.635-1.467-11.287-3.608-2.744-8.742-1.948-11.358 1.714l-9.49 13.288v-8.363c0-4.261-3.215-7.981-7.467-8.257-4.66-.301-8.533 3.388-8.533 7.983v31.037l-40 56v-22.763c0-4.261-3.215-7.981-7.467-8.257-4.66-.301-8.533 3.388-8.533 7.983v40c0 1.389.363 2.755 1.055 3.96l-14.061 19.685c-.394-.371-.779-.745-1.161-1.125l-.003-.001c-22.889-22.939-26.298-58.886-8.13-85.719l38.539-56.8h23.487c4.261 0 7.981-3.215 8.257-7.467.302-4.659-3.388-8.533-7.983-8.533h-12.9l55.5-81.784c1.671-2.296 11.683-15.581 30.256-18.015 13.85-1.815 24.605 3.434 29.803 6.697zm-152.189 275.402c17.293 10.433 37.78 14.248 57.67 10.74 20.228-3.576 39.402-11.623 56.123-23.553 1.15 17.1 7.8 32.981 19.819 44.636l-24.199 33.877h-156.338z"/><path d="m48 200h112c22.091 0 40-17.909 40-40s-17.909-40-40-40-40 17.909-40 40c0 4.418 3.582 8 8 8s8-3.582 8-8c0-13.255 10.745-24 24-24s24 10.745 24 24-10.745 24-24 24h-112c-4.418 0-8 3.582-8 8s3.582 8 8 8z"/><path d="m40 248h56c4.418 0 8-3.582 8-8s-3.582-8-8-8h-56c-4.418 0-8 3.582-8 8s3.582 8 8 8z"/><path d="m32 296h56c17.673 0 32 14.327 32 32s-14.327 32-32 32-32-14.327-32-32c0-4.418-3.582-8-8-8s-8 3.582-8 8c0 26.51 21.49 48 48 48s48-21.49 48-48-21.49-48-48-48h-56c-4.418 0-8 3.582-8 8s3.582 8 8 8z"/><path d="m112 448h16c4.418 0 8-3.582 8-8s-3.582-8-8-8h-16c-4.418 0-8 3.582-8 8s3.582 8 8 8z"/><path d="m120 408c0-4.418-3.582-8-8-8h-56c-4.418 0-8 3.582-8 8s3.582 8 8 8h56c4.418 0 8-3.582 8-8z"/><path d="m72 80h40c4.418 0 8-3.582 8-8s-3.582-8-8-8h-40c-4.418 0-8 3.582-8 8s3.582 8 8 8z"/><path d="m240.925 104.071c3.51 7.389 8.822 13.777 15.447 18.576 3.554 2.625 8.563 1.873 11.188-1.68 2.625-3.554 1.873-8.563-1.68-11.188-.041-.031-.083-.061-.125-.09-3.132-2.277-5.835-5.092-7.984-8.313l7.118-7.117c14.57-14.604 14.57-38.246 0-52.85l-11.232-11.232c-3.124-3.124-8.189-3.124-11.314 0l-11.232 11.231c-14.57 14.605-14.57 38.246 0 52.851zm1.5-51.349 5.575-5.576 5.575 5.576c8.332 8.351 8.332 21.87 0 30.221l-1.388 1.389c-.152-3.556.277-7.114 1.269-10.532l1.159-3.975c1.237-4.242-1.198-8.683-5.44-9.92s-8.683 1.198-9.92 5.44l-1.155 3.974c-.433 1.486-.784 2.981-1.071 4.481-2.177-7.484-.11-15.561 5.396-21.078z"/><path d="m405.913 128c.176 0 .355-.006.534-.018 8.162-.539 16.057-3.121 22.96-7.51l13.532-3.088c20.107-4.614 32.686-24.632 28.118-44.75l-3.535-15.487c-.983-4.307-5.272-7.002-9.58-6.019l-15.485 3.535c-20.122 4.592-32.711 24.627-28.118 44.748v.002l2.24 9.814c-3.534 1.584-7.32 2.529-11.184 2.791-4.408.296-7.742 4.11-7.446 8.518.282 4.194 3.761 7.454 7.964 7.464zm26.764-48.272c3.004-4.81 7.807-8.219 13.34-9.465l7.687-1.755 1.754 7.686c1.729 7.604-.817 15.546-6.645 20.727.556-1.424 1.056-2.879 1.48-4.37l1.133-3.983c1.16-4.263-1.355-8.66-5.618-9.82-4.194-1.142-8.532 1.275-9.77 5.441l-1.138 3.983c-.978 3.423-2.508 6.664-4.53 9.594l-.436-1.913c-1.277-5.526-.289-11.332 2.743-16.125z"/><path d="m437.985 230.1c-8.315 5.404-14.122 13.909-16.128 23.621l-2.063 9.852c-3.872-.036-7.707-.758-11.327-2.133-4.113-1.614-8.755.413-10.369 4.526s.413 8.755 4.526 10.369c.044.017.087.034.131.05 7.623 2.927 15.863 3.874 23.951 2.754l13.633 2.854c20.184 4.241 39.984-8.683 44.225-28.867.004-.017.007-.035.011-.052l3.255-15.547c.905-4.324-1.866-8.563-6.19-9.469l-15.547-3.258c-9.701-2.058-19.822-.15-28.108 5.3zm30.93 19.695c-1.605 7.635-7.24 13.791-14.705 16.062 1.1-1.065 2.171-2.176 3.181-3.356l2.693-3.145c2.874-3.356 2.483-8.407-.874-11.28-3.356-2.874-8.407-2.483-11.28.873l-2.693 3.146c-2.318 2.702-5.062 5.007-8.122 6.826l.4-1.921c2.418-11.552 13.744-18.957 25.296-16.539.001 0 .002.001.004.001l7.718 1.616z"/><path d="m248 440h-8c-4.418 0-8 3.582-8 8s3.582 8 8 8h8c4.418 0 8-3.582 8-8s-3.582-8-8-8z"/><path d="m296 248h8c4.418 0 8-3.582 8-8s-3.582-8-8-8h-8c-4.418 0-8 3.582-8 8s3.582 8 8 8z"/></g></g></svg>