<svg height="503pt" viewBox="0 0 503.32334 503" width="503pt" xmlns="http://www.w3.org/2000/svg"><path d="m363.953125 199.753906s43.910156 43.390625 26.554687 104.136719c-17.355468 60.746094-69.945312-34.710937-69.945312-34.710937zm0 0" fill="#a5a5a4"/><path d="m503.320312 95.621094c.019532 2.929687-.359374 5.847656-1.125 8.675781-5.296874 17.53125-27.078124 18.484375-42.261718 26.035156-40.582032 17.511719-74.171875 48.046875-95.460938 86.777344-5.402344 9.351563-12.324218 17.738281-20.476562 24.820313l-78.449219 33.671874c-36.195313 5.730469-72.976563 6.753907-109.429687 3.035157l-8.589844-.78125c-13.503906-1.59375-27.1875-.351563-40.179688 3.644531-51.203125 16.664062-57.710937 77.582031-29.246094 91.8125 13.773438 5.648438 28.503907 8.59375 43.390626 8.679688 60.746093 8.679687 0-69.421876 69.421874-69.421876 20.511719 28.511719 20.511719 66.941407 0 95.457032 20.511719 28.511718 20.511719 66.941406 0 95.457031-69.421874 0-8.675781-78.101563-69.421874-69.425781-60.746094 8.679687-121.492188-43.386719-121.492188-121.488282 0-78.105468 69.421875-173.5625 156.203125-216.949218 86.78125-43.390625 190.914063-95.460938 269.015625-95.460938 60.746094 0 60.746094 60.746094 60.746094 60.746094 9.210937 5.695312 15.316406 15.28125 16.578125 26.035156.539062 2.859375.800781 5.765625.777343 8.679688zm0 0" fill="#d1d4d1"/><path d="m338.441406 191.078125s26.03125 104.132813-34.710937 147.523437c-60.746094 43.390626-43.390625-86.777343-17.359375-121.492187zm0 0" fill="#d1d4d1"/><path d="m503.320312 95.621094c.019532 2.929687-.359374 5.847656-1.125 8.675781h-50.941406c-26.640625 0-54.148437 0-73.328125-9.632813-3.003906-1.25-5.054687-4.074218-5.316406-7.316406-.257813-3.242187 1.316406-6.359375 4.082031-8.070312 2.765625-1.714844 6.257813-1.738282 9.042969-.058594 15.535156 7.722656 40.960937 7.722656 65.519531 7.722656h51.289063c.539062 2.859375.800781 5.765625.777343 8.679688zm0 0" fill="#a5a5a4"/><path d="m86.769531 199.753906c-3.125 0-6.011719-1.683594-7.550781-4.40625-1.539062-2.71875-1.496094-6.058594.113281-8.738281 27.085938-45.128906 154.566407-105.003906 159.980469-107.53125 2.824219-1.40625 6.1875-1.167969 8.785156.617187 2.597656 1.789063 4.023438 4.84375 3.722656 7.980469-.304687 3.140625-2.285156 5.867188-5.175781 7.128907-35.535156 16.589843-132.199219 67.027343-152.429687 100.742187-1.570313 2.613281-4.394532 4.210937-7.445313 4.207031zm0 0" fill="#fff"/><path d="m156.117188 278.636719-8.589844-.78125c-13.503906-1.59375-27.1875-.351563-40.179688 3.644531-16.921875-1.90625-35.320312-3.644531-46.601562-3.644531-4.792969 0-8.679688-3.882813-8.679688-8.675781 0-4.792969 3.886719-8.679688 8.679688-8.679688 26.378906 0 85.476562 8.417969 87.996094 8.765625 4.582031.621094 7.847656 4.769531 7.375 9.371094zm0 0" fill="#a5a5a4"/><path d="m363.953125 69.585938c0 9.585937-7.769531 17.355468-17.355469 17.355468-9.585937 0-17.355468-7.769531-17.355468-17.355468 0-9.585938 7.769531-17.355469 17.355468-17.355469 9.585938 0 17.355469 7.769531 17.355469 17.355469zm0 0" fill="#fff"/><path d="m355.277344 69.585938c0 4.792968-3.886719 8.675781-8.679688 8.675781-4.792968 0-8.675781-3.882813-8.675781-8.675781 0-4.792969 3.882813-8.679688 8.675781-8.679688 4.792969 0 8.679688 3.886719 8.679688 8.679688zm0 0" fill="#2c2f38"/><path d="m346.597656 60.90625c-.019531 4.078125-2.871094 7.589844-6.855468 8.445312-3.984376.855469-8.03125-1.175781-9.71875-4.886718 1.722656-5.457032 6-9.730469 11.453124-11.453125 3.109376 1.398437 5.113282 4.484375 5.121094 7.894531zm0 0" fill="#fff"/></svg>