<svg height="512pt" viewBox="0 0 512.00002 512" width="512pt" xmlns="http://www.w3.org/2000/svg"><path d="m512 176.550781c0 100.546875-169.578125 270.917969-232.695312 326.621094-13.316407 11.742187-33.292969 11.742187-46.609376 0-49.609374-43.785156-164.8125-158.191406-211.949218-254.058594-9.492188-18.078125-16.101563-37.527343-19.597656-57.644531-.769532-4.933594-1.15234425-9.921875-1.148438-14.917969 0-87.570312 57.378906-74.59375 75.210938-51.816406 1.847656 2.296875 3.28125 4.894531 4.238281 7.679687 0-2.914062-.089844-5.828124-.175781-8.828124-.707032-19.863282-2.648438-41.488282 8.207031-58.085938 12.601562-16.414062 34.695312-22.253906 53.761719-14.210938 11.300781 5.082032 20.960937 13.210938 27.894531 23.480469 2.925781 4.238281 5.410156 8.761719 7.414062 13.507813-.410156-5.886719-.292969-11.792969.355469-17.65625 2.558594-25.777344 16.152344-70.621094 79.09375-70.621094s76.535156 44.84375 79.09375 70.621094c.648438 5.863281.765625 11.769531.355469 17.65625 2-4.761719 4.515625-9.292969 7.503906-13.507813 6.878906-10.28125 16.515625-18.421875 27.804687-23.480469 19.066407-8.042968 41.160157-2.203124 53.761719 14.210938 10.855469 16.597656 8.914063 38.222656 8.207031 58.085938-.085937 3-.175781 5.914062-.175781 8.828124.957031-2.785156 2.390625-5.382812 4.238281-7.679687 17.832032-22.777344 75.210938-35.753906 75.210938 51.816406zm0 0" fill="#d75e72"/><path d="m335.449219 450.207031 27.984375 32.660157c4.476562 5.238281 5.5 12.597656 2.621094 18.855468-2.878907 6.257813-9.132813 10.269532-16.023438 10.277344h-188.027344c-6.886718-.007812-13.144531-4.019531-16.023437-10.277344-2.878907-6.257812-1.855469-13.617187 2.625-18.855468l27.945312-32.660157zm0 0" fill="#d75e72"/><g fill="#802d40"><path d="m171.078125 352.398438c-1.046875.492187-2.195313.734374-3.355469.703124-3.566406.003907-6.78125-2.160156-8.121094-5.472656l-88.273437-211.859375c-1.777344-4.128906-.085937-8.929687 3.882813-11.035156 1.847656 2.296875 3.28125 4.894531 4.238281 7.679687 0-2.914062-.089844-5.828124-.175781-8.828124 3.628906-.070313 6.929687 2.105468 8.296874 5.472656l88.273438 211.863281c.910156 2.152344.917969 4.578125.019531 6.734375-.894531 2.15625-2.617187 3.867188-4.785156 4.742188zm0 0"/><path d="m229.429688 333.949219c.753906 4.808593-2.453126 9.347656-7.238282 10.238281-.496094.074219-1 .101562-1.5.089844-4.304687-.003906-7.988281-3.089844-8.742187-7.328125l-44.136719-256c-.335938-2.152344.136719-4.355469 1.324219-6.179688 2.925781 4.238281 5.410156 8.761719 7.414062 13.507813-.410156-5.886719-.292969-11.792969.355469-17.65625 4.164062.179687 7.644531 3.222656 8.386719 7.328125zm0 0"/><path d="m440.671875 135.769531-88.273437 211.859375c-1.339844 3.3125-4.554688 5.476563-8.121094 5.472656-1.160156.03125-2.308594-.210937-3.355469-.703124-2.167969-.875-3.890625-2.585938-4.785156-4.742188-.898438-2.15625-.890625-4.582031.019531-6.734375l88.273438-211.863281c1.367187-3.367188 4.667968-5.542969 8.296874-5.472656-.085937 3-.175781 5.914062-.175781 8.828124.957031-2.785156 2.390625-5.382812 4.238281-7.679687 3.96875 2.105469 5.660157 6.90625 3.882813 11.035156zm0 0"/><path d="m344.1875 80.949219-2.558594 14.566406v.441406l-41.578125 240.992188c-.753906 4.238281-4.4375 7.324219-8.742187 7.328125-.5.011718-1.003906-.015625-1.5-.089844-4.785156-.890625-7.992188-5.429688-7.238282-10.238281l41.578126-240.640625v-.441406l2.558593-14.917969c.742188-4.105469 4.222657-7.148438 8.386719-7.328125.648438 5.863281.765625 11.769531.355469 17.65625 2-4.761719 4.515625-9.292969 7.503906-13.507813 1.121094 1.851563 1.558594 4.039063 1.234375 6.179688zm0 0"/><path d="m512 176.550781c-.007812 3.898438-.273438 7.792969-.792969 11.652344-4.105469-16.773437-15.0625-31.054687-30.199219-39.363281-15.140624-8.308594-33.074218-9.878906-49.425781-4.332032-6.09375-29.574218-30.191406-65.058593-59.675781-65.058593-13.585938-.058594-26.800781 4.449219-37.515625 12.800781-.089844 0-.882813.441406-1.855469.96875-9.660156-34.191406-40.824218-57.832031-76.359375-57.914062-35.53125-.082032-66.804687 23.414062-76.621093 57.5625-.195313-.285157-.472657-.5-.796876-.617188-10.714843-8.351562-23.929687-12.859375-37.515624-12.800781-27.011719 0-48.816407 36.457031-56.675782 66.117187-17.121094-6.769531-36.375-5.550781-52.507812 3.328125-16.132813 8.875-27.464844 24.488281-30.910156 42.574219-.769532-4.933594-1.15234425-9.921875-1.148438-14.917969 0-97.101562 70.621094-70.621093 79.449219-44.136719 0-21.980468-4.503907-47.847656 8.03125-66.914062 12.601562-16.414062 34.695312-22.253906 53.761719-14.210938 16.003906 7.445313 28.613281 20.652344 35.308593 36.988282 0 0-8.828125-88.277344 79.449219-88.277344s79.449219 88.277344 79.449219 88.277344c6.695312-16.335938 19.304687-29.542969 35.308593-36.988282 19.066407-8.042968 41.160157-2.203124 53.761719 14.210938 12.535157 19.066406 8.03125 44.933594 8.03125 66.914062 8.828125-26.484374 79.449219-52.964843 79.449219 44.136719zm0 0"/><path d="m359.8125 424.429688c-31.515625 33.546874-61 61.527343-80.507812 78.742187-13.316407 11.742187-33.292969 11.742187-46.609376 0-19.421874-17.214844-48.992187-45.195313-80.507812-78.742187 60.878906-48.023438 146.746094-48.023438 207.625 0zm0 0"/></g></svg>