<svg height="512pt" viewBox="-29 0 512 512.05798" width="512pt" xmlns="http://www.w3.org/2000/svg"><path d="m36.398438 277.863281c17.125 34.160157 56.144531 97.808594 113.699218 110.609375 24.027344 5.296875 40.722656 8.21875 52.460938 9.710938 15.410156 1.925781 26.980468 15.019531 26.988281 30.550781v83.324219h70.621094v-88.101563c.023437-15.695312 8.625-30.121093 22.421875-37.605469 11.011718-5.972656 21.574218-12.738281 31.609375-20.238281 6.679687-4.9375 15.714843-5.238281 22.707031-.753906 12.496094 7.527344 25.933594 13.367187 39.960938 17.375 11.792968 3.136719 23.976562-3.5 27.738281-15.109375 3.757812-11.605469-2.222657-24.128906-13.613281-28.5-5.78125-2.007812-11.441407-4.351562-16.949219-7.015625-4.128907-1.953125-7.265625-5.527344-8.667969-9.875s-.945312-9.082031 1.261719-13.078125c3.210937-5.710938 5.980469-11.65625 8.289062-17.789062 9.429688-25.417969 17.503907-51.320313 24.1875-77.59375 3.441407-13.152344 6.621094-26.304688 9.710938-39.546876 2.984375-12.84375 8.597656-27.011718 4.15625-40.121093-2.597657-7.082031-8.347657-12.550781-15.554688-14.785157l-.253906-.089843c-5.800781-1.160157-11.824219.054687-16.71875 3.371093-4.898437 3.320313-8.253906 8.464844-9.324219 14.285157-1.5 8.121093-3.355468 18.183593-5.648437 29.128906-.902344 4.390625-3.890625 8.0625-8.007813 9.839844-4.113281 1.777343-8.835937 1.429687-12.648437-.921875-12.71875-8.382813-23.320313-19.589844-30.984375-32.75-6.226563-10.316406-18.976563-14.640625-30.191406-10.242188-9.339844 3.695313-15.46875 12.730469-15.449219 22.777344.011719 4.101562 1.042969 8.136719 3.003906 11.738281 12.683594 25.289063 33.824219 45.339844 59.753906 56.664063 10.925781 4.515625 16.425781 16.777344 12.535157 27.941406-3.527344 10.765625-7.773438 21.28125-12.703126 31.476562-9.808593 17.480469-23.828124 32.226563-40.785156 42.902344-7.976562 6.632813-18.28125 9.78125-28.601562 8.742188-10.980469-3.175782-20.230469-10.617188-25.6875-20.65625-7.503906-11.566406-15.714844-22.777344-22.6875-34.519532-14.589844-22.695312-22.710938-48.945312-23.480469-75.914062v-179.546875c.3125-11.957031-8.582031-22.164063-20.472656-23.4882812-6.125-.4453128-12.15625 1.6835942-16.648438 5.8710942-4.492187 4.1875-7.035156 10.054687-7.015625 16.195312v17.023438c.023438 4.574218-1.902344 8.945312-5.296875 12.015624-3.398437 3.070313-7.941406 4.546876-12.492187 4.058594-17.0625-1.71875-33.1875-8.613281-46.210938-19.765625-6.84375-5.582031-16.148437-7.089843-24.402344-3.953125-8.257812 3.136719-14.214843 10.4375-15.625 19.15625-1.414062 8.714844 1.933594 17.527344 8.777344 23.109375 22.121094 15.019531 48.125 23.296875 74.855469 23.832031 11.46875.789063 20.375 10.3125 20.394531 21.804688v83.6875c1.359375 35.1875 11.789063 69.425781 30.277344 99.398438 5.101562 8.859374 5.035156 19.78125-.175781 28.578124-5.210938 8.796876-14.761719 14.101563-24.984375 13.882813-21.097656.078125-42.855469-14.320313-54.386719-23.304687-2.230469-1.722657-3.65625-4.28125-3.945313-7.085938-.289062-2.800781.585938-5.597656 2.417969-7.738281 8.527344-9.921875 22.183594-26.789063 23.835938-34.789063 1.886719-9.09375-2.613281-18.316406-10.945313-22.421875v-.085937c-5.289062-2.585938-11.425781-2.800782-16.878906-.597656-5.457031 2.207031-9.71875 6.628906-11.722656 12.160156-1.191406 3.25-3.003906 7.945312-4.945313 12.753906-1.441406 3.605469-4.792969 6.082031-8.660156 6.410156-3.867187.324219-7.585937-1.5625-9.613281-4.871094-5.191406-8.457031-10.378906-17.285156-12.886719-21.796874-3.402344-6.152344-9.160156-10.660157-15.949219-12.492188-6.789062-1.832031-14.03125-.828125-20.066406 2.78125l-.53125.355469c-11.566406 6.914062-15.855469 21.570312-9.851562 33.632812zm0 0" fill="#ff5364"/><path d="m361.960938 26.539062c0 14.628907-11.859376 26.484376-26.484376 26.484376s-26.480468-11.855469-26.480468-26.484376c0-14.625 11.855468-26.4804682 26.480468-26.4804682s26.484376 11.8554682 26.484376 26.4804682zm0 0" fill="#41767f"/><path d="m52.996094 88.332031c0 14.628907-11.859375 26.484375-26.484375 26.484375s-26.4843752-11.855468-26.4843752-26.484375c0-14.625 11.8593752-26.480469 26.4843752-26.480469s26.484375 11.855469 26.484375 26.480469zm0 0" fill="#67b9cc"/><path d="m423.753906 70.679688c0 9.75-7.90625 17.652343-17.65625 17.652343s-17.65625-7.902343-17.65625-17.652343 7.90625-17.65625 17.65625-17.65625 17.65625 7.90625 17.65625 17.65625zm0 0" fill="#67b9cc"/><path d="m97.132812 167.78125c0 9.75-7.90625 17.65625-17.65625 17.65625s-17.65625-7.90625-17.65625-17.65625 7.90625-17.65625 17.65625-17.65625 17.65625 7.90625 17.65625 17.65625zm0 0" fill="#41767f"/><g fill="#67b9cc"><path d="m361.960938 114.816406c3.585937.019532 6.828124-2.128906 8.203124-5.441406s.609376-7.128906-1.9375-9.652344c-2.113281-2.023437-5.066406-2.910156-7.945312-2.382812-.585938.082031-1.15625.257812-1.683594.527344-.542968.179687-1.050781.445312-1.5.796874-.476562.308594-.917968.664063-1.324218 1.058594-1.671876 1.65625-2.613282 3.914063-2.613282 6.265625 0 2.355469.941406 4.609375 2.613282 6.269531.40625.390626.847656.746094 1.324218 1.058594.449219.347656.957032.617188 1.5.792969.527344.269531 1.097656.449219 1.683594.53125.554688.101563 1.117188.160156 1.679688.175781zm0 0"/><path d="m123.527344 220.746094c4.875.027344 8.847656-3.90625 8.871094-8.78125.023437-4.875-3.90625-8.847656-8.785157-8.871094h-.085937c-4.875 0-8.828125 3.949219-8.828125 8.828125 0 4.875 3.953125 8.824219 8.828125 8.824219zm0 0"/></g></svg>