<svg height="512pt" viewBox="0 -7 512.1035 512" width="512pt" xmlns="http://www.w3.org/2000/svg"><path d="m454.847656 331.445312c-1.816406 3.339844-4.746094 5.9375-8.277344 7.335938-7.882812 3.191406-16.761718 2.785156-24.320312-1.109375-16.386719-8.445313-28.160156-25.511719-38.65625-40.191406-9.175781-15.105469-20.054688-29.105469-32.425781-41.726563-13.621094-11.789062-29.300781-20.960937-46.253907-27.050781-9.175781-3.351563-18.625-5.890625-28.242187-7.59375h-.429687l-50.601563-.769531c-2.21875.171875-4.4375.597656-6.742187.9375-9.292969 1.699218-18.429688 4.183594-27.304688 7.425781-8.585938 3.101563-16.871094 6.988281-24.746094 11.605469-7.621094 4.53125-14.84375 9.695312-21.589844 15.445312-6.496093 5.621094-12.4375 11.851563-17.75 18.601563-4.863281 6.25-9.09375 12.96875-12.628906 20.054687-.257812.511719-.511718.9375-.769531 1.449219-2.945313 6.011719-5.371094 12.265625-7.253906 18.6875-.425781 1.621094-.851563 3.242187-1.277344 4.949219-1.957031 8.335937-2.929687 16.871094-2.902344 25.429687 61.441407-6.144531 83.96875 22.785157 92.246094 44.800781l-31.0625 9.046876-42.15625-5.71875-23.207031 8.363281-53.503906-6.742188c5.421874-16.40625 13.808593-31.675781 24.746093-45.054687-20.820312-49.527344-20.820312-105.355469 0-154.882813 20.1875-47.722656 58.171875-85.707031 105.898438-105.898437 13.828125-6.925782 28.4375-12.171875 43.519531-15.613282 17.101562-8.660156 27.9375-26.144531 28.074219-45.3125-.105469-7.574218-1.492188-15.074218-4.097657-22.1875-.574218-1.648437-.089843-3.480468 1.226563-4.625 1.316406-1.1445308 3.195313-1.375 4.75-.582031 78.335937 38.65625 96.167969 92.078125 96.167969 92.078125 22.101562 11.433594 45.398437 21.503906 64.511718 37.886719 19.25 16.3125 33.898438 37.375 42.496094 61.097656 8.300782 26.097657 8.6875 54.066407 1.109375 80.382813-.425781 1.707031-.851562 3.414062-1.363281 5.035156 8.414062 16.980469 9.433594 36.6875 2.816406 54.445312zm0 0" fill="#b0d3f0"/><path d="m403.304688 189.183594c-2.785157.007812-5.394532-1.347656-6.996094-3.625-2.460938-3.511719-5.140625-6.867188-8.023438-10.042969-2.9375-3.226563-6.070312-6.269531-9.386718-9.105469-2.800782-2.386718-5.738282-4.605468-8.796876-6.65625-3.226562-2.183594-6.636718-4.265625-10.179687-6.289062-2.671875-1.5-4.335937-4.320313-4.355469-7.382813-.019531-3.066406 1.605469-5.90625 4.257813-7.441406 2.652343-1.539063 5.921875-1.535156 8.570312.007813 3.925781 2.246093 7.679688 4.550781 11.273438 6.964843 3.617187 2.40625 7.09375 5.019531 10.410156 7.824219 3.839844 3.308594 7.472656 6.847656 10.878906 10.597656 3.371094 3.703125 6.503907 7.609375 9.386719 11.699219 1.828125 2.605469 2.054688 6.011719.585938 8.835937-1.46875 2.820313-4.382813 4.59375-7.566407 4.597657zm0 0" fill="#fff"/><path d="m295.308594 186.242188c-4.59375 16.066406-22.324219 58.179687-83.738282 69.605468-1.785156.375-3.613281-.425781-4.546874-1.992187-.929688-1.570313-.765626-3.554688.417968-4.945313 10.066406-12.253906 26-35.328125 22.433594-55.132812-.167969-1.117188.121094-2.25.796875-3.148438.679687-.902344 1.695313-1.488281 2.8125-1.632812l57.113281-8.15625c1.433594-.207032 2.871094.328125 3.824219 1.417968.953125 1.089844 1.285156 2.589844.886719 3.984376zm0 0" fill="#90bae1"/><path d="m216.597656 168.714844c-96 29.523437-102.828125 99.328125-101.71875 125.695312-.257812.511719-.511718.9375-.769531 1.449219-2.945313 6.011719-5.371094 12.265625-7.253906 18.6875-3.917969-.203125-7.195313-3.054687-7.933594-6.910156-.171875-1.109375-19.199219-114.6875 112.640625-155.222657 2.941406-1.007812 6.199219-.335937 8.503906 1.753907 2.304688 2.09375 3.285156 5.273437 2.5625 8.300781-.722656 3.023438-3.035156 5.417969-6.03125 6.246094zm0 0" fill="#90bae1"/><g fill="#285680"><path d="m503.570312 422.238281c-2.261718 0-4.433593-.898437-6.03125-2.5l-17.066406-17.066406c-6.097656-6.082031-15.96875-6.082031-22.066406 0-12.765625 12.738281-33.4375 12.738281-46.199219 0-6.179687-5.886719-15.890625-5.886719-22.070312 0-12.761719 12.738281-33.433594 12.738281-46.199219 0-6.175781-5.886719-15.890625-5.886719-22.066406 0-12.765625 12.738281-33.433594 12.738281-46.199219 0-6.097656-6.082031-15.96875-6.082031-22.066406 0-12.765625 12.738281-33.433594 12.738281-46.199219 0-6.179688-5.886719-15.890625-5.886719-22.066406 0-12.765625 12.738281-33.4375 12.738281-46.203125 0-6.097657-6.082031-15.96875-6.082031-22.066407 0-12.765624 12.738281-33.433593 12.738281-46.199218 0-6.097656-6.082031-15.96875-6.082031-22.066406 0-12.765626 12.738281-33.433594 12.738281-46.199219 0-2.21875-2.144531-3.109375-5.316406-2.328125-8.300781.78125-2.980469 3.113281-5.3125 6.09375-6.09375 2.984375-.78125 6.15625.109375 8.300781 2.328125 6.097656 6.082031 15.96875 6.082031 22.066406 0 12.765625-12.738281 33.433594-12.738281 46.199219 0 6.097656 6.082031 15.96875 6.082031 22.066406 0 12.765625-12.738281 33.4375-12.738281 46.199219 0 6.101563 6.082031 15.96875 6.082031 22.070313 0 12.925781-12.335938 33.269531-12.335938 46.199218 0 6.097656 6.082031 15.96875 6.082031 22.066406 0 12.765626-12.738281 33.433594-12.738281 46.199219 0 6.175781 5.886719 15.890625 5.886719 22.066407 0 12.765624-12.738281 33.433593-12.738281 46.199218 0 6.097656 6.082031 15.96875 6.082031 22.066406 0 12.765626-12.738281 33.4375-12.738281 46.199219 0 6.101563 6.082031 15.972657 6.082031 22.070313 0 12.765625-12.738281 33.433594-12.738281 46.199218 0l17.066407 17.066406c2.4375 2.441406 3.167969 6.109375 1.847656 9.296875-1.320313 3.191406-4.429687 5.269531-7.882813 5.269531zm0 0"/><path d="m503.570312 464.90625c-2.261718 0-4.433593-.902344-6.03125-2.5l-17.066406-17.066406c-6.097656-6.082032-15.96875-6.082032-22.066406 0-12.765625 12.738281-33.4375 12.738281-46.199219 0-6.179687-5.890625-15.890625-5.890625-22.070312 0-12.761719 12.738281-33.433594 12.738281-46.199219 0-6.175781-5.890625-15.890625-5.890625-22.066406 0-12.765625 12.738281-33.433594 12.738281-46.199219 0-6.097656-6.082032-15.96875-6.082032-22.066406 0-12.765625 12.738281-33.433594 12.738281-46.199219 0-6.179688-5.890625-15.890625-5.890625-22.066406 0-12.765625 12.738281-33.4375 12.738281-46.203125 0-6.097657-6.082032-15.96875-6.082032-22.066407 0-12.765624 12.738281-33.433593 12.738281-46.199218 0-6.097656-6.082032-15.96875-6.082032-22.066406 0-12.765626 12.738281-33.433594 12.738281-46.199219 0-2.21875-2.144532-3.109375-5.316406-2.328125-8.300782.78125-2.984374 3.113281-5.3125 6.09375-6.09375 2.984375-.78125 6.15625.109376 8.300781 2.328126 6.097656 6.082031 15.96875 6.082031 22.066406 0 12.765625-12.742188 33.433594-12.742188 46.199219 0 6.097656 6.082031 15.96875 6.082031 22.066406 0 12.765625-12.742188 33.4375-12.742188 46.199219 0 6.101563 6.082031 15.96875 6.082031 22.070313 0 12.925781-12.339844 33.269531-12.339844 46.199218 0 6.097656 6.082031 15.96875 6.082031 22.066406 0 12.765626-12.742188 33.433594-12.742188 46.199219 0 6.175781 5.886718 15.890625 5.886718 22.066407 0 12.765624-12.742188 33.433593-12.742188 46.199218 0 6.097656 6.082031 15.96875 6.082031 22.066406 0 12.765626-12.742188 33.4375-12.742188 46.199219 0 6.101563 6.082031 15.972657 6.082031 22.070313 0 12.765625-12.742188 33.433594-12.742188 46.199218 0l17.066407 17.066406c2.4375 2.441406 3.167969 6.109375 1.847656 9.296875s-4.429687 5.269531-7.882813 5.269531zm0 0"/><path d="m495.039062 499.039062c-2.261718 0-4.433593-.898437-6.035156-2.5l-8.53125-8.535156c-6.097656-6.082031-15.96875-6.082031-22.066406 0-12.765625 12.742188-33.4375 12.742188-46.199219 0-6.179687-5.886718-15.890625-5.886718-22.070312 0-12.761719 12.742188-33.433594 12.742188-46.199219 0-6.175781-5.886718-15.890625-5.886718-22.066406 0-12.765625 12.742188-33.433594 12.742188-46.199219 0-6.097656-6.082031-15.96875-6.082031-22.066406 0-12.765625 12.742188-33.433594 12.742188-46.199219 0-6.097656-6.082031-15.96875-6.082031-22.066406 0-12.765625 12.742188-33.4375 12.742188-46.203125 0-6.097657-6.082031-15.96875-6.082031-22.066407 0-12.765624 12.742188-33.433593 12.742188-46.199218 0-6.097656-6.082031-15.96875-6.082031-22.066406 0-12.929688 12.339844-33.269532 12.339844-46.199219 0-2.21875-2.140625-3.109375-5.3125-2.328125-8.296875s3.113281-5.3125 6.09375-6.09375c2.984375-.78125 6.15625.105469 8.300781 2.324219 6.097656 6.082031 15.96875 6.082031 22.066406 0 12.929688-12.335938 33.269531-12.335938 46.199219 0 6.179688 5.890625 15.890625 5.890625 22.066406 0 12.765625-12.738281 33.4375-12.738281 46.199219 0 6.179687 5.890625 15.890625 5.890625 22.070313 0 12.761718-12.738281 33.433593-12.738281 46.199218 0 6.097656 6.082031 15.96875 6.082031 22.066406 0 12.765626-12.738281 33.433594-12.738281 46.199219 0 6.175781 5.890625 15.890625 5.890625 22.066407 0 12.765624-12.738281 33.433593-12.738281 46.199218 0 6.097656 6.082031 15.96875 6.082031 22.066406 0 12.765626-12.738281 33.4375-12.738281 46.199219 0 6.101563 6.082031 15.972657 6.082031 22.070313 0 12.925781-12.335938 33.269531-12.335938 46.199218 0l8.53125 8.535156c2.441407 2.441406 3.171876 6.109375 1.851563 9.296875s-4.433594 5.269531-7.882813 5.269531zm0 0"/></g><path d="m426.773438 243.039062c0 9.425782-7.644532 17.066407-17.070313 17.066407-9.421875 0-17.066406-7.640625-17.066406-17.066407 0-9.425781 7.644531-17.066406 17.066406-17.066406 9.425781 0 17.070313 7.640625 17.070313 17.066406zm0 0" fill="#fff"/><path d="m418.238281 243.039062c0 4.710938-3.820312 8.53125-8.535156 8.53125-4.710937 0-8.53125-3.820312-8.53125-8.53125 0-4.714843 3.820313-8.535156 8.53125-8.535156 4.714844 0 8.535156 3.820313 8.535156 8.535156zm0 0" fill="#2c2f38"/><path d="m409.703125 234.503906c-.015625 4.007813-2.820313 7.464844-6.742187 8.304688-3.917969.84375-7.894532-1.15625-9.554688-4.804688 1.695312-5.367187 5.898438-9.566406 11.265625-11.265625 3.054687 1.375 5.027344 4.414063 5.03125 7.765625zm0 0" fill="#fff"/></svg>