<svg height="512pt" viewBox="0 0 512 512.00061" width="512pt" xmlns="http://www.w3.org/2000/svg"><g fill="#71c285"><path d="m71.769531 357.960938c13.328125 47.578124 98.515625 39.28125 175.402344 39.28125 79.449219 0 79.449219 44.136718 79.449219 44.136718l-218.484375 24.277344-61.792969-38.621094zm0 0"/><path d="m439.789062 153.953125c-8.113281 10.773437-19.46875 18.664063-32.394531 22.511719-2.472656.792968-5.03125 1.5-7.59375 2.207031-51.023437 12.535156-107.785156 8.121094-159.867187 6.882813-54.378906-1.324219-109.285156-2.292969-162.691406 9.09375-27.894532 5.914062-56.9375 19.15625-66.914063 48.023437-8.386719 24.097656-7.855469 50.847656-9.09375 76.003906-.703125 14.390625-1.234375 28.867188-1.234375 43.257813l164.414062-98.207032 271.449219-14.347656 44.136719-62.894531zm0 0"/><path d="m512 167.726562c-.132812-34.921874.042969-74.496093-11-107.890624-20.082031-60.675782-105.207031-59.835938-156.722656-59.835938-97.105469 0-132.414063 35.3125-132.414063 35.3125l188.6875 49.652344zm0 0"/></g><path d="m512 167.726562c-.023438 73.117188-59.292969 132.386719-132.414062 132.410157h-238.34375c-39.003907 0-70.621094 31.621093-70.621094 70.621093 0 39.003907 31.617187 70.621094 70.621094 70.621094h194.207031c19.507812 0 44.136719 35.3125 44.136719 35.3125-4.488282 6.226563-9.414063 12.125-14.742188 17.652344-8.5625 8.828125-19.683594 17.65625-29.394531 17.65625h-194.207031c-78.007813 0-141.242188-63.234375-141.242188-141.242188 0-78.003906 63.234375-141.238281 141.242188-141.238281h238.34375c22.078124 0 42.476562-11.78125 53.515624-30.898437 11.039063-19.117188 11.039063-42.675782 0-61.792969-11.039062-19.117187-31.4375-30.894531-53.515624-30.894531h-97.101563c-21.441406.042968-41.730469-9.710938-55.085937-26.484375-4.164063-5.144531-7.582032-10.847657-10.152344-16.949219-3.550782-8.625-5.378906-17.863281-5.382813-27.1875h167.722657c73.121093.023438 132.390624 59.292969 132.414062 132.414062zm0 0" fill="#527f72"/><path d="m282.484375 70.621094c0 4.875-3.953125 8.828125-8.828125 8.828125h-46.257812c-4.164063-5.144531-7.582032-10.847657-10.152344-16.949219 1.089844-.460938 2.261718-.703125 3.445312-.707031h52.964844c4.875 0 8.828125 3.953125 8.828125 8.828125zm0 0" fill="#71c285"/><path d="m463.359375 102.929688c-19.984375-26.019532-50.960937-41.230469-83.773437-41.136719h-8.652344c-4.875 0-8.824219 3.953125-8.824219 8.828125s3.949219 8.828125 8.824219 8.828125h8.652344c27.335937-.070313 53.148437 12.589843 69.828124 34.25 1.664063 2.164062 4.242188 3.4375 6.972657 3.445312 1.976562-.007812 3.898437-.660156 5.472656-1.855469 3.816406-3.003906 4.484375-8.527343 1.5-12.359374zm10.683594 89.160156c-4.605469-1.609375-9.648438.792968-11.300781 5.382812-10.257813 28.273438-34.097657 49.457032-63.382813 56.320313-4.289063 1.070312-7.125 5.152343-6.632813 9.546875.488282 4.394531 4.15625 7.746094 8.574219 7.84375.652344.035156 1.308594-.027344 1.945313-.175782 35.171875-8.210937 63.804687-33.65625 76.09375-67.621093 1.652344-4.582031-.714844-9.636719-5.296875-11.296875zm-169.84375 63.910156h-97.28125c-4.875 0-8.828125 3.953125-8.828125 8.828125s3.953125 8.828125 8.828125 8.828125h97.28125c4.875 0 8.828125-3.953125 8.828125-8.828125s-3.953125-8.828125-8.828125-8.828125zm-185.644531 10.859375c-1.464844-4.636719-6.382813-7.230469-11.035157-5.828125-34.148437 10.566406-61.453125 36.398438-73.886719 69.914062-.828124 2.1875-.742187 4.617188.234376 6.742188.980468 2.125 2.773437 3.769531 4.972656 4.558594.964844.347656 1.980468.527344 3.003906.53125 3.695312.011718 7.003906-2.277344 8.296875-5.738282 10.582031-28.34375 33.695313-50.183593 62.589844-59.144531 4.632812-1.464843 7.230469-6.382812 5.824219-11.035156zm14.035156 200.648437c-30.089844-2.808593-57.199219-19.359374-73.445313-44.84375-1.6875-2.664062-4.667969-4.226562-7.820312-4.097656-3.148438.128906-5.992188 1.929688-7.457031 4.722656-1.464844 2.792969-1.328126 6.15625.359374 8.820313 19.175782 30.125 51.214844 49.683594 86.773438 52.96875h.796875c4.566406-.203125 8.222656-3.855469 8.429687-8.421875.207032-4.566406-3.105468-8.535156-7.636718-9.148438zm0 0" fill="#71c285"/><path d="m282.484375 485.519531h-52.96875c-4.875 0-8.824219-3.953125-8.824219-8.828125s3.949219-8.828125 8.824219-8.828125h52.96875c4.875 0 8.828125 3.953125 8.828125 8.828125s-3.953125 8.828125-8.828125 8.828125zm0 0" fill="#71c285"/><path d="m335.449219 476.691406c0 4.875-3.953125 8.828125-8.828125 8.828125s-8.828125-3.953125-8.828125-8.828125 3.953125-8.828125 8.828125-8.828125 8.828125 3.953125 8.828125 8.828125zm0 0" fill="#2c2f38"/></svg>