<svg height="512pt" viewBox="0 0 512.02629 512" width="512pt" xmlns="http://www.w3.org/2000/svg"><path d="m476.742188 204.902344-344.277344 17.652344c-15.269532-15.269532-15.710938-45.546876 2.472656-73.445313 3.210938-4.851563 6.78125-9.453125 10.683594-13.769531 9.136718-9.800782 19.773437-18.082032 31.511718-24.539063 5.183594-2.910156 10.550782-5.476562 16.066407-7.679687 13.828125-5.699219 28.292969-9.699219 43.078125-11.917969 6.179687-.972656 12.714844-1.765625 19.421875-2.207031 14.019531-1 28.097656-.9375 42.109375.175781 3.707031.265625 7.414062.617187 11.210937.972656l6.972657.792969c13.59375 1.675781 26.042968 3.882812 37.429687 6.445312 6.089844 1.410157 11.917969 2.910157 17.390625 4.589844 15.84375 4.566406 31.097656 10.964844 45.460938 19.066406 5.464843 3.054688 10.714843 6.476563 15.714843 10.242188 44.753907 33.367188 44.753907 73.621094 44.753907 73.621094zm0 0" fill="#7f6e5d"/><path d="m485.570312 275.523438c-5.65625 38.597656-24.910156 73.910156-54.289062 99.574218-2.382812 2.207032-4.855469 4.324219-7.503906 6.355469-2.296875 1.765625-4.589844 3.621094-7.0625 5.296875-14.324219 10.226562-29.976563 18.453125-46.519532 24.453125-4.152343 1.5-8.386718 3-12.800781 4.234375-1.414062.53125-2.824219.882812-4.238281 1.324219-13.238281 3.71875-26.867188 5.882812-40.605469 6.445312-3.972656.175781-7.945312.265625-11.917969.089844-17.613281-.324219-35.125-2.722656-52.171874-7.152344-.089844-.085937-.089844-.085937-.089844 0-3.53125-.882812-6.972656-1.851562-10.414063-2.910156-15.476562-4.667969-30.464843-10.816406-44.757812-18.363281-2.734375-1.414063-5.382813-2.824219-7.945313-4.324219-2.558594-1.503906-5.03125-3.003906-7.5-4.589844-7.480468-4.703125-14.621094-9.921875-21.363281-15.625-2.382813-2.03125-4.589844-4.0625-6.710937-6.09375-2.117188-2.027343-4.148438-4.148437-6.089844-6.265625-19.597656-21.714844-23.746094-43.433594-2.558594-55.792968zm0 0" fill="#7f6e5d"/><g fill="#2c2f38"><path d="m181.460938 185.746094c-1.441407.957031-3.128907 1.476562-4.855469 1.5-2.953125-.015625-5.703125-1.507813-7.328125-3.972656-8.363282-12.816407-19.234375-23.804688-31.957032-32.308594-.894531-.472656-1.703124-1.101563-2.382812-1.855469 3.210938-4.851563 6.78125-9.453125 10.683594-13.769531 19.417968 9.976562 37.515625 36.988281 38.308594 38.136718 1.308593 1.953126 1.78125 4.34375 1.316406 6.648438-.464844 2.300781-1.828125 4.324219-3.785156 5.621094zm0 0"/><path d="m220.742188 151.9375c.03125 3.152344-1.621094 6.082031-4.335938 7.6875s-6.082031 1.636719-8.828125.089844c-2.746094-1.550782-4.460937-4.449219-4.492187-7.601563 0-.707031-1.410157-15.625-23.921876-38.136719-.886718-.910156-1.578124-1.992187-2.03125-3.175781 5.183594-2.910156 10.550782-5.476562 16.066407-7.679687 26.75 27.453125 27.542969 46.609375 27.542969 48.816406zm0 0"/><path d="m262.230469 137.015625c-1.195313 3.621094-4.570313 6.074219-8.382813 6.09375-.957031-.023437-1.90625-.171875-2.828125-.441406-4.59375-1.550781-7.074219-6.519531-5.558593-11.125 1.148437-4.109375 1.742187-8.355469 1.765624-12.621094.296876-8.363281-2.753906-16.496094-8.476562-22.601563-1.433594-1.335937-2.316406-3.164062-2.472656-5.117187 6.179687-.972656 12.714844-1.765625 19.421875-2.207031 9.28125 14.210937 11.679687 31.84375 6.53125 48.019531zm0 0"/><path d="m308.222656 138.429688c-1.476562 2.15625-3.839844 3.546874-6.441406 3.796874h-.882812c-3.480469-.019531-6.625-2.070312-8.050782-5.242187-1.425781-3.175781-.867187-6.886719 1.429688-9.5 6.660156-10.25 8.101562-23.042969 3.882812-34.515625-.421875-1.21875-.546875-2.523438-.351562-3.796875 3.707031.265625 7.414062.617187 11.210937.972656l6.972657.792969c4.65625 16.195312 1.804687 33.625-7.769532 47.492188zm0 0"/><path d="m370.8125 101.972656c-.617188 26.394532-9.625 36.722656-11.390625 38.574219-3.480469 3.414063-9.050781 3.414063-12.535156 0-3.355469-3.40625-3.433594-8.855469-.175781-12.355469.441406-.441406 6.355468-8.125 6.445312-28.691406 0-.714844.089844-1.425781.265625-2.117188 6.089844 1.410157 11.917969 2.910157 17.390625 4.589844zm0 0"/><path d="m431.988281 131.28125c-2.652343 13.148438-9.132812 25.21875-18.628906 34.691406-2.207031 2.269532-5.457031 3.191406-8.527344 2.414063-3.070312-.777344-5.496093-3.132813-6.355469-6.179688-.863281-3.046875-.035156-6.324219 2.171876-8.59375 8.015624-7.457031 13.09375-17.542969 14.300781-28.425781.074219-1.472656.53125-2.902344 1.324219-4.148438 5.464843 3.054688 10.714843 6.476563 15.714843 10.242188zm0 0"/><path d="m184.992188 331.222656c-.441407 1.148438-9.535157 27.984375-28.601563 39.109375-2.382813-2.03125-4.589844-4.0625-6.710937-6.09375-2.117188-2.027343-4.148438-4.148437-6.089844-6.265625.664062-.910156 1.542968-1.636718 2.558594-2.121094 11.828124-5.914062 19.953124-23.746093 22.070312-30.1875.992188-2.996093 3.507812-5.234374 6.601562-5.875 3.089844-.636718 6.289063.421876 8.386719 2.78125 2.097657 2.359376 2.777344 5.65625 1.785157 8.652344zm0 0"/><path d="m220.742188 346.144531c0 2.117188-.792969 21.273438-27.542969 48.726563-2.734375-1.414063-5.382813-2.824219-7.945313-4.324219-2.558594-1.503906-5.03125-3.003906-7.5-4.589844.386719-.703125.863282-1.355469 1.410156-1.945312 22.953126-22.863281 23.921876-37.957031 23.921876-38.132813.074218-4.875 4.085937-8.769531 8.960937-8.695312 4.875.074218 8.769531 4.082031 8.695313 8.960937zm0 0"/><path d="m251.285156 414.113281c-.835937.8125-1.789062 1.496094-2.824218 2.03125-.089844-.085937-.089844-.085937-.089844 0-3.53125-.882812-6.972656-1.851562-10.414063-2.910156-2.683593-3.507813-2.34375-8.460937.792969-11.566406 13.507812-13.503907 6.796875-34.957031 6.710938-35.132813-1.535157-4.632812.972656-9.632812 5.605468-11.167968 4.628906-1.535157 9.628906.972656 11.164063 5.605468.441406 1.324219 10.328125 31.957032-10.945313 53.140625zm0 0"/><path d="m314.933594 419.5c-.476563 1.414062-1.292969 2.6875-2.382813 3.707031-3.972656.175781-7.945312.265625-11.917969.089844-2.585937-2.367187-3.554687-6.023437-2.472656-9.359375 4.472656-11.894531 2.71875-25.238281-4.679687-35.574219-2.046875-2.398437-2.664063-5.707031-1.613281-8.679687 1.050781-2.972656 3.609374-5.160156 6.707031-5.738282 3.101562-.574218 6.277343.546876 8.324219 2.941407 11.410156 15.050781 14.433593 34.847656 8.035156 52.613281zm0 0"/><path d="m370.8125 407.9375c-.027344 1.113281-.234375 2.21875-.617188 3.265625-4.152343 1.5-8.386718 3-12.800781 4.234375-2.644531-1.570312-4.253906-4.425781-4.238281-7.5 0-21.628906-6.355469-29.222656-6.445312-29.308594-3.117188-3.613281-2.886719-9.027344.53125-12.359375 3.410156-3.285156 8.820312-3.246093 12.179687.089844 1.855469 1.941406 11.390625 12.886719 11.390625 41.578125zm0 0"/><path d="m431.28125 375.097656c-2.382812 2.207032-4.855469 4.324219-7.503906 6.355469-2.296875 1.765625-4.589844 3.621094-7.0625 5.296875-1-1.371094-1.609375-2.988281-1.765625-4.679688-3.167969-8.144531-8.363281-15.347656-15.09375-20.921874-3.425781-3.441407-3.425781-9.003907 0-12.445313 3.46875-3.441406 9.066406-3.441406 12.535156 0 8.089844 7.367187 14.527344 16.359375 18.890625 26.394531zm0 0"/></g><path d="m421.464844 471.546875c-4.511719-6.011719-6.449219-13.570313-5.386719-21.007813 1.0625-7.441406 5.039063-14.15625 11.054687-18.664062 15.640626-11.742188 37.839844-8.578125 49.582032 7.0625 14.667968 19.554688 10.714844 47.296875-8.828125 61.980469-11.742188 8.804687-26.5 12.585937-41.03125 10.511719-14.53125-2.074219-27.640625-9.839844-36.445313-21.582032-.511718-6.742187 1.875-13.382812 6.558594-18.261718 4.683594-4.875 11.222656-7.53125 17.980469-7.292969" fill="#d75e72"/><path d="m459.085938 459.046875c0 4.875-3.949219 8.828125-8.828126 8.828125-4.875 0-8.824218-3.953125-8.824218-8.828125s3.949218-8.828125 8.824218-8.828125c4.878907 0 8.828126 3.953125 8.828126 8.828125zm0 0" fill="#802d40"/><path d="m88.328125 397.253906c0 4.875-3.953125 8.828125-8.828125 8.828125s-8.828125-3.953125-8.828125-8.828125 3.953125-8.828125 8.828125-8.828125 8.828125 3.953125 8.828125 8.828125zm0 0" fill="#fac176"/><path d="m326.671875 52.980469c0 4.875-3.949219 8.824219-8.824219 8.824219-4.878906 0-8.828125-3.949219-8.828125-8.824219 0-4.878907 3.949219-8.828125 8.828125-8.828125 4.875 0 8.824219 3.949218 8.824219 8.828125zm0 0" fill="#fac176"/><path d="m62.921875 35.507812c15.492187 2.21875 26.257813 16.570313 24.046875 32.0625-2.789062 19.34375-20.71875 32.777344-40.066406 30.015626-24.191406-3.457032-41.007813-25.859376-37.570313-50.054688 4.328125-30.253906 32.359375-51.273438 62.613281-46.953125 5.140626 4.410156 8.15625 10.800781 8.292969 17.570313.136719 6.769531-2.621093 13.277343-7.578125 17.890624" fill="#d75e72"/><path d="m60.230469 64.710938c0 4.875-3.953125 8.828124-8.828125 8.828124s-8.828125-3.953124-8.828125-8.828124 3.953125-8.828126 8.828125-8.828126 8.828125 3.953126 8.828125 8.828126zm0 0" fill="#802d40"/><path d="m494.398438 44.152344c0 9.75-7.90625 17.652344-17.65625 17.652344s-17.65625-7.902344-17.65625-17.652344 7.90625-17.65625 17.65625-17.65625 17.65625 7.90625 17.65625 17.65625zm0 0" fill="#fac176"/><path d="m414.949219 26.496094c0 14.625-11.855469 26.484375-26.484375 26.484375-14.625 0-26.480469-11.859375-26.480469-26.484375s11.855469-26.4843752 26.480469-26.4843752c14.628906 0 26.484375 11.8593752 26.484375 26.4843752zm0 0" fill="#fac176"/><path d="m132.464844 467.875c0 9.75-7.902344 17.65625-17.652344 17.65625s-17.65625-7.90625-17.65625-17.65625 7.90625-17.65625 17.65625-17.65625 17.652344 7.90625 17.652344 17.65625zm0 0" fill="#fac176"/><path d="m70.671875 485.53125c0 14.625-11.855469 26.480469-26.480469 26.480469s-26.484375-11.855469-26.484375-26.480469 11.859375-26.484375 26.484375-26.484375 26.480469 11.859375 26.480469 26.484375zm0 0" fill="#fac176"/><path d="m111.582031 293.160156c-17.796875 0-35.601562 17.65625-62.304687 35.308594-19.847656 13.117188-35.902344-18.332031-42.292969-32.273438-9.519531-20.164062-9.226563-43.589843.785156-63.511718 6.867188-13.296875 23.199219-39.921875 41.488281-27.800782 26.695313 17.65625 44.5 35.3125 62.296876 35.3125 17.796874 0 62.296874-97.105468 169.082031-105.933593 106.789062-8.828125 169.09375 52.96875 231.390625 97.105469 0 0-71.195313 150.066406-195.789063 141.242187-124.589843-8.828125-160.15625-79.449219-204.65625-79.449219zm0 0" fill="#cbb292"/><path d="m323.027344 283.785156c-6.878906.253906-13.691406-1.40625-19.683594-4.792968-9.351562-6.210938-14.507812-17.078126-13.402344-28.25-.84375-12.054688 4.660156-23.675782 14.523438-30.65625 21.882812-14.53125 59.230468.105468 63.40625 1.828124 4.445312 1.886719 6.546875 6.996094 4.71875 11.464844s-6.90625 6.640625-11.402344 4.875c-8.394531-3.425781-35.035156-11.414062-46.960938-3.453125-1.617187 1.066407-6.523437 4.34375-6.628906 16.09375-.089844 9.921875 3.761719 12.304688 5.011719 13.082031 10.425781 6.425782 37.960937-2.277343 54.183594-10.59375 4.34375-2.222656 9.664062-.5 11.882812 3.839844 2.222657 4.339844.503907 9.660156-3.839843 11.882813-16.09375 8.359375-33.722657 13.351562-51.808594 14.679687zm0 0" fill="#7f6e5d"/><path d="m423.777344 346.125c-.488282 0-.976563-.042969-1.457032-.125-1.183593-.191406-28.917968-5.03125-38.277343-25.289062-5.445313-11.804688-3.53125-25.601563 5.675781-40.925782 1.574219-2.800781 4.550781-4.527344 7.765625-4.503906 3.210937.023438 6.160156 1.792969 7.691406 4.621094 1.535157 2.824218 1.410157 6.261718-.324219 8.96875-5.507812 6.867187-7.292968 16.003906-4.777343 24.441406 4.527343 9.800781 20.066406 14.425781 25.140625 15.273438 4.542968.738281 7.757812 4.84375 7.378906 9.433593-.375 4.585938-4.214844 8.117188-8.816406 8.105469zm0 0" fill="#2c2f38"/><path d="m378.84375 372.371094c-1.074219-.003906-2.140625-.203125-3.140625-.59375-6.789063-2.585938-29.476563-12.640625-36.644531-33.375-4.203125-13.929688-1.796875-29.015625 6.53125-40.945313 1.59375-2.761719 4.558594-4.453125 7.75-4.414062 3.191406.035156 6.113281 1.792969 7.644531 4.59375s1.429687 6.207031-.261719 8.914062c-5.503906 7.507813-7.328125 17.09375-4.972656 26.09375 4.785156 13.84375 22.695312 21.292969 26.246094 22.644531 3.988281 1.511719 6.324218 5.660157 5.550781 9.855469-.773437 4.195313-4.4375 7.234375-8.703125 7.226563zm0 0" fill="#2c2f38"/><path d="m44.191406 257.847656c-1.367187 0-2.714844-.320312-3.9375-.933594l-35.3125-17.65625c-2.84375-1.394531-4.726562-4.207031-4.925781-7.371093-.195313-3.164063 1.316406-6.191407 3.964844-7.933594 2.652343-1.742187 6.03125-1.925781 8.855469-.488281l35.308593 17.65625c3.667969 1.828125 5.597657 5.941406 4.652344 9.929687-.941406 3.992188-4.507813 6.804688-8.605469 6.796875zm0 0" fill="#7f6e5d"/><path d="m8.878906 310.816406c-4.097656.007813-7.664062-2.808594-8.605468-6.796875-.945313-3.992187.984374-8.105469 4.652343-9.933593l35.308594-17.65625c2.835937-1.554688 6.292969-1.433594 9.015625.3125 2.71875 1.742187 4.269531 4.835937 4.035156 8.0625-.230468 3.222656-2.207031 6.0625-5.148437 7.402343l-35.308594 17.65625c-1.222656.621094-2.574219.949219-3.949219.953125zm0 0" fill="#7f6e5d"/><path d="m141.292969 275.503906c-4.875 0-8.828125-3.953125-8.828125-8.828125s3.953125-8.828125 8.828125-8.828125c0 0 16.898437-1.011718 57.25-25.226562 47.765625-28.65625 103.28125-1.5 105.59375-.328125 4.324219 2.195312 6.066406 7.46875 3.902343 11.808593-2.160156 4.339844-7.421874 6.121094-11.777343 3.992188-.492188-.246094-49.273438-23.957031-88.628907-.335938-44.941406 26.960938-64.28125 27.746094-66.339843 27.746094zm0 0" fill="#7f6e5d"/><path d="m450.257812 220.703125c0 9.75-7.902343 17.65625-17.652343 17.65625s-17.65625-7.90625-17.65625-17.65625 7.90625-17.65625 17.65625-17.65625 17.652343 7.90625 17.652343 17.65625zm0 0" fill="#fff"/><path d="m441.433594 220.703125c0 4.875-3.953125 8.828125-8.828125 8.828125s-8.828125-3.953125-8.828125-8.828125 3.953125-8.828125 8.828125-8.828125 8.828125 3.953125 8.828125 8.828125zm0 0" fill="#2c2f38"/><path d="m450.257812 264.839844c0 9.75-7.902343 17.65625-17.652343 17.65625s-17.65625-7.90625-17.65625-17.65625 7.90625-17.652344 17.65625-17.652344 17.652343 7.902344 17.652343 17.652344zm0 0" fill="#fff"/><path d="m441.433594 264.839844c0 4.875-3.953125 8.828125-8.828125 8.828125s-8.828125-3.953125-8.828125-8.828125 3.953125-8.828125 8.828125-8.828125 8.828125 3.953125 8.828125 8.828125zm0 0" fill="#2c2f38"/><path d="m432.605469 211.875c-.019531 4.144531-2.921875 7.71875-6.976563 8.589844-4.054687.871094-8.167968-1.195313-9.886718-4.96875 1.753906-5.550782 6.105468-9.898438 11.652343-11.652344 3.164063 1.421875 5.203125 4.5625 5.210938 8.03125zm0 0" fill="#fff"/><path d="m432.605469 256.011719c-.019531 4.148437-2.921875 7.722656-6.976563 8.59375-4.054687.867187-8.167968-1.199219-9.886718-4.972657 1.753906-5.550781 6.105468-9.898437 11.652343-11.652343 3.164063 1.421875 5.203125 4.5625 5.210938 8.03125zm0 0" fill="#fff"/></svg>