<svg height="512pt" viewBox="-53 0 512 512" width="512pt" xmlns="http://www.w3.org/2000/svg"><g fill="#b0d3f0"><path d="m114.757812 158.898438v163.308593c0 31.691407-25.6875 57.378907-57.378906 57.378907-31.6875 0-57.378906-25.6875-57.378906-57.378907v-57.378906c.0273438-9.738281 7.917969-17.625 17.65625-17.65625 9.71875.074219 17.582031 7.933594 17.652344 17.65625v57.378906c0 12.1875 9.882812 22.070313 22.070312 22.070313s22.070313-9.882813 22.070313-22.070313v-153.6875zm0 0"/><path d="m314.351562 158.898438 12.269532 17.652343v225.105469c0 12.1875 9.878906 22.066406 22.070312 22.066406 12.1875 0 22.066406-9.878906 22.066406-22.066406v-57.378906c.074219-9.722656 7.933594-17.585938 17.65625-17.65625 9.738282.027344 17.625 7.917968 17.65625 17.65625v57.378906c0 31.6875-25.691406 57.378906-57.378906 57.378906-31.691406 0-57.382812-25.691406-57.382812-57.378906v-242.757812zm0 0"/><path d="m185.378906 161.542969v332.800781c-.070312 9.722656-7.933594 17.585938-17.65625 17.65625-9.738281-.027344-17.625-7.917969-17.652344-17.65625v-332.800781zm0 0"/><path d="m220.691406 162.425781v331.917969c0 9.75 7.902344 17.65625 17.652344 17.65625s17.65625-7.90625 17.65625-17.65625v-331.828125zm0 0"/></g><path d="m70.621094 132.414062c0-73.128906 59.285156-132.414062 132.414062-132.414062s132.414063 59.285156 132.414063 132.414062" fill="#d75e72"/><path d="m335.449219 132.414062s26.480469 70.621094-44.140625 35.308594c0 0-30.445313 61.792969-56.925782 8.828125-2.835937 15.152344-15.9375 26.21875-31.347656 26.484375-26.484375 0-35.3125-26.484375-35.3125-26.484375-26.480468 52.964844-52.964844-8.828125-52.964844-8.828125-70.621093 35.3125-44.136718-35.308594-44.136718-35.308594zm0 0" fill="#90bae1"/><path d="m167.722656 79.449219c0 9.75-7.902344 17.652343-17.652344 17.652343-9.753906 0-17.65625-7.902343-17.65625-17.652343s7.902344-17.65625 17.65625-17.65625c9.75 0 17.652344 7.90625 17.652344 17.65625zm0 0" fill="#802d40"/><path d="m220.691406 17.65625c0 9.75-7.90625 17.652344-17.65625 17.652344s-17.65625-7.902344-17.65625-17.652344 7.90625-17.65625 17.65625-17.65625 17.65625 7.90625 17.65625 17.65625zm0 0" fill="#802d40"/><path d="m273.65625 79.449219c0 9.75-7.90625 17.652343-17.65625 17.652343s-17.65625-7.902343-17.65625-17.652343 7.90625-17.65625 17.65625-17.65625 17.65625 7.90625 17.65625 17.65625zm0 0" fill="#802d40"/></svg>