<svg height="504pt" viewBox="-46 0 504 504.71102" width="504pt" xmlns="http://www.w3.org/2000/svg"><g fill="#802f34"><path d="m382.082031 485.964844c-.710937.003906-1.421875-.082032-2.117187-.257813-4.644532-1.164062-7.464844-5.871093-6.308594-10.519531 42.773438-171.292969 12.039062-280.417969-10.101562-330.210938-1.257813-2.835937-.910157-6.125.917968-8.632812 1.824219-2.507812 4.847656-3.851562 7.929688-3.523438 3.082031.328126 5.757812 2.273438 7.015625 5.109376 39.773437 89.503906 43.703125 210.769531 11.066406 341.460937-.960937 3.855469-4.425781 6.566406-8.402344 6.574219zm0 0"/><path d="m225.863281 121.492188c-4.421875 0-8.136719-3.320313-8.625-7.714844-1.503906-16 .398438-32.136719 5.578125-47.347656 5.546875-17.101563 20.410156-29.503907 38.226563-31.898438 3.074219-.425781 6.140625.820312 8.042969 3.269531 1.902343 2.449219 2.355468 5.726563 1.1875 8.597657-1.167969 2.875-3.78125 4.90625-6.851563 5.332031-11.5625 1.558593-21.128906 9.769531-24.421875 20.964843-4.1875 12.601563-5.722656 25.933594-4.503906 39.15625.257812 2.285157-.40625 4.582032-1.84375 6.382813-1.4375 1.796875-3.53125 2.949219-5.816406 3.207031-.324219.03125-.648438.050782-.972657.050782zm0 0"/><path d="m30.78125 485.964844c-3.976562-.003906-7.441406-2.710938-8.40625-6.566406-45.273438-180.996094-10.632812-295.625 14.160156-347.988282 1.625-3.761718 5.664063-5.875 9.683594-5.066406 4.019531.8125 6.921875 4.324219 6.960938 8.425781v.085938c-.007813 1.289062-.304688 2.5625-.867188 3.722656-23.777344 50.140625-57.144531 160.550781-13.105469 336.601563 1.167969 4.648437-1.660156 9.363281-6.308593 10.527343-.691407.175781-1.402344.261719-2.117188.257813zm0 0"/><path d="m187.003906 121.492188c-2.472656.015624-4.835937-1.027344-6.492187-2.863282-1.660157-1.835937-2.453125-4.292968-2.1875-6.753906.0625-.519531 5.25-52.203125-25.660157-59.519531-4.609374-1.152344-7.4375-5.796875-6.34375-10.421875 1.097657-4.625 5.707032-7.507813 10.34375-6.464844 45.820313 10.835938 39.214844 75.550781 38.914063 78.300781-.484375 4.375-4.171875 7.695313-8.574219 7.722657zm0 0"/><path d="m364.710938 269.015625c-1.878907.003906-3.707032-.605469-5.207032-1.734375-27.570312-20.644531-47.285156-2.863281-49.464844-.761719-3.414062 3.277344-8.828124 3.210938-12.167968-.148437-3.335938-3.359375-3.363282-8.773438-.058594-12.167969 10.839844-10.847656 39.867188-24.972656 72.078125-.804687 2.988281 2.238281 4.207031 6.140624 3.027344 9.683593-1.183594 3.546875-4.5 5.933594-8.234375 5.933594zm0 0"/><path d="m364.726562 312.40625c-2.730468 0-5.300781-1.285156-6.941406-3.46875-20.582031-27.441406-47.460937-7.8125-48.597656-6.945312-3.832031 2.878906-9.273438 2.101562-12.148438-1.734376-2.875-3.832031-2.097656-9.273437 1.738282-12.148437 10.851562-8.804687 24.882812-12.6875 38.71875-10.710937 13.835937 1.976562 26.21875 9.632812 34.175781 21.125 1.96875 2.628906 2.289063 6.148437.816406 9.085937-1.46875 2.941406-4.472656 4.796875-7.761719 4.796875zm0 0"/><path d="m356.03125 355.796875c-3.976562-.003906-7.441406-2.710937-8.40625-6.570313-6.554688-26.1875-40.527344-19.90625-41.976562-19.628906-4.640626.804688-9.078126-2.238281-9.996094-6.855468-.917969-4.621094 2.015625-9.128907 6.613281-10.160157 17.824219-3.578125 53.742187-1.382812 62.183594 32.429688.558593 2.234375.207031 4.597656-.980469 6.574219-1.1875 1.972656-3.109375 3.394531-5.34375 3.949218-.683594.175782-1.386719.261719-2.09375.261719zm0 0"/><path d="m338.675781 399.1875c-4.125 0-7.679687-2.902344-8.503906-6.941406-1.101563-9.820313-6.199219-18.75-14.09375-24.691406-5.613281-3.367188-12.265625-4.554688-18.699219-3.339844-4.613281 1.070312-9.230468-1.753906-10.378906-6.347656s1.597656-9.261719 6.167969-10.488282c11.03125-2.308594 22.527343-.351562 32.171875 5.476563 11.988281 8.386719 19.914062 21.414062 21.851562 35.917969.933594 4.695312-2.109375 9.261718-6.804687 10.207031-.5625.125-1.132813.195312-1.710938.207031zm0 0"/><path d="m52.320312 269.015625c-3.734374 0-7.050781-2.386719-8.230468-5.933594-1.183594-3.542969.035156-7.445312 3.023437-9.683593 32.195313-24.160157 61.25-10.042969 72.089844.804687 3.398437 3.382813 3.410156 8.878906.03125 12.277344-3.382813 3.398437-8.878906 3.410156-12.277344.027343-2.195312-2.125-21.894531-19.863281-49.464843.773438-1.488282 1.125-3.304688 1.734375-5.171876 1.734375zm0 0"/><path d="m52.304688 312.40625c-3.289063 0-6.292969-1.855469-7.761719-4.796875-1.472657-2.9375-1.152344-6.457031.820312-9.085937 7.953125-11.492188 20.339844-19.144532 34.171875-21.121094 13.835938-1.976563 27.867188 1.902344 38.722656 10.707031 3.832032 2.875 4.609376 8.316406 1.734376 12.148437-2.875 3.835938-8.316407 4.613282-12.148438 1.734376-7.234375-5.875-16.589844-8.46875-25.816406-7.152344-9.226563 1.320312-17.484375 6.429687-22.78125 14.097656-1.640625 2.183594-4.210938 3.46875-6.941406 3.46875zm0 0"/><path d="m61 355.796875c-.714844.003906-1.425781-.082031-2.117188-.261719-4.648437-1.164062-7.472656-5.875-6.308593-10.523437 8.441406-33.84375 44.351562-36.015625 62.183593-32.429688 4.597657 1.03125 7.53125 5.539063 6.613282 10.160157-.917969 4.617187-5.355469 7.660156-9.996094 6.855468-1.449219-.277344-35.421875-6.558594-41.976562 19.628906-.964844 3.855469-4.425782 6.5625-8.398438 6.570313zm0 0"/><path d="m78.355469 399.1875c-.582031.003906-1.164063-.054688-1.734375-.175781-4.695313-.941407-7.742188-5.507813-6.804688-10.203125 1.9375-14.523438 9.882813-27.566406 21.894532-35.953125 9.628906-5.8125 21.097656-7.769531 32.109374-5.476563 4.625 1.167969 7.441407 5.855469 6.300782 10.488282-1.140625 4.632812-5.808594 7.476562-10.449219 6.363281-6.507813-1.214844-13.234375-.007813-18.910156 3.394531-7.789063 5.976562-12.808594 14.863281-13.910157 24.621094-.824218 4.035156-4.375 6.9375-8.496093 6.941406zm0 0"/></g><path d="m261.105469 17.703125c-.164063 11.585937.617187 23.167969 2.34375 34.625 1.1875 14.828125 6.878906 28.9375 16.3125 40.441406 14.902343 15.828125 36.914062 22.847657 58.230469 18.570313 8.277343-1.890625 15.855468-6.070313 21.867187-12.0625 3.234375-3.210938 5.957031-6.898438 8.070313-10.933594 10.503906-23.792969 4.636718-51.636719-14.578126-69.164062-23.863281-23.953126-91.640624-18.050782-91.640624-18.050782s-.519532 6.683594-.605469 16.574219zm0 0" fill="#e64c3c"/><path d="m330.46875 86.78125c-4.792969 0-8.679688-3.886719-8.679688-8.679688v-13.996093l-14.605468 4.875c-2.648438.886719-5.558594.441406-7.824219-1.1875-2.265625-1.632813-3.605469-4.253907-3.605469-7.046875v-21.695313l-31.238281-23.429687c-3.835937-2.875-4.613281-8.316406-1.738281-12.148438 2.878906-3.835937 8.316406-4.613281 12.152344-1.738281l34.710937 26.035156c2.183594 1.640625 3.472656 4.210938 3.472656 6.941407v14l14.636719-4.878907c2.644531-.871093 5.546875-.421875 7.800781 1.210938 2.253907 1.628906 3.59375 4.242187 3.59375 7.023437v26.035156c0 4.792969-3.882812 8.679688-8.675781 8.679688zm0 0" fill="#c03a2b"/><path d="m113.058594 297.445312c0 73.496094 49.558594 126.265626 77.234375 140.679688 11.40625 5.9375 24.988281 5.9375 36.394531 0 27.699219-14.414062 77.234375-67.183594 77.234375-140.679688.0625-24.828124-2.585937-49.59375-7.898437-73.847656-2.582032-11.457031-5.898438-22.734375-9.925782-33.765625-17.355468-46.644531-45.558594-77.019531-77.582031-77.019531-2.761719.015625-5.519531.25-8.242187.703125-13.210938 2.597656-25.300782 9.195313-34.625 18.902344-31.242188 30.335937-52.589844 92.84375-52.589844 165.027343zm0 0" fill="#e64c3c"/><path d="m337.992188 111.339844c.453124 3.363281.683593 6.757812.691406 10.152344.015625 31.859374-21.671875 59.632812-52.585938 67.339843l9.980469 33.324219c45.605469-12.152344 77.335937-53.464844 77.320313-100.664062.019531-11.277344-1.828126-22.476563-5.46875-33.148438zm0 0" fill="#c03a2b"/><path d="m155.925781 17.703125c.167969 11.585937-.617187 23.167969-2.339843 34.625-1.191407 14.828125-6.882813 28.9375-16.316407 40.441406-14.902343 15.828125-36.914062 22.847657-58.230469 18.570313-8.277343-1.890625-15.855468-6.070313-21.867187-12.0625-3.234375-3.210938-5.953125-6.898438-8.070313-10.933594-10.503906-23.792969-4.636718-51.636719 14.578126-69.164062 23.867187-23.953126 91.640624-18.050782 91.640624-18.050782s.519532 6.683594.605469 16.574219zm0 0" fill="#e64c3c"/><path d="m86.566406 86.78125c-4.792968 0-8.679687-3.886719-8.679687-8.679688v-26.035156c0-2.789062 1.339843-5.40625 3.601562-7.039062 2.261719-1.632813 5.171875-2.074219 7.820313-1.195313l14.613281 4.878907v-14c0-2.730469 1.285156-5.300782 3.46875-6.941407l34.710937-26.035156c2.480469-1.859375 5.765626-2.253906 8.617188-1.035156 2.851562 1.214843 4.835938 3.863281 5.207031 6.941406.371094 3.078125-.929687 6.121094-3.410156 7.980469l-31.238281 23.429687v21.695313c0 2.789062-1.339844 5.40625-3.601563 7.039062-2.265625 1.613282-5.164062 2.058594-7.8125 1.195313l-14.601562-4.875v13.996093c0 2.304688-.917969 4.515626-2.550781 6.144532-1.628907 1.625-3.84375 2.539062-6.144532 2.535156zm0 0" fill="#c03a2b"/><path d="m79.039062 111.339844c-.453124 3.363281-.683593 6.757812-.691406 10.152344-.015625 31.859374 21.675782 59.632812 52.585938 67.339843l-9.976563 33.324219c-45.609375-12.152344-77.339843-53.464844-77.324219-100.664062-.019531-11.277344 1.828126-22.476563 5.46875-33.148438zm0 0" fill="#c03a2b"/><path d="m208.515625 485.964844c-8.675781 26.035156-95.457031 17.359375-95.457031 17.359375 0-60.746094 95.457031-60.746094 95.457031-60.746094s95.457031 0 95.457031 60.746094c0 0-86.777344 8.675781-95.457031-17.359375zm0 0" fill="#c03a2b"/><path d="m243.226562 182.238281h-69.421874c-4.792969 0-8.679688-3.886719-8.679688-8.679687 0-4.792969 3.886719-8.675782 8.679688-8.675782h69.421874c4.792969 0 8.679688 3.882813 8.679688 8.675782 0 4.792968-3.886719 8.679687-8.679688 8.679687zm0 0" fill="#c03a2b"/><path d="m269.261719 269.015625h-121.492188c-4.792969 0-8.675781-3.882813-8.675781-8.675781 0-4.792969 3.882812-8.679688 8.675781-8.679688h121.492188c4.792969 0 8.679687 3.886719 8.679687 8.679688 0 4.792968-3.886718 8.675781-8.679687 8.675781zm0 0" fill="#c03a2b"/><path d="m260.582031 355.796875h-104.132812c-4.792969 0-8.679688-3.886719-8.679688-8.675781 0-4.792969 3.886719-8.679688 8.679688-8.679688h104.132812c4.792969 0 8.679688 3.886719 8.679688 8.679688 0 4.789062-3.886719 8.675781-8.679688 8.675781zm0 0" fill="#c03a2b"/><path d="m208.515625 234.304688c-4.792969 0-8.675781-3.882813-8.675781-8.675782v-17.355468c0-4.792969 3.882812-8.679688 8.675781-8.679688s8.679687 3.886719 8.679687 8.679688v17.355468c0 4.792969-3.886718 8.675782-8.679687 8.675782zm0 0" fill="#c03a2b"/><path d="m208.515625 321.085938c-4.792969 0-8.675781-3.886719-8.675781-8.679688v-17.355469c0-4.792969 3.882812-8.675781 8.675781-8.675781s8.679687 3.882812 8.679687 8.675781v17.355469c0 4.792969-3.886718 8.679688-8.679687 8.679688zm0 0" fill="#c03a2b"/><path d="m208.515625 416.542969c-4.792969 0-8.675781-3.886719-8.675781-8.679688v-26.03125c0-4.792969 3.882812-8.679687 8.675781-8.679687s8.679687 3.886718 8.679687 8.679687v26.03125c0 4.792969-3.886718 8.679688-8.679687 8.679688zm0 0" fill="#c03a2b"/></svg>