<svg height="512pt" viewBox="0 0 512 511" width="512pt" xmlns="http://www.w3.org/2000/svg"><path d="m326.621094 97.039062s52.964844-61.792968 0-88.277343c-13.089844-6.550781-30.5-12.464844-44.136719-4.253907-5.5 3.878907-8.761719 10.195313-8.742187 16.921876-.320313 2.640624.0625 5.316406 1.113281 7.761718 6.734375 14.371094 29.042969 6.59375 31.1875 24.980469.679687 5.789063-11.617188 20.542969-14.734375 25.210937zm0 0" fill="#d1d4d1"/><path d="m185.378906 97.039062s-52.964844-61.792968 0-88.277343c13.089844-6.550781 30.5-12.464844 44.136719-4.253907 5.5 3.878907 8.761719 10.195313 8.742187 16.921876.320313 2.640624-.0625 5.316406-1.113281 7.761718-6.734375 14.371094-29.042969 6.59375-31.1875 24.980469-.679687 5.789063 11.617188 20.542969 14.734375 25.210937zm0 0" fill="#d1d4d1"/><path d="m256 370.695312 44.136719 44.136719c30.371093-10.921875 57.425781-29.460937 78.566406-53.847656 29.695313-35.3125 32.910156-82.980469 55.191406-122.128906 19.5625-34.394531 48.894531-62.554688 78.105469-88.851563 0 0-79.449219 0-141.242188-26.484375-61.792968-26.480469-44.136718-52.964843-114.757812-52.964843s-52.964844 26.484374-114.757812 52.964843c-61.792969 26.484375-141.242188 26.484375-141.242188 26.484375 27.417969 24.71875 55.472656 51.253906 74.777344 82.980469 25.152344 41.355469 27.691406 92.539063 60.300781 130.019531 20.902344 23.378906 47.289063 41.1875 76.785156 51.828125zm0 0" fill="#35495e"/><path d="m105.929688 511.933594c-4.875 0-8.828126-3.949219-8.828126-8.824219.03125-24.367187 19.773438-44.109375 44.140626-44.140625h79.449218c14.625 0 26.480469-11.855469 26.480469-26.480469v-105.933593c0-4.875 3.953125-8.828126 8.828125-8.828126s8.828125 3.953126 8.828125 8.828126v105.933593c-.03125 24.363281-19.773437 44.105469-44.136719 44.136719h-79.449218c-14.625 0-26.484376 11.855469-26.484376 26.484375 0 2.339844-.929687 4.585937-2.585937 6.242187-1.652344 1.652344-3.898437 2.582032-6.242187 2.582032zm0 0" fill="#2c2f38"/><path d="m203.035156 370.695312c-3.460937-.003906-6.601562-2.023437-8.035156-5.175781-27.183594-67.386719-27.222656-142.679687-.113281-210.09375 1.875-4.5 7.046875-6.628906 11.546875-4.75 4.5 1.875 6.625 7.046875 4.75 11.546875-42.054688 100.925782-.539063 195.089844-.105469 195.972656 1.25 2.734376 1.023437 5.917969-.605469 8.445313-1.628906 2.53125-4.429687 4.058594-7.4375 4.054687zm0 0" fill="#2c2f38"/><path d="m306.996094 370.695312c-3 0-5.796875-1.523437-7.421875-4.046874-1.625-2.519532-1.859375-5.695313-.621094-8.429688.433594-.933594 41.949219-95.0625-.105469-195.972656-1.875-4.496094.25-9.667969 4.75-11.542969 4.5-1.878906 9.671875.246094 11.546875 4.746094 27.109375 67.417969 27.074219 142.710937-.105469 210.097656-1.441406 3.144531-4.585937 5.152344-8.042968 5.148437zm0 0" fill="#2c2f38"/><path d="m256 300.074219c-4.875 0-8.828125-3.953125-8.828125-8.828125v-97.105469c0-4.875 3.953125-8.824219 8.828125-8.824219s8.828125 3.949219 8.828125 8.824219v97.105469c0 4.875-3.953125 8.828125-8.828125 8.828125zm0 0" fill="#2c2f38"/><path d="m229.515625 114.695312c0 4.875-3.949219 8.824219-8.824219 8.824219-4.878906 0-8.828125-3.949219-8.828125-8.824219s3.949219-8.828124 8.828125-8.828124c4.875 0 8.824219 3.953124 8.824219 8.828124zm0 0" fill="#2c2f38"/><path d="m300.136719 114.695312c0 4.875-3.949219 8.824219-8.828125 8.824219-4.875 0-8.824219-3.949219-8.824219-8.824219s3.949219-8.828124 8.824219-8.828124c4.878906 0 8.828125 3.953124 8.828125 8.828124zm0 0" fill="#2c2f38"/><g fill="#2fa8cc"><path d="m132.414062 441.316406c-4.875 0-8.828124-3.953125-8.828124-8.828125v-26.484375c0-4.875 3.953124-8.828125 8.828124-8.828125s8.828126 3.953125 8.828126 8.828125v26.484375c0 4.875-3.953126 8.828125-8.828126 8.828125zm0 0"/><path d="m44.136719 335.382812c-4.875 0-8.828125-3.953124-8.828125-8.828124v-79.445313c0-4.878906 3.953125-8.828125 8.828125-8.828125s8.828125 3.949219 8.828125 8.828125v79.445313c0 4.875-3.953125 8.828124-8.828125 8.828124zm0 0"/><path d="m79.449219 423.660156c-4.875 0-8.828125-3.953125-8.828125-8.828125v-79.449219c0-4.875 3.953125-8.828124 8.828125-8.828124s8.828125 3.953124 8.828125 8.828124v79.449219c0 4.875-3.953125 8.828125-8.828125 8.828125zm0 0"/><path d="m44.136719 397.175781c-4.875 0-8.828125-3.953125-8.828125-8.828125v-26.480468c0-4.875 3.953125-8.828126 8.828125-8.828126s8.828125 3.953126 8.828125 8.828126v26.480468c0 4.875-3.953125 8.828125-8.828125 8.828125zm0 0"/><path d="m467.863281 335.382812c-4.875 0-8.828125-3.953124-8.828125-8.828124v-79.445313c0-4.878906 3.953125-8.828125 8.828125-8.828125s8.828125 3.949219 8.828125 8.828125v79.445313c0 4.875-3.953125 8.828124-8.828125 8.828124zm0 0"/><path d="m432.550781 423.660156c-4.875 0-8.828125-3.953125-8.828125-8.828125v-79.449219c0-4.875 3.953125-8.828124 8.828125-8.828124s8.828125 3.953124 8.828125 8.828124v79.449219c0 4.875-3.953125 8.828125-8.828125 8.828125zm0 0"/><path d="m467.863281 397.175781c-4.875 0-8.828125-3.953125-8.828125-8.828125v-26.480468c0-4.875 3.953125-8.828126 8.828125-8.828126s8.828125 3.953126 8.828125 8.828126v26.480468c0 4.875-3.953125 8.828125-8.828125 8.828125zm0 0"/><path d="m379.585938 441.316406c-4.875 0-8.828126-3.953125-8.828126-8.828125v-26.484375c0-4.875 3.953126-8.828125 8.828126-8.828125s8.828124 3.953125 8.828124 8.828125v26.484375c0 4.875-3.953124 8.828125-8.828124 8.828125zm0 0"/></g></svg>