<svg height="503pt" viewBox="0 -21 503.82584 503" width="503pt" xmlns="http://www.w3.org/2000/svg"><path d="m225.277344 198.824219c.015625.242187.046875.484375.101562.71875-.132812 8.101562 3.074219 15.898437 8.867188 21.5625 5.789062 5.667969 13.65625 8.699219 21.75 8.390625 28.632812 0 30.566406-80.351563 30.671875-90.882813l-55.179688-18.652343zm0 0" fill="#2c2f38"/><path d="m181.671875 151.984375c-.085937 0-.171875.085937-.253906.085937-45.65625 12.289063-89.003907 36.863282-89.003907 87.636719 0 81.835938 112.726563 94.296875 112.726563 94.296875s-11.863281-27.050781 59.730469-67.925781c0 0 42.242187 61.351563-8.875 102.226563 51.117187 40.875 8.875 93.699218 8.875 93.699218-71.59375-40.875-68.265625-85.335937-68.265625-85.335937-53.332031-9.726563-110.589844-21.671875-147.710938-63.316407-22.066406-25.851562-36.796875-57.144531-42.667969-90.625-8.363281-42.152343-11.09375-89.941406 9.898438-129.109374 16.566406-29.769532 42.476562-53.25 73.730469-66.816407 58.367187-25.683593 125.011719-28.160156 188.074219-25.597656 26.195312 1.023437 59.5625 1.792969 78.761718 21.929687 13.71875 14.273438 21.550782 33.199219 21.929688 52.992188 0 41.558594-36.179688 60.929688-73.042969 61.953125l-18.945313.511719c-13.996093.425781-27.820312.9375-41.726562 2.304687" fill="#35495e"/><path d="m326.21875 108.160156c-10.621094.472656-21.214844-1.390625-31.035156-5.453125-4.21875-2.121093-5.917969-7.261719-3.796875-11.476562 2.121093-4.21875 7.257812-5.917969 11.476562-3.800781 14.507813 7.28125 50.167969 1.957031 62.667969-.707032 4.609375-.984375 9.144531 1.953125 10.128906 6.5625s-1.953125 9.144532-6.5625 10.128906c-14.109375 2.941407-28.46875 4.53125-42.878906 4.746094zm0 0" fill="#2c2f38"/><path d="m247.804688 103.601562s2.9375 100.199219-58.402344 130.867188c-61.335938 30.667969 10.222656-83.132812-10.203125-113.800781" fill="#35495e"/><path d="m367.988281 70.535156c-4.710937.175782-8.671875-3.503906-8.847656-8.21875-.175781-4.710937 3.503906-8.671875 8.21875-8.847656l127.265625-9.601562c3.046875-.226563 5.988281 1.183593 7.710938 3.710937 1.722656 2.523437 1.96875 5.777344.644531 8.53125-1.324219 2.757813-4.019531 4.597656-7.066407 4.824219l-127.277343 9.578125c-.210938.015625-.433594.023437-.648438.023437zm0 0" fill="#bdc3c7"/><path d="m461.140625 146.269531c0 9.425781-7.640625 17.066407-17.066406 17.066407s-17.070313-7.640626-17.070313-17.066407 7.644532-17.066406 17.070313-17.066406 17.066406 7.640625 17.066406 17.066406zm0 0" fill="#84b5cb"/><path d="m427.003906 188.933594c0 4.714844-3.820312 8.535156-8.53125 8.535156-4.714844 0-8.535156-3.820312-8.535156-8.535156 0-4.710938 3.820312-8.53125 8.535156-8.53125 4.710938 0 8.53125 3.820312 8.53125 8.53125zm0 0" fill="#84b5cb"/><g fill="#e6e7e8"><path d="m119.804688 69.46875c0 4.714844-3.820313 8.535156-8.53125 8.535156-4.714844 0-8.535157-3.820312-8.535157-8.535156 0-4.710938 3.820313-8.535156 8.535157-8.535156 4.710937 0 8.53125 3.824218 8.53125 8.535156zm0 0"/><path d="m51.539062 112.136719c0 4.710937-3.820312 8.53125-8.535156 8.53125-4.710937 0-8.53125-3.820313-8.53125-8.53125 0-4.714844 3.820313-8.535157 8.53125-8.535157 4.714844 0 8.535156 3.820313 8.535156 8.535157zm0 0"/><path d="m43.003906 188.933594c0 4.714844-3.820312 8.535156-8.53125 8.535156-4.714844 0-8.535156-3.820312-8.535156-8.535156 0-4.710938 3.820312-8.53125 8.535156-8.53125 4.710938 0 8.53125 3.820312 8.53125 8.53125zm0 0"/><path d="m68.605469 154.800781c0 4.714844-3.820313 8.535157-8.53125 8.535157-4.714844 0-8.535157-3.820313-8.535157-8.535157 0-4.710937 3.820313-8.53125 8.535157-8.53125 4.710937 0 8.53125 3.820313 8.53125 8.53125zm0 0"/><path d="m94.207031 103.601562c0 4.714844-3.820312 8.535157-8.535156 8.535157-4.710937 0-8.53125-3.820313-8.53125-8.535157 0-4.710937 3.820313-8.53125 8.53125-8.53125 4.714844 0 8.535156 3.820313 8.535156 8.53125zm0 0"/><path d="m153.9375 43.867188c0 4.714843-3.820312 8.535156-8.53125 8.535156-4.714844 0-8.535156-3.820313-8.535156-8.535156 0-4.710938 3.820312-8.53125 8.535156-8.53125 4.710938 0 8.53125 3.820312 8.53125 8.53125zm0 0"/><path d="m188.074219 69.46875c0 4.714844-3.820313 8.535156-8.535157 8.535156-4.710937 0-8.535156-3.820312-8.535156-8.535156 0-4.710938 3.824219-8.535156 8.535156-8.535156 4.714844 0 8.535157 3.824218 8.535157 8.535156zm0 0"/></g><path d="m341.671875 351.070312c0 9.425782-7.640625 17.066407-17.066406 17.066407s-17.066407-7.640625-17.066407-17.066407c0-9.425781 7.640626-17.066406 17.066407-17.066406s17.066406 7.640625 17.066406 17.066406zm0 0" fill="#84b5cb"/><path d="m375.804688 376.667969c0 4.714843-3.820313 8.535156-8.53125 8.535156-4.714844 0-8.535157-3.820313-8.535157-8.535156 0-4.710938 3.820313-8.53125 8.535157-8.53125 4.710937 0 8.53125 3.820312 8.53125 8.53125zm0 0" fill="#84b5cb"/><path d="m307.199219 52.402344c0 9.425781-7.640625 17.066406-17.066407 17.066406-9.425781 0-17.066406-7.640625-17.066406-17.066406 0-9.425782 7.640625-17.066406 17.066406-17.066406 9.425782 0 17.066407 7.640624 17.066407 17.066406zm0 0" fill="#fff"/><path d="m298.664062 52.402344c0 4.710937-3.820312 8.53125-8.53125 8.53125-4.714843 0-8.535156-3.820313-8.535156-8.53125 0-4.714844 3.820313-8.535156 8.535156-8.535156 4.710938 0 8.53125 3.820312 8.53125 8.535156zm0 0" fill="#2c2f38"/><path d="m290.132812 43.867188c-.019531 4.007812-2.824218 7.464843-6.742187 8.304687-3.921875.84375-7.898437-1.15625-9.558594-4.804687 1.695313-5.363282 5.898438-9.566407 11.265625-11.261719 3.058594 1.371093 5.027344 4.410156 5.035156 7.761719zm0 0" fill="#fff"/></svg>