<svg height="512pt" viewBox="-115 0 512 512.08055" width="512pt" xmlns="http://www.w3.org/2000/svg"><path d="m176.59375 242.132812v31.601563c.042969 29.234375 23.730469 52.921875 52.964844 52.96875 29.25 0 52.964844-23.714844 52.964844-52.96875v-26.480469c0-9.75-7.90625-17.65625-17.65625-17.65625s-17.65625 7.90625-17.65625 17.65625v26.480469c-.070313 9.722656-7.933594 17.585937-17.652344 17.65625-9.738282-.027344-17.628906-7.917969-17.65625-17.65625v-48.726563c44.3125-30.855468 63.464844-86.910156 47.292968-138.429687-16.167968-51.519531-63.914062-86.578125-117.914062-86.578125-53.996094 0-101.746094 35.058594-117.914062 86.578125-16.171876 51.519531 2.980468 107.574219 47.292968 138.429687v84.039063c-.070312 9.71875-7.933594 17.582031-17.65625 17.65625-9.738281-.03125-17.625-7.917969-17.652344-17.65625v-61.792969c-.074218-9.722656-7.933593-17.585937-17.65625-17.65625-9.738281.027344-17.6249995 7.917969-17.6562495 17.65625v61.792969c.046875 29.234375 23.7343755 52.921875 52.9648435 52.964844 29.253906 0 52.96875-23.714844 52.96875-52.964844v150.066406c-.074218 9.722657-7.9375 17.585938-17.65625 17.65625-9.738281-.027343-17.625-7.914062-17.65625-17.65625v-26.480469c-.070312-9.722656-7.933594-17.582031-17.65625-17.65625-9.738281.03125-17.625 7.917969-17.652344 17.65625v26.480469c.042969 29.234375 23.730469 52.921875 52.964844 52.96875 29.25 0 52.964844-23.714843 52.964844-52.96875v-44.136719c.042969 29.234376 23.730469 52.921876 52.964844 52.964844 29.253906 0 52.964844-23.710937 52.964844-52.964844v-26.480468c0-9.753906-7.902344-17.65625-17.652344-17.65625s-17.65625 7.902344-17.65625 17.65625v26.480468c-.070313 9.722657-7.933594 17.582032-17.65625 17.65625-9.738282-.03125-17.625-7.917968-17.652344-17.65625zm0 0" fill="#f29c1f"/><path d="m185.417969 44.21875c0 24.375-19.757813 44.136719-44.136719 44.136719-24.375 0-44.136719-19.761719-44.136719-44.136719 0-24.378906 19.761719-44.1367188 44.136719-44.1367188 24.378906 0 44.136719 19.7578128 44.136719 44.1367188zm0 0" fill="#f0c419"/><path d="m114.800781 97.183594c0 14.625-11.859375 26.484375-26.484375 26.484375s-26.484375-11.859375-26.484375-26.484375 11.859375-26.480469 26.484375-26.480469 26.484375 11.855469 26.484375 26.480469zm0 0" fill="#d25627"/><path d="m220.730469 97.183594c0 14.625-11.855469 26.484375-26.484375 26.484375-14.625 0-26.480469-11.859375-26.480469-26.484375s11.855469-26.480469 26.480469-26.480469c14.628906 0 26.484375 11.855469 26.484375 26.480469zm0 0" fill="#d25627"/><path d="m114.800781 176.632812c0 9.75-7.90625 17.65625-17.65625 17.65625s-17.65625-7.90625-17.65625-17.65625c-.015625-1.769531.253907-3.527343.792969-5.207031 1.757812-5.550781 6.105469-9.898437 11.652344-11.652343 1.683594-.542969 3.441406-.8125 5.210937-.796876 9.738281.03125 17.625 7.917969 17.65625 17.65625zm0 0" fill="#fff"/><path d="m105.972656 176.632812c0 4.875-3.953125 8.828126-8.828125 8.828126s-8.828125-3.953126-8.828125-8.828126 3.953125-8.828124 8.828125-8.828124 8.828125 3.953124 8.828125 8.828124zm0 0" fill="#2c2f38"/><path d="m203.074219 176.632812c0 9.75-7.902344 17.65625-17.65625 17.65625-9.75 0-17.652344-7.90625-17.652344-17.65625s7.902344-17.65625 17.652344-17.65625c9.753906 0 17.65625 7.90625 17.65625 17.65625zm0 0" fill="#fff"/><path d="m194.246094 176.632812c0 4.875-3.949219 8.828126-8.828125 8.828126-4.875 0-8.824219-3.953126-8.824219-8.828126s3.949219-8.828124 8.824219-8.828124c4.878906 0 8.828125 3.953124 8.828125 8.828124zm0 0" fill="#2c2f38"/><g fill="#fff"><path d="m97.144531 167.804688c-.019531 4.144531-2.921875 7.71875-6.976562 8.589843-4.054688.871094-8.164063-1.199219-9.886719-4.96875 1.757812-5.550781 6.105469-9.898437 11.652344-11.652343 3.164062 1.421874 5.203125 4.5625 5.210937 8.03125zm0 0"/><path d="m185.417969 167.804688c-.015625 4.144531-2.917969 7.71875-6.972657 8.589843-4.054687.871094-8.167968-1.199219-9.886718-4.96875 1.753906-5.550781 6.101562-9.898437 11.652344-11.652343 3.164062 1.421874 5.203124 4.5625 5.207031 8.03125zm0 0"/></g></svg>