<svg height="512pt" viewBox="0 0 512 512" width="512pt" xmlns="http://www.w3.org/2000/svg"><path d="m432.550781 256h61.792969c9.738281-.027344 17.628906-7.917969 17.65625-17.65625-.070312-9.71875-7.933594-17.582031-17.65625-17.652344h-61.429688" fill="#f09372"/><path d="m432.914062 291.308594h61.429688c9.738281-.027344 17.628906-7.914063 17.65625-17.652344-.070312-9.722656-7.933594-17.585938-17.65625-17.65625h-61.792969" fill="#f0785a"/><path d="m86.597656 301.550781c-12.179687 10.238281-86.597656 67.882813-86.597656-45.550781s74.417969-55.789062 86.597656-45.550781zm0 0" fill="#f0785a"/><path d="m132.414062 494.34375c0 9.75-7.90625 17.65625-17.65625 17.65625s-17.65625-7.90625-17.65625-17.65625 7.90625-17.652344 17.65625-17.652344 17.65625 7.902344 17.65625 17.652344zm0 0" fill="#84b5cb"/><path d="m503.171875 476.691406c0 9.75-7.902344 17.652344-17.65625 17.652344-9.75 0-17.652344-7.902344-17.652344-17.652344 0-9.753906 7.902344-17.65625 17.652344-17.65625 9.753906 0 17.65625 7.902344 17.65625 17.65625zm0 0" fill="#84b5cb"/><path d="m70.621094 30.898438c0 17.0625-13.832032 30.894531-30.898438 30.894531-17.0625 0-30.894531-13.832031-30.894531-30.894531 0-17.066407 13.832031-30.898438 30.894531-30.898438 17.066406 0 30.898438 13.832031 30.898438 30.898438zm0 0" fill="#84b5cb"/><path d="m114.757812 52.964844c0 4.875-3.953124 8.828125-8.828124 8.828125s-8.828126-3.953125-8.828126-8.828125 3.953126-8.828125 8.828126-8.828125 8.828124 3.953125 8.828124 8.828125zm0 0" fill="#547580"/><path d="m61.792969 472.277344c0 17.0625-13.832031 30.894531-30.894531 30.894531-17.066407 0-30.898438-13.832031-30.898438-30.894531 0-17.066406 13.832031-30.898438 30.898438-30.898438 17.0625 0 30.894531 13.832032 30.894531 30.898438zm0 0" fill="#547580"/><path d="m26.484375 406.070312c0 4.875-3.953125 8.828126-8.828125 8.828126s-8.828125-3.953126-8.828125-8.828126 3.953125-8.828124 8.828125-8.828124 8.828125 3.953124 8.828125 8.828124zm0 0" fill="#84b5cb"/><path d="m441.378906 476.691406c0 4.875-3.953125 8.824219-8.828125 8.824219s-8.828125-3.949219-8.828125-8.824219c0-4.878906 3.953125-8.828125 8.828125-8.828125s8.828125 3.949219 8.828125 8.828125zm0 0" fill="#84b5cb"/><path d="m454.796875 291.308594c-18.359375 75.652344-94.453125 132.414062-185.554687 132.414062-86.953126 0-160.222657-51.726562-182.644532-122.171875-9.53125-29.617187-9.53125-61.484375 0-91.101562 22.421875-70.445313 95.691406-122.171875 182.644532-122.171875 91.101562 0 167.195312 56.761718 185.554687 132.414062" fill="#f09372"/><g fill="#f0785a"><path d="m282.84375 396.128906c-8.722656-.402344-17.039062-3.8125-23.535156-9.648437-11.699219-8.480469-18.796875-21.914063-19.199219-36.359375-.5625-33.246094 35.109375-64.214844 36.625-65.511719 3.71875-2.949219 9.105469-2.429687 12.191406 1.175781 3.085938 3.605469 2.773438 9.003906-.714843 12.226563-8.597657 7.394531-30.832032 31.152343-30.464844 51.84375.386718 9.160156 5.042968 17.613281 12.582031 22.835937 6.398437 5.121094 11.679687 6.84375 15.730469 5.121094 12.445312-5.296875 20.894531-38.753906 22.949218-60.824219.289063-3.144531 2.230469-5.898437 5.097657-7.226562 2.867187-1.324219 6.222656-1.019531 8.804687.800781 2.582032 1.820312 3.996094 4.878906 3.710938 8.023438-.960938 10.59375-7.125 64.195312-33.546875 75.46875-3.230469 1.382812-6.714844 2.089843-10.230469 2.074218zm0 0"/><path d="m264.828125 141.242188c0 4.875-3.953125 8.828124-8.828125 8.828124s-8.828125-3.953124-8.828125-8.828124 3.953125-8.828126 8.828125-8.828126 8.828125 3.953126 8.828125 8.828126zm0 0"/><path d="m158.898438 194.207031c0 4.875-3.953126 8.828125-8.828126 8.828125s-8.828124-3.953125-8.828124-8.828125 3.953124-8.828125 8.828124-8.828125 8.828126 3.953125 8.828126 8.828125zm0 0"/><path d="m238.34375 203.035156c0 4.875-3.949219 8.828125-8.828125 8.828125-4.875 0-8.824219-3.953125-8.824219-8.828125s3.949219-8.828125 8.824219-8.828125c4.878906 0 8.828125 3.953125 8.828125 8.828125zm0 0"/><path d="m176.550781 247.171875c0 4.875-3.953125 8.828125-8.828125 8.828125s-8.824218-3.953125-8.824218-8.828125 3.949218-8.828125 8.824218-8.828125 8.828125 3.953125 8.828125 8.828125zm0 0"/><path d="m203.035156 158.898438c0 4.875-3.953125 8.824218-8.828125 8.824218s-8.828125-3.949218-8.828125-8.824218c0-4.878907 3.953125-8.828126 8.828125-8.828126s8.828125 3.949219 8.828125 8.828126zm0 0"/><path d="m397.242188 141.242188c-3.34375 0-6.402344-1.890626-7.894532-4.878907-1.496094-2.992187-1.175781-6.570312.832032-9.246093l26.480468-35.308594c1.894532-2.523438 4.988282-3.847656 8.121094-3.46875 3.128906.375 5.820312 2.394531 7.0625 5.296875 1.238281 2.898437.835938 6.242187-1.058594 8.761719l-26.480468 35.3125c-1.667969 2.222656-4.285157 3.53125-7.0625 3.53125zm0 0"/><path d="m326.621094 97.101562c-.726563.003907-1.449219-.085937-2.15625-.261718-4.726563-1.1875-7.601563-5.980469-6.414063-10.710938l8.824219-35.308594c.75-3.078124 3.089844-5.519531 6.136719-6.398437 3.042969-.878906 6.324219-.054687 8.597656 2.152344 2.269531 2.210937 3.183594 5.46875 2.394531 8.535156l-8.828125 35.3125c-.984375 3.921875-4.507812 6.675781-8.554687 6.679687zm0 0"/><path d="m141.242188 141.242188c-2.78125 0-5.394532-1.308594-7.0625-3.53125l-26.484376-35.3125c-2.925781-3.898438-2.132812-9.433594 1.765626-12.355469 3.902343-2.925781 9.433593-2.136719 12.359374 1.765625l26.484376 35.308594c2.003906 2.675781 2.328124 6.253906.832031 9.246093-1.496094 2.988281-4.550781 4.878907-7.894531 4.878907zm0 0"/><path d="m211.863281 97.101562c-4.046875-.003906-7.570312-2.757812-8.554687-6.679687l-8.828125-35.3125c-1.144531-4.710937 1.726562-9.46875 6.433593-10.644531 4.703126-1.179688 9.480469 1.660156 10.691407 6.355468l8.828125 35.308594c1.183594 4.730469-1.6875 9.523438-6.417969 10.710938-.703125.175781-1.425781.265625-2.152344.261718zm0 0"/><path d="m141.242188 141.242188c-2.78125 0-5.394532-1.308594-7.0625-3.53125l-26.484376-35.3125c-2.925781-3.898438-2.132812-9.433594 1.765626-12.355469 3.902343-2.925781 9.433593-2.136719 12.359374 1.765625l26.484376 35.308594c2.003906 2.675781 2.328124 6.253906.832031 9.246093-1.496094 2.988281-4.550781 4.878907-7.894531 4.878907zm0 0"/><path d="m211.863281 97.101562c-4.046875-.003906-7.570312-2.757812-8.554687-6.679687l-8.828125-35.3125c-1.144531-4.710937 1.726562-9.46875 6.433593-10.644531 4.703126-1.179688 9.480469 1.660156 10.691407 6.355468l8.828125 35.308594c1.183594 4.730469-1.6875 9.523438-6.417969 10.710938-.703125.175781-1.425781.265625-2.152344.261718zm0 0"/><path d="m397.242188 141.242188c-3.34375 0-6.402344-1.890626-7.894532-4.878907-1.496094-2.992187-1.175781-6.570312.832032-9.246093l26.480468-35.308594c1.894532-2.523438 4.988282-3.847656 8.121094-3.46875 3.128906.375 5.820312 2.394531 7.0625 5.296875 1.238281 2.898437.835938 6.242187-1.058594 8.761719l-26.480468 35.3125c-1.667969 2.222656-4.285157 3.53125-7.0625 3.53125zm0 0"/><path d="m326.621094 97.101562c-.726563.003907-1.449219-.085937-2.15625-.261718-4.726563-1.1875-7.601563-5.980469-6.414063-10.710938l8.824219-35.308594c.75-3.078124 3.089844-5.519531 6.136719-6.398437 3.042969-.878906 6.324219-.054687 8.597656 2.152344 2.269531 2.210937 3.183594 5.46875 2.394531 8.535156l-8.828125 35.3125c-.984375 3.921875-4.507812 6.675781-8.554687 6.679687zm0 0"/><path d="m423.722656 423.722656c-2.777344 0-5.394531-1.308594-7.0625-3.53125l-26.480468-35.308594c-1.894532-2.523437-2.296876-5.863281-1.054688-8.765624 1.238281-2.898438 3.929688-4.917969 7.058594-5.296876 3.132812-.375 6.226562.945313 8.121094 3.46875l26.480468 35.3125c2.007813 2.671876 2.328125 6.253907.835938 9.242188-1.496094 2.992188-4.554688 4.878906-7.898438 4.878906zm0 0"/><path d="m335.449219 467.863281c-4.046875-.003906-7.570313-2.757812-8.554688-6.683593l-8.828125-35.308594c-1.144531-4.714844 1.726563-9.46875 6.433594-10.648438 4.703125-1.179687 9.480469 1.660156 10.691406 6.355469l8.828125 35.3125c1.183594 4.726563-1.6875 9.523437-6.417969 10.707031-.703124.179688-1.425781.265625-2.152343.265625zm0 0"/><path d="m114.757812 423.722656c-3.34375 0-6.398437-1.886718-7.894531-4.878906-1.496093-2.988281-1.171875-6.570312.832031-9.242188l26.484376-35.3125c1.890624-2.523437 4.988281-3.84375 8.117187-3.46875 3.132813.378907 5.824219 2.398438 7.0625 5.296876 1.238281 2.902343.835937 6.242187-1.054687 8.765624l-26.484376 35.308594c-1.667968 2.222656-4.28125 3.53125-7.0625 3.53125zm0 0"/><path d="m203.035156 467.863281c-.726562 0-1.449218-.085937-2.15625-.265625-4.726562-1.183594-7.601562-5.980468-6.414062-10.707031l8.824218-35.3125c1.214844-4.695313 5.988282-7.535156 10.695313-6.355469 4.703125 1.179688 7.578125 5.933594 6.429687 10.648438l-8.824218 35.308594c-.984375 3.925781-4.507813 6.679687-8.554688 6.683593zm0 0"/><path d="m380.539062 320.601562c-7.554687.054688-15.035156-1.542968-21.910156-4.679687-15.621094-8.113281-27.082031-22.453125-31.558594-39.476563-1.539062-4.632812.964844-9.636718 5.597657-11.175781 4.632812-1.542969 9.632812.964844 11.175781 5.597657 3.039062 12.351562 11.097656 22.878906 22.226562 29.042968 8.882813 3.683594 18.808594 4 27.90625.882813 4.527344-1.816407 9.667969.386719 11.484376 4.914062 1.8125 4.53125-.390626 9.671875-4.917969 11.484375-6.417969 2.292969-13.1875 3.445313-20.003907 3.410156zm0 0"/><path d="m362.882812 361.929688c-7.554687.058593-15.035156-1.542969-21.910156-4.6875-15.613281-8.109376-27.074218-22.4375-31.558594-39.449219-1.542968-4.632813.960938-9.636719 5.59375-11.179688 4.632813-1.542969 9.636719.960938 11.179688 5.59375 3.039062 12.351563 11.097656 22.878907 22.226562 29.039063 8.882813 3.6875 18.808594 4 27.90625.882812 4.527344-1.8125 9.671876.390625 11.484376 4.917969 1.8125 4.53125-.386719 9.671875-4.917969 11.484375-6.417969 2.292969-13.1875 3.441406-20.003907 3.398438zm0 0"/></g><path d="m388.414062 203.035156c0 19.5-15.808593 35.308594-35.3125 35.308594-19.5 0-35.308593-15.808594-35.308593-35.308594 0-19.503906 15.808593-35.3125 35.308593-35.3125 19.503907 0 35.3125 15.808594 35.3125 35.3125zm0 0" fill="#fff"/><path d="m370.757812 203.035156c0 9.75-7.902343 17.65625-17.65625 17.65625-9.75 0-17.652343-7.90625-17.652343-17.65625s7.902343-17.65625 17.652343-17.65625c9.753907 0 17.65625 7.90625 17.65625 17.65625zm0 0" fill="#2c2f38"/><path d="m353.101562 194.207031c0 4.875-3.949218 8.828125-8.824218 8.828125s-8.828125-3.953125-8.828125-8.828125 3.953125-8.828125 8.828125-8.828125 8.824218 3.953125 8.824218 8.828125zm0 0" fill="#fff"/></svg>