<svg height="512pt" viewBox="0 0 512 512" width="512pt" xmlns="http://www.w3.org/2000/svg"><path d="m105.300781 401.066406h-96.765625c-4.714844 0-8.535156-3.820312-8.535156-8.53125 0-4.714844 3.820312-8.535156 8.535156-8.535156h96.765625c4.714844 0 8.535157 3.820312 8.535157 8.535156 0 4.710938-3.820313 8.53125-8.535157 8.53125zm0 0" fill="#fac176"/><path d="m503.464844 401.066406h-17.066406c-4.710938 0-8.53125-3.820312-8.53125-8.53125 0-4.714844 3.820312-8.535156 8.53125-8.535156h17.066406c4.714844 0 8.535156 3.820312 8.535156 8.535156 0 4.710938-3.820312 8.53125-8.535156 8.53125zm0 0" fill="#fac176"/><path d="m375.464844 401.066406h-232.789063c-4.710937 0-8.53125-3.820312-8.53125-8.53125 0-4.714844 3.820313-8.535156 8.53125-8.535156h232.789063c4.714844 0 8.535156 3.820312 8.535156 8.535156 0 4.710938-3.820312 8.53125-8.535156 8.53125zm0 0" fill="#fac176"/><path d="m358.398438 290.132812s-34.132813 93.867188-93.863282 51.199219l8.8125-76.796875zm0 0" fill="#7f8c8d"/><path d="m503.492188 170.667969c.238281 11.613281-3.425782 22.972656-10.410157 32.253906-7.988281 10.0625-18.585937 17.734375-30.636719 22.1875-6.027343 2.410156-12.289062 4.183594-18.6875 5.289063-18.601562 30.976562-37.203124 52.992187-85.417968 59.480468-13.417969 1.625-26.9375 2.222656-40.449219 1.789063l-91.988281-14.421875c-35.414063-10.921875-65.960938-25.683594-90.027344-35.070313-19.113281-7.421875-34.046875-11.347656-44.285156-7.339843-2.332032.9375-4.449219 2.332031-6.230469 4.097656-34.132813 34.132812 8.53125 85.332031 8.53125 85.332031 5.8125-11.621094 39.339844-19.292969 60.128906-22.996094 1.835938-.277343 3.640625.667969 4.464844 2.332031.820313 1.667969.464844 3.675782-.875 4.964844-30.574219 30.429688-16.425781 84.042969-8.320313 107.074219.578126 1.695313.039063 3.566406-1.351562 4.691406-1.386719 1.125-3.332031 1.265625-4.867188.351563-26.574218-15.398438-49.238281-36.710938-66.246093-62.285156-25.597657-42.664063-68.265625-85.332032-68.265625-170.664063 0-102.402344 187.734375-76.800781 256-68.269531 68.265625 8.535156 128 17.070312 170.667968 17.070312 42.664063 0 68.265626-17.070312 68.265626 34.132813zm0 0" fill="#95a5a5"/><path d="m236.289062 158.933594c-.328124.003906-.65625-.011719-.980468-.050782-7.742188-.855468-16.515625-1.828124-25.953125-2.671874-4.695313-.425782-8.160157-4.574219-7.734375-9.269532.425781-4.699218 4.574218-8.160156 9.273437-7.738281 9.582031.855469 18.5 1.820313 26.359375 2.722656 4.476563.53125 7.765625 4.457031 7.511719 8.957031-.257813 4.5-3.96875 8.027344-8.476563 8.050782zm0 0" fill="#fff"/><path d="m92.007812 157.515625c-4.398437-.007813-8.066406-3.355469-8.480468-7.730469-.414063-4.375 2.566406-8.351562 6.882812-9.179687 9.226563-1.699219 18.539063-2.871094 27.894532-3.515625 20.6875-1.328125 41.433593-1.359375 62.125-.097656 4.710937.253906 8.328124 4.277343 8.074218 8.992187-.25 4.710937-4.273437 8.328125-8.988281 8.078125-19.964844-1.222656-39.984375-1.199219-59.945313.074219-8.707031.59375-17.375 1.683593-25.960937 3.261719-.527344.089843-1.066406.128906-1.601563.117187zm0 0" fill="#fff"/><path d="m430.507812 240.316406c-17.851562.835938-34.878906-7.570312-45.074218-22.246094-2.617188-3.921874-1.558594-9.222656 2.363281-11.835937 3.921875-2.617187 9.21875-1.558594 11.835937 2.363281 13.578126 20.367188 41.746094 13.59375 42.035157 13.523438 2.984375-.816406 6.179687.046875 8.347656 2.253906 2.167969 2.210938 2.96875 5.421875 2.09375 8.390625s-3.289063 5.230469-6.3125 5.910156c-5.015625 1.125-10.148437 1.675781-15.289063 1.640625zm0 0" fill="#7f8c8d"/><path d="m341.332031 247.464844s-42.664062 110.933594-110.933593 93.867187c-68.265626-17.066406 25.601562-93.867187 25.601562-93.867187" fill="#95a5a5"/><path d="m135.875 242.175781c-19.113281-7.421875-34.046875-11.347656-44.285156-7.339843-10.390625-2.761719-21.082032-4.253907-31.832032-4.4375-4.710937 0-8.53125-3.820313-8.53125-8.53125 0-4.714844 3.820313-8.535157 8.53125-8.535157 24.988282 1.007813 49.5 7.136719 72.023438 18.007813 4.035156 1.941406 5.839844 6.710937 4.09375 10.835937zm0 0" fill="#7f8c8d"/><path d="m469.34375 247.464844c-3.25.019531-6.230469-1.808594-7.683594-4.71875l-17.066406-34.132813c-1.390625-2.730469-1.210938-5.996093.472656-8.558593 1.683594-2.558594 4.609375-4.023438 7.667969-3.832032 3.058594.195313 5.777344 2.011719 7.128906 4.761719l17.066407 34.132813c1.316406 2.640624 1.179687 5.769531-.363282 8.285156-1.542968 2.511718-4.277344 4.046875-7.222656 4.0625zm0 0" fill="#2c2f38"/><path d="m503.464844 221.867188c-2.261719 0-4.429688-.898438-6.03125-2.5l-25.601563-25.601563c-3.230469-3.347656-3.1875-8.667969.105469-11.960937 3.292969-3.292969 8.613281-3.339844 11.960938-.105469l25.601562 25.601562c2.441406 2.441407 3.167969 6.109375 1.847656 9.296875-1.320312 3.1875-4.429687 5.269532-7.882812 5.269532zm0 0" fill="#2c2f38"/><path d="m443.734375 8.535156c0 4.710938-3.820313 8.53125-8.535156 8.53125-4.710938 0-8.53125-3.820312-8.53125-8.53125 0-4.714844 3.820312-8.535156 8.53125-8.535156 4.714843 0 8.535156 3.820312 8.535156 8.535156zm0 0" fill="#b0d3f0"/><g fill="#f18d46"><path d="m341.332031 426.667969c0 4.710937-3.820312 8.53125-8.53125 8.53125-4.714843 0-8.535156-3.820313-8.535156-8.53125 0-4.714844 3.820313-8.535157 8.535156-8.535157 4.710938 0 8.53125 3.820313 8.53125 8.535157zm0 0"/><path d="m307.199219 469.332031c0 4.714844-3.820313 8.535157-8.53125 8.535157-4.714844 0-8.535157-3.820313-8.535157-8.535157 0-4.710937 3.820313-8.53125 8.535157-8.53125 4.710937 0 8.53125 3.820313 8.53125 8.53125zm0 0"/><path d="m273.066406 426.667969c0 4.710937-3.820312 8.53125-8.53125 8.53125-4.714844 0-8.535156-3.820313-8.535156-8.53125 0-4.714844 3.820312-8.535157 8.535156-8.535157 4.710938 0 8.53125 3.820313 8.53125 8.535157zm0 0"/><path d="m221.867188 460.800781c0 4.710938-3.820313 8.53125-8.535157 8.53125-4.710937 0-8.53125-3.820312-8.53125-8.53125 0-4.714843 3.820313-8.535156 8.53125-8.535156 4.714844 0 8.535157 3.820313 8.535157 8.535156zm0 0"/><path d="m187.734375 503.464844c0 4.714844-3.820313 8.535156-8.535156 8.535156-4.710938 0-8.53125-3.820312-8.53125-8.535156 0-4.710938 3.820312-8.53125 8.53125-8.53125 4.714843 0 8.535156 3.820312 8.535156 8.53125zm0 0"/><path d="m153.601562 460.800781c0 4.710938-3.820312 8.53125-8.535156 8.53125-4.710937 0-8.53125-3.820312-8.53125-8.53125 0-4.714843 3.820313-8.535156 8.53125-8.535156 4.714844 0 8.535156 3.820313 8.535156 8.535156zm0 0"/><path d="m102.398438 435.199219c0 4.714843-3.820313 8.535156-8.53125 8.535156-4.714844 0-8.535157-3.820313-8.535157-8.535156 0-4.710938 3.820313-8.53125 8.535157-8.53125 4.710937 0 8.53125 3.820312 8.53125 8.53125zm0 0"/><path d="m68.265625 477.867188c0 4.710937-3.820313 8.53125-8.53125 8.53125-4.714844 0-8.535156-3.820313-8.535156-8.53125 0-4.714844 3.820312-8.535157 8.535156-8.535157 4.710937 0 8.53125 3.820313 8.53125 8.535157zm0 0"/><path d="m34.132812 435.199219c0 4.714843-3.820312 8.535156-8.53125 8.535156-4.714843 0-8.535156-3.820313-8.535156-8.535156 0-4.710938 3.820313-8.53125 8.535156-8.53125 4.710938 0 8.53125 3.820312 8.53125 8.53125zm0 0"/></g><path d="m486.398438 51.199219c0 9.425781-7.640626 17.066406-17.066407 17.066406s-17.066406-7.640625-17.066406-17.066406 7.640625-17.066407 17.066406-17.066407 17.066407 7.640626 17.066407 17.066407zm0 0" fill="#90bae1"/><path d="m426.667969 68.265625c0 14.140625-11.460938 25.601563-25.601563 25.601563-14.136718 0-25.601562-11.460938-25.601562-25.601563 0-14.136719 11.464844-25.597656 25.601562-25.597656 14.140625 0 25.601563 11.460937 25.601563 25.597656zm0 0" fill="#b0d3f0"/><path d="m443.726562 486.398438c-4.429687.019531-8.136718-3.351563-8.535156-7.765626-.929687-10.238281-7.960937-100.214843 30.285156-119.335937 20.105469-10.042969 22.929688-19.472656 21.613282-23.039063-.996094-2.007812-1.144532-4.332031-.410156-6.453124.730468-2.117188 2.285156-3.851563 4.3125-4.8125 4.289062-2.035157 9.417968-.253907 11.527343 4 .503907 1.007812 11.878907 24.9375-29.414062 45.585937-21.042969 10.515625-23.988281 68.464844-20.914063 102.527344.4375 4.691406-3.003906 8.847656-7.691406 9.292969-.261719 0-.484375 0-.773438 0zm0 0" fill="#ff5364"/><path d="m460.800781 384c-.921875 0-1.832031-.144531-2.707031-.433594-31.445312-10.488281-23.789062-70.734375-22.808594-77.578125.667969-4.664062 4.988282-7.90625 9.65625-7.242187 4.664063.667968 7.90625 4.992187 7.238282 9.65625-2.4375 17.195312-2.875 54.238281 11.316406 58.964844 3.976562 1.320312 6.402344 5.332031 5.734375 9.464843-.671875 4.132813-4.242188 7.171875-8.429688 7.167969zm0 0" fill="#ff5364"/><path d="m435.199219 341.332031c-31.675781 0-34.132813-13.0625-34.132813-17.066406 0-4.175781 3.023438-7.738281 7.144532-8.417969 4.121093-.679687 8.128906 1.726563 9.46875 5.679688 5.519531 2.363281 11.542968 3.304687 17.519531 2.738281 4.714843 0 8.535156 3.820313 8.535156 8.535156 0 4.710938-3.820313 8.53125-8.535156 8.53125zm0 0" fill="#ff5364"/><path d="m443.734375 426.667969c-1.085937 0-2.160156-.207031-3.167969-.605469-4.914062-1.957031-48.03125-20.097656-48.03125-50.597656 0-20.648438-21.402344-34.351563-21.617187-34.488282-2.582031-1.625-4.097657-4.503906-3.980469-7.550781.117188-3.050781 1.851562-5.800781 4.546875-7.226562 2.699219-1.421875 5.949219-1.296875 8.53125.328125 1.203125.761718 29.585937 18.96875 29.585937 48.9375 0 16.214844 27.621094 30.875 37.296876 34.742187 3.804687 1.515625 5.996093 5.515625 5.222656 9.539063-.773438 4.019531-4.292969 6.925781-8.386719 6.921875zm0 0" fill="#ff5364"/><path d="m366.601562 369.605469c-5.398437.308593-10.671874-1.691407-14.507812-5.496094-3.015625-3.375-2.875-8.519531.328125-11.722656 3.203125-3.199219 8.34375-3.34375 11.722656-.328125.851563.367187 7.414063 2.511718 23.6875-8.34375 2.535157-1.753906 5.820313-2.003906 8.59375-.65625 2.773438 1.351562 4.601563 4.09375 4.78125 7.175781.179688 3.078125-1.316406 6.015625-3.910156 7.679687-8.867187 6.820313-19.539063 10.886719-30.695313 11.691407zm0 0" fill="#ff5364"/><path d="m443.757812 443.734375c-3.515624-.003906-6.671874-2.164063-7.945312-5.445313-1.273438-3.277343-.40625-7 2.1875-9.378906 14.167969-11.523437 33.0625-15.421875 50.636719-10.445312 4.496093 1.277344 7.128906 5.933594 5.902343 10.445312-1.222656 4.511719-5.851562 7.199219-10.375 6.023438-11.980468-3.492188-24.910156-1.011719-34.746093 6.667968-1.5625 1.375-3.574219 2.136719-5.660157 2.132813zm0 0" fill="#ff5364"/><path d="m409.882812 170.667969c0 9.425781-7.640624 17.066406-17.066406 17.066406-9.425781 0-17.066406-7.640625-17.066406-17.066406-.015625-1.710938.242188-3.410157.765625-5.035157 1.695313-5.367187 5.898437-9.570312 11.265625-11.265624 1.625-.523438 3.324219-.78125 5.035156-.765626 9.414063.027344 17.035156 7.652344 17.066406 17.066407zm0 0" fill="#fff"/><path d="m401.347656 170.667969c0 4.710937-3.820312 8.53125-8.53125 8.53125-4.714844 0-8.535156-3.820313-8.535156-8.53125 0-4.714844 3.820312-8.535157 8.535156-8.535157 4.710938 0 8.53125 3.820313 8.53125 8.535157zm0 0" fill="#2c2f38"/><path d="m392.816406 162.132812c-.019531 4.007813-2.824218 7.464844-6.742187 8.304688-3.921875.839844-7.894531-1.15625-9.558594-4.804688 1.695313-5.367187 5.898437-9.570312 11.265625-11.265624 3.058594 1.375 5.027344 4.414062 5.035156 7.765624zm0 0" fill="#fff"/></svg>