<svg height="512pt" viewBox="-16 0 512 512.01056" width="512pt" xmlns="http://www.w3.org/2000/svg"><path d="m371.199219 434.417969c11.828125 12.621093 26.484375 24.628906 39.105469 24.628906 26.484374 0 35.3125 44.136719-52.964844 35.308594-19.621094-1.484375-39.050782-4.914063-57.996094-10.238281h-.089844" fill="#5e5f62"/><path d="m473.210938 27.304688c2.285156.660156 4.199218 2.21875 5.308593 4.320312 1.113281 2.101562 1.320313 4.5625.582031 6.820312-.882812 2.605469-1.917968 5.730469-3.179687 9.324219-2.703125 8.015625-6.863281 15.46875-12.269531 21.980469-5.398438 6.503906-12.105469 11.796875-19.6875 15.535156-9.222656 3.777344-19.074219 5.785156-29.042969 5.914063-9.929687.015625-19.738281 2.152343-28.777344 6.269531-32.660156 17.125-39.28125 57.113281-28.070312 89.246094 22.507812 64 46.875 127.027344 34.074219 196.589844-6.640626 41.585937-34.277344 76.796874-73.09375 93.128906-18.414063 7.195312-37.890626 11.3125-57.644532 12.183594-19.773437 1.414062-39.8125.972656-59.144531 1.414062l-99.222656-6.710938c-35.839844-7.328124-70.972657-23.039062-87.039063-57.820312-22.507812-48.640625-16.949218-110.699219-9.269531-162.074219 5.5625-37.164062 15.183594-98.425781 37.164063-129.5-13.707032-18.910156-43.03125-71.011719 5.253906-121.425781 3.296875-3.347656 8.660156-3.472656 12.109375-.28125 26.707031 24.097656 35.960937 62.074219 23.332031 95.753906-.085938.351563-.261719.707032-.351562 1.058594.273437-.285156.570312-.550781.882812-.792969 45.601562-43.742187 89.476562-29.089843 106.46875-20.597656 4.285156 2.050781 6.160156 7.140625 4.21875 11.476563-19.914062 41.394531-59.664062 58.652343-105.046875 50.042968-14.554687 31.027344-20.378906 65.433594-16.851563 99.523438 2.417969 18.445312 12.152344 35.144531 27.011719 46.335937 14.859375 11.191407 33.597657 15.933594 51.996094 13.160157 14.933594-2.105469 29.53125-6.140626 43.429687-12.003907 3.886719-1.589843 7.769532-3.089843 11.566407-4.679687l6.707031-4.765625c1.675781-2.382813 3.355469-4.765625 5.03125-7.238281 4.945312-7.414063 9.886719-15.183594 14.65625-23.480469 17.652344-30.898438 30.542969-78.566407 39.015625-118.554688 8.476563-39.988281 12.449219-72.300781 12.449219-72.300781 2.90625-13.078125 7.976562-25.578125 15.003906-36.984375 7.164062-11.390625 17.957031-20.035156 30.632812-24.542969 15.449219-5.472656 34.164063-4.414062 58.4375.882813 18.980469 4.070312 64.398438 17.207031 83.359376 22.792969zm0 0" fill="#a5a5a4"/><path d="m221.777344 291.851562c-11.273438 15.773438-23.820313 30.59375-37.519532 44.3125-1.644531 1.691407-3.90625 2.648438-6.265624 2.648438-2.359376-.019531-4.613282-.972656-6.269532-2.648438-3.421875-3.441406-3.421875-9.003906 0-12.445312 8.761719-8.675781 16.984375-17.871094 24.628906-27.542969 3.886719-1.589843 7.769532-3.089843 11.566407-4.679687l6.707031-4.765625c1.675781-2.382813 3.355469-4.765625 5.03125-7.238281 0 .046874.039062.089843.089844.089843 1.898437 1.351563 3.183594 3.410157 3.5625 5.710938.382812 2.304687-.167969 4.664062-1.53125 6.558593zm0 0" fill="#5e5f62"/><path d="m304.914062 450.21875c-3.96875 0-7.449218-2.644531-8.511718-6.464844-1.0625-3.824218.554687-7.886718 3.957031-9.929687 32.695313-19.625 39.855469-90.421875 39.855469-116.019531 0-4.875 3.953125-8.828126 8.828125-8.828126s8.828125 3.953126 8.828125 8.828126c0 4.164062-.558594 102.398437-48.429688 131.152343-1.363281.824219-2.929687 1.261719-4.527344 1.261719zm0 0" fill="#5e5f62"/><path d="m93.050781 450.21875c-.421875 0-.84375-.03125-1.261719-.089844-.6875-.097656-69.367187-11.113281-69.367187-114.671875 0-4.875 3.953125-8.824219 8.828125-8.824219s8.828125 3.949219 8.828125 8.824219c0 88.425781 53.671875 97.105469 54.210937 97.195313 4.582032.652344 7.882813 4.738281 7.558594 9.355468-.324218 4.621094-4.164062 8.203126-8.796875 8.210938zm0 0" fill="#fff"/><path d="m245.875 414.90625c1.421875 0 2.757812.683594 3.585938 1.839844.832031 1.15625 1.054687 2.640625.597656 3.988281-7.386719 20.957031-37.753906 91.277344-112.878906 91.277344-86.984376 0-11.113282-42.859375 16.464843-94.78125.738281-1.425781 2.207031-2.320313 3.8125-2.324219zm0 0" fill="#d1d4d1"/><path d="m384.644531 35.320312c0 9.75-7.90625 17.65625-17.65625 17.65625s-17.652343-7.90625-17.652343-17.65625 7.902343-17.65625 17.652343-17.65625 17.65625 7.90625 17.65625 17.65625zm0 0" fill="#fff"/><path d="m375.816406 35.320312c0 4.875-3.953125 8.828126-8.828125 8.828126s-8.828125-3.953126-8.828125-8.828126 3.953125-8.828124 8.828125-8.828124 8.828125 3.953124 8.828125 8.828124zm0 0" fill="#2c2f38"/><path d="m366.988281 26.492188c-.019531 4.148437-2.917969 7.722656-6.972656 8.589843-4.054687.871094-8.167969-1.195312-9.886719-4.96875 1.753906-5.550781 6.101563-9.898437 11.652344-11.652343 3.164062 1.421874 5.199219 4.5625 5.207031 8.03125zm0 0" fill="#fff"/></svg>