<svg height="505pt" viewBox="-18 0 505 505.10029" width="505pt" xmlns="http://www.w3.org/2000/svg"><g fill="#41767f"><path d="m53.925781 361.144531s-7.222656 36.125 4.464844 56.082031c.816406 1.320313 2.265625 2.117188 3.820313 2.09375 1.550781-.019531 2.976562-.855468 3.753906-2.199218 5.554687-10.382813 13.316406-19.421875 22.742187-26.480469"/><path d="m177.511719 52.179688s-25.070313-41.78125-172.757813-52.1718755c-1.84375-.1210935-3.570312.9218755-4.320312 2.6093755-.753906 1.6875-.3750002 3.667968.949218 4.957031 34.640626 33.898437 58.976563 76.90625 70.199219 124.054687"/><path d="m295.582031 262.9375c19.332031 6.445312 32.203125 27.605469 37.738281 38.550781.765626 1.507813 2.328126 2.445313 4.019532 2.414063 1.691406-.035156 3.21875-1.035156 3.921875-2.570313 10.761719-21.1875 2.878906-61.007812 2.878906-61.007812l-34.761719-15.449219zm0 0"/></g><path d="m468.644531 124.390625c-.351562 2.914063-.707031 5.824219-1.148437 8.738281-.871094 5.769532-2.046875 11.484375-3.527344 17.125-1.507812 5.605469-3.335938 11.117188-5.476562 16.507813-7.640626 20.4375-21.230469 38.117187-39.015626 50.757812-25.136718 15.527344-53.894531 24.199219-83.421874 25.160157-9.960938.695312-19.953126.8125-29.925782.351562l-62.144531-1.851562h-.355469c-18.820312.09375-37.398437 4.25-54.464844 12.183593-31.78125 15.710938-49.523437 60.113281-33.367187 91.539063 3.453125 6.839844 8.398437 12.8125 14.476563 17.480468 1.765624 1.410157 3.53125 2.734376 5.472656 4.058594 4.679687 3.179688 9.710937 6.179688 14.652344 9.359375 1.054687.65625 2.332031.847657 3.53125.527344 36.042968-8.667969 73.28125-11.234375 110.167968-7.589844 1.925782.078125 3.574219 1.394531 4.078125 3.253907.503907 1.855468-.25 3.824218-1.871093 4.867187-24.363282 15.007813-75.210938 54.996094-68.5 123.320313.210937 1.820312-.726563 3.582031-2.355469 4.425781-1.625.84375-3.605469.59375-4.972657-.628907-25.480468-23.941406-42.929687-55.175781-49.964843-89.421874-1.234375-.179688-2.207031-.355469-3-.441407-30.015625-4.238281-61.882813-8.5625-88.804688-23.484375-4.246093-2.285156-8.320312-4.882812-12.183593-7.765625-17.390626-13.3125-31.21875-30.722656-40.253907-50.671875-26.480469-57.46875-6.972656-128.351562 21.628907-180.523437 8.382812-15.300781 18.546874-29.550781 30.277343-42.460938 36.761719-40.039062 87.988281-63.746093 142.300781-65.855469 171.519532-8.207031 229.695313 66.828126 237.460938 78.039063.582031.882813.832031 1.949219.707031 3zm0 0" fill="#67b9cc"/><path d="m310.207031 215.835938c.210938 14.574218-4.070312 60.160156-60.125 102.398437-1.484375 1.226563-3.59375 1.347656-5.207031.296875-1.617188-1.046875-2.367188-3.019531-1.855469-4.878906 5.359375-20.179688 12.5-60.910156-7.335937-87.628906-.929688-1.261719-1.121094-2.921876-.503906-4.359376.617187-1.441406 1.953124-2.445312 3.507812-2.640624l66.585938-7.398438c1.222656-.148438 2.453124.226562 3.390624 1.023438.9375.800781 1.496094 1.957031 1.542969 3.1875zm0 0" fill="#41767f"/><path d="m353.570312 213.371094c-1.425781 0-2.828124-.347656-4.089843-1.015625-6.859375-3.867188-12.808594-9.164063-17.441407-15.535157-10.117187-13.816406-10.875-32.378906-1.925781-46.980468 2.273438-4.3125 7.613281-5.96875 11.925781-3.699219 4.316407 2.273437 5.972657 7.613281 3.699219 11.925781-3.835937 6.664063-4.722656 14.625-2.441406 21.972656 2.28125 7.34375 7.519531 13.402344 14.457031 16.71875 3.574219 1.910157 5.390625 6.011719 4.398438 9.941407-.988282 3.933593-4.53125 6.683593-8.582032 6.671875zm0 0" fill="#2c2f38"/><path d="m387.308594 202.929688c-1.425782 0-2.832032-.351563-4.085938-1.023438-6.867187-3.867188-12.820312-9.167969-17.453125-15.539062-10.113281-13.816407-10.875-32.378907-1.925781-46.980469 1.472656-2.789063 4.320312-4.582031 7.472656-4.703125 3.152344-.125 6.132813 1.445312 7.8125 4.117187 1.683594 2.667969 1.8125 6.03125.339844 8.824219-3.839844 6.660156-4.726562 14.625-2.445312 21.964844 2.28125 7.34375 7.523437 13.402344 14.460937 16.71875 3.582031 1.902344 5.40625 6.007812 4.417969 9.945312-.988282 3.933594-4.535156 6.691406-8.59375 6.675782zm0 0" fill="#2c2f38"/><path d="m463.96875 150.253906c-1.507812 5.605469-3.335938 11.117188-5.476562 16.507813-.824219-.109375-1.628907-.347657-2.382813-.707031-3.660156-1.605469-7.4375-2.933594-11.296875-3.96875-9.421875-2.660157-19.167969-3.996094-28.957031-3.972657-4.875 0-8.828125-3.953125-8.828125-8.828125s3.953125-8.828125 8.828125-8.828125c16.558593-.246093 32.96875 3.097657 48.113281 9.796875zm0 0" fill="#2c2f38"/><path d="m301.097656 158.816406c-.40625 4.867188-4.664062 8.492188-9.535156 8.121094-1.058594-.085938-109.988281-7.238281-159.425781 75.125-14.210938 23.65625-18.007813 45.019531-11.386719 63.648438 6.953125 16.625 19.296875 30.429687 35.046875 39.191406 3.453125 6.839844 8.398437 12.8125 14.476563 17.480468 1.765624 1.410157 3.53125 2.734376 5.472656 4.058594-1.667969 2.222656-4.285156 3.53125-7.0625 3.53125-1.023438-.003906-2.039063-.183594-3-.527344-1.941406-.707031-47.316406-17.65625-61.617188-57.820312-8.476562-23.835938-4.0625-50.230469 12.886719-78.566406 55.171875-91.894532 171.078125-84.128906 176.023437-83.773438 4.851563.433594 8.464844 4.671875 8.121094 9.53125zm0 0" fill="#41767f"/><path d="m389.375 105.144531c0 9.753907-7.90625 17.65625-17.65625 17.65625s-17.65625-7.902343-17.65625-17.65625c0-9.75 7.90625-17.652343 17.65625-17.652343s17.65625 7.902343 17.65625 17.652343zm0 0" fill="#fff"/><path d="m380.546875 105.144531c0 4.878907-3.953125 8.828125-8.828125 8.828125s-8.828125-3.949218-8.828125-8.828125c0-4.875 3.953125-8.824219 8.828125-8.824219s8.828125 3.949219 8.828125 8.824219zm0 0" fill="#2c2f38"/><path d="m371.71875 96.320312c-.019531 4.144532-2.921875 7.71875-6.976562 8.589844-4.050782.871094-8.164063-1.199218-9.882813-4.972656 1.753906-5.550781 6.101563-9.898438 11.652344-11.652344 3.160156 1.421875 5.199219 4.566406 5.207031 8.035156zm0 0" fill="#fff"/></svg>