<svg height="512pt" viewBox="-114 0 512 512.00005" width="512pt" xmlns="http://www.w3.org/2000/svg"><g fill="#90bae1"><path d="m250.605469 403.527344c-4.085938.011718-8.128907-.828125-11.871094-2.457032-3.535156-1.476562-6.757813-3.613281-9.496094-6.292968-2.84375-2.863282-5.105469-6.253906-6.65625-9.980469-1.5625-3.679687-2.363281-7.644531-2.351562-11.644531v-78.101563c0-4.792969 3.886719-8.679687 8.679687-8.679687 4.792969 0 8.679688 3.886718 8.679688 8.679687v78.101563c-.007813 1.710937.339844 3.402344 1.023437 4.972656.671875 1.632812 1.65625 3.121094 2.898438 4.382812 1.132812 1.078126 2.453125 1.9375 3.894531 2.542969 3.210938 1.5 6.914062 1.535157 10.152344.101563 1.640625-.667969 3.132812-1.65625 4.390625-2.90625 1.082031-1.132813 1.949219-2.457032 2.554687-3.902344.734375-1.632812 1.117188-3.402344 1.117188-5.191406v-39.050782c0-4.792968 3.886718-8.679687 8.679687-8.679687s8.675781 3.886719 8.675781 8.679687v39.050782c.007813 4.082031-.824218 8.117187-2.445312 11.863281-1.476562 3.554687-3.617188 6.792969-6.308594 9.546875-2.863281 2.847656-6.257812 5.109375-9.988281 6.65625-3.679687 1.554688-7.636719 2.339844-11.628906 2.308594zm0 0"/><path d="m215.894531 512c-16.777343 0-30.375-13.597656-30.375-30.371094v-169.222656c0-4.792969 3.886719-8.675781 8.679688-8.675781s8.675781 3.882812 8.675781 8.675781v169.222656c0 4.363282 2.183594 8.4375 5.816406 10.851563 3.636719 2.414062 8.238282 2.84375 12.261719 1.148437 1.542969-.652344 2.945313-1.597656 4.128906-2.785156 2.464844-2.433594 3.84375-5.753906 3.828125-9.214844v-39.050781c0-4.792969 3.886719-8.679687 8.679688-8.679687 4.789062 0 8.675781 3.886718 8.675781 8.679687v39.050781c0 12.210938-7.3125 23.234375-18.5625 27.984375-3.734375 1.582031-7.753906 2.394531-11.808594 2.386719zm0 0"/><path d="m159.484375 490.304688c-4.789063 0-8.675781-3.886719-8.675781-8.675782v-169.222656c0-4.792969 3.886718-8.675781 8.675781-8.675781 4.792969 0 8.679687 3.882812 8.679687 8.675781v169.222656c0 4.789063-3.886718 8.675782-8.679687 8.675782zm0 0"/><path d="m124.773438 512c-4.792969 0-8.675782-3.886719-8.675782-8.679688v-182.234374c0-4.792969 3.882813-8.679688 8.675782-8.679688 4.792968 0 8.679687 3.886719 8.679687 8.679688v182.234374c0 4.792969-3.886719 8.679688-8.679687 8.679688zm0 0"/><path d="m33.65625 403.527344c-4.085938.011718-8.128906-.828125-11.871094-2.457032-3.535156-1.476562-6.757812-3.613281-9.496094-6.292968-2.84375-2.863282-5.105468-6.253906-6.65625-9.980469-1.5625-3.679687-2.363281-7.644531-2.351562-11.644531v-39.050782c0-4.792968 3.886719-8.679687 8.679688-8.679687 4.792968 0 8.679687 3.886719 8.679687 8.679687v39.050782c-.007813 1.710937.339844 3.402344 1.023437 4.972656.671876 1.632812 1.65625 3.121094 2.898438 4.382812 1.132812 1.078126 2.453125 1.9375 3.894531 2.542969 3.210938 1.5 6.914063 1.535157 10.152344.101563 1.640625-.667969 3.132813-1.65625 4.390625-2.90625 1.085938-1.132813 1.949219-2.457032 2.554688-3.902344.734374-1.632812 1.117187-3.402344 1.117187-5.191406v-78.101563c0-4.792969 3.886719-8.679687 8.679687-8.679687 4.792969 0 8.675782 3.886718 8.675782 8.679687v78.101563c.007812 4.082031-.824219 8.117187-2.445313 11.863281-1.476562 3.554687-3.617187 6.792969-6.308593 9.546875-2.863282 2.847656-6.257813 5.109375-9.988282 6.65625-3.679687 1.554688-7.636718 2.339844-11.628906 2.308594zm0 0"/><path d="m68.367188 512c-16.773438 0-30.371094-13.597656-30.371094-30.371094v-39.050781c0-4.792969 3.882812-8.679687 8.675781-8.679687s8.679687 3.886718 8.679687 8.679687v39.050781c-.003906 4.363282 2.179688 8.4375 5.816407 10.851563 3.636719 2.414062 8.238281 2.84375 12.257812 1.148437 1.546875-.652344 2.949219-1.597656 4.132813-2.785156 2.464844-2.433594 3.84375-5.753906 3.824218-9.214844v-169.222656c0-4.792969 3.886719-8.675781 8.679688-8.675781s8.679688 3.882812 8.679688 8.675781v169.222656c0 12.210938-7.3125 23.234375-18.5625 27.984375-3.738282 1.582031-7.753907 2.394531-11.8125 2.386719zm0 0"/><path d="m55.351562 251.660156c-52.070312 34.710938-69.425781-60.746094-43.390624-138.847656 26.035156-78.101562 112.8125-95.457031 112.8125-95.457031h34.710937s86.78125 17.355469 112.816406 95.457031c26.03125 78.101562 8.675781 173.558594-43.390625 138.847656zm0 0"/></g><path d="m142.128906 0c156.203125 182.238281 78.101563 260.339844 78.101563 260.339844s95.460937 60.746094-78.101563 60.746094c-173.558594 0-78.101562-60.746094-78.101562-60.746094s-78.101563-78.101563 78.101562-260.339844c0 0 17.355469 104.136719 0 173.558594" fill="#b0d3f0"/><path d="m176.84375 247.320312c0 21.570313-17.484375 39.050782-39.050781 39.050782-21.570313 0-39.050781-17.480469-39.050781-39.050782 0-21.566406 17.480468-39.050781 39.050781-39.050781 21.566406 0 39.050781 17.484375 39.050781 39.050781zm0 0" fill="#fff"/><path d="m150.808594 251.660156c0 9.585938-7.769532 17.355469-17.355469 17.355469s-17.355469-7.769531-17.355469-17.355469c0-9.585937 7.769532-17.355468 17.355469-17.355468s17.355469 7.769531 17.355469 17.355468zm0 0" fill="#2c2f38"/><path d="m150.808594 242.984375c0 4.792969-3.886719 8.675781-8.679688 8.675781-4.792968 0-8.675781-3.882812-8.675781-8.675781s3.882813-8.679687 8.675781-8.679687c4.792969 0 8.679688 3.886718 8.679688 8.679687zm0 0" fill="#fff"/></svg>