<svg height="512pt" viewBox="0 0 512 512" width="512pt" xmlns="http://www.w3.org/2000/svg"><path d="m217.007812 65.085938-26.039062 79.808593c-5.539062 16.835938-21.273438 28.199219-38.992188 28.171875h-84.417968c-17.710938-.101562-33.457032 11.25-38.957032 28.082032-5.5 16.835937.503907 35.296874 14.855469 45.671874l68.273438 49.320313c14.363281 10.328125 20.390625 28.765625 14.890625 45.585937l-26.074219 79.808594c-5.378906 16.855469.683594 35.257813 15.019531 45.625 14.339844 10.363282 33.714844 10.34375 48.035156-.046875l68.265626-49.320312c14.386718-10.382813 33.808593-10.382813 48.195312 0l68.265625 49.320312c14.316406 10.421875 33.714844 10.457031 48.070313.085938 14.355468-10.371094 20.417968-28.796875 15.019531-45.664063l-26.078125-79.808594c-5.496094-16.820312.527344-35.257812 14.894531-45.585937l68.273437-49.320313c14.351563-10.375 20.355469-28.835937 14.855469-45.671874-5.5-16.832032-21.246093-28.183594-38.957031-28.082032h-84.347656c-17.71875.03125-33.453125-11.335937-38.992188-28.171875l-26.074218-79.808593c-5.558594-16.820313-21.277344-28.179688-38.992188-28.179688s-33.433594 11.359375-38.992188 28.179688zm0 0" fill="#d75e72"/><path d="m485.515625 17.65625c0 9.75-7.902344 17.652344-17.652344 17.652344s-17.65625-7.902344-17.65625-17.652344 7.90625-17.65625 17.65625-17.65625 17.652344 7.90625 17.652344 17.65625zm0 0" fill="#fac176"/><path d="m105.929688 79.449219c0 9.75-7.902344 17.652343-17.652344 17.652343-9.753906 0-17.65625-7.902343-17.65625-17.652343s7.902344-17.65625 17.65625-17.65625c9.75 0 17.652344 7.90625 17.652344 17.65625zm0 0" fill="#fac176"/><path d="m35.308594 361.929688c0 9.753906-7.902344 17.65625-17.652344 17.65625s-17.65625-7.902344-17.65625-17.65625c0-9.75 7.90625-17.652344 17.65625-17.652344s17.652344 7.902344 17.652344 17.652344zm0 0" fill="#fac176"/><path d="m423.722656 97.101562c0 14.628907-11.855468 26.484376-26.480468 26.484376s-26.484376-11.855469-26.484376-26.484376c0-14.625 11.859376-26.480468 26.484376-26.480468s26.480468 11.855468 26.480468 26.480468zm0 0" fill="#fac176"/><path d="m512 485.515625c0 14.628906-11.855469 26.484375-26.484375 26.484375-14.625 0-26.480469-11.855469-26.480469-26.484375 0-14.625 11.855469-26.480469 26.480469-26.480469 14.628906 0 26.484375 11.855469 26.484375 26.480469zm0 0" fill="#fac176"/><g fill="#802d40"><path d="m308.964844 326.621094c0 9.75-7.902344 17.65625-17.65625 17.65625-9.75 0-17.652344-7.90625-17.652344-17.65625s7.902344-17.65625 17.652344-17.65625c9.753906 0 17.65625 7.90625 17.65625 17.65625zm0 0"/><path d="m335.449219 370.757812c0 4.875-3.953125 8.828126-8.828125 8.828126s-8.828125-3.953126-8.828125-8.828126 3.953125-8.828124 8.828125-8.828124 8.828125 3.953124 8.828125 8.828124zm0 0"/><path d="m361.929688 406.070312c0 4.875-3.949219 8.828126-8.828126 8.828126-4.875 0-8.824218-3.953126-8.824218-8.828126s3.949218-8.828124 8.824218-8.828124c4.878907 0 8.828126 3.953124 8.828126 8.828124zm0 0"/><path d="m388.414062 441.378906c0 4.875-3.953124 8.828125-8.828124 8.828125s-8.828126-3.953125-8.828126-8.828125 3.953126-8.828125 8.828126-8.828125 8.828124 3.953125 8.828124 8.828125zm0 0"/><path d="m238.34375 326.621094c0 9.75-7.902344 17.65625-17.652344 17.65625-9.753906 0-17.65625-7.90625-17.65625-17.65625s7.902344-17.65625 17.65625-17.65625c9.75 0 17.652344 7.90625 17.652344 17.65625zm0 0"/><path d="m194.207031 370.757812c0 4.875-3.953125 8.828126-8.828125 8.828126s-8.828125-3.953126-8.828125-8.828126 3.953125-8.828124 8.828125-8.828124 8.828125 3.953124 8.828125 8.828124zm0 0"/><path d="m167.722656 406.070312c0 4.875-3.949218 8.828126-8.824218 8.828126-4.878907 0-8.828126-3.953126-8.828126-8.828126s3.949219-8.828124 8.828126-8.828124c4.875 0 8.824218 3.953124 8.824218 8.828124zm0 0"/><path d="m141.242188 441.378906c0 4.875-3.953126 8.828125-8.828126 8.828125s-8.828124-3.953125-8.828124-8.828125 3.953124-8.828125 8.828124-8.828125 8.828126 3.953125 8.828126 8.828125zm0 0"/><path d="m220.691406 256c0 9.75-7.90625 17.65625-17.65625 17.65625s-17.65625-7.90625-17.65625-17.65625 7.90625-17.65625 17.65625-17.65625 17.65625 7.90625 17.65625 17.65625zm0 0"/><path d="m326.621094 256c0 9.75-7.90625 17.65625-17.65625 17.65625s-17.65625-7.90625-17.65625-17.65625 7.90625-17.65625 17.65625-17.65625 17.65625 7.90625 17.65625 17.65625zm0 0"/><path d="m273.65625 211.863281c0 9.75-7.90625 17.652344-17.65625 17.652344s-17.65625-7.902344-17.65625-17.652344 7.90625-17.65625 17.65625-17.65625 17.65625 7.90625 17.65625 17.65625zm0 0"/><path d="m370.757812 247.171875c0 4.875-3.953124 8.828125-8.828124 8.828125s-8.828126-3.953125-8.828126-8.828125 3.953126-8.828125 8.828126-8.828125 8.828124 3.953125 8.828124 8.828125zm0 0"/><path d="m264.828125 158.898438c0 4.875-3.953125 8.824218-8.828125 8.824218s-8.828125-3.949218-8.828125-8.824218c0-4.878907 3.953125-8.828126 8.828125-8.828126s8.828125 3.949219 8.828125 8.828126zm0 0"/><path d="m264.828125 114.757812c0 4.875-3.953125 8.828126-8.828125 8.828126s-8.828125-3.953126-8.828125-8.828126 3.953125-8.828124 8.828125-8.828124 8.828125 3.953124 8.828125 8.828124zm0 0"/><path d="m264.828125 70.621094c0 4.875-3.953125 8.828125-8.828125 8.828125s-8.828125-3.953125-8.828125-8.828125 3.953125-8.828125 8.828125-8.828125 8.828125 3.953125 8.828125 8.828125zm0 0"/></g><path d="m397.242188 26.484375c0 4.875-3.953126 8.824219-8.828126 8.824219s-8.828124-3.949219-8.828124-8.824219c0-4.878906 3.953124-8.828125 8.828124-8.828125s8.828126 3.949219 8.828126 8.828125zm0 0" fill="#fac176"/><path d="m70.621094 123.585938c0 4.875-3.953125 8.828124-8.828125 8.828124s-8.828125-3.953124-8.828125-8.828124 3.953125-8.828126 8.828125-8.828126 8.828125 3.953126 8.828125 8.828126zm0 0" fill="#fac176"/><path d="m79.449219 326.621094c0 4.875-3.953125 8.828125-8.828125 8.828125s-8.828125-3.953125-8.828125-8.828125 3.953125-8.828125 8.828125-8.828125 8.828125 3.953125 8.828125 8.828125zm0 0" fill="#fac176"/><path d="m423.722656 503.171875c0 4.875-3.949218 8.828125-8.824218 8.828125-4.878907 0-8.828126-3.953125-8.828126-8.828125s3.949219-8.828125 8.828126-8.828125c4.875 0 8.824218 3.953125 8.824218 8.828125zm0 0" fill="#fac176"/><path d="m414.898438 229.515625c0 4.878906-3.953126 8.828125-8.828126 8.828125s-8.828124-3.949219-8.828124-8.828125c0-4.875 3.953124-8.824219 8.828124-8.824219s8.828126 3.949219 8.828126 8.824219zm0 0" fill="#802d40"/><path d="m459.035156 211.863281c0 4.875-3.953125 8.828125-8.828125 8.828125s-8.828125-3.953125-8.828125-8.828125 3.953125-8.828125 8.828125-8.828125 8.828125 3.953125 8.828125 8.828125zm0 0" fill="#802d40"/><path d="m158.898438 247.171875c0 4.875-3.953126 8.828125-8.828126 8.828125s-8.828124-3.953125-8.828124-8.828125 3.953124-8.828125 8.828124-8.828125 8.828126 3.953125 8.828126 8.828125zm0 0" fill="#802d40"/><path d="m114.757812 229.515625c0 4.878906-3.953124 8.828125-8.828124 8.828125s-8.828126-3.949219-8.828126-8.828125c0-4.875 3.953126-8.824219 8.828126-8.824219s8.828124 3.949219 8.828124 8.824219zm0 0" fill="#802d40"/><path d="m70.621094 211.863281c0 4.875-3.953125 8.828125-8.828125 8.828125s-8.828125-3.953125-8.828125-8.828125 3.953125-8.828125 8.828125-8.828125 8.828125 3.953125 8.828125 8.828125zm0 0" fill="#802d40"/></svg>