<svg height="511pt" viewBox="-13 0 511 511.97839" width="511pt" xmlns="http://www.w3.org/2000/svg"><path d="m264.558594 398.46875c24.496094-.925781 48.589844-6.519531 70.988281-16.484375 36.925781-19.246094 69.921875-45.234375 97.277344-76.628906 27.945312-31.238281 53.632812-71.070313 53.632812-114.460938 0-73.761719-145.183593-154.382812-211.050781-184.0625-20.3125-9.109375-43.554688-9.109375-63.867188 0-65.867187 29.679688-211.050781 110.300781-211.050781 184.0625.324219 18.1875 4.460938 36.101563 12.148438 52.585938 20.046875 45.300781 57.96875 83.65625 96.933593 113.335937 32.847657 24.289063 71.96875 38.652344 112.726563 41.394532" fill="#9fc9d3"/><path d="m278.183594 364.453125-34.710938 86.78125-34.710937-86.78125" fill="#9fc9d3"/><path d="m347.609375 511.976562h-52.070313c-33.53125-.035156-60.707031-27.210937-60.746093-60.742187 0-4.792969 3.886719-8.679687 8.679687-8.679687 4.792969 0 8.675782 3.886718 8.675782 8.679687.03125 23.949219 19.441406 43.359375 43.390624 43.386719h52.070313c23.949219-.027344 43.359375-19.4375 43.386719-43.386719v-26.035156c0-4.792969 3.886718-8.679688 8.679687-8.679688s8.679688 3.886719 8.679688 8.679688v26.035156c-.039063 33.53125-27.214844 60.707031-60.746094 60.742187zm0 0" fill="#547580"/><path d="m286.863281 95.4375c0 4.792969-3.886719 8.675781-8.679687 8.675781-4.792969 0-8.675782-3.882812-8.675782-8.675781s3.882813-8.679688 8.675782-8.679688c4.792968 0 8.679687 3.886719 8.679687 8.679688zm0 0" fill="#2c2f38"/><path d="m217.4375 95.4375c0 4.792969-3.882812 8.675781-8.675781 8.675781s-8.679688-3.882812-8.679688-8.675781 3.886719-8.679688 8.679688-8.679688 8.675781 3.886719 8.675781 8.679688zm0 0" fill="#2c2f38"/><g fill="#547580"><path d="m243.472656 347.097656c-4.792968 0-8.679687-3.886718-8.679687-8.679687v-199.59375c0-4.792969 3.886719-8.675781 8.679687-8.675781 4.792969 0 8.675782 3.882812 8.675782 8.675781v199.59375c0 4.792969-3.882813 8.679687-8.675782 8.679687zm0 0"/><path d="m243.472656 459.910156c-3.550781.003906-6.742187-2.15625-8.0625-5.449218l-34.710937-86.78125c-1.785157-4.449219.378906-9.503907 4.832031-11.289063 4.453125-1.78125 9.507812.382813 11.289062 4.835937l26.652344 66.644532 26.648438-66.644532c1.15625-2.882812 3.757812-4.929687 6.828125-5.371093 3.070312-.441407 6.144531.789062 8.0625 3.230469 1.917969 2.4375 2.386719 5.714843 1.234375 8.59375l-34.710938 86.78125c-1.320312 3.292968-4.515625 5.453124-8.0625 5.449218zm0 0"/><path d="m295.539062 321.0625c-3.710937.007812-7.015624-2.347656-8.222656-5.859375-1.207031-3.507813-.046875-7.398437 2.886719-9.671875 1.230469-1.269531 22.691406-25.566406 22.691406-158.027344 0-4.792968 3.886719-8.679687 8.679688-8.679687s8.675781 3.886719 8.675781 8.679687c0 144.835938-24.902344 168.777344-29.894531 172.101563-1.425781.949219-3.101563 1.457031-4.816407 1.457031zm0 0"/><path d="m191.683594 321.132812c-1.8125 0-3.582032-.53125-5.09375-1.527343-2.753906-1.832031-9.878906-8.625-16.542969-31.953125-8.859375-31.003906-13.355469-78.160156-13.355469-140.148438 0-4.792968 3.886719-8.679687 8.679688-8.679687 4.792968 0 8.675781 3.886719 8.675781 8.679687 0 75.203125 6.945313 115.128906 12.679687 135.375 1.566407 8.242188 5.007813 16.007813 10.058594 22.703125 1.875 1.265625 3.160156 3.238281 3.558594 5.464844.402344 2.226563-.117188 4.523437-1.433594 6.363281-1.636718 2.371094-4.347656 3.765625-7.226562 3.722656zm0 0"/></g></svg>