<svg height="512pt" viewBox="0 -35 512.01575 512" width="512pt" xmlns="http://www.w3.org/2000/svg"><g fill="#f0c419"><path d="m256.015625 97.109375s52.964844-61.792969 88.277344-44.136719c35.308593 17.65625 35.308593-26.480468 35.308593-26.480468 35.3125 26.480468 26.484376 88.273437 26.484376 88.273437l-1.105469 32-197.515625-5.515625zm0 0"/><path d="m186.632812 121.476562c15.535157-27.011718-1.238281-77.332031-1.238281-77.332031 44.136719 8.828125 61.792969 52.964844 61.792969 52.964844l3.3125 14.347656z"/><path d="m141.257812 291.671875c-1.394531 18.738281-7.464843 36.828125-17.65625 52.613281 44.136719 0 61.792969-26.484375 61.792969-26.484375"/><path d="m406.085938 344.636719c-.089844 3.707031-1.058594 36.015625-17.65625 52.613281 0 0-8.296876-33.28125-24.980469-43.257812"/></g><path d="m132.429688 44.144531c0 9.753907-7.90625 17.65625-17.65625 17.65625s-17.652344-7.902343-17.652344-17.65625c0-9.75 7.902344-17.652343 17.652344-17.652343s17.65625 7.902343 17.65625 17.652343zm0 0" fill="#67b9cc"/><path d="m79.464844 8.835938c0 4.875-3.953125 8.828124-8.828125 8.828124s-8.828125-3.953124-8.828125-8.828124 3.953125-8.8281255 8.828125-8.8281255 8.828125 3.9531255 8.828125 8.8281255zm0 0" fill="#67b9cc"/><path d="m229.53125 388.421875c0 9.75-7.902344 17.65625-17.652344 17.65625s-17.65625-7.90625-17.65625-17.65625 7.90625-17.65625 17.65625-17.65625 17.652344 7.90625 17.652344 17.65625zm0 0" fill="#67b9cc"/><path d="m256.015625 432.558594c0 4.875-3.953125 8.828125-8.828125 8.828125s-8.828125-3.953125-8.828125-8.828125 3.953125-8.828125 8.828125-8.828125 8.828125 3.953125 8.828125 8.828125zm0 0" fill="#67b9cc"/><path d="m494.359375 229.523438s17.65625 0 17.65625 26.484374c0 26.484376-80.488281 115.871094-211.863281 97.101563-123.585938-17.652344-185.378906-88.273437-220.6875-97.101563-35.3125-8.828124-44.140625 70.621094-52.964844 97.101563-8.828125 26.484375-26.484375 52.96875-26.484375-26.480469.0195312-16.0625 1.15625-32.105468 3.398437-48.011718 2.191407-15.6875 6.726563-31.066407 7.425782-46.957032.6875-15.730468-4.855469-30.011718-7.222656-45.355468-2.566407-17.84375-3.769532-35.855469-3.601563-53.882813 0-79.449219 17.65625-52.964844 26.484375-26.484375 8.824219 26.484375 17.652344 105.933594 52.964844 97.105469 35.308594-8.828125 88.273437-114.757813 220.6875-105.933594 132.414062 8.828125 211.863281 79.449219 211.863281 105.933594 0 26.480469-17.65625 26.480469-17.65625 26.480469zm0 0" fill="#285680"/><path d="m414.914062 282.492188c-1.910156 0-3.769531-.621094-5.296874-1.765626-39.726563-29.785156-21.636719-95.003906-20.84375-97.765624 1.414062-4.589844 6.238281-7.210938 10.855468-5.894532 4.621094 1.316406 7.339844 6.085938 6.121094 10.730469-.160156.566406-15.519531 56.320313 14.457031 78.804687 3.042969 2.277344 4.28125 6.25 3.078125 9.851563-1.199218 3.605469-4.574218 6.039063-8.371094 6.039063zm0 0" fill="#2c2f38"/><path d="m105.945312 238.351562c-4.875 0-8.824218-3.949218-8.824218-8.828124 0-4.875 3.949218-8.824219 8.824218-8.824219 10.488282 0 23.210938-11.035157 39.320313-25.011719 18.875-17.539062 39.941406-32.558594 62.675781-44.683594 55.453125-27.71875 143.984375-1.667968 147.71875-.554687 4.671875 1.398437 7.324219 6.316406 5.925782 10.988281-1.398438 4.671875-6.320313 7.324219-10.992188 5.921875-.882812-.253906-85.582031-25.15625-134.761719-.554687-21.414062 11.449218-41.242187 25.636718-58.984375 42.214843-18.902344 16.390625-33.8125 29.332031-50.902344 29.332031zm0 0" fill="#f0c419"/><path d="m360.746094 218.863281c-5.207032-7.0625-29.5625-31.90625-114.253906-33.40625-1.667969-.039062-3.210938.863281-3.996094 2.332031s-.679688 3.253907.277344 4.617188c10.382812 14.6875 40.609374 48.460938 106.101562 62.675781 2.355469.496094 4.6875-.945312 5.292969-3.277343l7.320312-29.28125c.308594-1.269532.035157-2.609376-.742187-3.660157zm0 0" fill="#4482c3"/><path d="m459.050781 194.214844c0 9.75-7.90625 17.65625-17.65625 17.65625s-17.65625-7.90625-17.65625-17.65625 7.90625-17.65625 17.65625-17.65625 17.65625 7.90625 17.65625 17.65625zm0 0" fill="#fff"/><path d="m450.222656 194.214844c0 4.875-3.953125 8.828125-8.828125 8.828125s-8.828125-3.953125-8.828125-8.828125 3.953125-8.828125 8.828125-8.828125 8.828125 3.953125 8.828125 8.828125zm0 0" fill="#2c2f38"/><path d="m441.394531 185.386719c-.019531 4.148437-2.921875 7.722656-6.972656 8.589843-4.054687.871094-8.167969-1.195312-9.886719-4.96875 1.753906-5.550781 6.101563-9.898437 11.652344-11.652343 3.164062 1.421875 5.199219 4.5625 5.207031 8.03125zm0 0" fill="#fff"/></svg>