<svg height="498pt" viewBox="0 -2 498.49322 498" width="498pt" xmlns="http://www.w3.org/2000/svg"><path d="m452.035156 398.515625c.578125-1.234375 1.707032-2.121094 3.039063-2.386719 1.335937-.265625 2.71875.125 3.722656 1.046875 11.210937 10.195313 37.613281 37.035157 37.613281 63.871094 0 32.726563-54.902344 41.914063-81.988281 27.578125-1.933594-1.097656-2.679687-3.511719-1.707031-5.511719zm0 0" fill="#59474e"/><path d="m453.660156 135.839844-1.367187 23.46875c29.527343 101.121094 17.066406 158.890625-.339844 190.464844-1.367187 2.558593-2.902344 5.03125-4.351563 7.25l-1.964843 2.988281c1.195312 3.328125 2.21875 6.65625 3.242187 9.8125 2.371094 7.71875 4.226563 15.585937 5.546875 23.554687 18.6875 108.882813-99.070312 101.800782-145.75 101.800782-24.320312 0-48.554687.425781-72.789062-.085938l-98.816407-10.664062c-30.628906-6.535157-58.734374-21.730469-80.980468-43.777344-32.898438-33.78125-52.527344-78.28125-55.296875-125.355469-2.710938-32.4375 1.539062-65.078125 12.460937-95.742187 13.3125-33.453126 39.335938-60.757813 59.902344-89.855469h-.085938c-13.738281-18.945313-43.6875-72.363281 10.496094-122.710938 30.355469 22.433594 42.132813 62.292969 28.84375 97.621094-.085937.339844-.253906.683594-.339844 1.023437.261719-.277343.550782-.53125.851563-.765624 56.40625-54.101563 110.082031-15.789063 110.082031-15.789063-18.007812 45.054687-58.285156 64.171875-104.621094 55.382813-14.023437 29.992187-19.65625 63.230468-16.296874 96.167968 2.355468 17.839844 11.785156 33.980469 26.164062 44.796875 14.378906 10.816407 32.5 15.402344 50.292969 12.71875 14.871093-2.078125 29.398437-6.15625 43.179687-12.117187 3.328125-1.363282 6.65625-2.644532 9.898438-4.011719l1.792968-.167969c1.195313-2.5625 2.386719-5.035156 3.582032-7.679687v-.085938c16.257812-36.503906 27.921875-74.886719 34.730468-114.261719 1.71875-10.441406 2.660157-20.996093 2.816407-31.574218 0-59.734375 34.132812-128 102.402343-128 43.324219 1.273437 85.136719 16.207031 119.464844 42.667968 0 0 16.382813 82.089844-42.75 92.925782zm0 0" fill="#7f6e5d"/><g fill="#59474e"><path d="m417.964844 143.179688c-.574219.003906-1.144532-.050782-1.707032-.160157-8.476562-1.6875-16.832031-3.914062-25.019531-6.675781-4.476562-1.484375-6.902343-6.320312-5.414062-10.796875 1.484375-4.476563 6.320312-6.902344 10.796875-5.414063 7.507812 2.527344 15.167968 4.574219 22.9375 6.125 4.304687.851563 7.261718 4.828126 6.839844 9.195313-.425782 4.367187-4.089844 7.699219-8.476563 7.710937zm0 0"/><path d="m241.09375 285.515625c-10.753906 22.359375-27.734375 51.457031-47.53125 63.402344-1.328125.761719-2.824219 1.171875-4.351562 1.195312-3.859376.039063-7.261719-2.519531-8.300782-6.234375-1.039062-3.71875.542969-7.667968 3.863282-9.636718 11.433593-6.914063 24.40625-23.808594 36.949218-48.214844 3.328125-1.363282 6.65625-2.644532 9.898438-4.011719l1.792968-.167969c1.195313-2.5625 2.386719-5.035156 3.582032-7.679687h.085937c4.230469 2.035156 6.023438 7.105469 4.011719 11.347656zm0 0"/><path d="m445.636719 360.011719c1.195312 3.328125 2.21875 6.65625 3.242187 9.8125-6.878906 9.175781-15.671875 16.746093-25.769531 22.1875-1.101563.496093-2.292969.757812-3.5.769531-4.039063.0625-7.570313-2.71875-8.457031-6.660156-.886719-3.941406 1.109375-7.964844 4.789062-9.640625 10.125-5.777344 18.585938-14.0625 24.574219-24.0625 2.488281-3.808594 7.53125-4.972657 11.4375-2.644531-1.367187 2.558593-2.902344 5.03125-4.351563 7.25zm0 0"/></g><path d="m321.167969 399.53125c1.199219-.003906 2.339843.492188 3.152343 1.371094s1.214844 2.058594 1.117188 3.253906c-1.945312 20.8125-17.613281 104.199219-144.761719 89.238281-139.714843-16.433593 29.132813-88.242187 41.875-93.558593.523438-.210938 1.082031-.316407 1.644531-.304688zm0 0" fill="#cbb292"/><path d="m453.660156 121.136719c1.238282 37.75-5.085937 75.367187-18.597656 110.636719-.742188 1.867187-2.691406 2.964843-4.675781 2.625-1.984375-.335938-3.464844-2.015626-3.546875-4.023438-.730469-35.222656-4.316406-70.324219-10.726563-104.960938-1.171875-5.578124.238281-11.390624 3.835938-15.808593 3.601562-4.421875 9.003906-6.976563 14.707031-6.957031h.058594c10.300781-.03125 18.726562 8.191406 18.945312 18.488281zm0 0" fill="#cbb292"/><path d="m327.109375 179.53125c-43.007813-7.167969-44.03125-41.214844-44.03125-42.75 0-4.714844-3.820313-8.535156-8.535156-8.535156-.15625 10.578125-1.097657 21.132812-2.816407 31.574218 10.101563 20.394532 29.933594 34.207032 52.566407 36.609376.480469.070312.964843.097656 1.449219.082031 4.515624.09375 8.320312-3.347657 8.679687-7.847657.363281-4.5-2.84375-8.5-7.3125-9.132812zm0 0" fill="#59474e"/><path d="m411.929688 42.914062c0 9.425782-7.640626 17.066407-17.066407 17.066407s-17.066406-7.640625-17.066406-17.066407c0-9.425781 7.640625-17.066406 17.066406-17.066406s17.066407 7.640625 17.066407 17.066406zm0 0" fill="#fff"/><path d="m403.398438 42.914062c0 4.710938-3.820313 8.53125-8.535157 8.53125-4.710937 0-8.53125-3.820312-8.53125-8.53125 0-4.714843 3.820313-8.535156 8.53125-8.535156 4.714844 0 8.535157 3.820313 8.535157 8.535156zm0 0" fill="#2c2f38"/><path d="m394.863281 34.378906c-.019531 4.007813-2.824219 7.464844-6.742187 8.304688-3.917969.839844-7.894532-1.15625-9.554688-4.804688 1.695313-5.367187 5.898438-9.570312 11.261719-11.265625 3.058594 1.375 5.027344 4.414063 5.035156 7.765625zm0 0" fill="#fff"/></svg>