<svg height="504pt" viewBox="-5 0 504 504.14939" width="504pt" xmlns="http://www.w3.org/2000/svg"><path d="m495.007812 332.800781v68.949219c.03125 27.167969-10.75 53.230469-29.960937 72.441406-19.207031 19.207032-45.273437 29.988282-72.4375 29.957032h-128v-.683594h-145.066406c-42.417969 0-76.800781-34.382813-76.800781-76.796875v-110.933594c0-76.800781 42.070312-42.667969 42.324218-145.066406 1.472656-7.90625-.398437-16.066407-5.171875-22.535157-4.773437-6.472656-12.015625-10.671874-20-11.597656-30.292969-4.949218-54.785156-9.902344-59.8203122-49.410156 36.7460932 5.511719 73.7929692 8.816406 110.9335932 9.898438 37.140626-1.082032 74.1875-4.386719 110.933594-9.898438-5.035156 39.507812-29.441406 44.460938-59.734375 49.410156-8.015625.925782-15.296875 5.105469-20.136719 11.5625-4.839843 6.453125-6.816406 14.613282-5.460937 22.570313 0 43.519531 25.511719 80.894531 47.785156 85.589843 5.828125 1.402344 11.980469.011719 16.640625-3.757812 2.21875-1.707031 4.523438-3.410156 6.828125-5.035156 16.808594-11.179688 36.558594-17.121094 56.746094-17.066406h128c56.550781 0 102.398437 45.847656 102.398437 102.402343zm0 0" fill="#4482c3"/><path d="m341.40625 281.601562c0 4.710938-3.820312 8.53125-8.53125 8.53125-4.714844 0-8.535156-3.820312-8.535156-8.53125 0-4.714843 3.820312-8.535156 8.535156-8.535156 4.710938 0 8.53125 3.820313 8.53125 8.535156zm0 0" fill="#2c2f38"/><path d="m332.875 256c-4.714844 0-8.535156-3.820312-8.535156-8.535156v-81.066406c0-25.917969 21.015625-46.933594 46.933594-46.933594 25.921874 0 46.933593 21.015625 46.933593 46.933594 0 4.714843-3.820312 8.535156-8.53125 8.535156-4.714843 0-8.535156-3.820313-8.535156-8.535156 0-16.492188-13.371094-29.863282-29.867187-29.863282-16.492188 0-29.867188 13.371094-29.867188 29.863282v81.066406c0 4.714844-3.820312 8.535156-8.53125 8.535156zm0 0" fill="#2fa8cc"/><path d="m315.808594 119.464844c-4.714844 0-8.535156-3.820313-8.535156-8.53125v-64c0-16.496094-13.371094-29.867188-29.867188-29.867188-16.492188 0-29.863281 13.371094-29.863281 29.867188 0 4.710937-3.820313 8.53125-8.535157 8.53125-4.710937 0-8.53125-3.820313-8.53125-8.53125 0-25.921875 21.011719-46.933594 46.929688-46.933594 25.921875 0 46.933594 21.011719 46.933594 46.933594v64c0 4.710937-3.820313 8.53125-8.53125 8.53125zm0 0" fill="#2fa8cc"/><path d="m206.324219 259.15625c-13.84375 10.992188-24.3125 25.660156-30.207031 42.328125-1.191407 3.410156-4.40625 5.703125-8.019532 5.714844-.964844-.003907-1.917968-.175781-2.816406-.511719-2.140625-.730469-3.894531-2.289062-4.875-4.328125-.980469-2.035156-1.097656-4.382813-.332031-6.507813 5.136719-14.808593 13.433593-28.320312 24.320312-39.59375 5.828125 1.402344 11.980469.011719 16.640625-3.757812 2.21875-1.707031 4.523438-3.410156 6.828125-5.035156 2.773438 3.660156 2.089844 8.875-1.539062 11.691406zm0 0" fill="#285680"/><path d="m484.597656 446.890625c-2.390625 4.847656-5.160156 9.496094-8.277344 13.910156h-117.84375c-19.03125 0-51.203124-7.167969-51.203124-34.132812 0-4.714844 3.820312-8.535157 8.535156-8.535157 4.710937 0 8.53125 3.820313 8.53125 8.535157 0 16.296875 33.792968 17.066406 34.136718 17.066406h119.464844c2.582032 0 5.023438 1.15625 6.65625 3.15625zm0 0" fill="#285680"/><path d="m298.742188 238.933594c-4.714844 0-8.535157-3.820313-8.535157-8.535156v-59.730469c0-4.714844 3.820313-8.535157 8.535157-8.535157 4.710937 0 8.53125 3.820313 8.53125 8.535157v59.730469c0 4.714843-3.820313 8.535156-8.53125 8.535156zm0 0" fill="#2fa8cc"/><path d="m349.941406 102.398438c-4.710937 0-8.535156-3.820313-8.535156-8.53125v-51.199219c0-4.714844 3.824219-8.535157 8.535156-8.535157 4.710938 0 8.535156 3.820313 8.535156 8.535157v51.199219c0 4.710937-3.824218 8.53125-8.535156 8.53125zm0 0" fill="#2fa8cc"/><path d="m263.183594 449.296875c-4.335938 12.5625-21.332032 42.785156-85.8125 52.386719-1.738282.257812-3.453125-.574219-4.328125-2.097656-.871094-1.527344-.722657-3.429688.378906-4.796876 6.527344-7.679687 13.609375-21.769531 14.328125-46.832031.023438-2.339843 1.925781-4.222656 4.265625-4.222656h67.121094c1.359375.003906 2.632812.65625 3.433593 1.757813.796876 1.097656 1.027344 2.511718.613282 3.804687zm0 0" fill="#285680"/><path d="m418.207031 332.800781c0 9.425781-7.640625 17.066407-17.066406 17.066407s-17.066406-7.640626-17.066406-17.066407 7.640625-17.066406 17.066406-17.066406 17.066406 7.640625 17.066406 17.066406zm0 0" fill="#fff"/><path d="m409.675781 332.800781c0 4.710938-3.820312 8.53125-8.535156 8.53125-4.710937 0-8.53125-3.820312-8.53125-8.53125 0-4.714843 3.820313-8.535156 8.53125-8.535156 4.714844 0 8.535156 3.820313 8.535156 8.535156zm0 0" fill="#2c2f38"/><path d="m401.140625 324.265625c-.019531 4.007813-2.824219 7.464844-6.742187 8.304687-3.917969.839844-7.894532-1.15625-9.554688-4.804687 1.695312-5.367187 5.898438-9.570313 11.261719-11.265625 3.058593 1.375 5.027343 4.414062 5.035156 7.765625zm0 0" fill="#fff"/></svg>